<?xml version="1.0" encoding="UTF-8"?>
<svg version="1.1" xmlns="http://www.w3.org/2000/svg" width="160" height="160">
<path d="M0 0 C10.26528562 7.1836989 15.96833205 15.86906813 18.43359375 28.08203125 C18.92711696 30.95528279 19.37061867 33.82505715 19.75390625 36.71484375 C19.91246094 35.67585938 20.07101563 34.636875 20.234375 33.56640625 C22.17043679 21.69056332 25.07260527 10.49138128 35.1640625 2.90234375 C44.8480958 -3.63540025 54.01420531 -6.61158999 65.75390625 -5.28515625 C77.41988383 -2.71605592 89.92044785 5.89491093 96.75390625 15.71484375 C97.1387583 18.78973307 97.21141894 20.7901662 95.828125 23.5859375 C88.53125613 31.82831614 78.36261305 36.64100051 68.75390625 41.71484375 C69.41390625 42.37484375 70.07390625 43.03484375 70.75390625 43.71484375 C70.75390625 44.70484375 70.75390625 45.69484375 70.75390625 46.71484375 C67.75390625 48.90234375 67.75390625 48.90234375 64.75390625 50.71484375 C62.51417618 49.67496907 60.79692587 48.75483782 58.9765625 47.0625 C56.7866512 45.42288129 56.7866512 45.42288129 53.984375 46.04296875 C52.98019531 46.3471875 51.97601563 46.65140625 50.94140625 46.96484375 C49.87535156 47.26519531 48.80929688 47.56554688 47.7109375 47.875 C46.73511719 48.15214844 45.75929688 48.42929687 44.75390625 48.71484375 C36.07540506 50.36076639 28.71506279 50.69542202 20.75390625 46.71484375 C17.45971728 46.71484375 14.73673657 48.40658484 11.75390625 49.71484375 C10.26890625 50.20984375 10.26890625 50.20984375 8.75390625 50.71484375 C9.41390625 51.70484375 10.07390625 52.69484375 10.75390625 53.71484375 C11.74873828 59.54991622 11.40136742 64.48556474 8.19140625 69.52734375 C5.56295818 73.01942476 2.62154214 75.85051661 -0.828125 78.5234375 C-2.39338058 79.67849704 -2.39338058 79.67849704 -3.24609375 81.71484375 C-2.52421875 81.94171875 -1.80234375 82.16859375 -1.05859375 82.40234375 C2.6852371 84.14946481 4.38090023 85.25703498 6.75390625 88.71484375 C7.66216616 95.32731544 7.90023564 101.21854665 3.75390625 106.71484375 C-2.06364173 110.37774433 -7.75019304 111.62043898 -14.48828125 112.80859375 C-17.32544333 113.45534501 -17.32544333 113.45534501 -18.6953125 115.58984375 C-19.48003092 118.61740986 -18.51692177 120.59730974 -17.0703125 123.27734375 C-12.93479844 128.80316981 -7.44000278 133.21145442 -2.24609375 137.71484375 C-2.81954312 140.58209061 -3.10754525 141.57629525 -5.24609375 143.71484375 C-13.96670866 142.78927268 -20.07274638 137.35819992 -25.6171875 130.99609375 C-28.91821661 126.37306976 -29.84159862 122.37214005 -29.24609375 116.71484375 C-25.881732 109.98612024 -20.36891367 106.25383419 -13.40625 103.9140625 C-11.71099529 103.39697709 -10.01163336 102.89318178 -8.30859375 102.40234375 C-6.99665039 102.00692383 -6.99665039 102.00692383 -5.65820312 101.60351562 C-3.52404952 100.96210334 -1.38709986 100.33291563 0.75390625 99.71484375 C-1.46537569 96.80681914 -3.17578518 94.76171613 -6.24609375 92.71484375 C-9.88440616 90.28930215 -12.29000484 87.62702156 -14.24609375 83.71484375 C-14.81555322 79.58626258 -15.14160647 77.11234811 -12.859375 73.55078125 C-9.63160903 69.81189399 -6.09726043 66.7957771 -2.24609375 63.71484375 C-0.24905578 60.59489217 -0.08742233 58.59380943 -0.62109375 54.96484375 C-0.73195312 54.165625 -0.8428125 53.36640625 -0.95703125 52.54296875 C-1.10011719 51.63804688 -1.10011719 51.63804688 -1.24609375 50.71484375 C-5.72210466 48.94308943 -10.20900344 47.40513822 -14.82128906 46.02099609 C-30.45654776 41.30211263 -47.40360883 35.54752527 -57.24609375 21.71484375 C-58.06640625 19.7421875 -58.06640625 19.7421875 -58.24609375 17.71484375 C-52.26066411 7.62388475 -40.42690188 -1.38102306 -29.33203125 -4.890625 C-19.11467602 -6.82312103 -9.00214694 -5.15079364 0 0 Z " fill="#E78B3E" transform="translate(61.24609375,6.28515625)"/>
<path d="M0 0 C11.05536115 8.54205603 11.05536115 8.54205603 14.375 13.3125 C14.75985205 16.38738932 14.83251269 18.38782245 13.44921875 21.18359375 C6.15234988 29.42597239 -4.0162932 34.23865676 -13.625 39.3125 C-12.965 39.9725 -12.305 40.6325 -11.625 41.3125 C-11.625 42.3025 -11.625 43.2925 -11.625 44.3125 C-14.625 46.5 -14.625 46.5 -17.625 48.3125 C-19.86473007 47.27262532 -21.58198038 46.35249407 -23.40234375 44.66015625 C-25.59225505 43.02053754 -25.59225505 43.02053754 -28.39453125 43.640625 C-29.39871094 43.94484375 -30.40289062 44.2490625 -31.4375 44.5625 C-32.50355469 44.86285156 -33.56960937 45.16320313 -34.66796875 45.47265625 C-35.64378906 45.74980469 -36.61960938 46.02695312 -37.625 46.3125 C-46.30350119 47.95842264 -53.66384346 48.29307827 -61.625 44.3125 C-63.6995356 44.1634288 -63.6995356 44.1634288 -65.625 45.3125 C-67.33202735 45.38246014 -69.04168003 45.39690154 -70.75 45.375 C-71.66007812 45.36597656 -72.57015625 45.35695312 -73.5078125 45.34765625 C-74.20648438 45.33605469 -74.90515625 45.32445312 -75.625 45.3125 C-72.625 43.3125 -72.625 43.3125 -70.625 42.3125 C-70.955 41.3225 -71.285 40.3325 -71.625 39.3125 C-72.285 39.3125 -72.945 39.3125 -73.625 39.3125 C-73.851875 38.405 -74.07875 37.4975 -74.3125 36.5625 C-75.82378665 32.8202664 -77.24882838 31.45348688 -80.625 29.3125 C-81.615 29.3125 -82.605 29.3125 -83.625 29.3125 C-84.285 30.3025 -84.945 31.2925 -85.625 32.3125 C-89.585 31.3225 -93.545 30.3325 -97.625 29.3125 C-97.625 23.3125 -97.625 23.3125 -94.625 19.3125 C-89.015 21.6225 -83.405 23.9325 -77.625 26.3125 C-77.295 19.7125 -76.965 13.1125 -76.625 6.3125 C-75.635 6.9725 -74.645 7.6325 -73.625 8.3125 C-73.625 8.9725 -73.625 9.6325 -73.625 10.3125 C-72.84511719 10.37824219 -72.06523438 10.44398437 -71.26171875 10.51171875 C-68.625 11.3125 -68.625 11.3125 -67.33203125 13.39453125 C-65.06869103 20.30315488 -63.58109035 27.10408198 -62.625 34.3125 C-62.46644531 33.27351563 -62.30789062 32.23453125 -62.14453125 31.1640625 C-60.20846946 19.28821957 -57.30630098 8.08903753 -47.21484375 0.5 C-31.73345025 -9.95157367 -15.58914628 -10.86253448 0 0 Z " fill="#E1973A" transform="translate(143.625,8.6875)"/>
<path d="M0 0 C11.05536115 8.54205603 11.05536115 8.54205603 14.375 13.3125 C14.61328125 16.5859375 14.61328125 16.5859375 14.375 19.3125 C14.045 19.3125 13.715 19.3125 13.375 19.3125 C12.385 16.3425 12.385 16.3425 11.375 13.3125 C-8.88354427 12.29163271 -25.22364077 17.24921124 -43.625 25.3125 C-45.28848626 25.98706333 -46.95370149 26.65753167 -48.625 27.3125 C-48.625 24.6725 -48.625 22.0325 -48.625 19.3125 C-49.945 18.9825 -51.265 18.6525 -52.625 18.3125 C-53.285 20.2925 -53.945 22.2725 -54.625 24.3125 C-55.615 24.3125 -56.605 24.3125 -57.625 24.3125 C-57.625 22.6625 -57.625 21.0125 -57.625 19.3125 C-58.285 21.2925 -58.945 23.2725 -59.625 25.3125 C-61.10000028 21.47383468 -60.11630061 19.2015617 -58.5625 15.5 C-53.83599277 4.88789658 -46.78960656 -1.0940573 -36.11328125 -5.79296875 C-23.08608764 -10.26123322 -11.10858412 -7.74047378 0 0 Z " fill="#F2AF54" transform="translate(143.625,8.6875)"/>
<path d="M0 0 C4.30127037 3.10148528 8.12068529 6.69017569 11.68359375 10.609375 C11.68359375 11.269375 11.68359375 11.929375 11.68359375 12.609375 C10.69359375 12.609375 9.70359375 12.609375 8.68359375 12.609375 C8.02359375 11.619375 7.36359375 10.629375 6.68359375 9.609375 C6.59271484 11.28966797 6.59271484 11.28966797 6.5 13.00390625 C6.41557951 14.47657484 6.33093226 15.94923044 6.24609375 17.421875 C6.20677734 18.15986328 6.16746094 18.89785156 6.12695312 19.65820312 C5.9397834 22.84008842 5.69638582 25.57099878 4.68359375 28.609375 C1.32557912 28.01782679 -1.65050927 27.18411219 -4.79296875 25.8671875 C-5.62352783 25.52437744 -6.45408691 25.18156738 -7.30981445 24.82836914 C-8.17823975 24.46735107 -9.04666504 24.10633301 -9.94140625 23.734375 C-22.35649656 18.67363897 -33.84038577 15.74801018 -47.25390625 15.046875 C-48.03314453 15.00369141 -48.81238281 14.96050781 -49.61523438 14.91601562 C-51.51547742 14.81109423 -53.41592294 14.7098505 -55.31640625 14.609375 C-41.17210529 -2.71739368 -21.30843797 -12.79224944 0 0 Z " fill="#F2AE52" transform="translate(61.31640625,6.390625)"/>
<path d="M0 0 C0.84884766 -0.00773437 1.69769531 -0.01546875 2.57226562 -0.0234375 C3.38244141 -0.02085938 4.19261719 -0.01828125 5.02734375 -0.015625 C5.7555835 -0.01336914 6.48382324 -0.01111328 7.23413086 -0.00878906 C9.0625 0.25 9.0625 0.25 11.0625 2.25 C11.75 5.375 11.75 5.375 11.0625 9.25 C7.14816995 13.79728555 2.35496981 17.44052333 -2.9375 20.25 C-6.25 20.4375 -6.25 20.4375 -8.9375 20.25 C-8.9375 20.91 -8.9375 21.57 -8.9375 22.25 C-10.2575 22.58 -11.5775 22.91 -12.9375 23.25 C-13.2778125 21.7340625 -13.2778125 21.7340625 -13.625 20.1875 C-14.82881659 15.93516946 -17.02563117 12.55385117 -19.9375 9.25 C-20.5975 8.92 -21.2575 8.59 -21.9375 8.25 C-22.02636184 11.44902639 -21.84808531 14.17677456 -20.9375 17.25 C-20.2775 17.25 -19.6175 17.25 -18.9375 17.25 C-18.2775 19.23 -17.6175 21.21 -16.9375 23.25 C-18.5875 24.24 -20.2375 25.23 -21.9375 26.25 C-25.28462372 21.22931442 -25.54499804 17.51647025 -24.4296875 11.51953125 C-24.26726562 10.77058594 -24.10484375 10.02164062 -23.9375 9.25 C-24.75734375 9.65992188 -25.5771875 10.06984375 -26.421875 10.4921875 C-35.9375 15.25 -35.9375 15.25 -38.265625 16.3203125 C-40.1206224 17.14594772 -40.1206224 17.14594772 -40.9375 19.25 C-42.9175 18.92 -44.8975 18.59 -46.9375 18.25 C-46.9375 17.59 -46.9375 16.93 -46.9375 16.25 C-50.1405436 17.76723118 -51.6727578 18.70790883 -53.25 21.9375 C-54.06231587 25.85138556 -54.07511508 29.25916273 -53.9375 33.25 C-58.42779126 33.61407767 -58.42779126 33.61407767 -60.6875 32 C-64.36919768 26.84562325 -63.36521942 19.24520057 -62.9375 13.25 C-62.19357666 10.33918369 -61.22301867 7.98172717 -59.9375 5.25 C-58.89300089 8.38349732 -59.00326355 9.23968256 -59.9375 12.25 C-58.9475 12.25 -57.9575 12.25 -56.9375 12.25 C-56.6075 9.94 -56.2775 7.63 -55.9375 5.25 C-53.4625 6.24 -53.4625 6.24 -50.9375 7.25 C-50.9375 9.89 -50.9375 12.53 -50.9375 15.25 C-50.13570312 14.81429687 -49.33390625 14.37859375 -48.5078125 13.9296875 C-41.69615795 10.36167798 -34.92999231 7.35820695 -27.625 4.9375 C-26.89748535 4.69563965 -26.1699707 4.4537793 -25.42041016 4.20458984 C-16.88032668 1.46349542 -8.9924556 -0.08463488 0 0 Z " fill="#CC7C1E" transform="translate(145.9375,20.75)"/>
<path d="M0 0 C7.05191396 0.3439958 12.5781316 4.17701158 17.25 9.25 C32.81243738 28.78762519 27.3113832 60.57936047 24.72509766 83.42871094 C23.3506865 94.6493135 23.3506865 94.6493135 22 96 C20.00041636 96.04080783 17.99954746 96.04254356 16 96 C16.00666183 95.26243469 16.01332367 94.52486938 16.02018738 93.76495361 C16.08066717 86.76383747 16.12615977 79.76281406 16.15543652 72.76150894 C16.17099475 69.16331961 16.19204913 65.56534879 16.22631836 61.96728516 C16.25926816 58.4853785 16.2769267 55.00368004 16.28463173 51.52162933 C16.29275243 49.56767399 16.31611272 47.61380069 16.33988953 45.65997314 C16.342097 33.77122534 14.65481254 22.50308993 7 13 C4.15600272 10.41159071 1.19143355 8.14180652 -2 6 C-1.125 1.125 -1.125 1.125 0 0 Z " fill="#FA5578" transform="translate(107,55)"/>
<path d="M0 0 C1.98 0.99 3.96 1.98 6 3 C4.70384976 6.42632519 3.21044415 9.53844623 1.35546875 12.6953125 C0.84306641 13.57703125 0.33066406 14.45875 -0.19726562 15.3671875 C-1.2608747 17.18316816 -2.325942 18.99829566 -3.39257812 20.8125 C-13.19090168 37.69350687 -16.41239537 53.42613279 -18.65869141 72.625 C-18.97214731 74.80618671 -19.4215623 76.87557843 -20 79 C-22.33294775 79.04241723 -24.66702567 79.04092937 -27 79 C-29.90587876 76.09412124 -29.13324955 67.53067027 -29.25 63.5 C-28.96819259 41.32175691 -20.78369108 20.26859372 -4.9375 4.625 C-3.30417249 3.07009013 -1.66300579 1.52312679 0 0 Z " fill="#3B7DFA" transform="translate(39,52)"/>
<path d="M0 0 C0 4.38968456 -2.12805101 5.76905739 -5 9 C-4.278125 9.226875 -3.55625 9.45375 -2.8125 9.6875 C0.93133085 11.43462106 2.62699398 12.54219123 5 16 C5.90825991 22.61247169 6.14632939 28.5037029 2 34 C-3.81754798 37.66290058 -9.50409929 38.90559523 -16.2421875 40.09375 C-19.07934958 40.74050126 -19.07934958 40.74050126 -20.44921875 42.875 C-21.23393717 45.90256611 -20.27082802 47.88246599 -18.82421875 50.5625 C-14.68870469 56.08832606 -9.19390903 60.49661067 -4 65 C-4.57344937 67.86724686 -4.8614515 68.8614515 -7 71 C-15.72061491 70.07442893 -21.82665263 64.64335617 -27.37109375 58.28125 C-30.67212286 53.65822601 -31.59550487 49.6572963 -31 44 C-27.63563825 37.27127649 -22.12281992 33.53899044 -15.16015625 31.19921875 C-13.46490154 30.68213334 -11.76553961 30.17833803 -10.0625 29.6875 C-9.18787109 29.42388672 -8.31324219 29.16027344 -7.41210938 28.88867188 C-5.27795577 28.24725959 -3.14100611 27.61807188 -1 27 C-3.21928194 24.09197539 -4.92969143 22.04687238 -8 20 C-11.63831241 17.5744584 -14.04391109 14.91217781 -16 11 C-16.039992 9.00039988 -16.04346799 6.99952758 -16 5 C-15.01 4.67 -14.02 4.34 -13 4 C-12.67 5.65 -12.34 7.3 -12 9 C-8.5176374 8.74204721 -7.81191289 7.78438795 -5.4375 5.0625 C-4.633125 4.051875 -3.82875 3.04125 -3 2 C-2.01 1.34 -1.02 0.68 0 0 Z " fill="#F64C78" transform="translate(63,79)"/>
<path d="M0 0 C-0.37489608 3.24909933 -1.30876426 4.36279801 -3.5 6.9375 C-5.99592362 9.99500643 -6.44262584 11.25672579 -7 15 C-6.09636719 15.26554687 -5.19273438 15.53109375 -4.26171875 15.8046875 C-2.49248047 16.33449219 -2.49248047 16.33449219 -0.6875 16.875 C0.48425781 17.22304687 1.65601563 17.57109375 2.86328125 17.9296875 C6 19 6 19 9 21 C8.58054933 25.8935912 6.64295977 27.83220889 3 31 C1.75911234 31.90841354 0.50889075 32.80420422 -0.75 33.6875 C-4.00635047 35.62145364 -4.00635047 35.62145364 -5 38 C-3.75863281 38.09796875 -2.51726562 38.1959375 -1.23828125 38.296875 C0.40372974 38.44700172 2.04565263 38.59809431 3.6875 38.75 C4.50412109 38.811875 5.32074219 38.87375 6.16210938 38.9375 C11.24766199 39.43164276 14.30166286 40.1776555 18 44 C19.50475088 47.00950175 19.42392641 48.60858868 19 52 C16.39721483 57.53746912 13.37349492 62.80494897 8 66 C7.01 66 6.02 66 5 66 C5.30082197 61.18684844 7.76264353 58.56297659 10.6328125 54.9375 C12.23278429 52.6701114 12.82699619 50.76806097 13 48 C8.89838198 46.0501778 5.51376159 45.77991538 1 45.6875 C-6.71458088 45.22608226 -6.71458088 45.22608226 -9.4375 42.75 C-11 40 -11 40 -10.9140625 37.59765625 C-9.6885416 34.11487249 -7.87224557 32.87927201 -4.9375 30.6875 C-4.01839844 29.99011719 -3.09929687 29.29273437 -2.15234375 28.57421875 C-1.08693359 27.79498047 -1.08693359 27.79498047 0 27 C-0.66386719 26.82984375 -1.32773438 26.6596875 -2.01171875 26.484375 C-8.01040754 24.83801954 -12.41429078 23.29090265 -16.375 18.25 C-17.37200244 14.6607912 -17.12555322 11.49376925 -16 8 C-11.84095489 1.43510725 -7.85910322 -1.78615982 0 0 Z " fill="#6485DE" transform="translate(91,76)"/>
<path d="M0 0 C2.84014741 -0.31083158 5.41108135 -0.42470869 8.25 -0.375 C9.45922119 -0.36303589 9.45922119 -0.36303589 10.69287109 -0.35083008 C20.92615939 -0.11122434 30.55139618 2.0315864 40 6 C37.89851796 9.98175544 35.63094642 12.35039045 32 15 C31.505 14.01 31.505 14.01 31 13 C31.96885372 11.31503702 32.96986723 9.64821244 34 8 C34 7.34 34 6.68 34 6 C29.91566041 7.90602514 27.99102421 9.55860909 26.4375 13.8125 C25.34263544 16.84826081 24.49962889 19.80237512 24 23 C23.34 23 22.68 23 22 23 C22 22.34 22 21.68 22 21 C20.35 20.67 18.7 20.34 17 20 C17 19.34 17 18.68 17 18 C14.55839569 16.77919784 14.44835233 16.95524194 11.73046875 17.2265625 C6.59888956 16.80076623 3.32606077 12.66262645 0 9 C-1.6875 5.6875 -1.6875 5.6875 -2 3 C-1.34 2.01 -0.68 1.02 0 0 Z " fill="#B26F1E" transform="translate(5,21)"/>
<path d="M0 0 C1.32 0 2.64 0 4 0 C4.33 0.66 4.66 1.32 5 2 C5.66 1.67 6.32 1.34 7 1 C9.28915632 6.55937963 9.46571192 11.88874192 9.6875 17.8125 C9.73455078 18.77865234 9.78160156 19.74480469 9.83007812 20.74023438 C10.05518365 25.99146646 10.05518365 25.99146646 10 28 C9 29 9 29 6.71484375 29.09765625 C5.34005859 29.08025391 5.34005859 29.08025391 3.9375 29.0625 C3.01839844 29.05347656 2.09929687 29.04445313 1.15234375 29.03515625 C0.44207031 29.02355469 -0.26820312 29.01195313 -1 29 C2 27 2 27 4 26 C3.67 25.01 3.34 24.02 3 23 C2.34 23 1.68 23 1 23 C0.773125 22.0925 0.54625 21.185 0.3125 20.25 C-1.19878665 16.5077664 -2.62382838 15.14098688 -6 13 C-6.99 13 -7.98 13 -9 13 C-9.99 14.485 -9.99 14.485 -11 16 C-16.94 14.515 -16.94 14.515 -23 13 C-23 7 -23 7 -20 3 C-11.585 6.465 -11.585 6.465 -3 10 C-2.67 7.69 -2.34 5.38 -2 3 C-1.34 3 -0.68 3 0 3 C0 2.01 0 1.02 0 0 Z " fill="#B77019" transform="translate(69,25)"/>
<path d="M0 0 C1.485 0.99 1.485 0.99 3 2 C3 2.66 3 3.32 3 4 C3.77988281 4.06574219 4.55976562 4.13148437 5.36328125 4.19921875 C8 5 8 5 9.29296875 7.08203125 C11.55630897 13.99065488 13.04390965 20.79158198 14 28 C14.33 25.36 14.66 22.72 15 20 C15.33 20 15.66 20 16 20 C16.66 25.28 17.32 30.56 18 36 C19.65 36.33 21.3 36.66 23 37 C23.495 37.495 23.495 37.495 24 38 C23.9175 36.9275 23.835 35.855 23.75 34.75 C24 31 24 31 25.9375 28.75 C26.618125 28.1725 27.29875 27.595 28 27 C28.33 26.01 28.66 25.02 29 24 C29.66 24 30.32 24 31 24 C31 25.32 31 26.64 31 28 C32.65 27.67 34.3 27.34 36 27 C36.66 30.3 37.32 33.6 38 37 C39.65 37.33 41.3 37.66 43 38 C36.931988 41.6408072 28.89971951 41.66449947 22 41 C19.51246092 40.20026781 17.35781867 39.15484996 15 38 C14.01 38 13.02 38 12 38 C11.9498877 37.38479492 11.89977539 36.76958984 11.84814453 36.13574219 C11.61558163 33.33971386 11.37042613 30.54492737 11.125 27.75 C11.04636719 26.78191406 10.96773437 25.81382813 10.88671875 24.81640625 C10.80292969 23.88183594 10.71914062 22.94726562 10.6328125 21.984375 C10.55949707 21.12553711 10.48618164 20.26669922 10.41064453 19.38183594 C9.98069092 16.88800275 9.33047925 15.14624318 8 13 C7.34 12.67 6.68 12.34 6 12 C6 11.34 6 10.68 6 10 C4.68 10 3.36 10 2 10 C2 10.99 2 11.98 2 13 C1.01 13.33 0.02 13.66 -1 14 C-0.67 9.38 -0.34 4.76 0 0 Z " fill="#E2A950" transform="translate(67,15)"/>
<path d="M0 0 C-0.37489608 3.24909933 -1.30876426 4.36279801 -3.5 6.9375 C-6.40819768 10.01224044 -6.40819768 10.01224044 -7 15 C-2.71 16.32 1.58 17.64 6 19 C6.33 20.98 6.66 22.96 7 25 C2.73252686 27.13373657 -2.81389329 26.650627 -7.296875 25.31640625 C-11.97330644 23.19794765 -14.8707343 20.81399201 -17 16 C-17.19347951 9.90539553 -15.70982938 6.913179 -11.66796875 2.4453125 C-7.65196065 -1.03460084 -5.14950506 -1.17034206 0 0 Z " fill="#5586F9" transform="translate(91,76)"/>
<path d="M0 0 C0.84884766 -0.00773437 1.69769531 -0.01546875 2.57226562 -0.0234375 C3.38244141 -0.02085938 4.19261719 -0.01828125 5.02734375 -0.015625 C5.7555835 -0.01336914 6.48382324 -0.01111328 7.23413086 -0.00878906 C9.0625 0.25 9.0625 0.25 11.0625 2.25 C11.625 5.5 11.625 5.5 11.0625 9.25 C8.30432635 12.82688225 5.12633778 14.84574164 0.9375 16.4375 C-3.09735491 16.17435729 -4.22077169 14.10604771 -6.9375 11.25 C-7.7625 11.270625 -8.5875 11.29125 -9.4375 11.3125 C-10.2625 11.291875 -11.0875 11.27125 -11.9375 11.25 C-14.625 8.3125 -14.625 8.3125 -16.9375 5.25 C-17.5975 4.92 -18.2575 4.59 -18.9375 4.25 C-18.9375 3.59 -18.9375 2.93 -18.9375 2.25 C-12.55041511 0.55910281 -6.59606874 -0.06208065 0 0 Z " fill="#AE6A19" transform="translate(145.9375,20.75)"/>
<path d="M0 0 C1.68762851 1.6454378 3.3540349 3.31288577 5 5 C6.98723268 5.70381157 8.98777953 6.3711811 11 7 C12.678298 8.31866272 14.34614767 9.65080468 16 11 C18.18214568 11.77833534 18.18214568 11.77833534 20 12 C15.81413519 15.18923033 13.29441695 16.50423019 8 16 C8 16.66 8 17.32 8 18 C6.68 18.33 5.36 18.66 4 19 C3.6596875 17.4840625 3.6596875 17.4840625 3.3125 15.9375 C2.10868341 11.68516946 -0.08813117 8.30385117 -3 5 C-3.66 4.67 -4.32 4.34 -5 4 C-5.08886184 7.19902639 -4.91058531 9.92677456 -4 13 C-3.34 13 -2.68 13 -2 13 C-1.34 14.98 -0.68 16.96 0 19 C-1.65 19.99 -3.3 20.98 -5 22 C-8.40409031 16.89386453 -8.53632906 13.15093323 -7.5 7.0625 C-7.335 6.381875 -7.17 5.70125 -7 5 C-8.32 5.33 -9.64 5.66 -11 6 C-10.67 4.68 -10.34 3.36 -10 2 C-10.66 1.67 -11.32 1.34 -12 1 C-7.5703672 -0.79294661 -4.60908439 -1.47098438 0 0 Z " fill="#DB8429" transform="translate(129,25)"/>
<path d="M0 0 C11.05536115 8.54205603 11.05536115 8.54205603 14.375 13.3125 C14.61328125 16.5859375 14.61328125 16.5859375 14.375 19.3125 C14.045 19.3125 13.715 19.3125 13.375 19.3125 C13.148125 18.384375 12.92125 17.45625 12.6875 16.5 C11.09682528 12.63693282 9.89942464 12.3595907 6.375 10.3125 C3.80842601 8.06273748 1.34730332 5.72364488 -1.125 3.37109375 C-3.61408209 1.32149022 -5.60128782 0.34990369 -8.625 -0.6875 C-9.759375 -1.22375 -10.89375 -1.76 -12.0625 -2.3125 C-20.73210682 -5.502261 -30.78848069 -4.56853889 -39.21484375 -1.09375 C-44.05071203 1.72782631 -47.06728272 5.97592407 -50.125 10.5625 C-50.62 11.14 -51.115 11.7175 -51.625 12.3125 C-52.615 12.3125 -53.605 12.3125 -54.625 12.3125 C-54.625 12.9725 -54.625 13.6325 -54.625 14.3125 C-55.615 14.6425 -56.605 14.9725 -57.625 15.3125 C-55.69183801 7.38653584 -50.97542213 2.99701275 -44.375 -1.4375 C-29.50758645 -10.36597372 -14.26890874 -9.94259149 0 0 Z " fill="#EFC576" transform="translate(143.625,8.6875)"/>
<path d="M0 0 C4 6 4 6 4 11 C4.66 11 5.32 11 6 11 C5.85882937 15.08350813 5.71118323 19.16675906 5.5625 23.25 C5.50352539 24.95929688 5.50352539 24.95929688 5.44335938 26.703125 C5.24019686 32.2041409 4.9691407 37.67370837 4.46875 43.15625 C3.96195519 48.86680065 3.88421934 54.52027994 3.9375 60.25 C3.94201172 61.19746094 3.94652344 62.14492187 3.95117188 63.12109375 C3.96275289 65.41413442 3.97905521 67.70702914 4 70 C2.68 70 1.36 70 0 70 C0 46.9 0 23.8 0 0 Z " fill="#DE4E6C" transform="translate(123,80)"/>
<path d="M0 0 C2 2 2 2 3.3125 5.375 C6.59095673 12.28909941 13.32643553 17.08072445 19 22 C18.42655063 24.86724686 18.1385485 25.8614515 16 28 C12.36243009 27.64110932 9.54825207 26.44860038 6.375 24.6875 C5.61960937 24.27886719 4.86421875 23.87023437 4.0859375 23.44921875 C1.82945125 21.88151014 0.52045007 20.27099071 -1 18 C-0.01 17.67 0.98 17.34 2 17 C1.505 16.34 1.01 15.68 0.5 15 C-1.76233339 10.47533323 -1.49534874 6.47674372 -0.5 1.5 C-0.335 1.005 -0.17 0.51 0 0 Z " fill="#FD6A92" transform="translate(40,122)"/>
<path d="M0 0 C2 2 2 2 2.125 5.125 C2.08375 6.07375 2.0425 7.0225 2 8 C2.99 8.33 3.98 8.66 5 9 C5.14285714 17.57142857 5.14285714 17.57142857 4 21 C4.66 21.33 5.32 21.66 6 22 C3 24 3 24 1 24 C-1.31742209 26.19857993 -3.51681721 28.42018065 -5.5625 30.875 C-6.2740625 31.431875 -6.2740625 31.431875 -7 32 C-9.1875 31.6875 -9.1875 31.6875 -11 31 C-11 29.35 -11 27.7 -11 26 C-11.99 26.33 -12.98 26.66 -14 27 C-12.61173666 22.52758345 -10.56221053 20.41463816 -7 17.4375 C-2.62265357 13.86037977 -2.62265357 13.86037977 0 9 C0.23979762 6.63777768 0.23979762 6.63777768 0.125 4.25 C0.09792969 3.05117188 0.09792969 3.05117188 0.0703125 1.828125 C0.04710937 1.22484375 0.02390625 0.6215625 0 0 Z " fill="#FBB5E2" transform="translate(61,57)"/>
<path d="M0 0 C6.03644661 -0.62879652 10.15193876 -0.12140077 15.13671875 3.46484375 C16.05904297 4.22474609 16.05904297 4.22474609 17 5 C17.60457031 5.49628906 18.20914063 5.99257813 18.83203125 6.50390625 C22.35812204 9.93090316 23.42449693 12.63680782 23.625 17.5625 C23.34307774 22.56146295 22.38474937 25.32512926 19 29 C18.01 29.33 17.02 29.66 16 30 C16 26.04 16 22.08 16 18 C15.34 17.67 14.68 17.34 14 17 C13.71125 15.741875 13.4225 14.48375 13.125 13.1875 C12.21614557 9.32486869 11.28587656 7.4211722 8 5 C5.38107504 3.55507589 2.7207524 2.24150838 0 1 C0 0.67 0 0.34 0 0 Z " fill="#F5648A" transform="translate(49,48)"/>
<path d="M0 0 C1.32 0.33 2.64 0.66 4 1 C3.34 1 2.68 1 2 1 C2.1141866 2.93816735 2.24173423 4.87555099 2.375 6.8125 C2.44460937 7.89144531 2.51421875 8.97039063 2.5859375 10.08203125 C2.81195733 13.18626186 2.81195733 13.18626186 5 16 C3.41642541 15.68872484 1.83315007 15.37592711 0.25 15.0625 C-0.63171875 14.88847656 -1.5134375 14.71445312 -2.421875 14.53515625 C-4.63235053 14.07631512 -6.81512068 13.56663926 -9 13 C-9.99 14.485 -9.99 14.485 -11 16 C-16.94 14.515 -16.94 14.515 -23 13 C-23 7 -23 7 -20 3 C-11.585 6.465 -11.585 6.465 -3 10 C-2.67 7.69 -2.34 5.38 -2 3 C-1.34 3 -0.68 3 0 3 C0 2.01 0 1.02 0 0 Z " fill="#CC7F23" transform="translate(69,25)"/>
<path d="M0 0 C2.17984425 0.36623727 4.34554055 0.81837941 6.5 1.3125 C7.6859375 1.57675781 8.871875 1.84101563 10.09375 2.11328125 C11.0528125 2.40589844 12.011875 2.69851562 13 3 C13.33 3.66 13.66 4.32 14 5 C13.07038578 6.15224028 12.1309875 7.29659176 11.1875 8.4375 C10.66542969 9.07558594 10.14335938 9.71367188 9.60546875 10.37109375 C8 12 8 12 5 13 C5.309375 12.2575 5.61875 11.515 5.9375 10.75 C6.8094925 8.49307824 7.47667007 6.3549847 8 4 C3.91566041 5.90602514 1.99102421 7.55860909 0.4375 11.8125 C-0.65736456 14.84826081 -1.50037111 17.80237512 -2 21 C-2.66 21 -3.32 21 -4 21 C-4 20.34 -4 19.68 -4 19 C-5.65 18.67 -7.3 18.34 -9 18 C-9 17.34 -9 16.68 -9 16 C-9.66 15.67 -10.32 15.34 -11 15 C-8.21310246 9.55665544 -5.58815498 5.07835998 -1 1 C-0.67 0.67 -0.34 0.34 0 0 Z " fill="#C77111" transform="translate(31,23)"/>
<path d="M0 0 C4.92331356 2.10999153 6.55247649 5.281713 8.88671875 9.84375 C10.05133673 12.19743548 10.05133673 12.19743548 12 15 C12.66 15 13.32 15 14 15 C14 14.34 14 13.68 14 13 C15.32 13.33 16.64 13.66 18 14 C14.37 15.98 10.74 17.96 7 20 C7.66 20.66 8.32 21.32 9 22 C9 22.99 9 23.98 9 25 C6 27.1875 6 27.1875 3 29 C0.13302508 27.71480435 -1.97607712 26.42870746 -4 24 C-4 23.34 -4 22.68 -4 22 C0.35294118 18 0.35294118 18 4 18 C4.98120464 14.94736336 4.98120464 13.05263664 4 10 C3.34 10 2.68 10 2 10 C-0.09350689 6.5980513 -0.17942163 3.94727588 0 0 Z " fill="#D18542" transform="translate(123,28)"/>
<path d="M0 0 C1.32 0.66 2.64 1.32 4 2 C3.09189066 5.74595102 1.53015971 7.54243401 -1.375 9.875 C-6.35180226 13.9643945 -10.07909219 18.92407686 -13.96240234 24.02099609 C-15.26701008 25.71328785 -16.62895356 27.36107218 -18 29 C-18.66 29 -19.32 29 -20 29 C-20 29.66 -20 30.32 -20 31 C-20.66 31 -21.32 31 -22 31 C-20.63762215 26.33403233 -18.67982711 22.37983661 -16.0625 18.3125 C-15.67715088 17.71034668 -15.29180176 17.10819336 -14.89477539 16.48779297 C-10.70400767 10.18459899 -5.56844442 5.10007059 0 0 Z " fill="#4287FE" transform="translate(39,52)"/>
<path d="M0 0 C0.96164063 0.01417969 1.92328125 0.02835938 2.9140625 0.04296875 C3.87054688 0.04941406 4.82703125 0.05585937 5.8125 0.0625 C8.21153199 0.21029137 10.22681494 0.63719471 12.5390625 1.23046875 C13.87689643 0.91568429 15.21109959 0.58459219 16.5390625 0.23046875 C17.1990625 0.56046875 17.8590625 0.89046875 18.5390625 1.23046875 C18.5390625 3.87046875 18.5390625 6.51046875 18.5390625 9.23046875 C17.70890625 9.06546875 16.87875 8.90046875 16.0234375 8.73046875 C12.22132207 8.18487371 8.62789642 8.16977572 4.7890625 8.23046875 C-2.24040518 8.34073491 -2.24040518 8.34073491 -4.4609375 7.23046875 C-4.5859375 4.85546875 -4.5859375 4.85546875 -4.4609375 2.23046875 C-2.4609375 0.23046875 -2.4609375 0.23046875 0 0 Z " fill="#EBB55A" transform="translate(45.4609375,40.76953125)"/>
<path d="M0 0 C0.33 0 0.66 0 1 0 C3.43196817 20.88886944 2.14110819 43.36405749 -2 64 C-3 65 -3 65 -6.0625 65.0625 C-7.031875 65.041875 -8.00125 65.02125 -9 65 C-9 64.67 -9 64.34 -9 64 C-7.35 64 -5.7 64 -4 64 C-4.03480469 63.10474609 -4.03480469 63.10474609 -4.0703125 62.19140625 C-4.18772804 56.54707336 -3.81789096 51.15798862 -3.0625 45.5625 C-1.83006912 36.33601044 -1.58585094 27.0949448 -1.34204102 17.79711914 C-1.1769428 11.79434981 -0.8885943 5.94109742 0 0 Z " fill="#F9AECC" transform="translate(132,86)"/>
<path d="M0 0 C0 4.38968456 -2.12805101 5.76905739 -5 9 C-4.21625 9.268125 -3.4325 9.53625 -2.625 9.8125 C0 11 0 11 2 14 C1.401875 14.103125 0.80375 14.20625 0.1875 14.3125 C-2.33421352 15.10503854 -3.39685699 15.91591409 -5 18 C-5 18.99 -5 19.98 -5 21 C-10.02898754 19.56314642 -11.95677502 17.05763331 -15 13 C-16.35439668 10.29120665 -16.06501451 7.99066732 -16 5 C-15.01 4.67 -14.02 4.34 -13 4 C-12.67 5.65 -12.34 7.3 -12 9 C-8.5176374 8.74204721 -7.81191289 7.78438795 -5.4375 5.0625 C-4.633125 4.051875 -3.82875 3.04125 -3 2 C-2.01 1.34 -1.02 0.68 0 0 Z " fill="#F66088" transform="translate(63,79)"/>
<path d="M0 0 C1.485 0.99 1.485 0.99 3 2 C3 2.66 3 3.32 3 4 C3.77988281 4.06574219 4.55976562 4.13148437 5.36328125 4.19921875 C8 5 8 5 9.29296875 7.08203125 C11.55630897 13.99065488 13.04390965 20.79158198 14 28 C14.33 25.36 14.66 22.72 15 20 C15.33 20 15.66 20 16 20 C16.19916016 21.69769531 16.19916016 21.69769531 16.40234375 23.4296875 C16.5805342 24.91148179 16.75893029 26.39325136 16.9375 27.875 C17.02451172 28.62136719 17.11152344 29.36773437 17.20117188 30.13671875 C17.63326063 34.1953231 17.63326063 34.1953231 19 38 C17.824375 37.7215625 17.824375 37.7215625 16.625 37.4375 C14.02910225 36.74037734 14.02910225 36.74037734 12 38 C11.9498877 37.38479492 11.89977539 36.76958984 11.84814453 36.13574219 C11.61558163 33.33971386 11.37042613 30.54492737 11.125 27.75 C11.04636719 26.78191406 10.96773437 25.81382813 10.88671875 24.81640625 C10.80292969 23.88183594 10.71914062 22.94726562 10.6328125 21.984375 C10.55949707 21.12553711 10.48618164 20.26669922 10.41064453 19.38183594 C9.98069092 16.88800275 9.33047925 15.14624318 8 13 C7.34 12.67 6.68 12.34 6 12 C6 11.34 6 10.68 6 10 C4.68 10 3.36 10 2 10 C2 10.99 2 11.98 2 13 C1.01 13.33 0.02 13.66 -1 14 C-0.67 9.38 -0.34 4.76 0 0 Z " fill="#D8A44B" transform="translate(67,15)"/>
<path d="M0 0 C5.10971195 4.19726339 7.69974249 10.61698131 9 17 C9.37832234 26.12631148 8.89094949 35.31444772 8.5625 44.4375 C8.52318359 45.66404297 8.48386719 46.89058594 8.44335938 48.15429688 C8.40146484 49.33958984 8.35957031 50.52488281 8.31640625 51.74609375 C8.26141968 53.33442017 8.26141968 53.33442017 8.20532227 54.95483398 C7.99840726 58.02362219 7.55645086 60.97672071 7 64 C6.67 64 6.34 64 6 64 C6.33 51.13 6.66 38.26 7 25 C6.34 25 5.68 25 5 25 C4.15688881 21.77330584 3.32726132 18.54329082 2.5 15.3125 C2.14228516 13.94448242 2.14228516 13.94448242 1.77734375 12.54882812 C1.55175781 11.66259766 1.32617188 10.77636719 1.09375 9.86328125 C0.88427734 9.05157471 0.67480469 8.23986816 0.45898438 7.40356445 C-0.02272289 4.881007 -0.07974843 2.56191817 0 0 Z " fill="#FE6C91" transform="translate(123,64)"/>
<path d="M0 0 C0.99 0.33 1.98 0.66 3 1 C2.58054933 5.8935912 0.64295977 7.83220889 -3 11 C-4.24088766 11.90841354 -5.49110925 12.80420422 -6.75 13.6875 C-10.00635047 15.62145364 -10.00635047 15.62145364 -11 18 C-9.73542969 18.10957031 -8.47085938 18.21914062 -7.16796875 18.33203125 C-5.50774514 18.49148775 -3.84759233 18.65168251 -2.1875 18.8125 C-1.35412109 18.88275391 -0.52074219 18.95300781 0.33789062 19.02539062 C1.14033203 19.10595703 1.94277344 19.18652344 2.76953125 19.26953125 C3.50792236 19.33760986 4.24631348 19.40568848 5.00708008 19.47583008 C7.41838529 20.11004205 8.4065212 21.12441153 10 23 C9.34 23.33 8.68 23.66 8 24 C8 23.34 8 22.68 8 22 C0.74 21.34 -6.52 20.68 -14 20 C-14.33 20.99 -14.66 21.98 -15 23 C-17 20 -17 20 -16.94140625 17.578125 C-15.6827643 14.13122174 -13.86911356 12.91057033 -10.9375 10.75 C-9.28107489 9.5140699 -7.63215494 8.26780819 -6 7 C-6 6.67 -6 6.34 -6 6 C-2.535 5.505 -2.535 5.505 1 5 C0.67 3.35 0.34 1.7 0 0 Z " fill="#6F8BE1" transform="translate(97,96)"/>
<path d="M0 0 C0.66 0 1.32 0 2 0 C2.32010321 19.11016151 1.43701606 37.95571531 0 57 C-0.66 56.67 -1.32 56.34 -2 56 C-2.42305653 37.29150002 -1.14698896 18.66297462 0 0 Z " fill="#FE577E" transform="translate(128,93)"/>
<path d="M0 0 C1.95917659 0.0868748 3.91741871 0.19504512 5.875 0.3125 C7.51082031 0.39951172 7.51082031 0.39951172 9.1796875 0.48828125 C10.11039063 0.65714844 11.04109375 0.82601562 12 1 C14 4 14 4 14 8 C9.07015675 10.03993514 5.42039575 11.40652968 0 11 C0 7.37 0 3.74 0 0 Z " fill="#ECB04D" transform="translate(107,40)"/>
<path d="M0 0 C2.62431483 1.31215742 4.2062114 2.67471849 6 5 C6 7.87286773 4.98378448 9.02142765 3.25 11.3125 C1 13 1 13 -1.5 13 C-4.41591582 11.83363367 -5.9524947 10.35083942 -8 8 C-6.44999682 4.38332591 -4.37586887 0 0 0 Z " fill="#F8EE69" transform="translate(19,138)"/>
<path d="M0 0 C2.25 0.9375 2.25 0.9375 3.625 2.6875 C4.44310418 5.63267503 4.4166551 7.0937782 3.25 9.9375 C-1.61206897 12.9375 -1.61206897 12.9375 -4.75 12.9375 C-8.75 6.3125 -8.75 6.3125 -8.75 2.9375 C-3.55839895 -0.0808727 -3.55839895 -0.0808727 0 0 Z " fill="#FCBEE3" transform="translate(145.75,135.0625)"/>
<path d="M0 0 C2.07160645 1.70167673 2.92419192 2.8850023 3.75 5.4375 C3.6875 7.5 3.6875 7.5 2.75 9.4375 C0.32245661 11.34016914 -1.25163664 12.4375 -4.375 12.4375 C-7.13090884 10.96768195 -8.00342367 9.25869907 -9.25 6.4375 C-9.3125 4.3125 -9.3125 4.3125 -8.25 2.4375 C-3.34090909 -0.83522727 -3.34090909 -0.83522727 0 0 Z " fill="#F9F67D" transform="translate(115.25,94.5625)"/>
<path d="M0 0 C0 1.98 0 3.96 0 6 C0.66 6 1.32 6 2 6 C2.33 4.68 2.66 3.36 3 2 C3.95006857 4.8502057 3.97268258 6.86049867 3.875 9.9375 C3.80388062 13.74949855 4.72834181 15.87646999 7 19 C7 19.33 7 19.66 7 20 C4.8125 20.4375 4.8125 20.4375 2 20 C-1.82248255 16.06104291 -3.85713057 12.000172 -4.25 6.5 C-4 3 -4 3 -2.5625 1.0625 C-1 0 -1 0 0 0 Z " fill="#FE4672" transform="translate(36,120)"/>
<path d="M0 0 C-0.47501758 2.21674869 -1.0198699 4.03857099 -2.0625 6.0625 C-3.21778046 8.09134681 -3.21778046 8.09134681 -3 11 C1.29 12.32 5.58 13.64 10 15 C10 15.33 10 15.66 10 16 C7.93816367 16.08150744 5.87538651 16.1394194 3.8125 16.1875 C2.08966797 16.23970703 2.08966797 16.23970703 0.33203125 16.29296875 C-3.30439725 15.97323588 -5.05293828 15.07812345 -8 13 C-8.66 12.67 -9.32 12.34 -10 12 C-10.5 9.375 -10.5 9.375 -10 6 C-7.3186356 3.28190458 -3.96635229 0 0 0 Z " fill="#4988FC" transform="translate(87,80)"/>
<path d="M0 0 C5.875 1.875 5.875 1.875 7 3 C9.18292774 3.23481693 11.37203174 3.41363323 13.5625 3.5625 C15.35880859 3.68818359 15.35880859 3.68818359 17.19140625 3.81640625 C18.11824219 3.87699219 19.04507813 3.93757813 20 4 C20.33 5.65 20.66 7.3 21 9 C16.64703336 11.17648332 10.80298722 10.31356299 6.125 9.5 C2.78134757 7.13977475 1.54329473 3.70735605 0 0 Z " fill="#2F65DF" transform="translate(77,92)"/>
<path d="M0 0 C2.71553069 1.48916199 4.15053751 3.57351654 5.9375 6.0625 C4.54948929 9.41685922 3.05121 11.17540303 -0.0625 13.0625 C-1.0525 13.0625 -2.0425 13.0625 -3.0625 13.0625 C-7.0625 7.91964286 -7.0625 7.91964286 -7.0625 4.0625 C-3.09375 0.09375 -3.09375 0.09375 0 0 Z " fill="#7EA7F9" transform="translate(72.0625,132.9375)"/>
<path d="M0 0 C3.2542015 2.83430453 4.5206753 4.68607774 5 9 C0.75757576 13 0.75757576 13 -2.6875 13 C-5 12 -5 12 -6.3125 10.1875 C-7 8 -7 8 -7 4 C-4.69 2.68 -2.38 1.36 0 0 Z " fill="#F4B887" transform="translate(154,100)"/>
<path d="M0 0 C2.9719385 1.12451727 5.33440687 2.22293791 8 4 C7.43454163 7.95820859 6.19097652 10.6659053 4 14 C1.0280615 12.87548273 -1.33440687 11.77706209 -4 10 C-3.43454163 6.04179141 -2.19097652 3.3340947 0 0 Z " fill="#F7597F" transform="translate(31,97)"/>
<path d="M0 0 C2 2 2 2 2.125 5.125 C2.08375 6.07375 2.0425 7.0225 2 8 C2.99 8.33 3.98 8.66 5 9 C5.14285714 17.57142857 5.14285714 17.57142857 4 21 C4.66 21.33 5.32 21.66 6 22 C3 24 3 24 1 24 C-0.56266521 25.099763 -0.56266521 25.099763 -2.125 26.5 C-3.548125 27.7375 -3.548125 27.7375 -5 29 C-4.52727227 24.74545047 -2.03562624 22.80795427 1 20 C2.20561184 19.01732141 2.20561184 19.01732141 2.09765625 17.15234375 C2.08605469 16.42144531 2.07445313 15.69054687 2.0625 14.9375 C2.041875 13.638125 2.02125 12.33875 2 11 C0.9578443 12.18707084 -0.08369093 13.37468641 -1.125 14.5625 C-1.76179688 15.28695312 -2.39859375 16.01140625 -3.0546875 16.7578125 C-4.28492119 18.1757927 -5.50056795 19.60667913 -6.6953125 21.0546875 C-7.20835938 21.67601563 -7.72140625 22.29734375 -8.25 22.9375 C-8.93835937 23.78634766 -8.93835937 23.78634766 -9.640625 24.65234375 C-11 26 -11 26 -14 27 C-12.61173666 22.52758345 -10.56221053 20.41463816 -7 17.4375 C-2.62265357 13.86037977 -2.62265357 13.86037977 0 9 C0.23979762 6.63777768 0.23979762 6.63777768 0.125 4.25 C0.09792969 3.05117188 0.09792969 3.05117188 0.0703125 1.828125 C0.04710937 1.22484375 0.02390625 0.6215625 0 0 Z " fill="#F8A3BC" transform="translate(61,57)"/>
<path d="M0 0 C2.25964485 1.05920852 4.07478713 2.35607514 6 3.9375 C5.40072174 7.29345828 4.15377564 9.31551226 2 11.9375 C-1.82097239 11.40680939 -4.06171403 10.44048434 -7 7.9375 C-6.43702903 3.99670324 -4.46467185 -0.139521 0 0 Z " fill="#FE83B3" transform="translate(21,50.0625)"/>
<path d="M0 0 C3.52069985 0.58678331 5.71299843 1.35649921 9 3 C8.34 5.97 7.68 8.94 7 12 C3.28111761 11.49287967 0.26545761 10.88391785 -3 9 C-2.5020163 5.26512223 -2.12508244 3.18762365 0 0 Z " fill="#FCB468" transform="translate(135,67)"/>
<path d="M0 0 C3.36720387 1.39332574 4.9859524 2.9789286 7 6 C5.60667426 9.36720387 4.0210714 10.9859524 1 13 C-2.35435922 11.61198929 -4.11290303 10.11371 -6 7 C-6 6.01 -6 5.02 -6 4 C-3 1.8125 -3 1.8125 0 0 Z " fill="#649DFA" transform="translate(114,141)"/>
<path d="M0 0 C4 6.75 4 6.75 4 9 C-1.29411765 13 -1.29411765 13 -5 13 C-7.11296702 10.35879123 -8.01875756 8.78781739 -7.9375 5.375 C-6.35336687 1.36186273 -4.27154774 0 0 0 Z " fill="#F57D9A" transform="translate(101,67)"/>
<path d="M0 0 C7.14869872 -0.74465612 11.36982126 0.56718959 17 5 C19.52437922 7.07128552 20.74642798 8.21815293 21.75 11.3125 C22.05157538 14.55443533 22.06380207 17.74609454 22 21 C21.67 21 21.34 21 21 21 C20.773125 19.9275 20.54625 18.855 20.3125 17.75 C18.84018404 13.54338297 17.47624558 12.58490056 14 10 C13.1875 7.75 13.1875 7.75 13 6 C12.34 5.9175 11.68 5.835 11 5.75 C7.00960837 4.75240209 3.61450357 2.92833317 0 1 C0 0.67 0 0.34 0 0 Z " fill="#F22F5D" transform="translate(49,48)"/>
<path d="M0 0 C0.9075 0.103125 1.815 0.20625 2.75 0.3125 C2.75 0.6425 2.75 0.9725 2.75 1.3125 C0.77 1.9725 -1.21 2.6325 -3.25 3.3125 C-3.58 4.9625 -3.91 6.6125 -4.25 8.3125 C-3.095 8.23 -1.94 8.1475 -0.75 8.0625 C5.67193357 8.05111359 10.90743138 11.27702615 15.75 15.3125 C15.42 15.9725 15.09 16.6325 14.75 17.3125 C13.76 16.920625 12.77 16.52875 11.75 16.125 C6.72848191 14.23178851 1.60651952 12.6765181 -3.52539062 11.11450195 C-7.1732164 9.99640628 -10.73330141 8.79429339 -14.25 7.3125 C-13.651875 7.168125 -13.05375 7.02375 -12.4375 6.875 C-8.27120334 5.87690999 -8.27120334 5.87690999 -5.4375 2.75 C-3.25 0.3125 -3.25 0.3125 0 0 Z " fill="#DE9D51" transform="translate(45.25,39.6875)"/>
<path d="M0 0 C3 1 3 1 5 4 C4.9765625 6.91796875 4.9765625 6.91796875 4.625 10.1875 C4.45871094 11.81751953 4.45871094 11.81751953 4.2890625 13.48046875 C4.14597656 14.72763672 4.14597656 14.72763672 4 16 C3.34 16 2.68 16 2 16 C2 16.99 2 17.98 2 19 C1.34 19 0.68 19 0 19 C0.66 17.02 1.32 15.04 2 13 C1.401875 12.7525 0.80375 12.505 0.1875 12.25 C-2.28647521 10.83629988 -3.43370255 9.34944617 -5 7 C-3.70700306 4.11562221 -2.34058637 2.12780579 0 0 Z " fill="#D83B60" transform="translate(62,92)"/>
<path d="M0 0 C0.99 0.66 1.98 1.32 3 2 C3.3984375 4.86328125 3.3984375 4.86328125 3.375 8.3125 C3.38273437 9.44300781 3.39046875 10.57351562 3.3984375 11.73828125 C2.95281398 15.38627775 2.44564282 17.24676087 0 20 C-3.13671875 20.70703125 -3.13671875 20.70703125 -6.6875 20.8125 C-7.86699219 20.86019531 -9.04648437 20.90789062 -10.26171875 20.95703125 C-11.16535156 20.97121094 -12.06898437 20.98539063 -13 21 C-12.67 19.35 -12.34 17.7 -12 16 C-8.37 15.01 -4.74 14.02 -1 13 C-1.66 14.65 -2.32 16.3 -3 18 C-2.34 18 -1.68 18 -1 18 C-1 17.01 -1 16.02 -1 15 C-0.34 15 0.32 15 1 15 C1.02703381 13.06257659 1.04641125 11.12504521 1.0625 9.1875 C1.07410156 8.10855469 1.08570312 7.02960938 1.09765625 5.91796875 C1.13624766 2.93487831 1.13624766 2.93487831 0 0 Z " fill="#F2436E" transform="translate(65,93)"/>
<path d="M0 0 C1 3 1 3 -0.4375 6.1875 C-1.2109375 7.5796875 -1.2109375 7.5796875 -2 9 C-4.64 8.67 -7.28 8.34 -10 8 C-10.66 9.65 -11.32 11.3 -12 13 C-12.33 12.34 -12.66 11.68 -13 11 C-14.98 11.33 -16.96 11.66 -19 12 C-19 10.68 -19 9.36 -19 8 C-19.66 8 -20.32 8 -21 8 C-21.12375 8.639375 -21.2475 9.27875 -21.375 9.9375 C-21.58125 10.618125 -21.7875 11.29875 -22 12 C-22.99 12.495 -22.99 12.495 -24 13 C-23.25 8.25 -23.25 8.25 -21 6 C-20.01 6 -19.02 6 -18 6 C-18 6.66 -18 7.32 -18 8 C-15.03 8.495 -15.03 8.495 -12 9 C-11.67 8.01 -11.34 7.02 -11 6 C-8.49609375 4.39453125 -8.49609375 4.39453125 -5.4375 2.8125 C-3.91962891 2.01779297 -3.91962891 2.01779297 -2.37109375 1.20703125 C-1.58863281 0.80871094 -0.80617188 0.41039063 0 0 Z " fill="#DA8C2D" transform="translate(117,31)"/>
<path d="M0 0 C0.99 1.485 0.99 1.485 2 3 C6.47526289 9.68265608 11.898538 14.79084667 18 20 C17.67 21.32 17.34 22.64 17 24 C16.67 23.01 16.34 22.02 16 21 C14.06669397 19.90833725 14.06669397 19.90833725 12 19 C11.34 18.34 10.68 17.68 10 17 C9.236875 16.731875 8.47375 16.46375 7.6875 16.1875 C4.09094554 14.59832477 2.33250022 13.19885744 0 10 C-0.41356339 6.62428887 -0.29553928 3.38228289 0 0 Z " fill="#FAA3C4" transform="translate(41,124)"/>
<path d="M0 0 C1.953125 0.7734375 1.953125 0.7734375 4 2 C4.75 5.625 4.75 5.625 5 9 C5.66 9 6.32 9 7 9 C7.66 10.32 8.32 11.64 9 13 C8.01 13.33 7.02 13.66 6 14 C8.97 14.495 8.97 14.495 12 15 C8.88900839 16.84355058 6.60870475 17.63152333 3 17 C0.625 15.25 0.625 15.25 -1 12 C-1.03165445 7.9429543 -0.58841871 4.01020139 0 0 Z " fill="#C58535" transform="translate(65,39)"/>
<path d="M0 0 C2.81887051 2.81887051 3.2255686 6.11071301 4.125 9.875 C4.30675781 10.59558594 4.48851563 11.31617187 4.67578125 12.05859375 C5.51856938 15.49945053 6 18.43681883 6 22 C6.66 22 7.32 22 8 22 C7.67 23.32 7.34 24.64 7 26 C7 25.34 7 24.68 7 24 C6.34 24 5.68 24 5 24 C4.01 21.36 3.02 18.72 2 16 C1.34 16.66 0.68 17.32 0 18 C-0.26554687 17.25234375 -0.53109375 16.5046875 -0.8046875 15.734375 C-1.15789062 14.74953125 -1.51109375 13.7646875 -1.875 12.75 C-2.22304687 11.77546875 -2.57109375 10.8009375 -2.9296875 9.796875 C-3.83274645 7.43705673 -4.82078418 5.23094884 -6 3 C-5.01 2.67 -4.02 2.34 -3 2 C-2.01 3.98 -1.02 5.96 0 8 C0 5.36 0 2.72 0 0 Z " fill="#FC4D71" transform="translate(122,67)"/>
<path d="M0 0 C2.51739388 0.99370811 3.7826636 1.75851335 5.375 3.9375 C5.375 4.9275 5.375 5.9175 5.375 6.9375 C2.375 9.125 2.375 9.125 -0.625 10.9375 C-3.49197492 9.65230435 -5.60107712 8.36620746 -7.625 5.9375 C-7.625 3.9375 -7.625 3.9375 -5.4375 1.75 C-2.625 -0.0625 -2.625 -0.0625 0 0 Z " fill="#5C93F6" transform="translate(126.625,46.0625)"/>
<path d="M0 0 C1.1240625 -0.01417969 2.248125 -0.02835937 3.40625 -0.04296875 C6.36976056 0.17779782 8.0067415 0.6414353 10.5 2.1875 C9.27925781 2.15527344 8.05851562 2.12304688 6.80078125 2.08984375 C-3.98025398 2.07337913 -10.52342687 3.22446124 -18.8359375 10.25390625 C-21.74661111 12.36649194 -22.99638046 12.63978543 -26.5 12.1875 C-19.65802375 4.16587267 -10.39618223 0.05961114 0 0 Z " fill="#F2C780" transform="translate(40.5,0.8125)"/>
<path d="M0 0 C0.33 1.32 0.66 2.64 1 4 C1.59014893 4.01458252 2.18029785 4.02916504 2.78833008 4.04418945 C5.46371229 4.11868844 8.13784892 4.21533995 10.8125 4.3125 C11.74126953 4.33505859 12.67003906 4.35761719 13.62695312 4.38085938 C14.51962891 4.41630859 15.41230469 4.45175781 16.33203125 4.48828125 C17.56530151 4.52755737 17.56530151 4.52755737 18.82348633 4.56762695 C21.42606532 5.08463956 22.33910717 5.98202695 24 8 C23.67 8.99 23.34 9.98 23 11 C22.01 10.34 21.02 9.68 20 9 C17.87662229 8.63566627 17.87662229 8.63566627 15.55078125 8.5859375 C14.70322266 8.54726562 13.85566406 8.50859375 12.98242188 8.46875 C12.10134766 8.4378125 11.22027344 8.406875 10.3125 8.375 C9.41982422 8.33632812 8.52714844 8.29765625 7.60742188 8.2578125 C5.4051538 8.16359782 3.20289278 8.07798412 1 8 C0.67 5.36 0.34 2.72 0 0 Z " fill="#2A58E0" transform="translate(82,112)"/>
<path d="M0 0 C0.99 0.66 1.98 1.32 3 2 C2.2884375 2.34546875 1.576875 2.6909375 0.84375 3.046875 C-2.84933618 5.58333529 -4.95654535 8.60936883 -7.5 12.25 C-7.96019531 12.89324219 -8.42039062 13.53648438 -8.89453125 14.19921875 C-10.75064379 16.7977763 -12.59438298 19.40185772 -14.38671875 22.04492188 C-15.54402184 23.72996875 -16.76673583 25.36972613 -18 27 C-18.66 27 -19.32 27 -20 27 C-16.73904834 15.84754532 -8.24170373 7.78570783 0 0 Z " fill="#84ACFC" transform="translate(39,52)"/>
<path d="M0 0 C4.62 0 9.24 0 14 0 C11.63398693 4.73202614 11.63398693 4.73202614 8 6 C5.640625 6.1953125 5.640625 6.1953125 3.25 6.125 C2.45078125 6.10695313 1.6515625 6.08890625 0.828125 6.0703125 C0.22484375 6.04710937 -0.3784375 6.02390625 -1 6 C-0.67 4.02 -0.34 2.04 0 0 Z " fill="#C66E0C" transform="translate(6,21)"/>
<path d="M0 0 C0.33 0.99 0.66 1.98 1 3 C1.61488281 3.06058594 2.22976562 3.12117188 2.86328125 3.18359375 C3.67152344 3.26738281 4.47976562 3.35117187 5.3125 3.4375 C6.11300781 3.51871094 6.91351563 3.59992187 7.73828125 3.68359375 C10 4 10 4 13 5 C13.66 4.01 14.32 3.02 15 2 C18.875 2.875 18.875 2.875 20 4 C20.07244053 6.01964199 20.08377188 8.04167124 20.0625 10.0625 C20.05347656 11.16722656 20.04445313 12.27195312 20.03515625 13.41015625 C20.02355469 14.26480469 20.01195313 15.11945312 20 16 C19.01 15.67 18.02 15.34 17 15 C17.66 15 18.32 15 19 15 C19 12.36 19 9.72 19 7 C17.9275 7.226875 16.855 7.45375 15.75 7.6875 C9.90920704 8.46487173 4.56249248 6.64093528 -1 5 C-0.67 3.35 -0.34 1.7 0 0 Z " fill="#D89334" transform="translate(45,35)"/>
<path d="M0 0 C1.04449911 3.13349732 0.93423645 3.98968256 0 7 C0.66 7 1.32 7 2 7 C1.67 9.97 1.34 12.94 1 16 C1.66 16.33 2.32 16.66 3 17 C1.71034824 18.37562854 0.37310707 19.70766393 -1 21 C-1.66 21 -2.32 21 -3 21 C-3.31806054 13.2723068 -3.32270836 7.06075526 0 0 Z " fill="#A76109" transform="translate(86,26)"/>
<path d="M0 0 C0.99 0.33 1.98 0.66 3 1 C1.34724308 8.68138452 -1.39511391 13.50260488 -7 19 C-7.78744155 16.70879911 -8.14674563 15.43663576 -7.36328125 13.10546875 C-7.01652344 12.47253906 -6.66976562 11.83960938 -6.3125 11.1875 C-5.75755859 10.15689453 -5.75755859 10.15689453 -5.19140625 9.10546875 C-4.79824219 8.41066406 -4.40507813 7.71585938 -4 7 C-3.61714844 6.31550781 -3.23429687 5.63101563 -2.83984375 4.92578125 C-1.90638636 3.27633861 -0.9549657 1.63708406 0 0 Z " fill="#DB9351" transform="translate(45,27)"/>
<path d="M0 0 C5.56690074 4.57281132 7.96546931 11.05697244 8.75 18.0625 C8.87375 20.0115625 8.87375 20.0115625 9 22 C8.01 21.67 7.02 21.34 6 21 C5.33984375 19.1875 5.33984375 19.1875 4.9375 17 C4.57299127 14.85944703 4.57299127 14.85944703 4 13 C3.34 12.67 2.68 12.34 2 12 C1.3671875 9.78515625 1.3671875 9.78515625 0.875 7.0625 C0.70742187 6.16660156 0.53984375 5.27070312 0.3671875 4.34765625 C0 2 0 2 0 0 Z " fill="#FD7FA3" transform="translate(123,64)"/>
<path d="M0 0 C0.33 0.99 0.66 1.98 1 3 C0.34 3 -0.32 3 -1 3 C-0.67 6.3 -0.34 9.6 0 13 C-3.375 8.5 -3.375 8.5 -4 5 C-4.99 5.33 -5.98 5.66 -7 6 C-8.5 4.6875 -8.5 4.6875 -10 3 C-10 2.01 -10 1.02 -10 0 C-6.42355152 -1.2380014 -3.66305234 -0.74926071 0 0 Z " fill="#F24466" transform="translate(123,64)"/>
<path d="M0 0 C0.78375 0.04125 1.5675 0.0825 2.375 0.125 C3.035 1.775 3.695 3.425 4.375 5.125 C6.025 5.125 7.675 5.125 9.375 5.125 C9.375 5.455 9.375 5.785 9.375 6.125 C4.20930559 7.91717969 0.86446087 8.24529814 -4.625 7.125 C-4.75 4.75 -4.75 4.75 -4.625 2.125 C-2.625 0.125 -2.625 0.125 0 0 Z " fill="#EED26C" transform="translate(45.625,40.875)"/>
<path d="M0 0 C-0.39832031 0.45890625 -0.79664062 0.9178125 -1.20703125 1.390625 C-2.00173828 2.31101562 -2.00173828 2.31101562 -2.8125 3.25 C-3.36164063 3.88550781 -3.91078125 4.52101563 -4.4765625 5.17578125 C-6.09124587 7.05356752 -6.09124587 7.05356752 -7.6875 9.4375 C-8.120625 9.953125 -8.55375 10.46875 -9 11 C-9.99 11 -10.98 11 -12 11 C-12 11.66 -12 12.32 -12 13 C-12.99 13.33 -13.98 13.66 -15 14 C-13.65626597 8.49069046 -10.96769813 4.91378919 -7 1 C-4.53721199 -0.231394 -2.7204945 -0.07159196 0 0 Z " fill="#D1AE6A" transform="translate(101,10)"/>
<path d="M0 0 C0.33 0 0.66 0 1 0 C1.13277344 1.13179687 1.26554687 2.26359375 1.40234375 3.4296875 C1.5805342 4.91148179 1.75893029 6.39325136 1.9375 7.875 C2.02451172 8.62136719 2.11152344 9.36773437 2.20117188 10.13671875 C2.63326063 14.1953231 2.63326063 14.1953231 4 18 C3.21625 17.814375 2.4325 17.62875 1.625 17.4375 C-0.97089775 16.74037734 -0.97089775 16.74037734 -3 18 C-4.22517308 12.33357449 -4.09228867 6.76291482 -4 1 C-3.34 1 -2.68 1 -2 1 C-1.67 3.31 -1.34 5.62 -1 8 C-0.67 5.36 -0.34 2.72 0 0 Z " fill="#A5845B" transform="translate(82,35)"/>
<path d="M0 0 C0 3.87624922 -1.47244427 6.4560707 -3 10 C-3.69140522 12.77888613 -3.69140522 12.77888613 -4 15 C-6.31 14.34 -8.62 13.68 -11 13 C-10.01 12.67 -9.02 12.34 -8 12 C-7.855625 11.278125 -7.71125 10.55625 -7.5625 9.8125 C-7.04166667 7.20833333 -6.52083333 4.60416667 -6 2 C-5.34 2.33 -4.68 2.66 -4 3 C-2.68 2.01 -1.36 1.02 0 0 Z " fill="#E98F30" transform="translate(41,32)"/>
<path d="M0 0 C1.0625 2.375 1.0625 2.375 2 5 C3.52007842 6.77277259 3.52007842 6.77277259 5 8 C4.67 8.66 4.34 9.32 4 10 C-1.60739911 9.35915439 -5.37773002 6.19420735 -9 2 C-9 1.34 -9 0.68 -9 0 C-3.07058824 -1.48235294 -3.07058824 -1.48235294 0 0 Z " fill="#C37420" transform="translate(136,23)"/>
<path d="M0 0 C-1.97033203 0.09087891 -1.97033203 0.09087891 -3.98046875 0.18359375 C-5.71615541 0.26803256 -7.45183198 0.35267888 -9.1875 0.4375 C-10.48397461 0.49647461 -10.48397461 0.49647461 -11.80664062 0.55664062 C-15.95914122 0.76347016 -19.94537862 1.00103531 -24 2 C-24 2.66 -24 3.32 -24 4 C-29.45769231 7.10096154 -29.45769231 7.10096154 -32.203125 6.58984375 C-32.79609375 6.39519531 -33.3890625 6.20054688 -34 6 C-24.4892792 -0.72126358 -11.1044233 -5.94256688 0 0 Z " fill="#FAD28F" transform="translate(131,3)"/>
<path d="M0 0 C0.99 0 1.98 0 3 0 C3.66 2.31 4.32 4.62 5 7 C3.68 7 2.36 7 1 7 C0.67 8.65 0.34 10.3 0 12 C-0.99 12 -1.98 12 -3 12 C-3 10.35 -3 8.7 -3 7 C-3.66 8.98 -4.32 10.96 -5 13 C-6.07694171 10.19995156 -5.95876997 8.8088426 -5.3125 5.8125 C-4 3 -4 3 -1.875 2.125 C-1.25625 2.08375 -0.6375 2.0425 0 2 C0 1.34 0 0.68 0 0 Z " fill="#BC924D" transform="translate(89,21)"/>
<path d="M0 0 C1.93719378 -0.05406122 3.87481921 -0.09282025 5.8125 -0.125 C6.89144531 -0.14820312 7.97039062 -0.17140625 9.08203125 -0.1953125 C12 0 12 0 15 2 C15 2.99 15 3.98 15 5 C9.158256 5.35050464 5.1468192 5.16727335 0 2 C0 1.34 0 0.68 0 0 Z " fill="#CE6F07" transform="translate(141,22)"/>
<path d="M0 0 C1.32 0.33 2.64 0.66 4 1 C3.34 1 2.68 1 2 1 C2.1141866 2.93816735 2.24173423 4.87555099 2.375 6.8125 C2.44460937 7.89144531 2.51421875 8.97039063 2.5859375 10.08203125 C2.81195733 13.18626186 2.81195733 13.18626186 5 16 C1.56404834 14.47291037 -1.11912454 12.40072955 -4 10 C-3.34 7.69 -2.68 5.38 -2 3 C-1.34 3 -0.68 3 0 3 C0 2.01 0 1.02 0 0 Z " fill="#E19121" transform="translate(69,25)"/>
<path d="M0 0 C-0.825 0.969375 -1.65 1.93875 -2.5 2.9375 C-5.10539608 5.47022001 -5.10539608 5.47022001 -5 7 C-8.3 7.33 -11.6 7.66 -15 8 C-6.46979866 -3.23489933 -6.46979866 -3.23489933 0 0 Z " fill="#E7B869" transform="translate(21,13)"/>
<path d="M0 0 C1.80360629 2.29549891 2 3.65024868 2 6.5625 C1 9 1 9 -1.9375 10.8125 C-5 12 -5 12 -7 12 C-9 9 -9 9 -8.625 6.8125 C-8.41875 6.214375 -8.2125 5.61625 -8 5 C-7.01 6.485 -7.01 6.485 -6 8 C-4.35 7.67 -2.7 7.34 -1 7 C-0.7763932 4.0745356 -0.7763932 4.0745356 -2 2 C-4.64 2.33 -7.28 2.66 -10 3 C-6.6021013 -0.55234864 -4.88071947 -1.58623383 0 0 Z " fill="#F394B1" transform="translate(148,136)"/>
<path d="M0 0 C0.33 0 0.66 0 1 0 C1.95458649 8.35263176 2.11039334 16.59784035 2 25 C1.01 25.33 0.02 25.66 -1 26 C-1.02724423 23.16660035 -1.04695589 20.33346883 -1.0625 17.5 C-1.07087891 16.70851563 -1.07925781 15.91703125 -1.08789062 15.1015625 C-1.10891185 9.97238283 -0.73937287 5.07663894 0 0 Z " fill="#F9A1C4" transform="translate(132,86)"/>
<path d="M0 0 C-0.26171875 1.8984375 -0.26171875 1.8984375 -1 4 C-2.70703125 4.9765625 -2.70703125 4.9765625 -4.8125 5.625 C-5.53050781 5.86089844 -6.24851562 6.09679688 -6.98828125 6.33984375 C-7.98408203 6.66662109 -7.98408203 6.66662109 -9 7 C-10.3465266 7.63960014 -11.68922893 8.289999 -13 9 C-13 6.1875 -13 6.1875 -12 3 C-8.1366853 0.58653338 -4.50965243 0 0 0 Z " fill="#D17A15" transform="translate(119,27)"/>
<path d="M0 0 C3.98882376 1.53416298 7.64783382 4.4247074 10 8 C9.66796875 10.1953125 9.66796875 10.1953125 9 12 C7.0625 11.6875 7.0625 11.6875 5 11 C4.67 10.01 4.34 9.02 4 8 C3.34 8 2.68 8 2 8 C1.34 5.36 0.68 2.72 0 0 Z " fill="#DB8514" transform="translate(68,40)"/>
<path d="M0 0 C1.9375 0.9375 1.9375 0.9375 4 3 C4.66174825 5.9858081 4.87205948 8.94861869 5 12 C5.99 11.67 6.98 11.34 8 11 C7.25 13.375 7.25 13.375 6 16 C4.02 16.99 4.02 16.99 2 18 C2 14.04 2 10.08 2 6 C1.34 5.67 0.68 5.34 0 5 C0 3.35 0 1.7 0 0 Z " fill="#FA76A2" transform="translate(63,60)"/>
<path d="M0 0 C2.97 0.99 5.94 1.98 9 3 C6.89851796 6.98175544 4.63094642 9.35039045 1 12 C0.67 11.34 0.34 10.68 0 10 C0.96885372 8.31503702 1.96986723 6.64821244 3 5 C3 4.34 3 3.68 3 3 C2.38125 3.309375 1.7625 3.61875 1.125 3.9375 C-0.25 4.625 -1.625 5.3125 -3 6 C-2 4 -1 2 0 0 Z " fill="#CD7922" transform="translate(36,24)"/>
<path d="M0 0 C6.16529701 0.31616908 10.17268433 3.49215061 15 7 C10.64354586 8.45215138 8.62038572 7.22081526 4.3125 5.6875 C1 4 1 4 0.0625 1.8125 C0.041875 1.214375 0.02125 0.61625 0 0 Z " fill="#EFC477" transform="translate(51,3)"/>
<path d="M0 0 C2.02045442 0.60183749 4.02111039 1.27306096 6 2 C6.33 2.66 6.66 3.32 7 4 C6.401875 4.103125 5.80375 4.20625 5.1875 4.3125 C2.66578648 5.10503854 1.60314301 5.91591409 0 8 C0 8.99 0 9.98 0 11 C-2.4375 10.1875 -2.4375 10.1875 -5 9 C-5.33 8.01 -5.66 7.02 -6 6 C-5.38125 5.938125 -4.7625 5.87625 -4.125 5.8125 C-1.72238859 5.171081 -1.72238859 5.171081 -0.75 2.4375 C-0.5025 1.633125 -0.255 0.82875 0 0 Z " fill="#ED5376" transform="translate(58,89)"/>
<path d="M0 0 C0.99 0.33 1.98 0.66 3 1 C3.14285714 9.57142857 3.14285714 9.57142857 2 13 C2.66 13.33 3.32 13.66 4 14 C1 16 1 16 -1 16 C-2.56266521 17.099763 -2.56266521 17.099763 -4.125 18.5 C-5.548125 19.7375 -5.548125 19.7375 -7 21 C-6.52727227 16.74545047 -4.03562624 14.80795427 -1 12 C0.28612676 10.94021067 0.28612676 10.94021067 0.09765625 8.49609375 C0.08605469 7.48675781 0.07445312 6.47742188 0.0625 5.4375 C0.05347656 4.42558594 0.04445313 3.41367188 0.03515625 2.37109375 C0.02355469 1.58863281 0.01195312 0.80617188 0 0 Z " fill="#FB97C4" transform="translate(63,65)"/>
<path d="M0 0 C1.32 0.66 2.64 1.32 4 2 C3.67 3.65 3.34 5.3 3 7 C2.01 7.33 1.02 7.66 0 8 C0 8.66 0 9.32 0 10 C-1.32 10.33 -2.64 10.66 -4 11 C-3.67 9.02 -3.34 7.04 -3 5 C-2.34 5 -1.68 5 -1 5 C-0.67 3.35 -0.34 1.7 0 0 Z " fill="#EC8534" transform="translate(137,33)"/>
<path d="M0 0 C1.5 1.3125 1.5 1.3125 3 3 C3 3.99 3 4.98 3 6 C3.66 6 4.32 6 5 6 C4.3125 7.9375 4.3125 7.9375 3 10 C0.375 10.75 0.375 10.75 -2 11 C-2.25 3.375 -2.25 3.375 0 0 Z " fill="#F97191" transform="translate(98,69)"/>
<path d="M0 0 C4.45836229 0.50952712 6.58451895 2.19755401 10 5 C12.18214568 5.77833534 12.18214568 5.77833534 14 6 C8.58461538 10.06153846 8.58461538 10.06153846 5.625 9.75 C5.08875 9.5025 4.5525 9.255 4 9 C4.33 7.35 4.66 5.7 5 4 C3.02 3.34 1.04 2.68 -1 2 C-0.67 1.34 -0.34 0.68 0 0 Z " fill="#CC8238" transform="translate(135,31)"/>
<path d="M0 0 C0 3 0 3 -2 6 C-2.763125 5.67 -3.52625 5.34 -4.3125 5 C-6.99069135 3.82563314 -6.99069135 3.82563314 -10 4 C-10 3.34 -10 2.68 -10 2 C-10.66 1.67 -11.32 1.34 -12 1 C-7.53763531 -0.80619523 -4.68965706 -1.11658501 0 0 Z " fill="#CD7F27" transform="translate(129,25)"/>
<path d="M0 0 C1.24546405 2.49092811 0.7767578 3.41080733 0 6 C1.94014063 5.77139428 3.87717414 5.51630819 5.8125 5.25 C6.89144531 5.11078125 7.97039063 4.9715625 9.08203125 4.828125 C12.42407102 3.87964785 13.29042423 2.95126765 15 0 C15.99 0.33 16.98 0.66 18 1 C17.34 1 16.68 1 16 1 C15.731875 1.598125 15.46375 2.19625 15.1875 2.8125 C13.95733189 5.07859915 13.02748575 6.41487478 11 8 C8.73828125 8.07421875 8.73828125 8.07421875 6.3125 7.6875 C5.50425781 7.56761719 4.69601563 7.44773437 3.86328125 7.32421875 C3.24839844 7.21722656 2.63351563 7.11023438 2 7 C2.33 8.32 2.66 9.64 3 11 C-1.76132597 6.69944751 -1.76132597 6.69944751 -2 3 C-1.34 2.01 -0.68 1.02 0 0 Z " fill="#C38A46" transform="translate(5,21)"/>
<path d="M0 0 C0.66 0 1.32 0 2 0 C2.33 1.65 2.66 3.3 3 5 C4.32 5 5.64 5 7 5 C7 6.32 7 7.64 7 9 C5.35 9 3.7 9 2 9 C1.67 9.66 1.34 10.32 1 11 C-1.08997373 7.60379269 -1.2632246 4.94836905 -1 1 C-0.67 0.67 -0.34 0.34 0 0 Z " fill="#F683A4" transform="translate(48,83)"/>
<path d="M0 0 C2.0625 0.4375 2.0625 0.4375 4 1 C4 3.64 4 6.28 4 9 C1.03 8.505 1.03 8.505 -2 8 C-1.125 1.125 -1.125 1.125 0 0 Z " fill="#F0E176" transform="translate(60,41)"/>
<path d="M0 0 C0.66 0.33 1.32 0.66 2 1 C2.1357675 2.58093717 2.23234745 4.16526952 2.3125 5.75 C2.37050781 6.63171875 2.42851563 7.5134375 2.48828125 8.421875 C2 11 2 11 -0.51953125 13.328125 C-1.33808594 13.87984375 -2.15664062 14.4315625 -3 15 C-2.69163768 12.87439563 -2.37818386 10.74952935 -2.0625 8.625 C-1.88847656 7.44164062 -1.71445313 6.25828125 -1.53515625 5.0390625 C-1 2 -1 2 0 0 Z " fill="#C57C14" transform="translate(90,26)"/>
<path d="M0 0 C0.02703381 1.93742341 0.04641125 3.87495479 0.0625 5.8125 C0.07410156 6.89144531 0.08570312 7.97039062 0.09765625 9.08203125 C0 12 0 12 -1 15 C-1.66 15 -2.32 15 -3 15 C-2.7525 13.948125 -2.505 12.89625 -2.25 11.8125 C-1.6110158 7.94633751 -1.6110158 7.94633751 -3.9375 5.0625 C-4.618125 4.381875 -5.29875 3.70125 -6 3 C-3.375 0 -3.375 0 0 0 Z " fill="#AE1A3D" transform="translate(65,96)"/>
<path d="M0 0 C0.88816406 0.01804688 1.77632812 0.03609375 2.69140625 0.0546875 C4.87870848 0.10172626 7.06379816 0.16742991 9.25 0.25 C9.58 1.24 9.91 2.23 10.25 3.25 C9.1878125 3.15460937 8.125625 3.05921875 7.03125 2.9609375 C-3.49647343 2.06191251 -3.49647343 2.06191251 -13.75 4.25 C-10.09018696 -0.97242984 -5.79569289 -0.222582 0 0 Z " fill="#EFB962" transform="translate(41.75,2.75)"/>
<path d="M0 0 C0.66 0 1.32 0 2 0 C5 5.75 5 5.75 5 8 C5.99 8.33 6.98 8.66 8 9 C8.1875 11.375 8.1875 11.375 8 14 C7.01 14.66 6.02 15.32 5 16 C4.73445313 15.25234375 4.46890625 14.5046875 4.1953125 13.734375 C3.84210938 12.74953125 3.48890625 11.7646875 3.125 10.75 C2.77695313 9.77546875 2.42890625 8.8009375 2.0703125 7.796875 C1.16725355 5.43705673 0.17921582 3.23094884 -1 1 C-0.67 0.67 -0.34 0.34 0 0 Z " fill="#E15F78" transform="translate(117,69)"/>
<path d="M0 0 C0.99 0.33 1.98 0.66 3 1 C3.33 3.97 3.66 6.94 4 10 C1.69 11.65 -0.62 13.3 -3 15 C-3.66 14.67 -4.32 14.34 -5 14 C-4.360625 13.54625 -3.72125 13.0925 -3.0625 12.625 C-0.01774843 8.74986164 -0.18350135 4.8077353 0 0 Z " fill="#E48E21" transform="translate(92,27)"/>
<path d="M0 0 C3.12492251 -0.05791844 6.24970766 -0.09356746 9.375 -0.125 C10.26445312 -0.14175781 11.15390625 -0.15851562 12.0703125 -0.17578125 C12.92109375 -0.18222656 13.771875 -0.18867188 14.6484375 -0.1953125 C15.82672119 -0.21102295 15.82672119 -0.21102295 17.02880859 -0.22705078 C19 0 19 0 21 2 C21.375 5.4375 21.375 5.4375 21 9 C19 10.9375 19 10.9375 17 12 C17.55728913 8.65626525 18.35173889 5.96687001 20 3 C17.40742331 2.13580777 15.65962293 1.82419068 12.98828125 1.68359375 C11.85229492 1.62075195 11.85229492 1.62075195 10.69335938 1.55664062 C9.51483398 1.49766602 9.51483398 1.49766602 8.3125 1.4375 C7.51521484 1.39431641 6.71792969 1.35113281 5.89648438 1.30664062 C3.93118553 1.20072632 1.96561504 1.09987449 0 1 C0 0.67 0 0.34 0 0 Z " fill="#C28638" transform="translate(136,21)"/>
<path d="M0 0 C0.9075 0.103125 1.815 0.20625 2.75 0.3125 C2.75 0.6425 2.75 0.9725 2.75 1.3125 C0.77 1.9725 -1.21 2.6325 -3.25 3.3125 C-3.58 5.6225 -3.91 7.9325 -4.25 10.3125 C-7.80780196 9.70259109 -10.9328589 8.7341319 -14.25 7.3125 C-13.651875 7.168125 -13.05375 7.02375 -12.4375 6.875 C-8.27120334 5.87690999 -8.27120334 5.87690999 -5.4375 2.75 C-3.25 0.3125 -3.25 0.3125 0 0 Z " fill="#DEA666" transform="translate(45.25,39.6875)"/>
<path d="M0 0 C0.83853516 -0.00128906 1.67707031 -0.00257812 2.54101562 -0.00390625 C3.41306641 -0.00003906 4.28511719 0.00382813 5.18359375 0.0078125 C6.4974707 0.00201172 6.4974707 0.00201172 7.83789062 -0.00390625 C8.67513672 -0.00261719 9.51238281 -0.00132813 10.375 0 C11.14142822 0.00112793 11.90785645 0.00225586 12.69750977 0.00341797 C14.62109375 0.1328125 14.62109375 0.1328125 16.62109375 1.1328125 C16.62109375 1.7928125 16.62109375 2.4528125 16.62109375 3.1328125 C17.28109375 3.4628125 17.94109375 3.7928125 18.62109375 4.1328125 C12.87109375 3.2578125 12.87109375 3.2578125 10.62109375 2.1328125 C8.37284288 2.03481182 6.12147451 2.00306486 3.87109375 2.0078125 C2.659375 2.00523437 1.44765625 2.00265625 0.19921875 2 C-3.08865258 2.12203889 -6.15297162 2.50939569 -9.37890625 3.1328125 C-6.45320426 0.20711051 -3.95755512 0.00581566 0 0 Z " fill="#F1BE64" transform="translate(116.37890625,2.8671875)"/>
<path d="M0 0 C4.66990291 1.4368932 4.66990291 1.4368932 6.0625 3.8125 C5.96825972 7.11090963 4.16400579 8.63926641 2 11 C-0.375 10.75 -0.375 10.75 -3 10 C-4.3125 7.9375 -4.3125 7.9375 -5 6 C-3.02 6.66 -1.04 7.32 1 8 C1.66 6.68 2.32 5.36 3 4 C2.01 2.68 1.02 1.36 0 0 Z " fill="#ED7194" transform="translate(21,51)"/>
<path d="M0 0 C0.7425 0.433125 0.7425 0.433125 1.5 0.875 C4.91752035 2.41288416 8.3506202 3.14847805 12 4 C12 4.66 12 5.32 12 6 C12.66 6.33 13.32 6.66 14 7 C6.75898264 7.61364554 6.75898264 7.61364554 3.0625 4.625 C1 2 1 2 0 0 Z " fill="#F93E70" transform="translate(42,141)"/>
<path d="M0 0 C0.33 0 0.66 0 1 0 C1 3.3 1 6.6 1 10 C1.66 10 2.32 10 3 10 C4.5625 12.8125 4.5625 12.8125 6 16 C5.67 16.99 5.34 17.98 5 19 C4.18278283 17.89932004 3.37140549 16.79430269 2.5625 15.6875 C2.11003906 15.07261719 1.65757813 14.45773438 1.19140625 13.82421875 C-1.32332083 9.97380057 -1.16262313 6.47213614 -1 2 C-0.67 1.34 -0.34 0.68 0 0 Z " fill="#E48097" transform="translate(33,121)"/>
<path d="M0 0 C0.45375 0.495 0.9075 0.99 1.375 1.5 C2.87635519 3.22609337 2.87635519 3.22609337 5 3 C5 2.34 5 1.68 5 1 C6.32 1.33 7.64 1.66 9 2 C7.421924 2.84324672 5.8372958 3.67423918 4.25 4.5 C2.92742187 5.19609375 2.92742187 5.19609375 1.578125 5.90625 C-1 7 -1 7 -5 7 C-4.625 5.0625 -4.625 5.0625 -4 3 C-3.34 2.67 -2.68 2.34 -2 2 C-1.34 2.33 -0.68 2.66 0 3 C0 2.01 0 1.02 0 0 Z " fill="#E1964F" transform="translate(132,40)"/>
<path d="M0 0 C0.99 0 1.98 0 3 0 C3 1.65 3 3.3 3 5 C8.445 6.485 8.445 6.485 14 8 C14 8.33 14 8.66 14 9 C4.98468271 9.63019694 4.98468271 9.63019694 0.875 7 C0.25625 6.34 -0.3625 5.68 -1 5 C-0.67 3.35 -0.34 1.7 0 0 Z " fill="#86AFFA" transform="translate(81,86)"/>
<path d="M0 0 C1.485 0.99 1.485 0.99 3 2 C3.3984375 4.86328125 3.3984375 4.86328125 3.375 8.3125 C3.38273437 9.44300781 3.39046875 10.57351562 3.3984375 11.73828125 C2.96955149 15.24925988 2.08764871 17.17584578 0 20 C-0.33 20 -0.66 20 -1 20 C-1 18.35 -1 16.7 -1 15 C-0.34 15 0.32 15 1 15 C1.02703381 13.06257659 1.04641125 11.12504521 1.0625 9.1875 C1.07410156 8.10855469 1.08570312 7.02960938 1.09765625 5.91796875 C1.13624766 2.93487831 1.13624766 2.93487831 0 0 Z " fill="#E48099" transform="translate(65,93)"/>
<path d="M0 0 C0.99 0 1.98 0 3 0 C3 0.66 3 1.32 3 2 C4.32 2 5.64 2 7 2 C7 2.99 7 3.98 7 5 C5.35 5.33 3.7 5.66 2 6 C2 4.68 2 3.36 2 2 C1.34 2 0.68 2 0 2 C-0.12375 2.639375 -0.2475 3.27875 -0.375 3.9375 C-0.58125 4.618125 -0.7875 5.29875 -1 6 C-1.99 6.495 -1.99 6.495 -3 7 C-2.25 2.25 -2.25 2.25 0 0 Z " fill="#DB9635" transform="translate(96,37)"/>
<path d="M0 0 C2.35119399 3.52679099 2.21443452 5.02879485 2.125 9.1875 C2.10695313 10.27417969 2.08890625 11.36085938 2.0703125 12.48046875 C2.03550781 13.72763672 2.03550781 13.72763672 2 15 C-1 13 -1 13 -1.58203125 10.9765625 C-1.65808594 10.20054688 -1.73414062 9.42453125 -1.8125 8.625 C-1.90144531 7.85414062 -1.99039063 7.08328125 -2.08203125 6.2890625 C-1.9893116 3.70174274 -1.3060765 2.20873169 0 0 Z " fill="#A0610B" transform="translate(76,29)"/>
<path d="M0 0 C4.40114397 0.50298788 6.71195019 2.08772731 10 5 C9.67 6.65 9.34 8.3 9 10 C7.35 9.67 5.7 9.34 4 9 C4.99 8.34 5.98 7.68 7 7 C7 6.34 7 5.68 7 5 C6.21625 4.731875 5.4325 4.46375 4.625 4.1875 C2 3 2 3 0 0 Z " fill="#F96F98" transform="translate(47,140)"/>
<path d="M0 0 C1.32 0.33 2.64 0.66 4 1 C4.33 2.65 4.66 4.3 5 6 C4.4337793 5.67854004 3.86755859 5.35708008 3.28417969 5.02587891 C0.83768931 3.92710244 -0.88172002 3.69398432 -3.546875 3.5859375 C-4.81337891 3.52792969 -4.81337891 3.52792969 -6.10546875 3.46875 C-7.41451172 3.42234375 -7.41451172 3.42234375 -8.75 3.375 C-9.63816406 3.33632812 -10.52632813 3.29765625 -11.44140625 3.2578125 C-13.6273998 3.16379127 -15.81339062 3.07813857 -18 3 C-18 2.67 -18 2.34 -18 2 C-12.06 2 -6.12 2 0 2 C0 1.34 0 0.68 0 0 Z " fill="#3575F7" transform="translate(101,117)"/>
<path d="M0 0 C1.32 0.66 2.64 1.32 4 2 C3.6875 3.875 3.6875 3.875 3 6 C0 8 0 8 -3 8 C-2.45276317 4.62537285 -1.9451 2.91765 0 0 Z " fill="#FFB368" transform="translate(153,102)"/>
<path d="M0 0 C3.875 0.875 3.875 0.875 5 2 C5.07244053 4.01964199 5.08377188 6.04167124 5.0625 8.0625 C5.05347656 9.16722656 5.04445313 10.27195312 5.03515625 11.41015625 C5.02355469 12.26480469 5.01195313 13.11945312 5 14 C4.01 13.67 3.02 13.34 2 13 C2.66 13 3.32 13 4 13 C4 10.36 4 7.72 4 5 C2.35 5 0.7 5 -1 5 C-0.67 3.35 -0.34 1.7 0 0 Z " fill="#E1B34E" transform="translate(60,37)"/>
<path d="M0 0 C1 2 1 2 0.8125 4.625 C1.06047149 9.08848674 2.82058311 12.16656137 5 16 C1.21272525 14.25926502 -0.3671244 12.95327776 -2 9 C-1.98676749 1.98676749 -1.98676749 1.98676749 0 0 Z " fill="#798FDD" transform="translate(76,83)"/>
<path d="M0 0 C0.66 0.33 1.32 0.66 2 1 C0.71632558 2.83893824 -0.57716761 4.67102625 -1.875 6.5 C-2.95394531 8.03140625 -2.95394531 8.03140625 -4.0546875 9.59375 C-4.69664063 10.3878125 -5.33859375 11.181875 -6 12 C-6.66 12 -7.32 12 -8 12 C-6.71999898 6.99635967 -4.82671924 4.43423522 -1 1 C-0.67 0.67 -0.34 0.34 0 0 Z " fill="#75A2FB" transform="translate(27,67)"/>
<path d="M0 0 C2.64 1.98 5.28 3.96 8 6 C4 7 4 7 2 6 C1.01 6 0.02 6 -1 6 C-1.66 5.01 -2.32 4.02 -3 3 C-2.01 2.67 -1.02 2.34 0 2 C0 1.34 0 0.68 0 0 Z " fill="#FA6188" transform="translate(42,137)"/>
<path d="M0 0 C0.33 0 0.66 0 1 0 C1.66 4.95 2.32 9.9 3 15 C2.34 14.67 1.68 14.34 1 14 C1 13.01 1 12.02 1 11 C0.34 11 -0.32 11 -1 11 C-1.02688151 9.35425434 -1.04634123 7.70838587 -1.0625 6.0625 C-1.07410156 5.14597656 -1.08570313 4.22945313 -1.09765625 3.28515625 C-1 1 -1 1 0 0 Z " fill="#F23360" transform="translate(35,120)"/>
<path d="M0 0 C0.89203125 0.00902344 1.7840625 0.01804687 2.703125 0.02734375 C3.37859375 0.03894531 4.0540625 0.05054687 4.75 0.0625 C1.33788584 2.33724277 -0.9068529 2.62879644 -4.9375 3.1875 C-6.11699219 3.35507813 -7.29648437 3.52265625 -8.51171875 3.6953125 C-9.41535156 3.81648438 -10.31898437 3.93765625 -11.25 4.0625 C-9.25 1.0625 -9.25 1.0625 -7.453125 0.37890625 C-4.93805939 0.01770002 -2.54041065 -0.03342646 0 0 Z " fill="#F38FAF" transform="translate(55.25,114.9375)"/>
<path d="M0 0 C0.66 0.66 1.32 1.32 2 2 C1.81769828 4.82567672 1.20622122 5.80752686 -0.875 7.75 C-3 9 -3 9 -6 9 C-6 8.01 -6 7.02 -6 6 C-5.195625 5.7525 -4.39125 5.505 -3.5625 5.25 C-0.828919 4.27761141 -0.828919 4.27761141 -0.1875 1.875 C-0.125625 1.25625 -0.06375 0.6375 0 0 Z " fill="#FCBE7E" transform="translate(157,104)"/>
<path d="M0 0 C0 1.98 0 3.96 0 6 C-1.98 6.99 -1.98 6.99 -4 8 C-4.6875 5.6875 -4.6875 5.6875 -5 3 C-3.40083326 0.79162689 -2.76966516 0 0 0 Z " fill="#E6820E" transform="translate(89,44)"/>
<path d="M0 0 C3.76428019 3.31087949 4.80132193 7.24690847 6 12 C6.1875 15.0625 6.1875 15.0625 6 17 C4.98268577 14.96537153 3.96865681 12.93339573 3 10.875 C2.02859623 8.83448849 2.02859623 8.83448849 0 7 C-0.125 3.375 -0.125 3.375 0 0 Z " fill="#C4A87D" transform="translate(73,19)"/>
<path d="M0 0 C0.66 1.98 1.32 3.96 2 6 C1.34 6 0.68 6 0 6 C-0.66 4.68 -1.32 3.36 -2 2 C-4.64 2.33 -7.28 2.66 -10 3 C-6.46873184 -0.69178035 -5.02635024 -1.19045137 0 0 Z " fill="#F9A0BC" transform="translate(148,136)"/>
<path d="M0 0 C3.2645028 3.2645028 3.93236055 7.41047299 4.125 11.9375 C4.08375 12.618125 4.0425 13.29875 4 14 C3.01 13.67 2.02 13.34 1 13 C0.67 8.71 0.34 4.42 0 0 Z " fill="#FAAAC4" transform="translate(128,72)"/>
<path d="M0 0 C2.33333333 2.33333333 4.66666667 4.66666667 7 7 C6.67 7.99 6.34 8.98 6 10 C3.69 8.35 1.38 6.7 -1 5 C-0.67 3.35 -0.34 1.7 0 0 Z " fill="#E5657E" transform="translate(106,56)"/>
<path d="M0 0 C0.99 0.33 1.98 0.66 3 1 C3 3.64 3 6.28 3 9 C4.32 9 5.64 9 7 9 C7 9.66 7 10.32 7 11 C5.02 11 3.04 11 1 11 C0.67 7.37 0.34 3.74 0 0 Z " fill="#DC9535" transform="translate(103,42)"/>
<path d="M0 0 C7.15406617 -0.74521523 11.30223306 0.65292985 17 5 C14.0955111 5 12.79782099 4.63854948 10.1875 3.5625 C6.80935383 2.23871629 3.61605683 1.4520071 0 1 C0 0.67 0 0.34 0 0 Z " fill="#E8224C" transform="translate(49,48)"/>
<path d="M0 0 C2 3 2 3 3 5 C3.99 5.2165625 3.99 5.2165625 5 5.4375 C5.66 5.623125 6.32 5.80875 7 6 C7.33 6.99 7.66 7.98 8 9 C3.38486888 7.68139111 -0.09897612 5.78644563 -4 3 C-2.68 2.01 -1.36 1.02 0 0 Z " fill="#C99051" transform="translate(20,36)"/>
<path d="M0 0 C0.99 0.33 1.98 0.66 3 1 C2.45276317 4.37462715 1.9451 6.08235 0 9 C-0.66 9 -1.32 9 -2 9 C-2 8.34 -2 7.68 -2 7 C-2.99 7.33 -3.98 7.66 -5 8 C-5.33 7.34 -5.66 6.68 -6 6 C-2.535 5.505 -2.535 5.505 1 5 C0.67 3.35 0.34 1.7 0 0 Z " fill="#819CE2" transform="translate(97,96)"/>
<path d="M0 0 C0 0.66 0 1.32 0 2 C-6.5 5 -6.5 5 -11 5 C-11 4.34 -11 3.68 -11 3 C-9.54293274 2.49632243 -8.08429904 1.99717444 -6.625 1.5 C-5.81289062 1.2215625 -5.00078125 0.943125 -4.1640625 0.65625 C-2 0 -2 0 0 0 Z " fill="#DF9B4A" transform="translate(121,48)"/>
<path d="M0 0 C0.99 0.33 1.98 0.66 3 1 C2.67 4.96 2.34 8.92 2 13 C1.34 12.67 0.68 12.34 0 12 C0 8.04 0 4.08 0 0 Z " fill="#C6811A" transform="translate(71,26)"/>
<path d="M0 0 C0.66 0 1.32 0 2 0 C3.25664978 2.90600261 4 4.79604584 4 8 C2.68 8 1.36 8 0 8 C0 5.36 0 2.72 0 0 Z " fill="#E6B14B" transform="translate(101,44)"/>
<path d="M0 0 C0.33 0.66 0.66 1.32 1 2 C0.2884375 3.175625 0.2884375 3.175625 -0.4375 4.375 C-2.34098924 7.06372236 -2.34098924 7.06372236 -2 11 C-2.66 11 -3.32 11 -4 11 C-4.8125 8.875 -4.8125 8.875 -5 6 C-3.55576519 3.69892439 -1.89127865 1.98353614 0 0 Z " fill="#D77D22" transform="translate(31,33)"/>
<path d="M0 0 C1.04449911 3.13349732 0.93423645 3.98968256 0 7 C0.66 7.33 1.32 7.66 2 8 C1.01 8.495 1.01 8.495 0 9 C-0.65555119 11.52733235 -0.65555119 11.52733235 -1 14 C-1.66 13.34 -2.32 12.68 -3 12 C-2.67176873 7.65093573 -1.80260764 3.9657368 0 0 Z " fill="#A36C1B" transform="translate(86,26)"/>
<path d="M0 0 C0.66 0.33 1.32 0.66 2 1 C1.34 2.32 0.68 3.64 0 5 C0.66 5 1.32 5 2 5 C2 5.66 2 6.32 2 7 C0.35 7 -1.3 7 -3 7 C-2.625 4.0625 -2.625 4.0625 -2 1 C-1.34 0.67 -0.68 0.34 0 0 Z " fill="#D53C5F" transform="translate(62,106)"/>
<path d="M0 0 C2.59027076 0.89040557 3.75468403 1.61976024 5.25 3.9375 C6 6 6 6 6 9 C5.34 9 4.68 9 4 9 C3.566875 8.05125 3.13375 7.1025 2.6875 6.125 C1.20697799 2.79958063 1.20697799 2.79958063 -2 1 C-1.34 0.67 -0.68 0.34 0 0 Z " fill="#FAEF90" transform="translate(113,94)"/>
<path d="M0 0 C3.83225427 -0.08912219 7.26562152 0.12132271 11 1 C10.67 2.32 10.34 3.64 10 5 C9.34 5 8.68 5 8 5 C8 4.34 8 3.68 8 3 C7.05125 2.87625 6.1025 2.7525 5.125 2.625 C2 2 2 2 0 0 Z " fill="#E3A848" transform="translate(48,41)"/>
<path d="M0 0 C1.32 0 2.64 0 4 0 C4 1.65 4 3.3 4 5 C2.35 5 0.7 5 -1 5 C-0.67 3.35 -0.34 1.7 0 0 Z " fill="#F2E27D" transform="translate(44,44)"/>
<path d="M0 0 C0.33 0.66 0.66 1.32 1 2 C0.22265625 3.7265625 0.22265625 3.7265625 -0.9375 5.625 C-1.618125 6.73875 -2.29875 7.8525 -3 9 C-3.99 8.67 -4.98 8.34 -6 8 C-3.375 2.25 -3.375 2.25 0 0 Z " fill="#CF7219" transform="translate(26,30)"/>
<path d="M0 0 C0.99 0.33 1.98 0.66 3 1 C2.34 2.32 1.68 3.64 1 5 C0.34 5 -0.32 5 -1 5 C-2.34882408 5.63474075 -3.6846659 6.29848848 -5 7 C-3.70700306 4.11562221 -2.34058637 2.12780579 0 0 Z " fill="#DB8338" transform="translate(37,26)"/>
<path d="M0 0 C0.93065133 2.60582371 1.14917407 3.64198224 0.0625 6.25 C-0.4634375 7.11625 -0.4634375 7.11625 -1 8 C-1.99 8 -2.98 8 -4 8 C-3.50168276 4.31245243 -2.89932357 2.39509338 0 0 Z " fill="#7492E0" transform="translate(100,134)"/>
<path d="M0 0 C0.99 0.33 1.98 0.66 3 1 C1.68 3.31 0.36 5.62 -1 8 C-1.66 8 -2.32 8 -3 8 C-3.33 8.66 -3.66 9.32 -4 10 C-3.43454163 6.04179141 -2.19097652 3.3340947 0 0 Z " fill="#F7A0BB" transform="translate(31,97)"/>
<path d="M0 0 C5.66153846 1.47692308 5.66153846 1.47692308 7.375 4.125 C7.684375 5.053125 7.684375 5.053125 8 6 C5.6875 5.8125 5.6875 5.8125 3 5 C1.1875 2.4375 1.1875 2.4375 0 0 Z " fill="#2465F8" transform="translate(77,92)"/>
<path d="M0 0 C0.99 0 1.98 0 3 0 C7 6.75 7 6.75 7 9 C5.68 8.67 4.36 8.34 3 8 C2.87625 6.865625 2.7525 5.73125 2.625 4.5625 C2.41875 3.386875 2.2125 2.21125 2 1 C1.34 0.67 0.68 0.34 0 0 Z " fill="#FAA1BD" transform="translate(98,67)"/>
<path d="M0 0 C0.66 1.32 1.32 2.64 2 4 C1.01 5.32 0.02 6.64 -1 8 C-1.99 7.67 -2.98 7.34 -4 7 C-2.92598892 4.08482708 -2.22189824 2.22189824 0 0 Z " fill="#EB9449" transform="translate(32,38)"/>
<path d="M0 0 C0.99 0.33 1.98 0.66 3 1 C2.01 4.3 1.02 7.6 0 11 C-1 7 -1 7 0 4 C-0.66 3.67 -1.32 3.34 -2 3 C-1.34 2.01 -0.68 1.02 0 0 Z " fill="#CD864A" transform="translate(45,27)"/>
<path d="M0 0 C0.99 0 1.98 0 3 0 C3.66 2.31 4.32 4.62 5 7 C3.02 6.34 1.04 5.68 -1 5 C-0.67 3.35 -0.34 1.7 0 0 Z " fill="#C89742" transform="translate(89,21)"/>
<path d="M0 0 C0.66 0.33 1.32 0.66 2 1 C2.63385922 3.04243528 3.01826504 5.09132519 3.4375 7.1875 C3.623125 7.785625 3.80875 8.38375 4 9 C4.66 9.33 5.32 9.66 6 10 C4.1875 9.8125 4.1875 9.8125 2 9 C0.1875 6.6875 0.1875 6.6875 -1 4 C-0.6875 1.6875 -0.6875 1.6875 0 0 Z " fill="#EADD97" transform="translate(107,97)"/>
<path d="M0 0 C0.66 0 1.32 0 2 0 C0.66511872 3.59391114 -0.96022723 6.75490696 -3 10 C-3.33 8.68 -3.66 7.36 -4 6 C-3.34 6 -2.68 6 -2 6 C-1.855625 5.195625 -1.71125 4.39125 -1.5625 3.5625 C-1 1 -1 1 0 0 Z " fill="#779BF2" transform="translate(43,55)"/>
<path d="M0 0 C1.1725131 0.95117134 2.33787015 1.91117009 3.5 2.875 C4.47453125 3.67550781 4.47453125 3.67550781 5.46875 4.4921875 C5.9740625 4.98976563 6.479375 5.48734375 7 6 C7 6.66 7 7.32 7 8 C4 8 4 8 1.8125 6.25 C0 4 0 4 0 0 Z " fill="#E5BA6B" transform="translate(66,11)"/>
<path d="M0 0 C2.0625 0.4375 2.0625 0.4375 4 1 C2.35 2.65 0.7 4.3 -1 6 C-1.66 5.67 -2.32 5.34 -3 5 C-1.125 1.125 -1.125 1.125 0 0 Z " fill="#E0C07F" transform="translate(94,11)"/>
<path d="M0 0 C1.32 0.99 2.64 1.98 4 3 C3.67 4.32 3.34 5.64 3 7 C2.01 7 1.02 7 0 7 C0 4.69 0 2.38 0 0 Z " fill="#DB7909" transform="translate(74,45)"/>
<path d="M0 0 C0.66 0.33 1.32 0.66 2 1 C1.01 4.3 0.02 7.6 -1 11 C-1.33 11 -1.66 11 -2 11 C-2.28571429 3.57142857 -2.28571429 3.57142857 0 0 Z " fill="#7393ED" transform="translate(26,84)"/>
<path d="M0 0 C0.33 0 0.66 0 1 0 C1.08090971 1.62418745 1.13914995 3.24951745 1.1875 4.875 C1.22230469 5.77992187 1.25710937 6.68484375 1.29296875 7.6171875 C1.19628906 8.40351562 1.09960938 9.18984375 1 10 C0.01 10.66 -0.98 11.32 -2 12 C-1.44687265 7.97007218 -0.8441938 3.97977076 0 0 Z " fill="#D08418" transform="translate(91,27)"/>
<path d="M0 0 C0 4.38968456 -2.12805101 5.76905739 -5 9 C-5.33 7.68 -5.66 6.36 -6 5 C-4.02 3.35 -2.04 1.7 0 0 Z " fill="#F2779A" transform="translate(63,79)"/>
<path d="M0 0 C0.66 0 1.32 0 2 0 C3.85776765 3.13498292 4.20140476 5.37471432 4 9 C1.98863724 6.44008376 0.37154504 3.95409701 -1 1 C-0.67 0.67 -0.34 0.34 0 0 Z " fill="#DD768A" transform="translate(117,69)"/>
<path d="M0 0 C2.4750171 1.11431765 4.67883419 2.58150978 7 4 C6.67 4.66 6.34 5.32 6 6 C3.36 5.01 0.72 4.02 -2 3 C-2 2.34 -2 1.68 -2 1 C-1.34 0.67 -0.68 0.34 0 0 Z " fill="#D69F70" transform="translate(54,51)"/>
<path d="M0 0 C0.33 0 0.66 0 1 0 C1 2.64 1 5.28 1 8 C0.01 8 -0.98 8 -2 8 C-2 6.02 -2 4.04 -2 2 C-1.34 2 -0.68 2 0 2 C0 1.34 0 0.68 0 0 Z " fill="#B47C1E" transform="translate(75,26)"/>
<path d="M0 0 C0.99 0.66 1.98 1.32 3 2 C1.3125 4.5 1.3125 4.5 -1 7 C-3.75 7.3125 -3.75 7.3125 -6 7 C-5.071875 6.6596875 -5.071875 6.6596875 -4.125 6.3125 C-1.38589791 4.62070165 -0.94975528 3.00755839 0 0 Z " fill="#F83C6A" transform="translate(58,89)"/>
<path d="M0 0 C0.268125 0.598125 0.53625 1.19625 0.8125 1.8125 C1.98493467 3.97224808 3.19369282 5.35790256 5 7 C4.01 7.495 4.01 7.495 3 8 C0.875 7.0625 0.875 7.0625 -1 6 C-0.67 4.02 -0.34 2.04 0 0 Z " fill="#F6C798" transform="translate(133,70)"/>
<path d="M0 0 C2.4375 0.75 2.4375 0.75 5 2 C5.8125 4.125 5.8125 4.125 6 6 C5.01 6.66 4.02 7.32 3 8 C2.814375 6.8553125 2.814375 6.8553125 2.625 5.6875 C2.11897208 2.79732864 2.11897208 2.79732864 0 0 Z " fill="#F0839D" transform="translate(21,51)"/>
<path d="M0 0 C0.33 0.66 0.66 1.32 1 2 C0.0625 4.125 0.0625 4.125 -1 6 C-1.99 6 -2.98 6 -4 6 C-4.33 6.66 -4.66 7.32 -5 8 C-4.45773019 4.20411134 -2.79872437 2.52788007 0 0 Z " fill="#FBABC8" transform="translate(19,50)"/>
<path d="M0 0 C0 1.65 0 3.3 0 5 C-1.32 5 -2.64 5 -4 5 C-4 3.68 -4 2.36 -4 1 C-2 0 -2 0 0 0 Z " fill="#E1A33C" transform="translate(122,30)"/>
<path d="M0 0 C-6 4 -6 4 -8.1875 3.625 C-8.785625 3.41875 -9.38375 3.2125 -10 3 C-6.68152292 -0.06320961 -4.44849969 -0.3033068 0 0 Z " fill="#EEC478" transform="translate(107,6)"/>
<path d="M0 0 C0.33 0.66 0.66 1.32 1 2 C1.66 2.33 2.32 2.66 3 3 C1.35 4.32 -0.3 5.64 -2 7 C-2.33 6.34 -2.66 5.68 -3 5 C-1.5625 2.375 -1.5625 2.375 0 0 Z " fill="#DE8123" transform="translate(39,29)"/>
<path d="" fill="#FF0000" transform="translate(0,0)"/>
<path d="" fill="#FF0000" transform="translate(0,0)"/>
</svg>
