<?xml version="1.0" encoding="UTF-8"?>
<svg version="1.1" xmlns="http://www.w3.org/2000/svg" width="160" height="160">
<path d="M0 0 C5.9883762 2.56784708 5.9883762 2.56784708 7.89453125 4.91015625 C9.51145303 6.50392421 9.51145303 6.50392421 12.16796875 6.09375 C16.99580393 4.81911127 21.59453981 3.04176397 26.234375 1.20703125 C32.59530196 -1.17120441 36.73909279 -0.62992974 43.01171875 1.9609375 C46.76482455 3.28737349 46.76482455 3.28737349 50.57421875 1.8984375 C52.02828125 1.063125 52.02828125 1.063125 53.51171875 0.2109375 C57.30696552 -0.39901287 60.69955569 -0.03624256 64.38671875 1.0859375 C66.95445176 3.65367051 66.69685655 4.40295249 66.94921875 7.8984375 C67.55328171 11.62529024 68.10172083 12.87781419 71.07421875 15.29296875 C74.1083449 17.01722331 77.15042234 18.61201765 80.29199219 20.12646484 C83.58340303 21.73452104 86.80850385 23.46305656 90.04321289 25.18164062 C92.47548522 26.47109454 94.91655124 27.74240085 97.359375 29.01171875 C98.08141113 29.3979541 98.80344727 29.78418945 99.54736328 30.18212891 C101.17253098 31.0332918 102.83634042 31.81021223 104.5078125 32.56640625 C106.51171875 34.2109375 106.51171875 34.2109375 107.33984375 37.2578125 C107.54685968 42.01917885 107.49129673 46.70241199 107.26171875 51.4609375 C107.22111328 52.80671875 107.22111328 52.80671875 107.1796875 54.1796875 C107.13972656 55.04078125 107.09976563 55.901875 107.05859375 56.7890625 C107.02604492 57.56668945 106.99349609 58.34431641 106.95996094 59.14550781 C106.51171875 61.2109375 106.51171875 61.2109375 105.01855469 62.54174805 C102.62153909 65.19702926 103.00000881 67.83452969 102.85546875 71.33984375 C102.80670593 72.39879601 102.80670593 72.39879601 102.75695801 73.47914124 C102.65880517 75.72277825 102.58272461 77.96628907 102.51171875 80.2109375 C102.47449707 81.274263 102.47449707 81.274263 102.43652344 82.35906982 C102.24032615 88.00906131 102.09596561 93.66006626 101.95947266 99.31176758 C101.87448861 102.75907902 101.77290316 106.20338645 101.6418457 109.64941406 C101.56379267 111.78569483 101.51580965 113.92385243 101.52807617 116.06152344 C101.4609375 118.44140625 101.4609375 118.44140625 100.51171875 122.2109375 C98.21854986 124.34602186 95.70927113 125.42578357 92.82421875 126.5859375 C91.76170898 127.05966797 91.76170898 127.05966797 90.67773438 127.54296875 C89.2846734 128.16296449 87.88509343 128.76854603 86.47900391 129.35839844 C84.67645166 130.13954915 82.92395835 131.03366915 81.1796875 131.9375 C78.51171875 133.2109375 78.51171875 133.2109375 75.51171875 133.2109375 C75.51171875 133.8709375 75.51171875 134.5309375 75.51171875 135.2109375 C66.43656086 140.45250335 57.29889486 144.60266342 47.45043945 148.18920898 C40.7186629 150.66649785 34.2872818 153.54096633 27.92822266 156.86132812 C25.27433779 158.19459092 23.05546908 159.19359299 20.0625 159.2890625 C16.02965538 157.58452174 12.69733968 155.00433761 9.19921875 152.3984375 C4.43153659 148.86634768 -0.1686059 145.77110673 -5.53051758 143.22338867 C-8.9963003 141.43107031 -12.0593614 139.10674052 -15.17578125 136.7734375 C-15.81322266 136.30873047 -16.45066406 135.84402344 -17.10742188 135.36523438 C-19.94298073 133.2670964 -22.50116528 131.19795297 -24.9921875 128.6875 C-27.99697408 125.70622506 -31.25680026 123.41063556 -34.73828125 121.0234375 C-41.35605303 116.47539394 -41.35605303 116.47539394 -42.48828125 114.2109375 C-42.67802923 112.46723287 -42.81309725 110.71744919 -42.92138672 108.96679688 C-43.02687332 107.32499451 -43.02687332 107.32499451 -43.13449097 105.65002441 C-43.20741364 104.46356323 -43.2803363 103.27710205 -43.35546875 102.0546875 C-43.52024427 99.56376305 -43.68562748 97.07287873 -43.8515625 94.58203125 C-44.11006352 90.63853666 -44.36426996 86.69493063 -44.60791016 82.75048828 C-44.84438135 78.95510194 -45.09850735 75.16123405 -45.35546875 71.3671875 C-45.42434296 70.18072632 -45.49321716 68.99426514 -45.56417847 67.77185059 C-45.67912155 66.13004822 -45.67912155 66.13004822 -45.79638672 64.45507812 C-45.85776825 63.48848267 -45.91914978 62.52188721 -45.98239136 61.52600098 C-46.28795152 58.84294376 -46.28795152 58.84294376 -49.48828125 57.2109375 C-51.272827 52.35583583 -51.02155607 46.75919959 -51.30078125 41.6484375 C-51.37748047 40.59462891 -51.45417969 39.54082031 -51.53320312 38.45507812 C-51.58669922 37.44509766 -51.64019531 36.43511719 -51.6953125 35.39453125 C-51.75178955 34.47212646 -51.8082666 33.54972168 -51.86645508 32.59936523 C-51.48828125 30.2109375 -51.48828125 30.2109375 -49.80761719 28.51464844 C-47.30484195 27.1078253 -44.88575102 26.10668622 -42.171875 25.16796875 C-40.6549707 24.64106445 -40.6549707 24.64106445 -39.10742188 24.10351562 C-37.53250977 23.56887695 -37.53250977 23.56887695 -35.92578125 23.0234375 C-34.87197266 22.65541016 -33.81816406 22.28738281 -32.73242188 21.90820312 C-24.89083517 19.2109375 -24.89083517 19.2109375 -21.48828125 19.2109375 C-21.48828125 18.5509375 -21.48828125 17.8909375 -21.48828125 17.2109375 C-20.82828125 17.2109375 -20.16828125 17.2109375 -19.48828125 17.2109375 C-19.30652344 16.40269531 -19.12476563 15.59445313 -18.9375 14.76171875 C-18.56044922 13.15876953 -18.56044922 13.15876953 -18.17578125 11.5234375 C-17.93214844 10.46769531 -17.68851563 9.41195313 -17.4375 8.32421875 C-16.4874535 5.20822261 -15.35350069 2.87211177 -13.48828125 0.2109375 C-9.32216535 -1.87212045 -4.34660301 -1.37835763 0 0 Z " fill="#A62220" transform="translate(52.48828125,0.7890625)"/>
<path d="M0 0 C5.2213016 0.5975825 9.1918122 3.22122779 13.69140625 5.82421875 C14.60986328 6.34048828 15.52832031 6.85675781 16.47460938 7.38867188 C23.16194994 11.16976244 23.16194994 11.16976244 24.37890625 12.38671875 C24.63306175 17.026872 24.56413423 21.67793181 24.56640625 26.32421875 C24.57865234 27.63841797 24.59089844 28.95261719 24.60351562 30.30664062 C24.60544922 31.55896484 24.60738281 32.81128906 24.609375 34.1015625 C24.61348389 35.257771 24.61759277 36.41397949 24.62182617 37.60522461 C24.37890625 40.38671875 24.37890625 40.38671875 22.37890625 42.38671875 C22.19423403 44.68109769 22.19423403 44.68109769 22.40234375 47.36328125 C22.45398682 48.41217529 22.50562988 49.46106934 22.55883789 50.54174805 C22.62321045 51.68683838 22.68758301 52.83192871 22.75390625 54.01171875 C23.27887401 65.0435952 23.4765653 76.03209902 23.44140625 87.07421875 C23.43847565 88.15077728 23.43847565 88.15077728 23.43548584 89.24908447 C23.42352423 93.29501129 23.40449553 97.34085636 23.37890625 101.38671875 C24.36890625 101.88171875 24.36890625 101.88171875 25.37890625 102.38671875 C24.23228516 102.80630859 24.23228516 102.80630859 23.0625 103.234375 C18.06720431 105.10385389 13.14527235 106.97300273 8.3515625 109.3125 C7.35781616 109.79674438 7.35781616 109.79674438 6.34399414 110.29077148 C5.0545573 110.92788048 3.7708747 111.57679895 2.49389648 112.23852539 C-1.41070089 114.16728966 -3.46998237 114.59881783 -7.62109375 113.38671875 C-9.70166016 112.20336914 -9.70166016 112.20336914 -11.72265625 110.734375 C-12.46 110.20521484 -13.19734375 109.67605469 -13.95703125 109.13085938 C-14.71242188 108.57591797 -15.4678125 108.02097656 -16.24609375 107.44921875 C-17.75904464 106.35667397 -19.27206278 105.26422231 -20.78515625 104.171875 C-21.4498291 103.685979 -22.11450195 103.20008301 -22.79931641 102.69946289 C-24.38140022 101.55943814 -25.99856461 100.46840484 -27.62109375 99.38671875 C-27.62109375 98.72671875 -27.62109375 98.06671875 -27.62109375 97.38671875 C-27.69747385 89.93438013 -27.79880748 82.48236212 -27.90862083 75.03044891 C-27.95867681 71.61392812 -28.00502035 68.19744017 -28.04296875 64.78076172 C-28.08680849 60.84715123 -28.14645989 56.91385871 -28.20703125 52.98046875 C-28.21858246 51.75026001 -28.23013367 50.52005127 -28.24203491 49.25256348 C-28.27183945 47.55069885 -28.27183945 47.55069885 -28.30224609 45.81445312 C-28.31556976 44.81232788 -28.32889343 43.81020264 -28.34262085 42.77770996 C-28.39194274 40.20216501 -28.39194274 40.20216501 -30.62109375 38.38671875 C-32.61751573 29.77950325 -31.71282456 20.17249194 -31.62109375 11.38671875 C-21.35028271 6.05463813 -11.49533125 1.69603248 0 0 Z " fill="#B97D0E" transform="translate(77.62109375,45.61328125)"/>
<path d="M0 0 C5.9883762 2.56784708 5.9883762 2.56784708 7.89453125 4.91015625 C9.51145303 6.50392421 9.51145303 6.50392421 12.16796875 6.09375 C16.99580393 4.81911127 21.59453981 3.04176397 26.234375 1.20703125 C32.59530196 -1.17120441 36.73909279 -0.62992974 43.01171875 1.9609375 C46.76482455 3.28737349 46.76482455 3.28737349 50.57421875 1.8984375 C52.02828125 1.063125 52.02828125 1.063125 53.51171875 0.2109375 C57.30696552 -0.39901287 60.69955569 -0.03624256 64.38671875 1.0859375 C67.32397818 4.02319693 67.41996421 6.79095053 67.859375 10.8359375 C68.68222776 13.83171282 69.91388383 14.62191976 72.51171875 16.2109375 C70.86171875 16.5409375 69.21171875 16.8709375 67.51171875 17.2109375 C67.31835938 16.28410156 67.125 15.35726563 66.92578125 14.40234375 C66.66539063 13.20480469 66.405 12.00726563 66.13671875 10.7734375 C65.88148437 9.57847656 65.62625 8.38351562 65.36328125 7.15234375 C65.08226563 6.18167969 64.80125 5.21101562 64.51171875 4.2109375 C63.52171875 3.7159375 63.52171875 3.7159375 62.51171875 3.2109375 C63.00671875 5.0053125 63.00671875 5.0053125 63.51171875 6.8359375 C66.12476833 18.95442832 64.14619651 29.62603965 60.51171875 41.2109375 C53.3574444 40.68995957 47.20014551 39.02089262 40.44921875 36.6484375 C39.48822266 36.31908203 38.52722656 35.98972656 37.53710938 35.65039062 C35.19232848 34.84546584 32.85080729 34.03222601 30.51171875 33.2109375 C30.18171875 34.8609375 29.85171875 36.5109375 29.51171875 38.2109375 C27.57452497 38.26499872 25.63689954 38.30375775 23.69921875 38.3359375 C22.62027344 38.35914063 21.54132813 38.38234375 20.4296875 38.40625 C17.51171875 38.2109375 17.51171875 38.2109375 14.51171875 36.2109375 C14.51171875 34.8909375 14.51171875 33.5709375 14.51171875 32.2109375 C13.86734863 32.3874585 13.22297852 32.56397949 12.55908203 32.74584961 C9.58713558 33.55495338 6.61201489 34.35174362 3.63671875 35.1484375 C2.11691406 35.56512695 2.11691406 35.56512695 0.56640625 35.99023438 C-0.4390625 36.25771484 -1.44453125 36.52519531 -2.48046875 36.80078125 C-3.84727783 37.16997681 -3.84727783 37.16997681 -5.24169922 37.54663086 C-9.60160591 38.43874291 -14.06012536 38.76812191 -18.48828125 39.2109375 C-18.48828125 32.2809375 -18.48828125 25.3509375 -18.48828125 18.2109375 C-19.68169877 19.18426011 -19.68169877 19.18426011 -19.60180664 20.97680664 C-19.59395142 22.10010376 -19.59395142 22.10010376 -19.5859375 23.24609375 C-19.58110352 24.45942383 -19.58110352 24.45942383 -19.57617188 25.69726562 C-19.56779297 26.54740234 -19.55941406 27.39753906 -19.55078125 28.2734375 C-19.54626953 29.12744141 -19.54175781 29.98144531 -19.53710938 30.86132812 C-19.52528498 32.97789413 -19.50734894 35.09442435 -19.48828125 37.2109375 C-22.45828125 38.8609375 -25.42828125 40.5109375 -28.48828125 42.2109375 C-28.67831006 55.96691168 -28.6845592 69.38741859 -26.77050781 83.01611328 C-26.21995504 87.29766122 -25.86569429 91.59878573 -25.48828125 95.8984375 C-25.40739258 96.80964355 -25.32650391 97.72084961 -25.24316406 98.65966797 C-25.07712952 100.53428323 -24.9117755 102.40895888 -24.74707031 104.28369141 C-24.29604638 109.38536773 -23.82865233 114.48555356 -23.36328125 119.5859375 C-23.19394025 121.44791029 -23.02466269 123.30988884 -22.85546875 125.171875 C-22.78440918 125.95353027 -22.71334961 126.73518555 -22.64013672 127.54052734 C-22.59002441 128.0917627 -22.53991211 128.64299805 -22.48828125 129.2109375 C-40.62161458 117.94427083 -40.62161458 117.94427083 -42.48828125 114.2109375 C-42.67802923 112.46723287 -42.81309725 110.71744919 -42.92138672 108.96679688 C-43.02687332 107.32499451 -43.02687332 107.32499451 -43.13449097 105.65002441 C-43.20741364 104.46356323 -43.2803363 103.27710205 -43.35546875 102.0546875 C-43.52024427 99.56376305 -43.68562748 97.07287873 -43.8515625 94.58203125 C-44.11006352 90.63853666 -44.36426996 86.69493063 -44.60791016 82.75048828 C-44.84438135 78.95510194 -45.09850735 75.16123405 -45.35546875 71.3671875 C-45.42434296 70.18072632 -45.49321716 68.99426514 -45.56417847 67.77185059 C-45.67912155 66.13004822 -45.67912155 66.13004822 -45.79638672 64.45507812 C-45.85776825 63.48848267 -45.91914978 62.52188721 -45.98239136 61.52600098 C-46.28795152 58.84294376 -46.28795152 58.84294376 -49.48828125 57.2109375 C-51.272827 52.35583583 -51.02155607 46.75919959 -51.30078125 41.6484375 C-51.37748047 40.59462891 -51.45417969 39.54082031 -51.53320312 38.45507812 C-51.58669922 37.44509766 -51.64019531 36.43511719 -51.6953125 35.39453125 C-51.75178955 34.47212646 -51.8082666 33.54972168 -51.86645508 32.59936523 C-51.48828125 30.2109375 -51.48828125 30.2109375 -49.80761719 28.51464844 C-47.30484195 27.1078253 -44.88575102 26.10668622 -42.171875 25.16796875 C-40.6549707 24.64106445 -40.6549707 24.64106445 -39.10742188 24.10351562 C-37.53250977 23.56887695 -37.53250977 23.56887695 -35.92578125 23.0234375 C-34.87197266 22.65541016 -33.81816406 22.28738281 -32.73242188 21.90820312 C-24.89083517 19.2109375 -24.89083517 19.2109375 -21.48828125 19.2109375 C-21.48828125 18.5509375 -21.48828125 17.8909375 -21.48828125 17.2109375 C-20.82828125 17.2109375 -20.16828125 17.2109375 -19.48828125 17.2109375 C-19.30652344 16.40269531 -19.12476563 15.59445313 -18.9375 14.76171875 C-18.56044922 13.15876953 -18.56044922 13.15876953 -18.17578125 11.5234375 C-17.93214844 10.46769531 -17.68851563 9.41195313 -17.4375 8.32421875 C-16.4874535 5.20822261 -15.35350069 2.87211177 -13.48828125 0.2109375 C-9.32216535 -1.87212045 -4.34660301 -1.37835763 0 0 Z " fill="#E0393E" transform="translate(52.48828125,0.7890625)"/>
<path d="M0 0 C4.47314806 1.39149522 8.6209474 3.09411887 12.8125 5.1875 C13.95332031 5.73792969 15.09414062 6.28835937 16.26953125 6.85546875 C19 9 19 9 19.90234375 12.09765625 C20.02088344 16.83450243 19.97831115 21.51773249 19.75 26.25 C19.70939453 27.59578125 19.70939453 27.59578125 19.66796875 28.96875 C19.62800781 29.82984375 19.58804688 30.6909375 19.546875 31.578125 C19.49805176 32.74456543 19.49805176 32.74456543 19.44824219 33.93457031 C19 36 19 36 17.50683594 37.33081055 C15.10982034 39.98609176 15.48829006 42.62359219 15.34375 46.12890625 C15.31124146 46.83487442 15.27873291 47.54084259 15.24523926 48.26820374 C15.14708642 50.51184075 15.07100586 52.75535157 15 55 C14.97518555 55.70888367 14.95037109 56.41776733 14.92480469 57.14813232 C14.7286074 62.79812381 14.58424686 68.44912876 14.44775391 74.10083008 C14.36276986 77.54814152 14.26118441 80.99244895 14.13012695 84.43847656 C14.05207392 86.57475733 14.0040909 88.71291493 14.01635742 90.85058594 C13.94921875 93.23046875 13.94921875 93.23046875 13 97 C10.70683111 99.13508436 8.19755238 100.21484607 5.3125 101.375 C4.60416016 101.69082031 3.89582031 102.00664062 3.16601562 102.33203125 C1.77295465 102.95202699 0.37337468 103.55760853 -1.03271484 104.14746094 C-2.83526709 104.92861165 -4.5877604 105.82273165 -6.33203125 106.7265625 C-9 108 -9 108 -12 108 C-12 108.66 -12 109.32 -12 110 C-14.475 110.99 -14.475 110.99 -17 112 C-16.34 110.68 -15.68 109.36 -15 108 C-14.34 108 -13.68 108 -13 108 C-12.68361968 103.75028005 -12.37268368 99.50017637 -12.0625 95.25 C-11.97548828 94.08210938 -11.88847656 92.91421875 -11.79882812 91.7109375 C-11.51557371 87.80832105 -11.25382784 83.90460811 -11 80 C-10.94870941 79.24338074 -10.89741882 78.48676147 -10.84457397 77.70721436 C-10.22079633 68.29174361 -9.9330515 59.00153839 -10.32421875 49.5703125 C-10.38299274 47.83075705 -10.44093525 46.09117332 -10.49804688 44.3515625 C-10.58442456 41.72233391 -10.68901231 39.1003859 -10.8503418 36.47460938 C-11.38803874 27.32447623 -11.6846775 20.07310111 -5.70698547 12.67233276 C-3.25608486 9.95971819 -0.70613507 7.45958861 2 5 C2.33 4.67 2.66 4.34 3 4 C2.505 3.525625 2.01 3.05125 1.5 2.5625 C0 1 0 1 0 0 Z " fill="#B57B0E" transform="translate(140,26)"/>
<path d="M0 0 C0.66 0 1.32 0 2 0 C2 6.93 2 13.86 2 21 C3.98 20.67 5.96 20.34 8 20 C7.34 20.66 6.68 21.32 6 22 C6.495 22.61875 6.99 23.2375 7.5 23.875 C9 26 9 26 9 28 C17.68948803 27.70693126 25.40601076 26.30499044 33.6875 23.83984375 C36.64149641 23.09089419 38.97857262 22.82260559 42 23 C39.66918693 25.64916803 37.47377147 26.83785458 34.21875 28.15625 C33.29449219 28.53910156 32.37023437 28.92195313 31.41796875 29.31640625 C29.47265625 30.10546875 27.52734375 30.89453125 25.58203125 31.68359375 C24.65777344 32.06644531 23.73351563 32.44929688 22.78125 32.84375 C21.5137793 33.35711914 21.5137793 33.35711914 20.22070312 33.88085938 C17.93673186 35.03188447 16.5533356 35.97327576 15 38 C14.75139921 40.77308257 14.67055813 43.29786319 14.75 46.0625 C14.76240723 46.82312744 14.77481445 47.58375488 14.78759766 48.36743164 C14.28288973 58.4516948 14.28288973 58.4516948 18 67 C18.27174377 69.39099121 18.27174377 69.39099121 18.30297852 72.42773438 C18.31962051 73.56231079 18.33626251 74.69688721 18.35340881 75.86584473 C18.36182297 77.09605347 18.37023712 78.32626221 18.37890625 79.59375 C18.39590073 80.85135132 18.4128952 82.10895264 18.43040466 83.40466309 C18.47463871 86.75103554 18.51091427 90.09728576 18.54260254 93.44378662 C18.58825059 98.16107852 18.64416098 102.87822195 18.70530701 107.59533691 C18.73735285 110.10821434 18.76421486 112.62116398 18.78553772 115.13415527 C18.79902756 116.26873169 18.8125174 117.40330811 18.82641602 118.57226562 C18.83592789 119.57439087 18.84543976 120.57651611 18.85523987 121.60900879 C18.84398188 124.01491624 18.84398188 124.01491624 20 126 C15.30919248 125.49146386 12.15848068 123.33116777 8.4375 120.625 C7.87353516 120.22539062 7.30957031 119.82578125 6.72851562 119.4140625 C5.14418521 118.28742754 3.5717188 117.14416311 2 116 C0.95235474 115.38463379 0.95235474 115.38463379 -0.11645508 114.75683594 C-2.79511245 112.258376 -2.77555932 110.26707028 -3.1953125 106.6640625 C-3.35281982 105.38176758 -3.51032715 104.09947266 -3.67260742 102.77832031 C-3.8239762 101.39394255 -3.97476204 100.00950094 -4.125 98.625 C-4.29077109 97.21436456 -4.45785212 95.80388246 -4.6262207 94.39355469 C-5.84302408 84.05484813 -6.92034819 73.69755119 -7.7956543 63.32421875 C-7.93839541 61.70068786 -8.09459369 60.07830885 -8.26098633 58.45703125 C-8.99623482 51.1350987 -9.24979965 43.85684071 -9.3125 36.5 C-9.34150391 35.3346875 -9.37050781 34.169375 -9.40039062 32.96875 C-9.40876953 31.855 -9.41714844 30.74125 -9.42578125 29.59375 C-9.44036377 28.59021484 -9.45494629 27.58667969 -9.4699707 26.55273438 C-9 24 -9 24 -7.28588867 22.27539062 C-5 21 -5 21 0 19 C0 12.73 0 6.46 0 0 Z " fill="#DA2D2B" transform="translate(32,19)"/>
<path d="M0 0 C5.2213016 0.5975825 9.1918122 3.22122779 13.69140625 5.82421875 C14.60986328 6.34048828 15.52832031 6.85675781 16.47460938 7.38867188 C23.16194994 11.16976244 23.16194994 11.16976244 24.37890625 12.38671875 C24.46657737 14.45933951 24.48586498 16.53492169 24.4765625 18.609375 C24.47333984 19.86943359 24.47011719 21.12949219 24.46679688 22.42773438 C24.45844028 23.76822984 24.44997532 25.10872463 24.44140625 26.44921875 C24.43639285 27.79361817 24.43182967 29.13801935 24.42773438 30.48242188 C24.41590113 33.78389816 24.39941596 37.08528678 24.37890625 40.38671875 C23.75781982 40.63196289 23.1367334 40.87720703 22.49682617 41.12988281 C18.28328946 42.80299287 14.08481909 44.49468805 9.9296875 46.30859375 C9.22650391 46.61152344 8.52332031 46.91445312 7.79882812 47.2265625 C6.37828841 47.84006714 4.96165214 48.46268002 3.54882812 49.09375 C-0.99628044 51.02908655 -4.61103564 52.15322431 -9.62109375 51.38671875 C-12.72116526 49.8748091 -15.49013555 47.99132065 -18.30859375 46.01171875 C-19.79061295 45.00235736 -21.27365215 43.99449165 -22.7578125 42.98828125 C-23.40451904 42.53791504 -24.05122559 42.08754883 -24.7175293 41.62353516 C-26.62078433 40.32793532 -26.62078433 40.32793532 -28.82446289 39.33569336 C-30.62109375 38.38671875 -30.62109375 38.38671875 -31.23046875 36.6015625 C-31.276875 35.85003906 -31.32328125 35.09851563 -31.37109375 34.32421875 C-31.42652344 33.44894531 -31.48195312 32.57367188 -31.5390625 31.671875 C-31.70792252 24.90943343 -31.69171273 18.1504476 -31.62109375 11.38671875 C-21.35028271 6.05463813 -11.49533125 1.69603248 0 0 Z " fill="#BE830E" transform="translate(77.62109375,45.61328125)"/>
<path d="M0 0 C0 5.94 0 11.88 0 18 C-2.97 19.65 -5.94 21.3 -9 23 C-9.19002881 36.75597418 -9.19627795 50.17648109 -7.28222656 63.80517578 C-6.73167379 68.08672372 -6.37741304 72.38784823 -6 76.6875 C-5.91911133 77.59870605 -5.83822266 78.50991211 -5.75488281 79.44873047 C-5.58884827 81.32334573 -5.42349425 83.19802138 -5.25878906 85.07275391 C-4.80776513 90.17443023 -4.34037108 95.27461606 -3.875 100.375 C-3.705659 102.23697279 -3.53638144 104.09895134 -3.3671875 105.9609375 C-3.29612793 106.74259277 -3.22506836 107.52424805 -3.15185547 108.32958984 C-3.10174316 108.8808252 -3.05163086 109.43206055 -3 110 C-21.13333333 98.73333333 -21.13333333 98.73333333 -23 95 C-23.18974798 93.25629537 -23.324816 91.50651169 -23.43310547 89.75585938 C-23.53859207 88.11405701 -23.53859207 88.11405701 -23.64620972 86.43908691 C-23.71913239 85.25262573 -23.79205505 84.06616455 -23.8671875 82.84375 C-24.03196302 80.35282555 -24.19734623 77.86194123 -24.36328125 75.37109375 C-24.62178227 71.42759916 -24.87598871 67.48399313 -25.11962891 63.53955078 C-25.3561001 59.74416444 -25.6102261 55.95029655 -25.8671875 52.15625 C-25.93606171 50.96978882 -26.00493591 49.78332764 -26.07589722 48.56091309 C-26.15252594 47.46637817 -26.22915466 46.37184326 -26.30810547 45.24414062 C-26.369487 44.27754517 -26.43086853 43.31094971 -26.49411011 42.31506348 C-26.79967027 39.63200626 -26.79967027 39.63200626 -30 38 C-31.78454575 33.14489833 -31.53327482 27.54826209 -31.8125 22.4375 C-31.88919922 21.38369141 -31.96589844 20.32988281 -32.04492188 19.24414062 C-32.09841797 18.23416016 -32.15191406 17.22417969 -32.20703125 16.18359375 C-32.29174683 14.79998657 -32.29174683 14.79998657 -32.37817383 13.38842773 C-32 11 -32 11 -30.1809082 9.25830078 C-22.89010229 5.05178408 -14.24677501 2.74735714 -5.98828125 1.359375 C-3.95772715 0.99235933 -2.04549325 0 0 0 Z " fill="#DB9C19" transform="translate(33,20)"/>
<path d="M0 0 C1.74053759 0.93964079 3.47988928 1.88147843 5.21875 2.82421875 C6.18748047 3.34846436 7.15621094 3.87270996 8.15429688 4.4128418 C11.2995639 6.16707832 14.33176946 8.04770501 17.34375 10.01953125 C19.14921271 11.16704341 19.14921271 11.16704341 22 12 C22 30.81 22 49.62 22 69 C15.25069417 69 15.25069417 69 12.45703125 66.8828125 C11.85826172 66.44066406 11.25949219 65.99851562 10.64257812 65.54296875 C9.73668945 64.84107422 9.73668945 64.84107422 8.8125 64.125 C7.58986729 63.21090601 6.36721186 62.29684242 5.14453125 61.3828125 C4.10683594 60.59648437 3.06914063 59.81015625 2 59 C1.01 58.34 0.02 57.68 -1 57 C-0.505 56.505 -0.505 56.505 0 56 C0.09365006 54.2507128 0.11744438 52.49763746 0.11352539 50.74584961 C0.11344986 49.62476303 0.11337433 48.50367645 0.11329651 47.34861755 C0.10813522 46.1288472 0.10297394 44.90907684 0.09765625 43.65234375 C0.09553383 41.7899984 0.09553383 41.7899984 0.09336853 39.89002991 C0.08870591 36.58394509 0.07971497 33.27792854 0.06866455 29.97186279 C0.05844827 26.6003885 0.05387045 23.22890717 0.04882812 19.85742188 C0.03777395 13.23826225 0.02101736 6.61913507 0 0 Z " fill="#E5A419" transform="translate(51,88)"/>
<path d="M0 0 C4.47314806 1.39149522 8.6209474 3.09411887 12.8125 5.1875 C13.95332031 5.73792969 15.09414062 6.28835937 16.26953125 6.85546875 C19 9 19 9 19.90234375 12.09765625 C20.02088344 16.83450243 19.97831115 21.51773249 19.75 26.25 C19.72292969 27.1471875 19.69585937 28.044375 19.66796875 28.96875 C19.62800781 29.82984375 19.58804688 30.6909375 19.546875 31.578125 C19.51432617 32.35575195 19.48177734 33.13337891 19.44824219 33.93457031 C19 36 19 36 17.50683594 37.33081055 C15.10982034 39.98609176 15.48829006 42.62359219 15.34375 46.12890625 C15.31124146 46.83487442 15.27873291 47.54084259 15.24523926 48.26820374 C15.14708642 50.51184075 15.07100586 52.75535157 15 55 C14.97518555 55.70888367 14.95037109 56.41776733 14.92480469 57.14813232 C14.7286074 62.79812381 14.58424686 68.44912876 14.44775391 74.10083008 C14.25847595 81.77874266 14.02172699 89.37961951 13 97 C12.67 97 12.34 97 12 97 C12.33 77.86 12.66 58.72 13 39 C7.72 40.98 2.44 42.96 -3 45 C-5.475 45.495 -5.475 45.495 -8 46 C-8.02505615 45.2886792 -8.0501123 44.5773584 -8.07592773 43.84448242 C-8.19188439 40.62530483 -8.31461245 37.40642015 -8.4375 34.1875 C-8.47681641 33.06794922 -8.51613281 31.94839844 -8.55664062 30.79492188 C-8.61948242 29.18520508 -8.61948242 29.18520508 -8.68359375 27.54296875 C-8.72025146 26.55321045 -8.75690918 25.56345215 -8.79467773 24.54370117 C-8.90790331 21.8781649 -8.90790331 21.8781649 -10 19 C-9.02783203 17.39013672 -9.02783203 17.39013672 -7.5078125 15.6796875 C-6.96769531 15.06222656 -6.42757812 14.44476563 -5.87109375 13.80859375 C-5.00677734 12.85146484 -5.00677734 12.85146484 -4.125 11.875 C-3.55652344 11.22917969 -2.98804688 10.58335938 -2.40234375 9.91796875 C1.47405134 5.52594866 1.47405134 5.52594866 3 4 C2.505 3.525625 2.01 3.05125 1.5 2.5625 C0 1 0 1 0 0 Z " fill="#B9831A" transform="translate(140,26)"/>
<path d="M0 0 C2.93725943 2.93725943 3.03324546 5.70501303 3.47265625 9.75 C4.29550901 12.74577532 5.52716508 13.53598226 8.125 15.125 C6.475 15.455 4.825 15.785 3.125 16.125 C2.93164062 15.19816406 2.73828125 14.27132813 2.5390625 13.31640625 C2.27867188 12.11886719 2.01828125 10.92132813 1.75 9.6875 C1.49476562 8.49253906 1.23953125 7.29757812 0.9765625 6.06640625 C0.69554687 5.09574219 0.41453125 4.12507812 0.125 3.125 C-0.535 2.795 -1.195 2.465 -1.875 2.125 C-1.545 3.32125 -1.215 4.5175 -0.875 5.75 C1.73804958 17.86849082 -0.24052224 28.54010215 -3.875 40.125 C-10.39853996 39.59060412 -16.12783032 38.36133603 -22.3125 36.25 C-23.11365234 35.99347656 -23.91480469 35.73695312 -24.74023438 35.47265625 C-25.50529297 35.21613281 -26.27035156 34.95960937 -27.05859375 34.6953125 C-27.74493896 34.46602051 -28.43128418 34.23672852 -29.13842773 34.00048828 C-30.875 33.125 -30.875 33.125 -32.875 30.125 C-31.885 28.64 -31.885 28.64 -30.875 27.125 C-30.5963842 24.94163332 -30.5963842 24.94163332 -30.6875 22.625 C-30.69394531 21.8515625 -30.70039062 21.078125 -30.70703125 20.28125 C-30.8019435 17.94151151 -30.8019435 17.94151151 -31.875 15.125 C-27.125 11.125 -27.125 11.125 -24.875 11.125 C-24.875 10.465 -24.875 9.805 -24.875 9.125 C-23.2353279 7.75860658 -21.56389872 6.4300581 -19.875 5.125 C-19.215 4.42375 -18.555 3.7225 -17.875 3 C-12.80180781 -1.75611768 -6.39795199 -1.94720278 0 0 Z " fill="#EF494A" transform="translate(116.875,1.875)"/>
<path d="M0 0 C5.71124583 2.26051504 10.79543122 4.36516116 15 9 C16.41431385 13.19417211 16.68004688 17.28858887 16.87890625 21.6953125 C17.05638167 25.07307056 17.4038972 28.43029742 17.73291016 31.79614258 C18.00222461 34.58554114 18.25046101 37.37605188 18.4921875 40.16796875 C19.01845739 46.23864672 19.57051398 52.30684359 20.125 58.375 C20.29436908 60.23697023 20.46364929 62.09894855 20.6328125 63.9609375 C20.70387207 64.74259277 20.77493164 65.52424805 20.84814453 66.32958984 C20.89825684 66.8808252 20.94836914 67.43206055 21 68 C18.28686985 66.29754762 15.58623447 64.58254782 12.90625 62.828125 C10.17606594 61.02162862 10.17606594 61.02162862 7.78125 59.984375 C5.54076491 58.86413246 4.51291946 58.02094107 3 56 C0.24928849 44.01332284 0.58711513 31.23197247 0.375 19 C0.33669581 17.14581751 0.29763756 15.29165044 0.2578125 13.4375 C0.16321303 8.95846282 0.07870846 4.47934343 0 0 Z " fill="#DEA01A" transform="translate(9,62)"/>
<path d="M0 0 C0.77601563 0.09023438 1.55203125 0.18046875 2.3515625 0.2734375 C4.375 0.625 4.375 0.625 6.375 1.625 C5.81650431 10.56093106 1.18696359 16.18275606 -5.07421875 22.27734375 C-8.11070411 24.91610307 -10.69443739 24.82891421 -14.6484375 24.79296875 C-17.00415131 24.59277963 -18.66099056 23.93433963 -20.625 22.625 C-19.635 22.295 -18.645 21.965 -17.625 21.625 C-18.615 21.521875 -19.605 21.41875 -20.625 21.3125 C-24.27373124 20.80820381 -27.44047892 19.66212981 -30.828125 18.24609375 C-32.78070154 17.46165644 -32.78070154 17.46165644 -35.625 17.625 C-35.625 17.955 -35.625 18.285 -35.625 18.625 C-36.5221875 18.62757812 -37.419375 18.63015625 -38.34375 18.6328125 C-48.78543697 18.9564185 -57.07412123 21.54253888 -66.625 25.625 C-68.58131493 26.44234789 -70.53932714 27.25566196 -72.5 28.0625 C-73.26054688 28.39121094 -74.02109375 28.71992187 -74.8046875 29.05859375 C-76.625 29.625 -76.625 29.625 -78.625 28.625 C-70.65553704 24.88701737 -62.68682622 21.16088869 -54.625 17.625 C-58.99029783 18.12105657 -63.01764501 18.99750099 -67.25 20.1875 C-73.7563231 21.88408552 -79.94048018 21.91610006 -86.625 21.625 C-87.945 19.315 -89.265 17.005 -90.625 14.625 C-86.56552163 13.44763944 -82.50197071 12.2849977 -78.4375 11.125 C-77.28701172 10.79113281 -76.13652344 10.45726562 -74.95117188 10.11328125 C-73.83935547 9.79746094 -72.72753906 9.48164062 -71.58203125 9.15625 C-70.56085205 8.86298828 -69.53967285 8.56972656 -68.48754883 8.26757812 C-65.75585047 7.654373 -63.41197263 7.4996422 -60.625 7.625 C-60.50125 8.264375 -60.3775 8.90375 -60.25 9.5625 C-60.04375 10.243125 -59.8375 10.92375 -59.625 11.625 C-56.86047967 13.00726016 -54.5788637 12.72025387 -51.5 12.6875 C-50.40429688 12.67847656 -49.30859375 12.66945313 -48.1796875 12.66015625 C-47.33664063 12.64855469 -46.49359375 12.63695312 -45.625 12.625 C-45.295 11.305 -44.965 9.985 -44.625 8.625 C-38.49957878 9.73871295 -32.74013374 11.51224561 -26.875 13.5625 C-26.14224854 13.81531738 -25.40949707 14.06813477 -24.65454102 14.32861328 C-20.68705387 15.74062389 -17.16435852 17.2909742 -13.625 19.625 C-11.35883385 13.37038144 -9.78704993 7.17349313 -8.625 0.625 C-5.55812991 -0.31326619 -3.17492204 -0.39288333 0 0 Z " fill="#5A120D" transform="translate(127.625,25.375)"/>
<path d="M0 0 C4.455 0.99 4.455 0.99 9 2 C9 2.66 9 3.32 9 4 C11.97 4.495 11.97 4.495 15 5 C15 5.66 15 6.32 15 7 C16.1446875 7.185625 16.1446875 7.185625 17.3125 7.375 C20 8 20 8 23 10 C32.08356944 11.15960461 41.13244417 6.67684189 49.0625 2.63671875 C51.41632696 1.86318287 52.69187491 2.20142994 55 3 C50.05338393 5.32418967 45.10182105 7.59800569 40 9.5625 C39.32654541 9.82272949 38.65309082 10.08295898 37.95922852 10.35107422 C36.62695418 10.86107418 35.2915253 11.36291958 33.95288086 11.85595703 C30.45805199 13.19600018 29.13938394 13.79092409 27 17 C26.63303819 19.51502177 26.63303819 19.51502177 26.5859375 22.32421875 C26.54726562 23.35224609 26.50859375 24.38027344 26.46875 25.43945312 C26.4378125 26.51130859 26.406875 27.58316406 26.375 28.6875 C26.33632812 29.77095703 26.29765625 30.85441406 26.2578125 31.97070312 C26.16349491 34.64696467 26.07789995 37.32321843 26 40 C20.30352963 39.56791479 16.89074174 37.26939628 12.375 34.0625 C11.07168936 33.15557025 9.76704076 32.25055961 8.4609375 31.34765625 C7.89165527 30.94554932 7.32237305 30.54344238 6.73583984 30.12915039 C4.9747862 28.92896578 4.9747862 28.92896578 2.82177734 27.96484375 C1 27 1 27 0.390625 25.21484375 C0.34421875 24.46332031 0.2978125 23.71179688 0.25 22.9375 C0.19457031 22.06222656 0.13914063 21.18695313 0.08203125 20.28515625 C-0.08682877 13.52271468 -0.07061898 6.76372885 0 0 Z " fill="#E7A719" transform="translate(46,57)"/>
<path d="M0 0 C5.04951114 0.76701435 9.08646592 3.42893554 13.4609375 5.96875 C14.38777344 6.49339844 15.31460938 7.01804687 16.26953125 7.55859375 C18.54840255 8.85073727 20.81990604 10.15426106 23.0859375 11.46875 C23.0859375 12.12875 23.0859375 12.78875 23.0859375 13.46875 C22.09013672 13.74138672 22.09013672 13.74138672 21.07421875 14.01953125 C15.63547507 15.52540129 15.63547507 15.52540129 10.5859375 17.96875 C4.80983746 21.43441002 -2.20881019 23.27338028 -8.9140625 22.46875 C-11.1015625 21.03125 -11.1015625 21.03125 -12.9140625 19.46875 C-15.06140177 18.76360154 -15.06140177 18.76360154 -16.9140625 18.46875 C-16.9140625 17.80875 -16.9140625 17.14875 -16.9140625 16.46875 C-19.8840625 15.97375 -19.8840625 15.97375 -22.9140625 15.46875 C-22.9140625 14.80875 -22.9140625 14.14875 -22.9140625 13.46875 C-23.8628125 13.345 -24.8115625 13.22125 -25.7890625 13.09375 C-28.9140625 12.46875 -28.9140625 12.46875 -30.9140625 10.46875 C-27.94047154 9.16397873 -24.95929939 7.87745955 -21.9765625 6.59375 C-21.14576172 6.22894531 -20.31496094 5.86414062 -19.45898438 5.48828125 C-13.02937998 2.7363105 -6.88382312 1.10731739 0 0 Z " fill="#E08218" transform="translate(77.9140625,45.53125)"/>
<path d="M0 0 C0 5.94 0 11.88 0 18 C-7.47443147 22.3787338 -7.47443147 22.3787338 -11.38183594 21.40869141 C-13.82880248 20.17905225 -16.08686815 18.81684129 -18.375 17.3125 C-19.94457669 16.34906065 -21.51485955 15.38677055 -23.0859375 14.42578125 C-24.1076001 13.76703003 -24.1076001 13.76703003 -25.14990234 13.0949707 C-27.11364221 11.84486825 -27.11364221 11.84486825 -30 11 C-30 10.34 -30 9.68 -30 9 C-13.70382514 2.5704918 -13.70382514 2.5704918 -5.91796875 1.32421875 C-3.90079353 0.98322986 -2.02799737 0 0 0 Z " fill="#C8871A" transform="translate(33,20)"/>
<path d="M0 0 C-0.5590888 3.24271506 -1.4132178 4.93057424 -4 7 C-4.66 7 -5.32 7 -6 7 C-6 7.66 -6 8.32 -6 9 C-8.80735189 11.90914518 -10.38988419 12.93857431 -14.453125 13.34765625 C-21.9812949 12.782269 -29.06836395 12.20900019 -35 7 C-35.33 6.01 -35.66 5.02 -36 4 C-32.29973433 2.62304233 -28.58876171 1.2775863 -24.875 -0.0625 C-23.82828125 -0.45244141 -22.7815625 -0.84238281 -21.703125 -1.24414062 C-20.68476562 -1.60830078 -19.66640625 -1.97246094 -18.6171875 -2.34765625 C-17.68503418 -2.68804932 -16.75288086 -3.02844238 -15.79248047 -3.37915039 C-9.94449446 -4.67932773 -5.20922942 -2.39624553 0 0 Z " fill="#C27F1B" transform="translate(98,4)"/>
<path d="M0 0 C1.98019743 0.47488898 3.95913635 0.95502859 5.9375 1.4375 C7.03964844 1.70433594 8.14179687 1.97117188 9.27734375 2.24609375 C12 3 12 3 13 4 C14.51469448 4.23192865 16.03754562 4.41215238 17.5625 4.5625 C18.38878906 4.64628906 19.21507812 4.73007812 20.06640625 4.81640625 C20.70449219 4.87699219 21.34257813 4.93757813 22 5 C21.34 5.66 20.68 6.32 20 7 C21.19239385 8.41560622 21.19239385 8.41560622 24.625 8.1875 C28.67543332 8.15846464 32.11241643 7.12141834 36 6 C38.4375 6.375 38.4375 6.375 40 7 C35.08808561 9.95612603 30.25618226 12.22931931 24.875 14.1875 C24.18535156 14.44724609 23.49570313 14.70699219 22.78515625 14.97460938 C13.19338821 18.52338015 13.19338821 18.52338015 9.7109375 16.99609375 C8.94007812 16.48175781 8.16921875 15.96742187 7.375 15.4375 C6.50230469 14.88835938 5.62960938 14.33921875 4.73046875 13.7734375 C2.93207801 12.605384 1.142669 11.42336552 -0.63671875 10.2265625 C-8.01425423 5.63848934 -13.51918803 5.51686913 -22 7 C-16.75309431 3.50206287 -11.85545396 2.72766721 -5.625 2.375 C-3.75714844 2.26285156 -3.75714844 2.26285156 -1.8515625 2.1484375 C-0.44003906 2.07496094 -0.44003906 2.07496094 1 2 C0.67 1.34 0.34 0.68 0 0 Z " fill="#C61A1A" transform="translate(90,41)"/>
<path d="M0 0 C1.98 0.495 1.98 0.495 4 1 C3.01 1.495 3.01 1.495 2 2 C2.495 2.61875 2.99 3.2375 3.5 3.875 C5 6 5 6 5 8 C13.68948803 7.70693126 21.40601076 6.30499044 29.6875 3.83984375 C32.64149641 3.09089419 34.97857262 2.82260559 38 3 C35.66918693 5.64916803 33.47377147 6.83785458 30.21875 8.15625 C29.29449219 8.53910156 28.37023437 8.92195313 27.41796875 9.31640625 C25.47265625 10.10546875 23.52734375 10.89453125 21.58203125 11.68359375 C20.65777344 12.06644531 19.73351562 12.44929688 18.78125 12.84375 C17.93626953 13.18599609 17.09128906 13.52824219 16.22070312 13.88085938 C13.93673186 15.03188447 12.5533356 15.97327576 11 18 C10.75139921 20.77308257 10.67055813 23.29786319 10.75 26.0625 C10.76240723 26.82312744 10.77481445 27.58375488 10.78759766 28.36743164 C10.28288973 38.4516948 10.28288973 38.4516948 14 47 C14.27174377 49.39099121 14.27174377 49.39099121 14.30297852 52.42773438 C14.31962051 53.56231079 14.33626251 54.69688721 14.35340881 55.86584473 C14.36182297 57.09605347 14.37023712 58.32626221 14.37890625 59.59375 C14.39590073 60.85135132 14.4128952 62.10895264 14.43040466 63.40466309 C14.47463871 66.75103554 14.51091427 70.09728576 14.54260254 73.44378662 C14.58825059 78.16107852 14.64416098 82.87822195 14.70530701 87.59533691 C14.73735285 90.10821434 14.76421486 92.62116398 14.78553772 95.13415527 C14.79902756 96.26873169 14.8125174 97.40330811 14.82641602 98.57226562 C14.83592789 99.57439087 14.84543976 100.57651611 14.85523987 101.60900879 C14.84398188 104.01491624 14.84398188 104.01491624 16 106 C14.515 105.505 14.515 105.505 13 105 C12.9498877 103.92331055 12.89977539 102.84662109 12.84814453 101.73730469 C11.93665055 78.57792968 11.93665055 78.57792968 9.9375 55.5 C8.35365203 42.08315654 8.32054956 28.49435466 8 15 C6.68 14.67 5.36 14.34 4 14 C4.1546875 12.9171875 4.1546875 12.9171875 4.3125 11.8125 C4.26679684 8.73320316 4.26679684 8.73320316 1.4375 6.4375 C0.633125 5.633125 -0.17125 4.82875 -1 4 C-0.8125 1.6875 -0.8125 1.6875 0 0 Z " fill="#C7291D" transform="translate(36,39)"/>
<path d="M0 0 C3.94609056 0.21886962 8.75498268 0.50498268 11.6875 3.4375 C12.20386861 9.53064959 11.75432422 12.5799044 7.6875 17.4375 C5.18156555 20.12242977 3.19506534 20.68948815 -0.375 20.9375 C-4.3125 20.4375 -4.3125 20.4375 -6.3125 18.5625 C-8.07550362 13.0531137 -8.03502164 7.84590545 -6.375 2.3125 C-3.95957598 0.11665998 -3.17536616 0.10156895 0 0 Z " fill="#E84143" transform="translate(73.3125,16.5625)"/>
<path d="M0 0 C4.47314806 1.39149522 8.6209474 3.09411887 12.8125 5.1875 C13.95332031 5.73792969 15.09414062 6.28835937 16.26953125 6.85546875 C19 9 19 9 19.9140625 12.0859375 C20.019658 16.89533253 19.86312172 21.63791871 19.5625 26.4375 C19.51029297 27.35982422 19.45808594 28.28214844 19.40429688 29.23242188 C19.27569984 31.48871536 19.1407929 33.74444029 19 36 C18.67 36 18.34 36 18 36 C17.505 24.12 17.505 24.12 17 12 C10.68543002 14.5809498 10.68543002 14.5809498 4.37646484 17.17553711 C-0.07443103 18.9754193 -4.18136953 20.49572472 -9 21 C-9 16.88522189 -7.31136484 15.61348556 -4.6875 12.5 C-3.48673828 11.06140625 -3.48673828 11.06140625 -2.26171875 9.59375 C-0.56253629 7.64511934 1.1352078 5.78633816 3 4 C2.505 3.525625 2.01 3.05125 1.5 2.5625 C0 1 0 1 0 0 Z " fill="#C88D2E" transform="translate(140,26)"/>
<path d="M0 0 C0.77601563 0.09023438 1.55203125 0.18046875 2.3515625 0.2734375 C4.375 0.625 4.375 0.625 6.375 1.625 C6.00922282 7.47743483 4.37679822 12.20252758 0.375 16.625 C-1.55859375 17.47265625 -1.55859375 17.47265625 -3.625 17.625 C-6.18836313 16.58819255 -8.27567673 15.11591669 -10.625 13.625 C-9.965 9.335 -9.305 5.045 -8.625 0.625 C-5.10930228 -0.25392443 -3.44065435 -0.42576659 0 0 Z " fill="#614501" transform="translate(127.625,25.375)"/>
<path d="M0 0 C0.99 0.33 1.98 0.66 3 1 C3.13277344 1.78246094 3.26554687 2.56492187 3.40234375 3.37109375 C3.57894531 4.38300781 3.75554687 5.39492187 3.9375 6.4375 C4.11152344 7.44683594 4.28554687 8.45617187 4.46484375 9.49609375 C4.74751097 11.9287438 4.74751097 11.9287438 6 13 C6.86625 12.938125 7.7325 12.87625 8.625 12.8125 C13.08414622 13.06023035 15.26625483 14.61040309 19 17 C19 17.99 19 18.98 19 20 C13.77487721 21.46670113 9.4185766 22.22577402 4 22 C3.97421875 22.61746094 3.9484375 23.23492188 3.921875 23.87109375 C3.49051026 30.31215364 1.96932108 35.28233058 -1 41 C-2.65 40.34 -4.3 39.68 -6 39 C-4.02 38.505 -4.02 38.505 -2 38 C-1.49924535 35.26772707 -1.00159074 32.5350313 -0.51171875 29.80078125 C-0.16125704 27.88260531 0.21920491 25.96973693 0.625 24.0625 C1.60884118 16.027797 1.06604428 7.99533207 0 0 Z " fill="#A9241F" transform="translate(115,4)"/>
<path d="M0 0 C2.64 0.66 5.28 1.32 8 2 C8 2.66 8 3.32 8 4 C10.97 4.495 10.97 4.495 14 5 C14 5.66 14 6.32 14 7 C15.1446875 7.185625 15.1446875 7.185625 16.3125 7.375 C19 8 19 8 22 10 C31.08356944 11.15960461 40.13244417 6.67684189 48.0625 2.63671875 C50.41632696 1.86318287 51.69187491 2.20142994 54 3 C47.10704452 6.23868594 40.1434949 9.20188664 33.04077148 11.94384766 C30.10137689 13.09234513 27.6409238 14.23938413 25 16 C24.49095616 18.4157113 24.49095616 18.4157113 24.48828125 21.2265625 C24.45283203 22.2578125 24.41738281 23.2890625 24.38085938 24.3515625 C24.35830078 25.43179688 24.33574219 26.51203125 24.3125 27.625 C24.27833984 28.71296875 24.24417969 29.8009375 24.20898438 30.921875 C24.12631666 33.61448063 24.05722913 36.30675291 24 39 C23.67 39 23.34 39 23 39 C23.02525757 38.04746338 23.02525757 38.04746338 23.05102539 37.07568359 C23.10156341 34.17411358 23.08262671 31.27690541 23.0625 28.375 C23.09021484 27.37597656 23.11792969 26.37695312 23.14648438 25.34765625 C23.1067096 19.69435837 23.1067096 19.69435837 20.17358398 15.09741211 C17.84859524 13.53301448 15.50808571 12.24680872 13 11 C11.75342915 10.26608277 10.51190182 9.52348069 9.27734375 8.76953125 C7.02992216 7.45262106 4.77986631 6.14019728 2.52734375 4.83203125 C1.69332031 4.22746094 0.85929687 3.62289062 0 3 C0 2.01 0 1.02 0 0 Z " fill="#F8C418" transform="translate(47,57)"/>
<path d="M0 0 C2.74693224 4.12039836 3 7.07695542 3 12 C3.17983491 14.27145321 3.36818734 16.54223947 3.5625 18.8125 C3.93506004 23.77479276 4.04117378 28.14118905 3 33 C4.485 33.495 4.485 33.495 6 34 C3.03 34.66 0.06 35.32 -3 36 C-3 29.07 -3 22.14 -3 15 C-3.66 15 -4.32 15 -5 15 C-5 15.66 -5 16.32 -5 17 C-9.1077065 18.58706842 -10.59232396 19.10191901 -15 18 C-12.03 17.34 -9.06 16.68 -6 16 C-6 15.34 -6 14.68 -6 14 C-5.34 14 -4.68 14 -4 14 C-3.79503906 13.15695313 -3.59007812 12.31390625 -3.37890625 11.4453125 C-3.10949219 10.34960938 -2.84007812 9.25390625 -2.5625 8.125 C-2.29566406 7.03445312 -2.02882813 5.94390625 -1.75390625 4.8203125 C-1 2 -1 2 0 0 Z " fill="#FC5D59" transform="translate(37,4)"/>
<path d="M0 0 C0.66 0 1.32 0 2 0 C2.33 7.92 2.66 15.84 3 24 C4.32 24.66 5.64 25.32 7 26 C8.75 28.125 8.75 28.125 10 30 C9.34 30 8.68 30 8 30 C8 31.32 8 32.64 8 34 C9.65 34.33 11.3 34.66 13 35 C13 35.99 13 36.98 13 38 C11.68428397 37.7452486 10.37239624 37.47065859 9.0625 37.1875 C8.33160156 37.03667969 7.60070312 36.88585938 6.84765625 36.73046875 C6.23792969 36.48941406 5.62820312 36.24835937 5 36 C4.505 34.515 4.505 34.515 4 33 C1.73774618 31.92745649 1.73774618 31.92745649 -1 31 C-6.64488855 28.56495004 -6.64488855 28.56495004 -8.375 25.8125 C-8.58125 25.214375 -8.7875 24.61625 -9 24 C-5.96552304 21.52746322 -3.81433013 20.52573205 0 19 C0 12.73 0 6.46 0 0 Z " fill="#D1342B" transform="translate(32,19)"/>
<path d="M0 0 C0 1.32 0 2.64 0 4 C-9.17591393 9.39274102 -16.05368854 12.14554422 -27 11 C-27.66 9.68 -28.32 8.36 -29 7 C-24.919064 5.82483331 -20.83488859 4.66134593 -16.75 3.5 C-15.59113281 3.16613281 -14.43226562 2.83226562 -13.23828125 2.48828125 C-12.12324219 2.17246094 -11.00820313 1.85664062 -9.859375 1.53125 C-8.83295898 1.23798828 -7.80654297 0.94472656 -6.74902344 0.64257812 C-4 0 -4 0 0 0 Z " fill="#440707" transform="translate(66,33)"/>
<path d="M0 0 C2.9375 1.25 2.9375 1.25 6 3 C6.875 5.1875 6.875 5.1875 7 7 C8.32 7.33 9.64 7.66 11 8 C9.7934375 8.8971875 9.7934375 8.8971875 8.5625 9.8125 C3.66012585 13.85666476 -0.0850542 19.03236877 -4 24 C-5.32 23.01 -6.64 22.02 -8 21 C-7.401875 20.29875 -6.80375 19.5975 -6.1875 18.875 C-2.87866848 14.52625 -0.79793897 10.425985 0 5 C-2.97 4.505 -2.97 4.505 -6 4 C-5.67 3.34 -5.34 2.68 -5 2 C-3.35 2 -1.7 2 0 2 C0 1.34 0 0.68 0 0 Z " fill="#A67011" transform="translate(134,22)"/>
<path d="M0 0 C2.10601382 0.45128868 3.84525712 0.91212565 5.7265625 1.98046875 C9.63586319 3.73360875 13.87715344 3.85095147 18.1015625 4.33984375 C21 5 21 5 23 8 C23.6320746 12.96364462 23.32005605 17.5048914 21 22 C20.34 22 19.68 22 19 22 C18.67 23.65 18.34 25.3 18 27 C16.06280622 27.05406122 14.12518079 27.09282025 12.1875 27.125 C11.10855469 27.14820312 10.02960938 27.17140625 8.91796875 27.1953125 C6 27 6 27 3 25 C3.33 24.34 3.66 23.68 4 23 C4.33 23.33 4.66 23.66 5 24 C10.74776837 24.51579536 10.74776837 24.51579536 15.875 22.25 C19.22175596 18.70637605 20.09946315 16.58497701 20.125 11.75 C20.08375 10.5125 20.0425 9.275 20 8 C15.01770224 6.08373163 10.27315333 5.4452885 5 5 C3.24836544 8.77222089 2.77509973 11.666639 2.875 15.8125 C2.89304687 16.78832031 2.91109375 17.76414062 2.9296875 18.76953125 C2.95289062 19.50558594 2.97609375 20.24164063 3 21 C2.01 20.67 1.02 20.34 0 20 C0.14235457 18.27054347 0.28904382 16.54144346 0.4375 14.8125 C0.51871094 13.84957031 0.59992188 12.88664062 0.68359375 11.89453125 C1 9 1 9 1.59375 6.28125 C2.08994285 3.49493632 1.48066173 2.35163922 0 0 Z " fill="#CA2A2C" transform="translate(64,12)"/>
<path d="M0 0 C1.98 0.99 1.98 0.99 4 2 C4.01030746 2.70965912 4.02061493 3.41931824 4.03123474 4.15048218 C4.12912188 10.83107033 4.23162371 17.51156975 4.33933926 24.19200706 C4.39455623 27.62666983 4.44797423 31.06134113 4.49731445 34.49609375 C4.55408707 38.44279889 4.61862398 42.38935842 4.68359375 46.3359375 C4.70030624 47.57242035 4.71701874 48.8089032 4.73423767 50.08285522 C4.75418289 51.22388702 4.77412811 52.36491882 4.79467773 53.54052734 C4.81022202 54.548685 4.8257663 55.55684265 4.84178162 56.59555054 C4.8448655 59.01266444 4.8448655 59.01266444 6 61 C5.01 60.67 4.02 60.34 3 60 C2.91697632 58.3142688 2.91697632 58.3142688 2.83227539 56.59448242 C2.62394372 52.37675638 2.41261636 48.1591846 2.20043945 43.94165039 C2.10946818 42.12528413 2.01928127 40.30887839 1.92993164 38.49243164 C1.49588472 29.67812684 1.06267478 20.88430171 0.18969727 12.1003418 C-0.04528647 9.49858491 -0.10034565 6.92384977 -0.0625 4.3125 C-0.05347656 3.48363281 -0.04445312 2.65476562 -0.03515625 1.80078125 C-0.01775391 0.90939453 -0.01775391 0.90939453 0 0 Z " fill="#943410" transform="translate(46,84)"/>
<path d="M0 0 C0.70125 0.495 1.4025 0.99 2.125 1.5 C1.135 1.995 1.135 1.995 0.125 2.5 C0.125 3.16 0.125 3.82 0.125 4.5 C-0.535 4.5 -1.195 4.5 -1.875 4.5 C-2.205 5.16 -2.535 5.82 -2.875 6.5 C-4.12216797 6.46519531 -4.12216797 6.46519531 -5.39453125 6.4296875 C-6.48121094 6.41164063 -7.56789063 6.39359375 -8.6875 6.375 C-9.76644531 6.35179687 -10.84539062 6.32859375 -11.95703125 6.3046875 C-15.06902868 6.26976283 -15.06902868 6.26976283 -17.875 8.5 C-17.875 6.52 -17.875 4.54 -17.875 2.5 C-18.535 2.17 -19.195 1.84 -19.875 1.5 C-5.41176471 -2.82352941 -5.41176471 -2.82352941 0 0 Z " fill="#E17117" transform="translate(83.875,47.5)"/>
<path d="M0 0 C3.91211733 1.15585285 6.8745041 2.35534962 10 5 C4.63168517 10.63673058 4.63168517 10.63673058 0.89453125 11.46875 C-2.81672158 11.52445361 -5.8926198 11.0715868 -9 9 C-8.01 8.67 -7.02 8.34 -6 8 C-8.31 7.67 -10.62 7.34 -13 7 C-13 6.67 -13 6.34 -13 6 C-10.69 6 -8.38 6 -6 6 C-5.67 5.34 -5.34 4.68 -5 4 C-4.01 4.66 -3.02 5.32 -2 6 C-1.34 4.02 -0.68 2.04 0 0 Z " fill="#721B1A" transform="translate(116,39)"/>
<path d="M0 0 C2.64 0.66 5.28 1.32 8 2 C8 2.66 8 3.32 8 4 C10.97 4.495 10.97 4.495 14 5 C14 5.66 14 6.32 14 7 C15.11375 7.0928125 15.11375 7.0928125 16.25 7.1875 C19.87129113 8.25742693 20.98712115 9.86885512 23 13 C23 13.99 23 14.98 23 16 C17.86518024 14.05083212 13.37314471 11.39903472 8.6875 8.5625 C7.85154297 8.07201172 7.01558594 7.58152344 6.15429688 7.07617188 C4.9699707 6.35977539 4.9699707 6.35977539 3.76171875 5.62890625 C3.03944092 5.19650635 2.31716309 4.76410645 1.57299805 4.31860352 C1.05390869 3.88346436 0.53481934 3.4483252 0 3 C0 2.01 0 1.02 0 0 Z " fill="#FCED1C" transform="translate(47,57)"/>
<path d="M0 0 C1.98 0.495 1.98 0.495 4 1 C3.01 1.495 3.01 1.495 2 2 C2.495 2.61875 2.99 3.2375 3.5 3.875 C5 6 5 6 5 8 C13.68948803 7.70693126 21.40601076 6.30499044 29.6875 3.83984375 C32.64149641 3.09089419 34.97857262 2.82260559 38 3 C35.54234547 5.81347657 32.93721011 7.19314594 29.5625 8.75 C28.61503906 9.19859375 27.66757812 9.6471875 26.69140625 10.109375 C23.67368123 11.10798357 22.94348865 10.89910199 20 10 C16.64280937 9.87291392 13.29126272 9.75225254 9.93164062 9.74609375 C5.93949678 9.60391806 4.14477981 9.11533625 0.984375 6.59765625 C-1 4 -1 4 -0.8125 1.6875 C-0.4103125 0.8521875 -0.4103125 0.8521875 0 0 Z " fill="#B71918" transform="translate(36,39)"/>
<path d="M0 0 C3.68828962 3.68828962 3.19207942 7.95406703 3.28125 12.859375 C3.29965942 13.64080872 3.31806885 14.42224243 3.33703613 15.22735596 C3.39573053 17.73482775 3.44841067 20.24237268 3.5 22.75 C3.74158266 34.19469636 4.11825234 45.58436404 5 57 C1.98082466 53.98082466 2.41574653 50.40109482 2.1484375 46.328125 C2.08467926 45.45412048 2.02092102 44.58011597 1.95523071 43.67962646 C1.82156826 41.82041874 1.6924173 39.96088211 1.56738281 38.10107422 C1.37852142 35.30218677 1.17491943 32.50469088 0.96875 29.70703125 C0.25887849 19.78476739 -0.20777008 9.95197706 0 0 Z " fill="#CEA668" transform="translate(7,60)"/>
<path d="M0 0 C0.66 0 1.32 0 2 0 C2 19.47 2 38.94 2 59 C1.67 59 1.34 59 1 59 C0.71288984 52.02580814 0.42833042 45.05151548 0.14550781 38.07714844 C0.04908425 35.706682 -0.0479139 33.33623886 -0.14550781 30.96582031 C-0.2860333 27.55019054 -0.42446283 24.13448113 -0.5625 20.71875 C-0.60624756 19.66635132 -0.64999512 18.61395264 -0.69506836 17.52966309 C-1.14360927 6.32290895 -1.14360927 6.32290895 -1 1 C-0.67 0.67 -0.34 0.34 0 0 Z " fill="#86430A" transform="translate(100,87)"/>
<path d="M0 0 C2.30838854 0.68782683 4.61567961 1.37906557 6.921875 2.07421875 C9.09721604 2.72847741 11.2744994 3.3762945 13.453125 4.01953125 C14.60296875 4.36371094 15.7528125 4.70789062 16.9375 5.0625 C18.01902344 5.38347656 19.10054687 5.70445313 20.21484375 6.03515625 C23 7 23 7 26 9 C26 9.66 26 10.32 26 11 C19.66369812 11.58669462 16.03026198 10.33866442 10.4765625 7.3125 C7.08571049 5.5154554 3.61615907 4.27235227 0 3 C0 2.01 0 1.02 0 0 Z " fill="#440706" transform="translate(84,34)"/>
<path d="M0 0 C0.33 0 0.66 0 1 0 C1 18.81 1 37.62 1 57 C-0.65 56.67 -2.3 56.34 -4 56 C-4.33 55.34 -4.66 54.68 -5 54 C-3.35 54.33 -1.7 54.66 0 55 C-0.495 53.515 -0.495 53.515 -1 52 C-1.25508713 50.21439008 -1.45648863 48.4208497 -1.625 46.625 C-1.76808594 45.22121094 -1.76808594 45.22121094 -1.9140625 43.7890625 C-2.0151008 39.33419184 -1.64422144 34.99984602 -1.27148438 30.5625 C-0.81795672 24.61117307 -0.63642107 18.6518711 -0.4375 12.6875 C-0.37272461 10.84381836 -0.37272461 10.84381836 -0.30664062 8.96289062 C-0.20201806 5.97533514 -0.09983673 2.98771857 0 0 Z " fill="#DD9816" transform="translate(72,100)"/>
<path d="M0 0 C1.98019743 0.47488898 3.95913635 0.95502859 5.9375 1.4375 C7.03964844 1.70433594 8.14179687 1.97117188 9.27734375 2.24609375 C12 3 12 3 13 4 C14.51469448 4.23192865 16.03754562 4.41215238 17.5625 4.5625 C18.38878906 4.64628906 19.21507812 4.73007812 20.06640625 4.81640625 C20.70449219 4.87699219 21.34257813 4.93757813 22 5 C20 7 20 7 17.1015625 7.265625 C15.95429687 7.26046875 14.80703125 7.2553125 13.625 7.25 C12.48289063 7.25515625 11.34078125 7.2603125 10.1640625 7.265625 C7.06025786 7.00505868 5.69797902 6.36498543 3 5 C-2.88471409 4.47068709 -8.84330987 4.47922138 -14.5625 6.0625 C-17.92534438 6.97963938 -18.8587813 6.98291964 -22 6 C-14.35526412 2.96846681 -7.185766 2.3376774 1 2 C0.67 1.34 0.34 0.68 0 0 Z " fill="#912616" transform="translate(90,41)"/>
<path d="M0 0 C5.10454793 0.5537478 8.96575557 3.02592796 13.3125 5.5625 C14.05306641 5.98724609 14.79363281 6.41199219 15.55664062 6.84960938 C17.37468118 7.89351653 19.18783748 8.94592192 21 10 C20.67 10.99 20.34 11.98 20 13 C15.11164774 12.45892284 11.76691644 10.25849709 7.75 7.625 C7.11320313 7.22539063 6.47640625 6.82578125 5.8203125 6.4140625 C1.12589003 3.37767009 1.12589003 3.37767009 0 0 Z " fill="#FCF21C" transform="translate(3,31)"/>
<path d="M0 0 C-4.91191439 2.95612603 -9.74381774 5.22931931 -15.125 7.1875 C-16.15947266 7.57711914 -16.15947266 7.57711914 -17.21484375 7.97460938 C-24.53246649 10.68198987 -24.53246649 10.68198987 -28 11 C-31.3125 9.0625 -31.3125 9.0625 -34 7 C-33.01 6.67 -32.02 6.34 -31 6 C-30.34 6.33 -29.68 6.66 -29 7 C-23.54642411 6.95714282 -19.55128966 6.07519572 -15 3 C-13.01276732 2.29618843 -11.01222047 1.6288189 -9 1 C-8.13375 0.608125 -7.2675 0.21625 -6.375 -0.1875 C-3.74249574 -1.08809356 -2.56937977 -0.95162214 0 0 Z " fill="#D02F32" transform="translate(130,48)"/>
<path d="M0 0 C-10.54733197 3.31453754 -19.84568953 5.8868268 -31 5 C-31.33 4.01 -31.66 3.02 -32 2 C-30.22496094 1.92652344 -30.22496094 1.92652344 -28.4140625 1.8515625 C-17.07847061 1.37379981 -17.07847061 1.37379981 -5.9453125 -0.6953125 C-3.68654575 -1.04909524 -2.18315047 -0.60324641 0 0 Z " fill="#711415" transform="translate(72,42)"/>
<path d="M0 0 C-0.33 2.31 -0.66 4.62 -1 7 C-1.33 7 -1.66 7 -2 7 C-2 5.35 -2 3.7 -2 2 C-2.6705542 2.2673999 -3.3411084 2.5347998 -4.03198242 2.81030273 C-7.08209743 4.02375532 -10.13475294 5.23068517 -13.1875 6.4375 C-14.24259766 6.85837891 -15.29769531 7.27925781 -16.38476562 7.71289062 C-17.91713867 8.31713867 -17.91713867 8.31713867 -19.48046875 8.93359375 C-20.41785889 9.30540771 -21.35524902 9.67722168 -22.32104492 10.06030273 C-24.87642773 10.95665454 -27.33480176 11.54135764 -30 12 C-30.33 11.34 -30.66 10.68 -31 10 C-29.97261719 9.62488281 -28.94523437 9.24976562 -27.88671875 8.86328125 C-26.48662775 8.34730674 -25.08691387 7.8303082 -23.6875 7.3125 C-22.96143555 7.04429443 -22.23537109 6.77608887 -21.48730469 6.49975586 C-16.25349448 4.53910071 -11.22126847 2.3173211 -6.234375 -0.21484375 C-3.6847246 -1.11078733 -2.49913229 -0.92284472 0 0 Z " fill="#A66B0C" transform="translate(100,88)"/>
<path d="M0 0 C0.99 0.33 1.98 0.66 3 1 C3 12.22 3 23.44 3 35 C2.67 35 2.34 35 2 35 C1.65985722 31.04222159 1.32915088 27.0837065 1 23.125 C0.85691406 21.46210937 0.85691406 21.46210937 0.7109375 19.765625 C0.16678217 13.15802455 -0.13503301 6.62974592 0 0 Z " fill="#631C06" transform="translate(46,84)"/>
<path d="M0 0 C5.06169166 1.86091605 9.45672862 4.57088764 14.0625 7.34375 C16.66854949 8.81311833 19.19709483 9.96952016 22 11 C22 11.99 22 12.98 22 14 C20.68428397 13.7452486 19.37239624 13.47065859 18.0625 13.1875 C17.33160156 13.03667969 16.60070312 12.88585938 15.84765625 12.73046875 C15.23792969 12.48941406 14.62820312 12.24835937 14 12 C13.67 11.01 13.34 10.02 13 9 C10.73774618 7.92745649 10.73774618 7.92745649 8 7 C2.35511145 4.56495004 2.35511145 4.56495004 0.625 1.8125 C0.41875 1.214375 0.2125 0.61625 0 0 Z " fill="#FA6767" transform="translate(23,43)"/>
<path d="M0 0 C0.66 0.99 1.32 1.98 2 3 C4.33938184 3.96614176 6.5973009 4.79778553 9 5.5625 C15.75222883 7.75222883 15.75222883 7.75222883 18 10 C17.071875 9.835 16.14375 9.67 15.1875 9.5 C12.04378647 8.92251612 12.04378647 8.92251612 9 9 C9 9.33 9 9.66 9 10 C5.37 10 1.74 10 -2 10 C-0.35 8.68 1.3 7.36 3 6 C1.68 5.34 0.36 4.68 -1 4 C-0.67 2.68 -0.34 1.36 0 0 Z " fill="#6D1412" transform="translate(83,34)"/>
<path d="M0 0 C2.31 0.33 4.62 0.66 7 1 C7.34573147 6.76219112 7.34446833 11.04096075 4 16 C1.3125 18.375 1.3125 18.375 -1 20 C-1.66 19.67 -2.32 19.34 -3 19 C-2.401875 18.29875 -1.80375 17.5975 -1.1875 16.875 C2.12133152 12.52625 4.20206103 8.425985 5 3 C2.03 2.505 2.03 2.505 -1 2 C-0.67 1.34 -0.34 0.68 0 0 Z " fill="#895E09" transform="translate(129,24)"/>
<path d="M0 0 C0.70125 0.515625 1.4025 1.03125 2.125 1.5625 C2.125 1.8925 2.125 2.2225 2.125 2.5625 C-5.135 2.5625 -12.395 2.5625 -19.875 2.5625 C-15.25848239 -2.05401761 -5.65768376 -2.82884188 0 0 Z " fill="#C06615" transform="translate(83.875,47.4375)"/>
<path d="M0 0 C5.63470383 -0.5497272 8.38987758 1.04952165 13 4 C9.4513865 6.36574234 8.4235475 6.10865265 4.3125 5.625 C2.82169922 5.45871094 2.82169922 5.45871094 1.30078125 5.2890625 C0.54152344 5.19367187 -0.21773438 5.09828125 -1 5 C-0.67 3.35 -0.34 1.7 0 0 Z " fill="#D13637" transform="translate(121,17)"/>
<path d="M0 0 C0 0.66 0 1.32 0 2 C-3.20426067 3.32260016 -6.41404853 4.63123671 -9.625 5.9375 C-10.52863281 6.31068359 -11.43226563 6.68386719 -12.36328125 7.06835938 C-16.90341018 8.90760868 -21.08347426 10.48547986 -26 11 C-23.44724095 7.17086142 -21.57114392 6.92214863 -17.25 5.5 C-13.60351838 4.28967844 -10.21235339 3.10980224 -6.796875 1.34375 C-4 0 -4 0 0 0 Z " fill="#F5BD17" transform="translate(157,36)"/>
<path d="M0 0 C0 0.33 0 0.66 0 1 C-5.75 1.125 -5.75 1.125 -8 0 C-8 -0.66 -8 -1.32 -8 -2 C-14.77599175 -0.75346068 -14.77599175 -0.75346068 -21.375 1.1875 C-24.21630828 2.06695256 -25.23977791 1.82806663 -28 1 C-25.63011071 0.12862849 -23.25585224 -0.72206808 -20.875 -1.5625 C-20.20984375 -1.80935547 -19.5446875 -2.05621094 -18.859375 -2.31054688 C-11.48665257 -4.87654341 -6.73309973 -3.09722588 0 0 Z " fill="#C19E6B" transform="translate(98,4)"/>
<path d="M0 0 C2.36552431 3.69207324 2.17303784 6.81844566 2.0625 11.125 C1.95663363 17.15423699 2.21200019 23.01964434 3 29 C1 28 1 28 0.39697266 26.27416992 C-0.40749704 21.66553816 -0.4318562 16.97919497 -0.625 12.3125 C-0.6765625 11.24193359 -0.728125 10.17136719 -0.78125 9.06835938 C-0.82507813 8.05193359 -0.86890625 7.03550781 -0.9140625 5.98828125 C-0.9548291 5.05540283 -0.9955957 4.12252441 -1.03759766 3.16137695 C-1 1 -1 1 0 0 Z " fill="#D2B58E" transform="translate(2,30)"/>
<path d="M0 0 C1.48828125 1.11328125 1.48828125 1.11328125 3 3 C3.29296875 5.91796875 3.29296875 5.91796875 3.1875 9.1875 C3.16042969 10.27417969 3.13335937 11.36085938 3.10546875 12.48046875 C3.07066406 13.31191406 3.03585938 14.14335937 3 15 C0.0234375 12.3359375 0.0234375 12.3359375 -0.1875 9.3125 C-0.125625 8.549375 -0.06375 7.78625 0 7 C-0.66 7 -1.32 7 -2 7 C-2 7.66 -2 8.32 -2 9 C-6.1077065 10.58706842 -7.59232396 11.10191901 -12 10 C-9.03 9.34 -6.06 8.68 -3 8 C-3 7.34 -3 6.68 -3 6 C-2.34 6 -1.68 6 -1 6 C-0.67 4.02 -0.34 2.04 0 0 Z " fill="#E88073" transform="translate(34,12)"/>
<path d="M0 0 C1.98 0.495 1.98 0.495 4 1 C3.01 1.495 3.01 1.495 2 2 C2.495 2.61875 2.99 3.2375 3.5 3.875 C5 6 5 6 5 8 C13.415 7.505 13.415 7.505 22 7 C19.09328161 9.90671839 16.07857334 9.40631598 12.1875 9.4375 C11.47529297 9.47037109 10.76308594 9.50324219 10.02929688 9.53710938 C5.97041258 9.57841162 4.19761266 9.15574125 0.9765625 6.6171875 C-1 4 -1 4 -0.8125 1.6875 C-0.4103125 0.8521875 -0.4103125 0.8521875 0 0 Z " fill="#9D1A19" transform="translate(36,39)"/>
<path d="M0 0 C0.33 0.66 0.66 1.32 1 2 C2.98 2 4.96 2 7 2 C6.67 3.98 6.34 5.96 6 8 C3.03 7.505 3.03 7.505 0 7 C0 4.69 0 2.38 0 0 Z " fill="#F96961" transform="translate(67,27)"/>
<path d="M0 0 C0.33 0 0.66 0 1 0 C1.06058594 1.27617187 1.12117188 2.55234375 1.18359375 3.8671875 C1.26799568 5.53647016 1.35264386 7.20574037 1.4375 8.875 C1.47681641 9.71675781 1.51613281 10.55851562 1.55664062 11.42578125 C1.59853516 12.23144531 1.64042969 13.03710938 1.68359375 13.8671875 C1.72025146 14.61081543 1.75690918 15.35444336 1.79467773 16.12060547 C1.89955865 18.08864312 1.89955865 18.08864312 3 20 C1.68 20.33 0.36 20.66 -1 21 C-1.02710123 18.4374282 -1.04688771 15.87514635 -1.0625 13.3125 C-1.07087891 12.59126953 -1.07925781 11.87003906 -1.08789062 11.12695312 C-1.10543632 7.28444618 -0.93524221 3.73360474 0 0 Z " fill="#FD6565" transform="translate(35,19)"/>
<path d="M0 0 C4.97173583 1.55366745 9.18561608 4.49754 13 8 C13.33 8.99 13.66 9.98 14 11 C10.016281 9.67209367 6.98380483 7.69386422 3.6484375 5.21875 C2.13296843 4.09830841 0.56815234 3.04543489 -1 2 C-0.67 1.34 -0.34 0.68 0 0 Z " fill="#BF9358" transform="translate(51,143)"/>
<path d="M0 0 C0.99 0.33 1.98 0.66 3 1 C3 7.93 3 14.86 3 22 C2.34 21.67 1.68 21.34 1 21 C1.01160156 20.23816406 1.02320312 19.47632812 1.03515625 18.69140625 C1.09047294 12.36159678 0.8365926 6.27444451 0 0 Z " fill="#C82729" transform="translate(115,4)"/>
<path d="M0 0 C0.5775 0.20625 1.155 0.4125 1.75 0.625 C-6.24626103 4.91928833 -14.04091134 8.22559274 -23.25 7.625 C-23.25 7.295 -23.25 6.965 -23.25 6.625 C-22.06921875 6.28726563 -20.8884375 5.94953125 -19.671875 5.6015625 C-18.11452471 5.15124434 -16.55723627 4.70071229 -15 4.25 C-14.22269531 4.02828125 -13.44539063 3.8065625 -12.64453125 3.578125 C-11.51337891 3.24941406 -11.51337891 3.24941406 -10.359375 2.9140625 C-9.66811523 2.71506348 -8.97685547 2.51606445 -8.26464844 2.31103516 C-6.18790771 1.66083006 -6.18790771 1.66083006 -4.13378906 0.52099609 C-2.25 -0.375 -2.25 -0.375 0 0 Z " fill="#EAA019" transform="translate(92.25,60.375)"/>
<path d="M0 0 C2.01930479 3.02895718 2.83329485 4.41583928 3 8 C1.125 11.3125 1.125 11.3125 -1 14 C-1.33 14 -1.66 14 -2 14 C-2.3690205 4.58997722 -2.3690205 4.58997722 0 0 Z " fill="#F86564" transform="translate(37,4)"/>
<path d="M0 0 C-1.57351881 3.14703761 -4.30201662 3.7416747 -7.4375 5.1875 C-8.61183594 5.73792969 -9.78617188 6.28835937 -10.99609375 6.85546875 C-11.98738281 7.23316406 -12.97867188 7.61085937 -14 8 C-14.66 7.67 -15.32 7.34 -16 7 C-11.86686571 2.52029854 -6.24478666 -0.78059833 0 0 Z " fill="#AB864A" transform="translate(151,123)"/>
<path d="M0 0 C6.36416924 1.56752937 12.71356657 3.14264467 19 5 C19 5.33 19 5.66 19 6 C12.13046258 6.50676915 6.73671025 6.10406947 1 2 C0.67 1.34 0.34 0.68 0 0 Z " fill="#B13731" transform="translate(90,41)"/>
<path d="M0 0 C0.33 0.66 0.66 1.32 1 2 C-3.22949995 4.41685712 -6.12335991 5.34833144 -11 5 C-11 4.34 -11 3.68 -11 3 C-7.14243493 0.84694043 -4.44870215 -0.39253254 0 0 Z " fill="#3C0A0A" transform="translate(86,39)"/>
<path d="M0 0 C0.99 0.495 0.99 0.495 2 1 C4.37402501 1.07116382 6.75000677 1.08409085 9.125 1.0625 C10.40632813 1.05347656 11.68765625 1.04445312 13.0078125 1.03515625 C13.99523437 1.02355469 14.98265625 1.01195312 16 1 C15.67 1.99 15.34 2.98 15 4 C13.06280622 4.05406122 11.12518079 4.09282025 9.1875 4.125 C8.10855469 4.14820313 7.02960938 4.17140625 5.91796875 4.1953125 C3 4 3 4 0 2 C0 1.34 0 0.68 0 0 Z " fill="#B22214" transform="translate(67,35)"/>
<path d="M0 0 C0.9671267 2.90138011 1.33417969 5.34215964 1.625 8.375 C1.76808594 9.77878906 1.76808594 9.77878906 1.9140625 11.2109375 C1.99968385 13.98973948 1.655927 16.30776233 1 19 C-1 17 -1 17 -1.23046875 13.33984375 C-1.22647733 11.87233136 -1.21172158 10.40481791 -1.1875 8.9375 C-1.18685547 8.19177734 -1.18621094 7.44605469 -1.18554688 6.67773438 C-1.14028159 1.14028159 -1.14028159 1.14028159 0 0 Z " fill="#F64B4B" transform="translate(39,16)"/>
<path d="M0 0 C3.37705625 0.53725895 6.696686 1.11064623 10 2 C10 2.66 10 3.32 10 4 C10.66 4 11.32 4 12 4 C12 4.99 12 5.98 12 7 C7.69235185 5.43358249 3.93828536 3.31663844 0 1 C0 0.67 0 0.34 0 0 Z " fill="#E33B3C" transform="translate(28,45)"/>
<path d="M0 0 C2.12472576 -0.05386629 4.24983652 -0.09273071 6.375 -0.125 C7.55835937 -0.14820313 8.74171875 -0.17140625 9.9609375 -0.1953125 C13 0 13 0 15 2 C8.565 2.495 8.565 2.495 2 3 C1.34 2.01 0.68 1.02 0 0 Z " fill="#B31715" transform="translate(80,45)"/>
<path d="M0 0 C0 0.66 0 1.32 0 2 C-7.50769231 2.36923077 -7.50769231 2.36923077 -10 0.5 C-10.33 0.005 -10.66 -0.49 -11 -1 C-6.58937864 -2.0257259 -4.07369424 -2.03684712 0 0 Z " fill="#520F0E" transform="translate(110,43)"/>
<path d="M0 0 C2.9375 1.3125 2.9375 1.3125 6 3 C6.33 3.99 6.66 4.98 7 6 C6.01 6 5.02 6 4 6 C3.67 7.32 3.34 8.64 3 10 C2.67 10 2.34 10 2 10 C1.34 6.7 0.68 3.4 0 0 Z " fill="#9C7531" transform="translate(134,22)"/>
<path d="M0 0 C0.20625 0.5775 0.4125 1.155 0.625 1.75 C1.94768329 4.26897912 1.94768329 4.26897912 5 6 C7.88820783 7.92547189 8.86389615 8.81890922 10 12 C6.38365754 10.33091887 3.08932558 8.52763002 0 6 C-0.375 2.75 -0.375 2.75 0 0 Z " fill="#C2934A" transform="translate(12,112)"/>
<path d="M0 0 C-3.17999377 2.81307141 -5.74140837 3.81878333 -10 4 C-11.875 2.5625 -11.875 2.5625 -13 1 C-8.62426048 0.40667939 -4.42471556 -0.13827236 0 0 Z " fill="#B79561" transform="translate(82,156)"/>
<path d="M0 0 C0.33 1.32 0.66 2.64 1 4 C1.66 4 2.32 4 3 4 C3 3.34 3 2.68 3 2 C4.65 2 6.3 2 8 2 C4.375 5 4.375 5 1 5 C1 5.66 1 6.32 1 7 C-0.65 7.66 -2.3 8.32 -4 9 C-3.34 7.68 -2.68 6.36 -2 5 C-1.34 5 -0.68 5 0 5 C0 3.35 0 1.7 0 0 Z " fill="#B3705A" transform="translate(127,129)"/>
<path d="M0 0 C0.99 0.495 0.99 0.495 2 1 C2.56567366 3.50512623 2.89362157 6.01089785 3.2421875 8.5546875 C4.17075054 11.55097853 5.37050009 12.39249196 8 14 C6.35 14.33 4.7 14.66 3 15 C2.49733206 12.87562952 1.9979439 10.75048274 1.5 8.625 C1.2215625 7.44164062 0.943125 6.25828125 0.65625 5.0390625 C0 2 0 2 0 0 Z " fill="#D38282" transform="translate(117,3)"/>
<path d="M0 0 C0 3.77910478 -0.99703962 4.46106101 -3.5 7.1875 C-4.1496875 7.90292969 -4.799375 8.61835937 -5.46875 9.35546875 C-5.9740625 9.89816406 -6.479375 10.44085938 -7 11 C-7.66 10.67 -8.32 10.34 -9 10 C-7.42881935 5.28645804 -4.06181386 2.70787591 0 0 Z " fill="#B27513" transform="translate(137,35)"/>
<path d="M0 0 C2.375 1.5 2.375 1.5 4 3 C2.58376784 3.05447047 1.16691809 3.09300508 -0.25 3.125 C-1.03890625 3.14820313 -1.8278125 3.17140625 -2.640625 3.1953125 C-5.20731941 2.9828378 -6.7916067 2.28654105 -9 1 C-5.70952793 -0.09682402 -3.44927034 -0.28157309 0 0 Z " fill="#B36115" transform="translate(81,46)"/>
<path d="M0 0 C0.78246094 -0.01417969 1.56492187 -0.02835937 2.37109375 -0.04296875 C4.5625 0.1875 4.5625 0.1875 7.5625 2.1875 C6.64017578 2.17009766 6.64017578 2.17009766 5.69921875 2.15234375 C4.48685547 2.13880859 4.48685547 2.13880859 3.25 2.125 C2.44949219 2.11339844 1.64898437 2.10179687 0.82421875 2.08984375 C-1.60611334 2.09092145 -1.60611334 2.09092145 -4.4375 3.1875 C-4.4375 3.8475 -4.4375 4.5075 -4.4375 5.1875 C-5.4275 4.8575 -6.4175 4.5275 -7.4375 4.1875 C-7.1075 3.1975 -6.7775 2.2075 -6.4375 1.1875 C-4.0978331 0.01766655 -2.60358473 0.0213759 0 0 Z " fill="#F08B8B" transform="translate(45.4375,-0.1875)"/>
<path d="M0 0 C1.32 0 2.64 0 4 0 C3.42655063 2.86724686 3.1385485 3.8614515 1 6 C-1.625 6.125 -1.625 6.125 -4 6 C-3.01 5.67 -2.02 5.34 -1 5 C-0.67 3.35 -0.34 1.7 0 0 Z " fill="#F2534E" transform="translate(74,30)"/>
<path d="M0 0 C-1.33333333 0.66666667 -2.66666667 1.33333333 -4 2 C-4.680625 2.391875 -5.36125 2.78375 -6.0625 3.1875 C-8 4 -8 4 -11 3 C-10 1 -10 1 -7.75 -0.1875 C-4.69751418 -1.08937081 -3.02265546 -0.86361585 0 0 Z " fill="#AC8956" transform="translate(103,147)"/>
<path d="M0 0 C2.64 0 5.28 0 8 0 C8.33 1.32 8.66 2.64 9 4 C7.68528432 3.71848913 6.37324233 3.42446661 5.0625 3.125 C3.96615234 2.88136719 3.96615234 2.88136719 2.84765625 2.6328125 C1 2 1 2 0 0 Z " fill="#F65958" transform="translate(36,53)"/>
<path d="M0 0 C2.16874252 0.50603992 3.99967627 0.99983813 6 2 C5.67 2.66 5.34 3.32 5 4 C2.93359375 4.4140625 2.93359375 4.4140625 0.4375 4.625 C-0.38878906 4.69976562 -1.21507813 4.77453125 -2.06640625 4.8515625 C-3.02353516 4.92503906 -3.02353516 4.92503906 -4 5 C-2.68 3.35 -1.36 1.7 0 0 Z " fill="#B92422" transform="translate(125,44)"/>
<path d="M0 0 C0.66 0.99 1.32 1.98 2 3 C1.67 3.99 1.34 4.98 1 6 C0.34 6 -0.32 6 -1 6 C-1 6.66 -1 7.32 -1 8 C-2.98 8.33 -4.96 8.66 -7 9 C-6.57847656 8.51789062 -6.15695313 8.03578125 -5.72265625 7.5390625 C-5.17480469 6.90742187 -4.62695312 6.27578125 -4.0625 5.625 C-3.51722656 4.99851562 -2.97195312 4.37203125 -2.41015625 3.7265625 C-0.93041376 2.04367666 -0.93041376 2.04367666 0 0 Z " fill="#C63234" transform="translate(84,28)"/>
<path d="M0 0 C4.23429756 1.31061591 8.07407404 2.94356259 12 5 C12 5.33 12 5.66 12 6 C9.69 5.67 7.38 5.34 5 5 C5 4.34 5 3.68 5 3 C3.68 3 2.36 3 1 3 C0.67 2.01 0.34 1.02 0 0 Z " fill="#B9955E" transform="translate(140,26)"/>
<path d="M0 0 C-3.1254959 2.64465038 -6.08788267 3.84414715 -10 5 C-9 2 -9 2 -6.125 0.25 C-3 -1 -3 -1 0 0 Z " fill="#AC8649" transform="translate(92,151)"/>
<path d="M0 0 C1.98362069 2.91708924 1.9876191 4.12380904 1.625 7.75 C1.41875 8.8225 1.2125 9.895 1 11 C-1 9 -1 9 -1.23046875 7.08984375 C-1.11111111 1.11111111 -1.11111111 1.11111111 0 0 Z " fill="#D9B882" transform="translate(2,30)"/>
<path d="M0 0 C3.40320742 1.01176437 4.75725331 1.64843582 6.8125 4.625 C7.204375 5.40875 7.59625 6.1925 8 7 C4.59679258 5.98823563 3.24274669 5.35156418 1.1875 2.375 C0.795625 1.59125 0.40375 0.8075 0 0 Z " fill="#C08D42" transform="translate(57,147)"/>
<path d="M0 0 C1.65 0 3.3 0 5 0 C1.8745041 2.64465038 -1.08788267 3.84414715 -5 5 C-4.34 3.68 -3.68 2.36 -3 1 C-2.01 1.33 -1.02 1.66 0 2 C0 1.34 0 0.68 0 0 Z " fill="#C06D6C" transform="translate(118,138)"/>
<path d="M0 0 C3.375 0.25 3.375 0.25 7 1 C7.66 2.32 8.32 3.64 9 5 C6.03 4.01 3.06 3.02 0 2 C0 1.34 0 0.68 0 0 Z " fill="#E1A427" transform="translate(3,29)"/>
<path d="M0 0 C-0.33 0.66 -0.66 1.32 -1 2 C-3.28515625 2.4140625 -3.28515625 2.4140625 -6.0625 2.625 C-6.98160156 2.69976563 -7.90070312 2.77453125 -8.84765625 2.8515625 C-9.55792969 2.90054687 -10.26820312 2.94953125 -11 3 C-4.33333333 -1.44444444 -4.33333333 -1.44444444 0 0 Z " fill="#C49E64" transform="translate(22,24)"/>
<path d="M0 0 C2.3431213 0.25561323 4.67843403 0.59270772 7 1 C7.33 1.66 7.66 2.32 8 3 C5.69 3 3.38 3 1 3 C0.67 2.01 0.34 1.02 0 0 Z " fill="#350707" transform="translate(97,39)"/>
<path d="M0 0 C0.66 0.33 1.32 0.66 2 1 C1.67 2.32 1.34 3.64 1 5 C-0.98 4.34 -2.96 3.68 -5 3 C-3 1 -3 1 0 0 Z " fill="#D27617" transform="translate(54,53)"/>
<path d="M0 0 C1.10844919 3.32534757 0.84454356 5.62182575 0 9 C-2.475 8.01 -2.475 8.01 -5 7 C-3.68 6.67 -2.36 6.34 -1 6 C-0.67 4.02 -0.34 2.04 0 0 Z " fill="#C02C2C" transform="translate(114,36)"/>
<path d="" fill="#FF0000" transform="translate(0,0)"/>
<path d="" fill="#FF0000" transform="translate(0,0)"/>
</svg>
