<?xml version="1.0" encoding="UTF-8"?>
<svg version="1.1" xmlns="http://www.w3.org/2000/svg" width="160" height="160">
<path d="M0 0 C7.10416198 4.80206457 13.30742613 11.38625831 18.26953125 18.33984375 C18.67042969 17.78296875 19.07132812 17.22609375 19.484375 16.65234375 C26.98018008 6.58994782 35.23716955 -0.64936902 47.26953125 -4.66015625 C59.5838241 -5.79250502 68.88470162 -5.01607724 79.26953125 2.33984375 C84.7070065 7.09763459 88.64115259 12.61275579 91.26953125 19.33984375 C91.6253125 20.22414063 91.98109375 21.1084375 92.34765625 22.01953125 C96.84581577 38.22052952 91.76793841 55.71679277 84.18359375 70.0625 C81.2309118 75.11821461 77.90181355 79.75383369 74.26953125 84.33984375 C73.54636719 85.25507812 72.82320312 86.1703125 72.078125 87.11328125 C67.75375173 92.48302475 63.25701456 97.66962733 58.60546875 102.7578125 C56.69099571 104.87397752 54.80979335 107.01085982 52.9375 109.1640625 C49.43764638 113.17185368 45.84834824 117.08551944 42.20703125 120.96484375 C41.56942871 121.64562988 40.93182617 122.32641602 40.27490234 123.02783203 C35.15385279 128.46619275 29.90967698 133.77087772 24.57397461 138.99853516 C21.54517474 141.87975537 21.54517474 141.87975537 19.26953125 145.33984375 C14.93584781 143.67385352 12.13616746 140.46449515 8.95703125 137.21484375 C8.37381104 136.62952881 7.79059082 136.04421387 7.18969727 135.44116211 C4.16900198 132.3841898 1.362094 129.28689156 -1.29296875 125.90234375 C-5.81990179 120.5718801 -12.78209165 116.749002 -19.74609375 116.02734375 C-23.11391802 116.37999551 -25.39999686 117.32454406 -28.41796875 118.83984375 C-33.43880208 121.33984375 -33.43880208 121.33984375 -36.73046875 121.33984375 C-35.9413278 114.55323162 -34.31772064 107.97835008 -32.73046875 101.33984375 C-33.24996094 101.90574219 -33.76945312 102.47164063 -34.3046875 103.0546875 C-35.00207031 103.78816406 -35.69945313 104.52164063 -36.41796875 105.27734375 C-37.10246094 106.00824219 -37.78695312 106.73914063 -38.4921875 107.4921875 C-41.08075764 109.6290002 -42.35918068 110.42788046 -45.73046875 110.33984375 C-49.71901344 107.20853852 -51.79684997 103.79330191 -53.85546875 99.21484375 C-54.33242188 98.18101563 -54.809375 97.1471875 -55.30078125 96.08203125 C-59.12235486 86.54207373 -60.14236489 77.8997677 -59.91796875 67.65234375 C-59.90443359 66.46189453 -59.89089844 65.27144531 -59.87695312 64.04492188 C-59.84198703 61.14273637 -59.79291571 58.24154566 -59.73046875 55.33984375 C-58.08046875 54.67984375 -56.43046875 54.01984375 -54.73046875 53.33984375 C-54.94703125 52.44523437 -55.16359375 51.550625 -55.38671875 50.62890625 C-58.24825775 38.20240818 -59.47957653 26.60779955 -53.44140625 14.82421875 C-48.06526095 6.37188336 -40.75981871 -1.37907915 -30.83813477 -4.19775391 C-20.06234882 -6.56186124 -9.53940927 -5.43046697 0 0 Z " fill="#FEEF40" transform="translate(61.73046875,11.66015625)"/>
<path d="M0 0 C7.10416198 4.80206457 13.30742613 11.38625831 18.26953125 18.33984375 C18.67042969 17.78296875 19.07132812 17.22609375 19.484375 16.65234375 C26.98018008 6.58994782 35.23716955 -0.64936902 47.26953125 -4.66015625 C59.5838241 -5.79250502 68.88470162 -5.01607724 79.26953125 2.33984375 C84.7070065 7.09763459 88.64115259 12.61275579 91.26953125 19.33984375 C91.62660156 20.21898438 91.98367187 21.098125 92.3515625 22.00390625 C93.52039081 26.25147807 93.59955258 30.14350727 93.58203125 34.52734375 C93.59814453 35.31431641 93.61425781 36.10128906 93.63085938 36.91210938 C93.63647743 43.83916942 92.21376951 48.21097012 90.26953125 55.33984375 C69.80953125 55.33984375 49.34953125 55.33984375 28.26953125 55.33984375 C25.95953125 50.71984375 23.64953125 46.09984375 21.26953125 41.33984375 C19.67112118 38.95923301 18.04109857 36.59456579 16.26953125 34.33984375 C15.05265625 34.42234375 13.83578125 34.50484375 12.58203125 34.58984375 C11.89753906 34.63625 11.21304688 34.68265625 10.5078125 34.73046875 C7.24238113 35.61948671 5.6440036 36.91550364 3.26953125 39.33984375 C2.49479225 41.18710852 2.49479225 41.18710852 1.89453125 43.23046875 C0.09327579 48.4708088 -1.79950599 52.4727685 -6.73046875 55.33984375 C-21.9371006 58.34733113 -39.70013023 56.75059856 -54.73046875 53.33984375 C-57.95320882 40.02685798 -59.96516531 27.55543341 -53.44140625 14.82421875 C-48.06526095 6.37188336 -40.75981871 -1.37907915 -30.83813477 -4.19775391 C-20.06234882 -6.56186124 -9.53940927 -5.43046697 0 0 Z " fill="#F15A9A" transform="translate(61.73046875,11.66015625)"/>
<path d="M0 0 C3.58482068 0.68495016 7.14619106 1.23231419 10.76171875 1.71875 C10.76171875 1.05875 10.76171875 0.39875 10.76171875 -0.28125 C24.62171875 -0.28125 38.48171875 -0.28125 52.76171875 -0.28125 C49.9120848 3.99320092 47.07936866 7.90655219 43.76171875 11.78125 C43.28532959 12.34070313 42.80894043 12.90015625 42.31811523 13.4765625 C37.44692402 19.15525192 32.37402945 24.63875012 27.26464844 30.10253906 C25.78683674 31.69173877 24.32291675 33.29254197 22.86328125 34.8984375 C16.6201987 41.75262098 10.19014057 48.3753598 3.57299805 54.87060547 C2.96109619 55.47404785 2.34919434 56.07749023 1.71875 56.69921875 C1.1719458 57.23442139 0.6251416 57.76962402 0.06176758 58.32104492 C-1.3498216 59.70707922 -1.3498216 59.70707922 -2.23828125 61.71875 C-6.57196469 60.05275977 -9.37164504 56.8434014 -12.55078125 53.59375 C-13.13400146 53.00843506 -13.71722168 52.42312012 -14.31811523 51.82006836 C-17.33881052 48.76309605 -20.1457185 45.66579781 -22.80078125 42.28125 C-27.32771429 36.95078635 -34.28990415 33.12790825 -41.25390625 32.40625 C-44.62173052 32.75890176 -46.90780936 33.70345031 -49.92578125 35.21875 C-54.94661458 37.71875 -54.94661458 37.71875 -58.23828125 37.71875 C-57.4491403 30.93213787 -55.82553314 24.35725633 -54.23828125 17.71875 C-54.83125 18.36328125 -55.42421875 19.0078125 -56.03515625 19.671875 C-58.73642802 22.18156721 -60.62847311 22.39058562 -64.23828125 22.71875 C-60.69276034 17.9969114 -56.63954973 14.64646577 -52.02734375 11.0078125 C-49.61147338 9.02503934 -47.52994086 6.95916824 -45.36328125 4.71875 C-40.48560582 0.30026995 -34.52912737 0.65162207 -28.23828125 0.71875 C-28.23828125 0.05875 -28.23828125 -0.60125 -28.23828125 -1.28125 C-20.43364784 -6.00414732 -8.5082291 -1.69756565 0 0 Z " fill="#9B1B4D" transform="translate(83.23828125,95.28125)"/>
<path d="M0 0 C11.41181719 4.2838753 21.50726105 13.50895883 27.1328125 24.31640625 C27.1328125 25.30640625 27.1328125 26.29640625 27.1328125 27.31640625 C26.37355469 27.57035156 25.61429687 27.82429688 24.83203125 28.0859375 C23.83816406 28.43011719 22.84429687 28.77429688 21.8203125 29.12890625 C20.83417969 29.46535156 19.84804687 29.80179688 18.83203125 30.1484375 C16.20007656 31.28730067 14.83418181 32.04240778 13.1328125 34.31640625 C13.00326172 34.87126709 12.87371094 35.42612793 12.74023438 35.99780273 C11.25324527 41.67382183 8.80398065 47.56014859 4.1328125 51.31640625 C-0.88627282 53.15428899 -6.34237558 52.57783419 -11.5769043 52.14453125 C-14.05971427 51.94099416 -16.53219934 51.83554974 -19.02148438 51.74609375 C-20.60967982 51.66319935 -22.19760166 51.57484404 -23.78515625 51.48046875 C-24.52170944 51.44361969 -25.25826263 51.40677063 -26.01713562 51.36880493 C-29.84970549 51.02887424 -31.76687702 50.39718748 -34.7902832 47.96240234 C-39.97033042 41.36297226 -39.62289041 32.33630338 -38.8671875 24.31640625 C-36.97057395 15.94328848 -33.48259782 9.44778464 -26.328125 4.59375 C-17.6381479 -0.70287869 -10.27597322 -2.44999362 0 0 Z " fill="#F05F9D" transform="translate(50.8671875,15.68359375)"/>
<path d="M0 0 C13.86 0 27.72 0 42 0 C39.15036605 4.27445092 36.31764991 8.18780219 33 12.0625 C32.52361084 12.62195313 32.04722168 13.18140625 31.55639648 13.7578125 C26.68520527 19.43650192 21.6123107 24.92000012 16.50292969 30.38378906 C15.02511799 31.97298877 13.561198 33.57379197 12.1015625 35.1796875 C5.85847995 42.03387098 -0.57157818 48.6566098 -7.1887207 55.15185547 C-7.80062256 55.75529785 -8.41252441 56.35874023 -9.04296875 56.98046875 C-9.58977295 57.51567139 -10.13657715 58.05087402 -10.69995117 58.60229492 C-12.11154035 59.98832922 -12.11154035 59.98832922 -13 62 C-17.39944875 59.99575371 -20.25210248 57.07921949 -23.625 53.6875 C-24.21023437 53.11837891 -24.79546875 52.54925781 -25.3984375 51.96289062 C-28.46996961 48.89488092 -30.93366204 46.34151882 -32 42 C-31.125 39.6875 -31.125 39.6875 -30 38 C-28.35 38 -26.7 38 -25 38 C-24.7525 37.29875 -24.505 36.5975 -24.25 35.875 C-21.66636699 29.93264407 -17.91874741 24.00634789 -12 21 C-7.94670947 20.51299638 -4.06004307 20.63999618 0 21 C0 20.01 0 19.02 0 18 C-2.97 18 -5.94 18 -9 18 C-9 17.67 -9 17.34 -9 17 C-5.7 16.34 -2.4 15.68 1 15 C-1.31 13.35 -3.62 11.7 -6 10 C-5.75 7.625 -5.75 7.625 -5 5 C-3 3.875 -3 3.875 -1 3 C-0.67 2.01 -0.34 1.02 0 0 Z " fill="#D71C64" transform="translate(94,95)"/>
<path d="M0 0 C7.10416198 4.80206457 13.30742613 11.38625831 18.26953125 18.33984375 C18.67042969 17.78296875 19.07132812 17.22609375 19.484375 16.65234375 C26.98018008 6.58994782 35.23716955 -0.64936902 47.26953125 -4.66015625 C59.5838241 -5.79250502 68.88470162 -5.01607724 79.26953125 2.33984375 C84.7070065 7.09763459 88.64115259 12.61275579 91.26953125 19.33984375 C91.62660156 20.21898438 91.98367187 21.098125 92.3515625 22.00390625 C93.52039081 26.25147807 93.59955258 30.14350727 93.58203125 34.52734375 C93.59814453 35.31431641 93.61425781 36.10128906 93.63085938 36.91210938 C93.63647743 43.83916942 92.21376951 48.21097012 90.26953125 55.33984375 C70.13953125 55.33984375 50.00953125 55.33984375 29.26953125 55.33984375 C29.26953125 55.00984375 29.26953125 54.67984375 29.26953125 54.33984375 C46.42953125 54.00984375 63.58953125 53.67984375 81.26953125 53.33984375 C83.48318964 46.69886859 84.82279778 42.16256236 84.76953125 35.46484375 C84.76747681 34.29465698 84.76747681 34.29465698 84.76538086 33.10083008 C84.61096899 27.25073952 83.36768122 22.74426293 80.4609375 17.6015625 C79.26953125 15.33984375 79.26953125 15.33984375 78.89453125 12.77734375 C77.81371889 8.56217553 74.42941731 7.12036852 70.93359375 4.85546875 C62.6777188 0.15857802 52.12839267 0.0844781 42.921875 1.76953125 C38.14545962 3.47014508 35.6884341 7.12714778 33.26953125 11.33984375 C32.98464844 11.97277344 32.69976562 12.60570313 32.40625 13.2578125 C30.92578498 15.96945461 29.00585966 17.96322774 26.89453125 20.21484375 C23.62676199 23.77202897 20.76759224 27.21261256 18.26953125 31.33984375 C16.29188657 28.88091386 14.32794255 26.41617112 12.41015625 23.91015625 C5.53257273 15.0147693 -2.21360077 6.56492737 -13.73046875 4.33984375 C-22.73265111 3.5550956 -29.37239217 3.88417586 -36.73046875 9.33984375 C-37.65859375 9.97921875 -38.58671875 10.61859375 -39.54296875 11.27734375 C-45.38879143 16.78911942 -48.28626597 23.54965702 -49.01953125 31.45703125 C-49.19683377 38.30735595 -48.80873803 45.09463076 -45.73046875 51.33984375 C-42.02376503 53.81097956 -39.07854694 53.68772964 -34.78125 53.75390625 C-33.62232491 53.78295547 -33.62232491 53.78295547 -32.43998718 53.81259155 C-29.97442635 53.87232854 -27.50881868 53.91874861 -25.04296875 53.96484375 C-23.37042245 54.003029 -21.6978957 54.04208106 -20.02539062 54.08203125 C-15.92724228 54.17802508 -11.82900187 54.26207752 -7.73046875 54.33984375 C-7.73046875 54.66984375 -7.73046875 54.99984375 -7.73046875 55.33984375 C-12.65599133 55.38978665 -17.58136211 55.42581665 -22.50708008 55.44970703 C-24.17800468 55.45968078 -25.84891222 55.47326465 -27.51977539 55.49072266 C-36.7918961 55.58508126 -45.66092719 55.58539389 -54.73046875 53.33984375 C-57.95320882 40.02685798 -59.96516531 27.55543341 -53.44140625 14.82421875 C-48.06526095 6.37188336 -40.75981871 -1.37907915 -30.83813477 -4.19775391 C-20.06234882 -6.56186124 -9.53940927 -5.43046697 0 0 Z " fill="#D71C7A" transform="translate(61.73046875,11.66015625)"/>
<path d="M0 0 C4.26411751 1.4213725 5.46547486 4.55094242 7.625 8.25 C8.03234375 8.91902344 8.4396875 9.58804688 8.859375 10.27734375 C11.12789435 14.10077536 12.09001168 16.45005838 13 21 C33.46 21 53.92 21 75 21 C72.87115871 27.38652387 70.97314531 32.28183132 67.5 37.8125 C67.10941406 38.45380859 66.71882813 39.09511719 66.31640625 39.75585938 C65.23385667 41.51819176 64.11812402 43.26002077 63 45 C62.66057373 45.7211499 62.32114746 46.4422998 61.97143555 47.18530273 C58.63730654 50.25435301 54.6533937 49.48776196 50.30078125 49.390625 C49.35059616 49.38496521 48.40041107 49.37930542 47.4214325 49.37347412 C44.38461056 49.35107148 41.34896569 49.3008677 38.3125 49.25 C36.25457432 49.22994004 34.19663017 49.21168839 32.13867188 49.1953125 C27.09199393 49.15119387 22.04619657 49.0821393 17 49 C17 49.66 17 50.32 17 51 C14.77057252 50.85820962 12.54146372 50.71140302 10.3125 50.5625 C9.07113281 50.48128906 7.82976562 50.40007812 6.55078125 50.31640625 C3.61819663 50.05508683 0.86558383 49.65201621 -2 49 C-2 48.67 -2 48.34 -2 48 C-1.31292969 47.93941406 -0.62585938 47.87882812 0.08203125 47.81640625 C0.98308594 47.73261719 1.88414063 47.64882812 2.8125 47.5625 C3.70582031 47.48128906 4.59914063 47.40007812 5.51953125 47.31640625 C8.12743559 47.06510233 8.12743559 47.06510233 11 46 C11.05384083 42.66186875 11.03485127 39.33797693 11 36 C11.01522705 35.00274902 11.01522705 35.00274902 11.03076172 33.98535156 C11.18915893 21.66371579 8.92599159 14.2261062 2 4 C1.30579534 2.68079489 0.6244877 1.35360162 0 0 Z " fill="#FDEB27" transform="translate(77,46)"/>
<path d="M0 0 C0.12375 0.78503906 0.12375 0.78503906 0.25 1.5859375 C1.28890265 4.92990541 3.13027071 7.69619328 5 10.625 C9.72509684 18.1256782 10.38976797 22.99287764 10.8125 31.875 C10.88919922 33.07253906 10.96589844 34.27007812 11.04492188 35.50390625 C11.09841797 36.65503906 11.15191406 37.80617187 11.20703125 38.9921875 C11.2635083 40.04776855 11.31998535 41.10334961 11.37817383 42.19091797 C11 45 11 45 9.1809082 47.34667969 C4.67973208 50.75896724 -1.6241795 49.40376334 -7 49 C-10.41040978 48.49946722 -13.6449302 47.81335025 -17 47 C-17.33 42.38 -17.66 37.76 -18 33 C-15.24921116 32.08307039 -13.64051087 31.89113917 -10.8125 31.9375 C-8.9253125 31.9684375 -8.9253125 31.9684375 -7 32 C-7 32.99 -7 33.98 -7 35 C-5.68 34.34 -4.36 33.68 -3 33 C-2.60000178 23.40004264 -3.47535569 17.21144898 -10 10 C-10 9.34 -10 8.68 -10 8 C-11.98 8.99 -13.96 9.98 -16 11 C-14.56179187 5.96627156 -12.09754485 4.01044111 -8 1 C-5.07175348 0.02391783 -3.04386724 -0.08226668 0 0 Z " fill="#FEF847" transform="translate(78,45)"/>
<path d="M0 0 C5.76075999 3.98537328 8.20854413 7.71171774 9.49609375 14.55859375 C9.92136425 16.89972931 10.24407019 19.18957226 10.49609375 21.55859375 C10.22796875 20.96046875 9.95984375 20.36234375 9.68359375 19.74609375 C8.46024133 17.49254982 7.51649043 16.13001339 5.49609375 14.55859375 C2.88998298 13.83662213 2.88998298 13.83662213 0.49609375 13.55859375 C-0.49390625 14.87859375 -1.48390625 16.19859375 -2.50390625 17.55859375 C-5.35029911 16.63186119 -8.14341563 15.71914933 -10.87963867 14.50048828 C-13.71271151 13.48364997 -15.80624542 13.32821175 -18.8046875 13.36328125 C-20.26938477 13.37294922 -20.26938477 13.37294922 -21.76367188 13.3828125 C-23.27477539 13.40794922 -23.27477539 13.40794922 -24.81640625 13.43359375 C-26.35651367 13.44712891 -26.35651367 13.44712891 -27.92773438 13.4609375 C-30.45336524 13.48443174 -32.97851435 13.51728244 -35.50390625 13.55859375 C-35.83390625 14.21859375 -36.16390625 14.87859375 -36.50390625 15.55859375 C-35.84390625 15.88859375 -35.18390625 16.21859375 -34.50390625 16.55859375 C-37.42099549 18.54221444 -38.62771529 18.54621285 -42.25390625 18.18359375 C-43.86265625 17.87421875 -43.86265625 17.87421875 -45.50390625 17.55859375 C-46.16390625 18.54859375 -46.82390625 19.53859375 -47.50390625 20.55859375 C-48.16390625 20.55859375 -48.82390625 20.55859375 -49.50390625 20.55859375 C-48.45403354 17.21808967 -47.51815908 15.57215132 -44.94140625 13.12109375 C-42.15348169 10.1901987 -41.78048204 8.52284674 -41.50390625 4.55859375 C-40.51390625 4.22859375 -39.52390625 3.89859375 -38.50390625 3.55859375 C-37.33330376 2.07161221 -36.1636381 0.58143889 -35.078125 -0.96875 C-26.74970407 -8.75985345 -8.94249285 -5.1478625 0 0 Z " fill="#FDABCF" transform="translate(134.50390625,16.44140625)"/>
<path d="M0 0 C2.54646633 1.79750565 4.06523073 3.31157418 5.72265625 5.921875 C1.15072086 5.63004934 -1.60399441 4.85342731 -5.46484375 2.359375 C-11.02454484 -0.86732124 -15.9917025 -1.05401307 -22.27734375 -0.078125 C-26.77448722 1.26285996 -31.01828512 2.95828304 -35.27734375 4.921875 C-36.36917969 5.40140625 -37.46101563 5.8809375 -38.5859375 6.375 C-41.63393268 7.73489661 -41.63393268 7.73489661 -42.46484375 11.359375 C-42.73296875 12.535 -43.00109375 13.710625 -43.27734375 14.921875 C-43.75171875 15.540625 -44.22609375 16.159375 -44.71484375 16.796875 C-49.90562094 23.85633197 -50.04102674 32.49081479 -49.27734375 40.921875 C-48.60818201 44.39969518 -47.84784135 47.73563913 -46.27734375 50.921875 C-42.57064003 53.39301081 -39.62542194 53.26976089 -35.328125 53.3359375 C-34.16919991 53.36498672 -34.16919991 53.36498672 -32.98686218 53.3946228 C-30.52130135 53.45435979 -28.05569368 53.50077986 -25.58984375 53.546875 C-23.91729745 53.58506025 -22.2447707 53.62411231 -20.57226562 53.6640625 C-16.47411728 53.76005633 -12.37587687 53.84410877 -8.27734375 53.921875 C-8.27734375 54.251875 -8.27734375 54.581875 -8.27734375 54.921875 C-13.20286633 54.9718179 -18.12823711 55.0078479 -23.05395508 55.03173828 C-24.72487968 55.04171203 -26.39578722 55.0552959 -28.06665039 55.07275391 C-37.3387711 55.16711251 -46.20780219 55.16742514 -55.27734375 52.921875 C-58.50008382 39.60888923 -60.51204031 27.13746466 -53.98828125 14.40625 C-48.61213595 5.95391461 -41.30669371 -1.7970479 -31.38500977 -4.61572266 C-20.06015699 -7.10029015 -10.0002282 -5.47380912 0 0 Z " fill="#D21C78" transform="translate(62.27734375,12.078125)"/>
<path d="M0 0 C6.17869176 5.91142011 8.01164639 12.59883289 8.25 20.875 C8.265625 23.1171875 8.265625 23.1171875 8 25 C7.34 25.66 6.68 26.32 6 27 C5.01 27 4.02 27 3 27 C3 26.01 3 25.02 3 24 C-0.63 24.33 -4.26 24.66 -8 25 C-7.7525 26.2375 -7.7525 26.2375 -7.5 27.5 C-6.94103955 31.41272317 -6.93192813 35.05183173 -7 39 C-8.98 39.66 -10.96 40.32 -13 41 C-13 41.66 -13 42.32 -13 43 C-17.62 43.66 -22.24 44.32 -27 45 C-31 35.375 -31 35.375 -31 32 C-31.99 31.67 -32.98 31.34 -34 31 C-33.67 27.7 -33.34 24.4 -33 21 C-36.63 19.35 -40.26 17.7 -44 16 C-39.85583353 14.96395838 -36.97857647 15.08511863 -32.75 15.4375 C-30.85507812 15.59025391 -30.85507812 15.59025391 -28.921875 15.74609375 C-27.95765625 15.82988281 -26.9934375 15.91367188 -26 16 C-27.375 17.5 -27.375 17.5 -29 19 C-29.66 19 -30.32 19 -31 19 C-30.77023606 21.06485224 -30.51529223 23.12691118 -30.25 25.1875 C-30.11078125 26.33605469 -29.9715625 27.48460938 -29.828125 28.66796875 C-28.90361129 32.38782817 -27.63136931 34.25313166 -25 37 C-21.99686252 38.50156874 -19.20932478 38.09281204 -15.875 38.0625 C-14.59367187 38.05347656 -13.31234375 38.04445312 -11.9921875 38.03515625 C-11.00476562 38.02355469 -10.01734375 38.01195312 -9 38 C-9.70262314 28.50790486 -9.70262314 28.50790486 -13.25 19.875 C-13.8275 18.92625 -14.405 17.9775 -15 17 C-14.2890625 15.13671875 -14.2890625 15.13671875 -13 13 C-12.32324219 11.77603516 -12.32324219 11.77603516 -11.6328125 10.52734375 C-11.13523438 9.67269531 -10.63765625 8.81804688 -10.125 7.9375 C-9.63257813 7.08027344 -9.14015625 6.22304688 -8.6328125 5.33984375 C-6.15937888 1.79537786 -4.40516014 0 0 0 Z " fill="#F8CB07" transform="translate(68,53)"/>
<path d="M0 0 C2.97 0 5.94 0 9 0 C9.36351563 1.01578125 9.72703125 2.0315625 10.1015625 3.078125 C12.94705283 10.90847162 15.98405061 18.37511064 19.8984375 25.7421875 C21 28 21 28 21 30 C11.7713284 28.31554344 11.7713284 28.31554344 8.25 26.875 C4.3258135 25.34892747 1.02228162 25.61266732 -2.88671875 27.09375 C-3.81097656 27.5578125 -4.73523438 28.021875 -5.6875 28.5 C-10.70833333 31 -10.70833333 31 -14 31 C-13.35117423 26.18633073 -12.54908873 21.44664044 -11.5625 16.6875 C-11.31628906 15.47449219 -11.07007813 14.26148437 -10.81640625 13.01171875 C-10 10 -10 10 -8 8 C-8 8.66 -8 9.32 -8 10 C-7.34 10 -6.68 10 -6 10 C-5.731875 9.21625 -5.46375 8.4325 -5.1875 7.625 C-4 5 -4 5 -1 3 C-0.67 2.01 -0.34 1.02 0 0 Z " fill="#BF9F22" transform="translate(39,102)"/>
<path d="M0 0 C4.4845222 -0.57864803 7.40313696 0.98767845 11.33203125 2.86328125 C14.39711249 4.16919434 17.47964203 5.04134812 20.6875 5.9375 C25.93061852 7.48464973 29.24669336 9.03221869 33 13 C33 13.33 33 13.66 33 14 C31.90300781 14.15855469 30.80601563 14.31710938 29.67578125 14.48046875 C28.2211821 14.71508152 26.76676393 14.95081823 25.3125 15.1875 C24.59126953 15.28869141 23.87003906 15.38988281 23.12695312 15.49414062 C17.94549614 16.3695466 15.38726702 17.76591623 12 22 C10.45873639 24.21517106 9.05417254 26.48630404 7.6875 28.8125 C7.32849609 29.40998047 6.96949219 30.00746094 6.59960938 30.62304688 C5.72655376 32.07813956 4.86233309 33.53852729 4 35 C1.79588643 31.34210939 1.32897949 27.52016786 0.6875 23.375 C-0.33740438 17.26720829 -1.89601486 12.24292398 -5.01171875 6.8203125 C-6 5 -6 5 -6 3 C-4.02 3 -2.04 3 0 3 C0 2.01 0 1.02 0 0 Z " fill="#EDBB08" transform="translate(63,97)"/>
<path d="M0 0 C1.06927734 0.69416016 1.06927734 0.69416016 2.16015625 1.40234375 C4.41222786 2.74704712 6.41282822 3.3855644 8.9375 4.0625 C15.57300563 6.09259351 19.33857424 11.27391849 23.3125 16.6875 C23.71339844 16.19121094 24.11429688 15.69492187 24.52734375 15.18359375 C29.86049859 8.81041325 35.71863533 1.87857949 44.3125 0.6875 C43.90257813 1.29078125 43.49265625 1.8940625 43.0703125 2.515625 C42.53148438 3.31484375 41.99265625 4.1140625 41.4375 4.9375 C40.90382813 5.72640625 40.37015625 6.5153125 39.8203125 7.328125 C38.31146945 9.57225736 38.31146945 9.57225736 37.390625 11.6796875 C35.94583714 14.37034314 34.02383143 16.3375419 31.9375 18.5625 C28.66973074 22.11968522 25.81056099 25.56026881 23.3125 29.6875 C21.33485532 27.22857011 19.3709113 24.76382737 17.453125 22.2578125 C10.57554148 13.36242555 2.82936798 4.91258362 -8.6875 2.6875 C-17.77850843 1.8950086 -24.19903092 2.3567254 -31.6875 7.6875 C-33.2034375 8.5846875 -33.2034375 8.5846875 -34.75 9.5 C-35.389375 9.891875 -36.02875 10.28375 -36.6875 10.6875 C-36.64453125 8.421875 -36.64453125 8.421875 -35.6875 5.6875 C-33.21018787 4.16943659 -31.02504381 3.043131 -28.375 1.9375 C-27.69759766 1.63457031 -27.02019531 1.33164063 -26.32226562 1.01953125 C-17.98085697 -2.64971009 -8.31429341 -4.87440089 0 0 Z " fill="#DB207B" transform="translate(56.6875,13.3125)"/>
<path d="M0 0 C7.06629291 2.65261151 12.90100605 6.92460572 18.1328125 12.31640625 C17.8028125 12.97640625 17.4728125 13.63640625 17.1328125 14.31640625 C16.4728125 13.98640625 15.8128125 13.65640625 15.1328125 13.31640625 C14.1428125 13.64640625 13.1528125 13.97640625 12.1328125 14.31640625 C10.79621426 13.99641557 9.46326202 13.6610698 8.1328125 13.31640625 C5.34519085 13.28771014 2.57495517 13.38089311 -0.2109375 13.4765625 C-3.00522558 13.30808337 -4.44726621 12.63868392 -6.8671875 11.31640625 C-11.97685152 10.90763313 -16.48183172 11.79358854 -21.43359375 12.87890625 C-24.58709182 13.44582725 -27.67094278 13.31640625 -30.8671875 13.31640625 C-31.8571875 13.97640625 -32.8471875 14.63640625 -33.8671875 15.31640625 C-33.27835001 11.34175316 -31.65632371 9.17357018 -28.8671875 6.31640625 C-19.37643847 -0.03120296 -11.58747392 -2.76268111 0 0 Z " fill="#FEAAD0" transform="translate(50.8671875,15.68359375)"/>
<path d="M0 0 C3.58482068 0.68495016 7.14619106 1.23231419 10.76171875 1.71875 C9.12759432 3.42715281 7.89265781 4.65328047 5.76171875 5.71875 C5.43171875 6.70875 5.10171875 7.69875 4.76171875 8.71875 C-1.92387337 8.1109689 -7.92744814 5.92213705 -14.23828125 3.71875 C-16.23735275 3.04930427 -18.23709502 2.38184737 -20.23828125 1.71875 C-19.74328125 3.20375 -19.74328125 3.20375 -19.23828125 4.71875 C-22.1306244 5.54513376 -24.12570556 5.71875 -27.23828125 5.71875 C-27.23828125 4.72875 -27.23828125 3.73875 -27.23828125 2.71875 C-31.69328125 3.21375 -31.69328125 3.21375 -36.23828125 3.71875 C-36.56828125 5.03875 -36.89828125 6.35875 -37.23828125 7.71875 C-39.54828125 7.38875 -41.85828125 7.05875 -44.23828125 6.71875 C-44.32078125 7.29625 -44.40328125 7.87375 -44.48828125 8.46875 C-45.44579515 11.3412917 -47.052565 12.66964101 -49.23828125 14.71875 C-49.56828125 15.37875 -49.89828125 16.03875 -50.23828125 16.71875 C-51.22828125 16.38875 -52.21828125 16.05875 -53.23828125 15.71875 C-54.29015625 17.1728125 -54.29015625 17.1728125 -55.36328125 18.65625 C-57.50989587 21.27032225 -58.09663519 21.68133406 -61.55078125 22.59375 C-62.43765625 22.635 -63.32453125 22.67625 -64.23828125 22.71875 C-60.69276034 17.9969114 -56.63954973 14.64646577 -52.02734375 11.0078125 C-49.61147338 9.02503934 -47.52994086 6.95916824 -45.36328125 4.71875 C-40.48560582 0.30026995 -34.52912737 0.65162207 -28.23828125 0.71875 C-28.23828125 0.05875 -28.23828125 -0.60125 -28.23828125 -1.28125 C-20.43364784 -6.00414732 -8.5082291 -1.69756565 0 0 Z " fill="#684A04" transform="translate(83.23828125,95.28125)"/>
<path d="M0 0 C4.19066378 2.18165643 7.67435214 5.10669016 11.0625 8.375 C10.7325 9.035 10.4025 9.695 10.0625 10.375 C8.5417733 10.40253831 7.02089326 10.42163375 5.5 10.4375 C4.65308594 10.44910156 3.80617187 10.46070313 2.93359375 10.47265625 C0.0625 10.375 0.0625 10.375 -2.90625 9.90625 C-8.84383915 8.99321098 -14.88089369 9.00423596 -20.875 8.8125 C-22.13119141 8.76931641 -23.38738281 8.72613281 -24.68164062 8.68164062 C-27.76682968 8.57606381 -30.85209263 8.47395449 -33.9375 8.375 C-24.74082696 -1.24190766 -12.9193065 -5.22504376 0 0 Z " fill="#FFF0FD" transform="translate(128.9375,16.625)"/>
<path d="M0 0 C2.61641745 2.61641745 3.52698947 5.606136 4.8125 9 C6.96308015 14.55377657 9.31346031 19.88093021 12.1171875 25.14453125 C13 27 13 27 13 29 C10.03 28.34 7.06 27.68 4 27 C4 26.34 4 25.68 4 25 C1.25778934 24.08592978 -1.35524518 23.48923795 -4.1875 22.9375 C-5.08855469 22.76089844 -5.98960938 22.58429688 -6.91796875 22.40234375 C-7.60503906 22.26957031 -8.29210938 22.13679688 -9 22 C-9 21.34 -9 20.68 -9 20 C-9.66 20 -10.32 20 -11 20 C-11.33 18.68 -11.66 17.36 -12 16 C-10.02 16 -8.04 16 -6 16 C-6 13.03 -6 10.06 -6 7 C-4.02 7.66 -2.04 8.32 0 9 C0 6.03 0 3.06 0 0 Z " fill="#DDB302" transform="translate(47,103)"/>
<path d="M0 0 C4.4845222 -0.57864803 7.40313696 0.98767845 11.33203125 2.86328125 C14.39711249 4.16919434 17.47964203 5.04134812 20.6875 5.9375 C25.93061852 7.48464973 29.24669336 9.03221869 33 13 C33 13.33 33 13.66 33 14 C24.09 15.485 24.09 15.485 15 17 C15 16.01 15 15.02 15 14 C14.67 13.67 14.34 13.34 14 13 C13.34 12.34 12.68 11.68 12 11 C9.93125966 10.3574765 9.93125966 10.3574765 8 10 C7.67 10.66 7.34 11.32 7 12 C6.484375 11.5875 5.96875 11.175 5.4375 10.75 C3.42487916 9.30504145 1.47562492 8.12588344 -0.6875 6.9375 C-4 5 -4 5 -5 3 C-3.35 3 -1.7 3 0 3 C0 2.01 0 1.02 0 0 Z " fill="#DAAE07" transform="translate(63,97)"/>
<path d="M0 0 C0.99 0.495 0.99 0.495 2 1 C2.37890625 2.79077148 2.37890625 2.79077148 2.5625 5.12109375 C2.67235229 6.39364014 2.67235229 6.39364014 2.78442383 7.69189453 C2.89113403 9.05096924 2.89113403 9.05096924 3 10.4375 C3.16744641 12.27763093 3.33798187 14.11748358 3.51171875 15.95703125 C3.59470215 16.83697754 3.67768555 17.71692383 3.76318359 18.62353516 C4.77485509 28.7757108 7.71765746 38.48274318 15 46 C17.11660427 47.31165257 17.11660427 47.31165257 19 48 C19 48.66 19 49.32 19 50 C20.485 50.495 20.485 50.495 22 51 C19.8125 53.0625 19.8125 53.0625 17 55 C14.51171875 54.88671875 14.51171875 54.88671875 12 54 C4.23991278 45.26990188 -0.15441185 31.34560527 -0.09765625 19.82421875 C-0.09443359 18.66728516 -0.09121094 17.51035156 -0.08789062 16.31835938 C-0.07951172 15.12017578 -0.07113281 13.92199219 -0.0625 12.6875 C-0.05798828 11.46998047 -0.05347656 10.25246094 -0.04882812 8.99804688 C-0.03706578 5.99864774 -0.02062826 2.99934911 0 0 Z " fill="#D7B31F" transform="translate(2,67)"/>
<path d="M0 0 C20.13 0 40.26 0 61 0 C58.87115871 6.38652387 56.97314531 11.28183132 53.5 16.8125 C53.10941406 17.45380859 52.71882813 18.09511719 52.31640625 18.75585938 C51.23385667 20.51819176 50.11812402 22.26002077 49 24 C48.66057373 24.7211499 48.32114746 25.4422998 47.97143555 26.18530273 C44.63730654 29.25435301 40.6533937 28.48776196 36.30078125 28.390625 C35.35059616 28.38496521 34.40041107 28.37930542 33.4214325 28.37347412 C30.38461056 28.35107148 27.34896569 28.3008677 24.3125 28.25 C22.25457432 28.22994004 20.19663017 28.21168839 18.13867188 28.1953125 C13.09199393 28.15119387 8.04619657 28.0821393 3 28 C3 27.67 3 27.34 3 27 C4.70313354 26.98598145 4.70313354 26.98598145 6.44067383 26.97167969 C10.65103473 26.9318243 14.86066145 26.86607871 19.07055664 26.79248047 C20.89305189 26.76424486 22.71567019 26.7430432 24.53833008 26.72900391 C27.15770583 26.7076096 29.77559815 26.66098021 32.39453125 26.609375 C33.21025101 26.60814636 34.02597076 26.60691772 34.8664093 26.60565186 C37.43511787 26.58342806 37.43511787 26.58342806 41 26 C42.94287736 24.09680895 42.94287736 24.09680895 44 22 C44.66 22 45.32 22 46 22 C46.433125 20.3603125 46.433125 20.3603125 46.875 18.6875 C48 15 48 15 50 12 C50.68132451 10.33927151 51.34742127 8.672233 52 7 C52.65213539 5.65949948 53.31379969 4.32338632 54 3 C51.51320048 1.75660024 49.78202912 1.84172513 46.99951172 1.79467773 C45.95858368 1.77473251 44.91765564 1.75478729 43.84518433 1.73423767 C42.71807037 1.71752518 41.59095642 1.70081268 40.4296875 1.68359375 C39.27832306 1.66281265 38.12695862 1.64203156 36.94070435 1.62062073 C33.2521986 1.55508335 29.56361997 1.49622072 25.875 1.4375 C23.37889862 1.39431877 20.8828047 1.35070462 18.38671875 1.30664062 C12.25789019 1.19939769 6.12898867 1.09763911 0 1 C0 0.67 0 0.34 0 0 Z " fill="#E1AD24" transform="translate(91,67)"/>
<path d="M0 0 C13.86 0 27.72 0 42 0 C36.56863593 8.14704611 30.40803353 16.41939674 21.67773438 21.29760742 C18.71002361 23.18435497 16.56002159 25.27815946 14.12890625 27.81640625 C13.22462891 28.74517578 12.32035156 29.67394531 11.38867188 30.63085938 C9.97178249 32.09736076 8.55832216 33.56687572 7.15014648 35.04174805 C5.77719002 36.4754273 4.39067283 37.8960809 3.00390625 39.31640625 C2.18736572 40.16662354 1.3708252 41.01684082 0.52954102 41.89282227 C-2.23474873 44.1955522 -4.54499722 45.09065658 -8 46 C-6.625 44 -6.625 44 -5 42 C-4.34 42 -3.68 42 -3 42 C-2.90589844 41.40703125 -2.81179687 40.8140625 -2.71484375 40.203125 C-1.84054781 37.50857359 -0.73279682 36.53677244 1.4375 34.75 C2.05496094 34.22921875 2.67242187 33.7084375 3.30859375 33.171875 C5 32 5 32 7 32 C7.3403125 31.071875 7.3403125 31.071875 7.6875 30.125 C9.38862958 27.3707902 11.05376154 27.17849539 14 26 C14.68486725 24.67592331 15.34870203 23.34090759 16 22 C17.4758673 20.7487212 18.95484848 19.49978973 20.4765625 18.3046875 C22.24711001 16.87056633 22.24711001 16.87056633 24.25 14.1875 C24.8275 13.465625 25.405 12.74375 26 12 C26.66 12 27.32 12 28 12 C28.268125 11.236875 28.53625 10.47375 28.8125 9.6875 C29.96603641 7.07686496 30.98629865 5.92614911 33 4 C33.33 3.01 33.66 2.02 34 1 C22.78 1 11.56 1 0 1 C0 0.67 0 0.34 0 0 Z " fill="#C01254" transform="translate(94,95)"/>
<path d="M0 0 C4.83002031 6.44002708 5.31732329 12.22557947 5 20 C0.18120436 20.96375913 -4.11480858 21.46525633 -9 21 C-11.875 18.625 -11.875 18.625 -14 16 C-14.66 15.34 -15.32 14.68 -16 14 C-16.56520003 11.34462628 -16.73788198 8.70855287 -17 6 C-15 8 -15 8 -14 11 C-9.05 10.67 -4.1 10.34 1 10 C0.505 5.05 0.505 5.05 0 0 Z " fill="#FDD50B" transform="translate(54,71)"/>
<path d="M0 0 C2.475 0.495 2.475 0.495 5 1 C5 2.32 5 3.64 5 5 C5.66 5 6.32 5 7 5 C7.33 11.27 7.66 17.54 8 24 C8.99 24.33 9.98 24.66 11 25 C8.69 25 6.38 25 4 25 C4 25.99 4 26.98 4 28 C1.77057252 27.85820962 -0.45853628 27.71140302 -2.6875 27.5625 C-3.92886719 27.48128906 -5.17023438 27.40007812 -6.44921875 27.31640625 C-9.38180337 27.05508683 -12.13441617 26.65201621 -15 26 C-15 25.67 -15 25.34 -15 25 C-13.73542969 25.05220703 -13.73542969 25.05220703 -12.4453125 25.10546875 C-11.34960938 25.13253906 -10.25390625 25.15960938 -9.125 25.1875 C-8.03445312 25.22230469 -6.94390625 25.25710937 -5.8203125 25.29296875 C-4.42425781 25.14794922 -4.42425781 25.14794922 -3 25 C-0.84250216 21.76375324 -0.71639512 20.65605934 -0.5859375 16.89453125 C-0.54726562 15.91162109 -0.50859375 14.92871094 -0.46875 13.91601562 C-0.4378125 12.89185547 -0.406875 11.86769531 -0.375 10.8125 C-0.33632812 9.77673828 -0.29765625 8.74097656 -0.2578125 7.67382812 C-0.16351704 5.11606378 -0.07791798 2.55830713 0 0 Z " fill="#FED818" transform="translate(90,69)"/>
<path d="M0 0 C1.79296875 1.16796875 1.79296875 1.16796875 2.79296875 4.16796875 C-9.08703125 4.49796875 -20.96703125 4.82796875 -33.20703125 5.16796875 C-23.43422109 -4.60484141 -12.60848857 -5.36837768 0 0 Z " fill="#FFD7F5" transform="translate(56.20703125,17.83203125)"/>
<path d="M0 0 C5.94 0.33 11.88 0.66 18 1 C17.01 1.99 16.02 2.98 15 4 C14.34 4 13.68 4 13 4 C13.22976394 6.06485224 13.48470777 8.12691118 13.75 10.1875 C13.88921875 11.33605469 14.0284375 12.48460938 14.171875 13.66796875 C15.09638871 17.38782817 16.36863069 19.25313166 19 22 C22.06533164 23.53266582 25.26754272 23.10276471 28.625 23.0625 C29.33140625 23.05798828 30.0378125 23.05347656 30.765625 23.04882812 C32.51045275 23.03703875 34.255237 23.01910324 36 23 C34.625 24.5 34.625 24.5 33 26 C32.34 26 31.68 26 31 26 C31 26.66 31 27.32 31 28 C26.38 28.66 21.76 29.32 17 30 C13 20.375 13 20.375 13 17 C12.01 16.67 11.02 16.34 10 16 C10.33 12.7 10.66 9.4 11 6 C7.37 4.35 3.74 2.7 0 1 C0 0.67 0 0.34 0 0 Z " fill="#E8BB02" transform="translate(24,68)"/>
<path d="M0 0 C0.81597656 0.52980469 1.63195313 1.05960938 2.47265625 1.60546875 C4.13687395 2.60953907 5.80283505 3.61074521 7.47265625 4.60546875 C7.14265625 6.58546875 6.81265625 8.56546875 6.47265625 10.60546875 C5.93898437 10.21875 5.4053125 9.83203125 4.85546875 9.43359375 C-5.17260728 2.42435029 -14.06582169 -1.11235789 -26.52734375 0.60546875 C-29.87616112 1.86608678 -32.62257162 3.53766486 -35.52734375 5.60546875 C-37.04328125 6.50265625 -37.04328125 6.50265625 -38.58984375 7.41796875 C-39.22921875 7.80984375 -39.86859375 8.20171875 -40.52734375 8.60546875 C-40.484375 6.33984375 -40.484375 6.33984375 -39.52734375 3.60546875 C-37.05003162 2.08740534 -34.86488756 0.96109975 -32.21484375 -0.14453125 C-31.53744141 -0.44746094 -30.86003906 -0.75039062 -30.16210938 -1.0625 C-19.47831767 -5.76211512 -10.16554095 -6.20971959 0 0 Z " fill="#FC44A0" transform="translate(60.52734375,15.39453125)"/>
<path d="M0 0 C1.99785435 4.1205746 2.17835515 7.45194365 2 12 C0.27327966 12.36590746 -1.45653655 12.71722195 -3.1875 13.0625 C-4.15042969 13.25972656 -5.11335938 13.45695312 -6.10546875 13.66015625 C-9.03610862 14.00423947 -11.16307068 13.74164697 -14 13 C-14.33 10.36 -14.66 7.72 -15 5 C-9.83783423 1.24569762 -6.43985624 -0.67081836 0 0 Z " fill="#FFFD58" transform="translate(53,69)"/>
<path d="M0 0 C1.86328125 0.05078125 1.86328125 0.05078125 4 1 C5.66796875 3.73046875 5.66796875 3.73046875 7.1875 7.1875 C7.95126953 8.87939453 7.95126953 8.87939453 8.73046875 10.60546875 C10.51931991 15.38858156 11.13952658 19.79124547 11.0625 24.875 C11.05347656 25.65617187 11.04445313 26.43734375 11.03515625 27.2421875 C11.02355469 27.82226562 11.01195313 28.40234375 11 29 C10.67 28.34 10.34 27.68 10 27 C9.01 26.67 8.02 26.34 7 26 C5.39453125 23.453125 5.39453125 23.453125 3.8125 20.25 C3.28269531 19.20328125 2.75289062 18.1565625 2.20703125 17.078125 C1.03442805 14.08779709 0.73617055 12.16595336 1 9 C0.34 9 -0.32 9 -1 9 C-1.09765625 2.84765625 -1.09765625 2.84765625 -1 1 C-0.67 0.67 -0.34 0.34 0 0 Z " fill="#D1185D" transform="translate(53,103)"/>
<path d="M0 0 C0.33 0.66 0.66 1.32 1 2 C2.12535156 1.98259766 2.12535156 1.98259766 3.2734375 1.96484375 C9.11877239 1.91331057 14.79248574 2.10932575 20.59765625 2.77734375 C24.4069403 3.13039935 28.1768865 3.06166312 32 3 C32 2.34 32 1.68 32 1 C34.88437779 2.29299694 36.87219421 3.65941363 39 6 C38.67 6.66 38.34 7.32 38 8 C36.4792733 8.02753831 34.95839326 8.04663375 33.4375 8.0625 C32.59058594 8.07410156 31.74367187 8.08570313 30.87109375 8.09765625 C28 8 28 8 25.03125 7.53125 C19.09366085 6.61821098 13.05660631 6.62923596 7.0625 6.4375 C5.17821289 6.37272461 5.17821289 6.37272461 3.25585938 6.30664062 C0.17067032 6.20106381 -2.91459263 6.09895449 -6 6 C-4 4 -2 2 0 0 Z " fill="#FFD3F1" transform="translate(101,19)"/>
<path d="M0 0 C8.48133848 5.44401544 8.48133848 5.44401544 10 10 C6.45875819 10 6.23186262 9.54939558 3.8125 7.1875 C-2.9305766 1.26982074 -9.48276898 0.33000549 -18.38671875 0.51171875 C-26.45365048 1.60184466 -32.85227984 5.88616407 -39 11 C-39 9.35 -39 7.7 -39 6 C-38.01 5.67 -37.02 5.34 -36 5 C-34.82939751 3.51301846 -33.65973185 2.02284514 -32.57421875 0.47265625 C-25.11970763 -6.50091866 -8.47250257 -4.14243311 0 0 Z " fill="#FF65BF" transform="translate(132,15)"/>
<path d="M0 0 C0.639375 0.2475 1.27875 0.495 1.9375 0.75 C2.2675 1.74 2.5975 2.73 2.9375 3.75 C4.05125 4.74 4.05125 4.74 5.1875 5.75 C9.06010958 9.46361681 11.52378858 14.62243047 12.9375 19.75 C12.1328125 21.96875 12.1328125 21.96875 10.9375 23.75 C9.30064765 26.7348484 8.49789481 29.38763116 7.9375 32.75 C4.9375 33.75 4.9375 33.75 2.25 32.5625 C1.486875 31.964375 0.72375 31.36625 -0.0625 30.75 C-0.0625 29.43 -0.0625 28.11 -0.0625 26.75 C-2.3725 27.41 -4.6825 28.07 -7.0625 28.75 C-6.7325 29.74 -6.4025 30.73 -6.0625 31.75 C-6.02295766 34.08299825 -6.01848268 36.41708189 -6.0625 38.75 C-6.3925 38.75 -6.7225 38.75 -7.0625 38.75 C-7.3925 34.79 -7.7225 30.83 -8.0625 26.75 C-5.31171116 25.83307039 -3.70301087 25.64113917 -0.875 25.6875 C1.0121875 25.7184375 1.0121875 25.7184375 2.9375 25.75 C2.9375 26.74 2.9375 27.73 2.9375 28.75 C4.2575 28.09 5.5775 27.43 6.9375 26.75 C7.33749822 17.15004264 6.46214431 10.96144898 -0.0625 3.75 C-0.0625 3.09 -0.0625 2.43 -0.0625 1.75 C-2.0425 2.74 -4.0225 3.73 -6.0625 4.75 C-3.71402919 -0.45018536 -3.71402919 -0.45018536 0 0 Z " fill="#FEE526" transform="translate(68.0625,51.25)"/>
<path d="M0 0 C0.69710731 1.28650706 1.38242876 2.57940665 2.0625 3.875 C2.44535156 4.59429687 2.82820313 5.31359375 3.22265625 6.0546875 C3.47917969 6.69664063 3.73570313 7.33859375 4 8 C3.67 8.66 3.34 9.32 3 10 C2.566875 9.34 2.13375 8.68 1.6875 8 C0.8521875 7.01 0.8521875 7.01 0 6 C-0.99 6 -1.98 6 -3 6 C-3.33 8.64 -3.66 11.28 -4 14 C-3.34 14 -2.68 14 -2 14 C-1.74476562 14.8353125 -1.74476562 14.8353125 -1.484375 15.6875 C0.19969866 20.99054046 2.01753757 26.2666993 5 31 C5.66 31.33 6.32 31.66 7 32 C7 34.31 7 36.62 7 39 C2.69730048 39 1.1322623 36.7990429 -2 34 C-2.66 33.34 -3.32 32.68 -4 32 C-1.23723823 32.52268466 1.3260876 33.10869587 4 34 C3.71278076 33.410979 3.42556152 32.82195801 3.12963867 32.21508789 C1.80987152 29.50029787 0.49865476 26.78145932 -0.8125 24.0625 C-1.26431641 23.13630859 -1.71613281 22.21011719 -2.18164062 21.25585938 C-9 7.07168111 -9 7.07168111 -9 1 C-5.92677456 0.08941469 -3.19902639 -0.08886184 0 0 Z " fill="#A31844" transform="translate(56,98)"/>
<path d="M0 0 C1.32 0 2.64 0 4 0 C4.0093457 0.57331055 4.01869141 1.14662109 4.02832031 1.73730469 C4.30846344 15.43135986 4.69108501 27.80462278 13.046875 39.28125 C14 41 14 41 14 45 C15.65 45.66 17.3 46.32 19 47 C18.01 47.495 18.01 47.495 17 48 C10.90784522 45.6308287 7.68467103 39.46954553 4.94921875 33.8359375 C2.35085433 26.07292282 1.57038533 17.99162872 0.875 9.875 C0.78863281 8.91851562 0.70226562 7.96203125 0.61328125 6.9765625 C0.40401903 4.6514267 0.19966288 2.3259763 0 0 Z " fill="#FBD114" transform="translate(3,67)"/>
<path d="M0 0 C4.20466918 2.64014111 7.5628095 5.36639862 11 9 C11.33 9.33 11.66 9.66 12 10 C11.96196091 12.31453234 11.84459346 14.6279917 11.6875 16.9375 C11.56955078 18.83822266 11.56955078 18.83822266 11.44921875 20.77734375 C11 24 11 24 9 26 C7.3922128 23.1020132 6.6716987 20.642011 6.1875 17.375 C5.28188512 12.41252497 3.43526639 8.43667156 1.0234375 4.03125 C0 2 0 2 0 0 Z " fill="#F5D121" transform="translate(57,100)"/>
<path d="M0 0 C0.66 0 1.32 0 2 0 C1.41638452 3.93940451 -0.42785351 6.02172512 -3 9 C-3.77923828 9.93392578 -3.77923828 9.93392578 -4.57421875 10.88671875 C-7.94266334 14.86072642 -11.41256604 18.38130425 -15.4375 21.6875 C-17.16339933 23.09254953 -17.16339933 23.09254953 -19.1875 25.25 C-21.02402063 27.02319233 -22.66608272 27.99974974 -25 29 C-22.99939529 24.08942481 -19.07867799 21.02850692 -15.3125 17.4375 C-12.98327313 15.2349998 -12.98327313 15.2349998 -12.0390625 12.9765625 C-10.46700794 9.98611286 -8.02702908 8.42398371 -5.375 6.375 C-3.54794084 4.96126014 -1.7461425 3.51254485 0 2 C0 1.34 0 0.68 0 0 Z M-25 29 C-25 29.66 -25 30.32 -25 31 C-26.75 32.5078125 -26.75 32.5078125 -29 34.125 C-29.7425 34.66382813 -30.485 35.20265625 -31.25 35.7578125 C-31.8275 36.16773438 -32.405 36.57765625 -33 37 C-29.23529412 29 -29.23529412 29 -25 29 Z " fill="#D2165C" transform="translate(126,96)"/>
<path d="M0 0 C0.99 0.66 1.98 1.32 3 2 C3 2.66 3 3.32 3 4 C-6.24 4 -15.48 4 -25 4 C-25 4.66 -25 5.32 -25 6 C-29.29 6 -33.58 6 -38 6 C-37.67 4.68 -37.34 3.36 -37 2 C-24.79 2 -12.58 2 0 2 C0 1.34 0 0.68 0 0 Z " fill="#FFBFE1" transform="translate(59,20)"/>
<path d="M0 0 C2 2 2 2 2.1953125 4.3828125 C2.17210938 5.28773437 2.14890625 6.19265625 2.125 7.125 C2.10695313 8.03507812 2.08890625 8.94515625 2.0703125 9.8828125 C2.04710938 10.58148438 2.02390625 11.28015625 2 12 C0.02 12.33 -1.96 12.66 -4 13 C-4 12.34 -4 11.68 -4 11 C-7.3 10.67 -10.6 10.34 -14 10 C-14.33 9.01 -14.66 8.02 -15 7 C-9.92523206 5.73694665 -5.27203646 4.72963916 0 5 C0 3.35 0 1.7 0 0 Z " fill="#FFE621" transform="translate(55,76)"/>
<path d="M0 0 C2.97 0 5.94 0 9 0 C8.67 3.3 8.34 6.6 8 10 C7.175 9.814375 6.35 9.62875 5.5 9.4375 C1.38073281 8.9225916 -1.90823355 9.36507072 -6 10 C-4.75023244 6.34683329 -4.32901247 5.21934164 -1 3 C-0.67 2.01 -0.34 1.02 0 0 Z " fill="#C49C01" transform="translate(39,102)"/>
<path d="M0 0 C4.23132217 1.41044072 5.41636621 4.45591646 7.5625 8.125 C8.16094727 9.10339844 8.16094727 9.10339844 8.77148438 10.1015625 C13.54166223 18.12884009 14.29386827 24.99275677 13.8125 34.1875 C13.78091797 35.17169922 13.74933594 36.15589844 13.71679688 37.16992188 C13.67232422 38.11802734 13.62785156 39.06613281 13.58203125 40.04296875 C13.54311768 40.89914795 13.5042041 41.75532715 13.46411133 42.63745117 C12.91783265 45.41827114 11.83729921 46.87829484 10 49 C9.01 48.67 8.02 48.34 7 48 C8.32 47.34 9.64 46.68 11 46 C11.05384083 42.66186875 11.03485127 39.33797693 11 36 C11.01522705 35.00274902 11.01522705 35.00274902 11.03076172 33.98535156 C11.18915893 21.66371579 8.92599159 14.2261062 2 4 C1.30579534 2.68079489 0.6244877 1.35360162 0 0 Z " fill="#FDD52E" transform="translate(77,46)"/>
<path d="M0 0 C5.61 0.66 11.22 1.32 17 2 C14 5 14 5 12 6 C11.67 6.99 11.34 7.98 11 9 C5.54520815 8.43179252 1.08940744 7.05362055 -4 5 C-3.34 4.54625 -2.68 4.0925 -2 3.625 C-1.34 3.08875 -0.68 2.5525 0 2 C0 1.34 0 0.68 0 0 Z " fill="#7C5710" transform="translate(77,95)"/>
<path d="M0 0 C13.86 0 27.72 0 42 0 C37.39837398 6.90243902 37.39837398 6.90243902 34.875 9.875 C34.37742188 10.47054687 33.87984375 11.06609375 33.3671875 11.6796875 C32 13 32 13 30 13 C32 9 34 5 36 1 C24.12 1 12.24 1 0 1 C0 0.67 0 0.34 0 0 Z " fill="#A70F52" transform="translate(94,95)"/>
<path d="M0 0 C7.50769231 0.61538462 7.50769231 0.61538462 10 2.5625 C10.33 3.036875 10.66 3.51125 11 4 C9 6 9 6 5.75 6.25 C2.1318718 6.00879145 -0.63895322 5.31162801 -4 4 C-3.67 4.99 -3.34 5.98 -3 7 C-5.89234315 7.82638376 -7.88742431 8 -11 8 C-11 7.01 -11 6.02 -11 5 C-7.33513904 2.08966924 -4.60625394 1.67863345 0 2 C0 1.34 0 0.68 0 0 Z " fill="#664908" transform="translate(67,93)"/>
<path d="M0 0 C3.34902333 6.2795253 3.11144545 12.54097848 2.5625 19.4375 C2.51029297 20.16904297 2.45808594 20.90058594 2.40429688 21.65429688 C2.27615124 23.43668622 2.1390184 25.2184257 2 27 C0.10424749 27.02721176 -1.79161979 27.04649136 -3.6875 27.0625 C-5.27111328 27.07990234 -5.27111328 27.07990234 -6.88671875 27.09765625 C-9.72410262 27.00865425 -12.2438919 26.64939838 -15 26 C-15 25.67 -15 25.34 -15 25 C-13.73542969 25.05220703 -13.73542969 25.05220703 -12.4453125 25.10546875 C-11.34960938 25.13253906 -10.25390625 25.15960938 -9.125 25.1875 C-8.03445312 25.22230469 -6.94390625 25.25710937 -5.8203125 25.29296875 C-4.42425781 25.14794922 -4.42425781 25.14794922 -3 25 C-0.84250216 21.76375324 -0.71639512 20.65605934 -0.5859375 16.89453125 C-0.54726562 15.91162109 -0.50859375 14.92871094 -0.46875 13.91601562 C-0.4378125 12.89185547 -0.406875 11.86769531 -0.375 10.8125 C-0.33632812 9.77673828 -0.29765625 8.74097656 -0.2578125 7.67382812 C-0.16351704 5.11606378 -0.07791798 2.55830713 0 0 Z " fill="#FAD813" transform="translate(90,69)"/>
<path d="M0 0 C1.63133835 0.70104357 3.2187558 1.50289025 4.79296875 2.32421875 C4.79296875 2.98421875 4.79296875 3.64421875 4.79296875 4.32421875 C1.85491879 4.40508251 -1.080912 4.46464705 -4.01953125 4.51171875 C-5.26959961 4.54942383 -5.26959961 4.54942383 -6.54492188 4.58789062 C-7.74858398 4.60239258 -7.74858398 4.60239258 -8.9765625 4.6171875 C-10.08414917 4.64075317 -10.08414917 4.64075317 -11.21411133 4.66479492 C-13.72933647 4.23496042 -14.60144641 3.24958813 -16.20703125 1.32421875 C-11.2065317 -1.56112697 -5.49768265 -1.68336123 0 0 Z " fill="#FFEFFE" transform="translate(50.20703125,15.67578125)"/>
<path d="M0 0 C0.33 0 0.66 0 1 0 C2.08379774 5.3106089 1.83762737 8.89547952 0 14 C-1 15 -1 15 -2.84765625 15.09765625 C-4.8984375 15.06510417 -6.94921875 15.03255208 -9 15 C-6.45658967 9.7175324 -3.35274424 4.80560008 0 0 Z " fill="#FFFB56" transform="translate(79,78)"/>
<path d="M0 0 C0.33 0.66 0.66 1.32 1 2 C2.05058594 1.98839844 3.10117188 1.97679688 4.18359375 1.96484375 C10.70943861 1.91503408 17.08786243 1.87949362 23.5625 2.77734375 C29.33962303 3.30506172 35.20480062 3.06871778 41 3 C41 3.99 41 4.98 41 6 C39.4792733 6.02753831 37.95839326 6.04663375 36.4375 6.0625 C35.59058594 6.07410156 34.74367187 6.08570313 33.87109375 6.09765625 C31 6 31 6 28.03125 5.53125 C22.09366085 4.61821098 16.05660631 4.62923596 10.0625 4.4375 C8.17821289 4.37272461 8.17821289 4.37272461 6.25585938 4.30664062 C3.17067032 4.20106381 0.08540737 4.09895449 -3 4 C-2.01 2.68 -1.02 1.36 0 0 Z " fill="#FFC1E1" transform="translate(98,21)"/>
<path d="M0 0 C1.32 0 2.64 0 4 0 C3.54775239 5.91492272 2.8417395 11.35199888 1 17 C-1.64 17 -4.28 17 -7 17 C-6.01 16.67 -5.02 16.34 -4 16 C-3.87625 15.278125 -3.7525 14.55625 -3.625 13.8125 C-3 11 -3 11 -2 8.5625 C-0.89092718 5.72050091 -0.42056764 3.01406808 0 0 Z " fill="#D1176F" transform="translate(151,50)"/>
<path d="M0 0 C0.66 0.33 1.32 0.66 2 1 C2 1.66 2 2.32 2 3 C0.865625 3.309375 -0.26875 3.61875 -1.4375 3.9375 C-4.78775099 4.62924531 -4.78775099 4.62924531 -6 6 C-12.31379109 7.36433656 -18.54092963 8.29359411 -25 8 C-24.34 7.01 -23.68 6.02 -23 5 C-19.9609375 4.48828125 -19.9609375 4.48828125 -16.375 4.3125 C-15.18648437 4.24675781 -13.99796875 4.18101563 -12.7734375 4.11328125 C-11.85820313 4.07589844 -10.94296875 4.03851563 -10 4 C-10 3.34 -10 2.68 -10 2 C-6.59659693 -0.09440189 -3.95562822 -0.25797575 0 0 Z " fill="#5B3B06" transform="translate(65,92)"/>
<path d="M0 0 C0.99 0 1.98 0 3 0 C3 0.99 3 1.98 3 3 C3.66 3 4.32 3 5 3 C6.32 5.97 7.64 8.94 9 12 C11.97 12 14.94 12 18 12 C15.8125 14.5625 15.8125 14.5625 13 17 C10.5234375 16.9453125 10.5234375 16.9453125 8 16 C6.26953125 13.92578125 6.26953125 13.92578125 4.8125 11.3125 C4.06033203 9.96478516 4.06033203 9.96478516 3.29296875 8.58984375 C1.89454747 5.78877636 0.79733508 3.02987331 0 0 Z " fill="#B59820" transform="translate(6,105)"/>
<path d="M0 0 C4.92715996 -0.46192125 8.50732625 1.1724717 13 3 C10.10765685 3.82638376 8.11257569 4 5 4 C5.515625 4.5775 6.03125 5.155 6.5625 5.75 C8 8 8 8 7.6875 10.25 C7.460625 10.8275 7.23375 11.405 7 12 C6.484375 11.5875 5.96875 11.175 5.4375 10.75 C3.42487916 9.30504145 1.47562492 8.12588344 -0.6875 6.9375 C-4 5 -4 5 -5 3 C-3.35 3 -1.7 3 0 3 C0 2.01 0 1.02 0 0 Z " fill="#BF9706" transform="translate(63,97)"/>
<path d="M0 0 C3.33238081 1.66619041 4.06029258 5.38629581 5.4375 8.6875 C6.03883549 10.10872087 6.64167962 11.52930443 7.24609375 12.94921875 C7.68091064 13.97861572 7.68091064 13.97861572 8.12451172 15.02880859 C8.93485952 16.85333401 9.85593332 18.62758436 10.78515625 20.39453125 C11.18605469 21.25433594 11.58695313 22.11414063 12 23 C11.67 23.66 11.34 24.32 11 25 C10.773125 24.21625 10.54625 23.4325 10.3125 22.625 C8.66171907 19.32343815 7.38223927 19.18378375 4 18 C1.94363913 14.91545869 1.48865646 13.15190326 0.875 9.5625 C0.62363281 8.14130859 0.62363281 8.14130859 0.3671875 6.69140625 C0 4 0 4 0 0 Z " fill="#EDC106" transform="translate(48,107)"/>
<path d="M0 0 C1.20849609 0.27457031 1.20849609 0.27457031 2.44140625 0.5546875 C4.4375 1.125 4.4375 1.125 5.4375 2.125 C5.15019945 4.46444736 4.81813221 6.7989143 4.4375 9.125 C3.86 8.815625 3.2825 8.50625 2.6875 8.1875 C0.52958817 7.04999553 0.52958817 7.04999553 -1.625 6.75 C-4.2983917 5.88761558 -5.13296902 4.48372612 -6.5625 2.125 C-6.5625 1.465 -6.5625 0.805 -6.5625 0.125 C-3.95184904 -1.18032548 -2.8070219 -0.65782536 0 0 Z " fill="#DCB339" transform="translate(74.5625,100.875)"/>
<path d="M0 0 C3 1 3 1 4.58203125 4.03515625 C6.16601811 8.07830079 6.97259605 12.16760922 7.6875 16.4375 C7.81705078 17.16904297 7.94660156 17.90058594 8.08007812 18.65429688 C8.39429815 20.434877 8.69824068 22.21726583 9 24 C10.65 21.03 12.3 18.06 14 15 C15.13482428 19.53929712 15.13482428 19.53929712 13.25 22.6875 C12.90453125 23.28949219 12.5590625 23.89148438 12.203125 24.51171875 C11 26 11 26 8 27 C7.34 26.67 6.68 26.34 6 26 C5.67 26.99 5.34 27.98 5 29 C5.02320313 28.16597656 5.04640625 27.33195312 5.0703125 26.47265625 C5.21522419 17.43637755 5.12824896 9.69237344 0 2 C0 1.34 0 0.68 0 0 Z " fill="#AD1B4A" transform="translate(58,107)"/>
<path d="M0 0 C0.495 0.99 0.495 0.99 1 2 C-0.76135476 6.68696502 -2.81946783 11.06845035 -7 14 C-14.01845743 16.08684211 -21.78613502 15.12030009 -29 14.75 C-31.03499936 14.6897565 -33.07016943 14.63501239 -35.10546875 14.5859375 C-40.07454656 14.45417695 -45.03539421 14.24746885 -50 14 C-50 13.67 -50 13.34 -50 13 C-35.81 12.67 -21.62 12.34 -7 12 C-6.34 10.02 -5.68 8.04 -5 6 C-3.7109375 4.1015625 -3.7109375 4.1015625 -2.375 2.625 C-1.59125 1.75875 -0.8075 0.8925 0 0 Z " fill="#C69118" transform="translate(144,81)"/>
<path d="M0 0 C6.93 0 13.86 0 21 0 C21 0.33 21 0.66 21 1 C20.14450562 1.03758423 20.14450562 1.03758423 19.27172852 1.07592773 C16.70173843 1.19156549 14.13214473 1.31443624 11.5625 1.4375 C10.66466797 1.47681641 9.76683594 1.51613281 8.84179688 1.55664062 C7.98779297 1.59853516 7.13378906 1.64042969 6.25390625 1.68359375 C5.06776733 1.73858032 5.06776733 1.73858032 3.85766602 1.79467773 C1.98598559 1.80563257 1.98598559 1.80563257 1 3 C0.92794489 4.68608966 0.91613932 6.37500659 0.9375 8.0625 C0.95103516 9.44115234 0.95103516 9.44115234 0.96484375 10.84765625 C0.97644531 11.55792969 0.98804687 12.26820312 1 13 C-1.49361571 11.79618552 -3.68143083 10.54571278 -6 9 C-5.75 6.625 -5.75 6.625 -5 4 C-3 2.8125 -3 2.8125 -1 2 C-0.67 1.34 -0.34 0.68 0 0 Z " fill="#EA367F" transform="translate(94,96)"/>
<path d="M0 0 C0.33 2.64 0.66 5.28 1 8 C-1.78823655 9.0326802 -2.8677274 9.04509293 -5.75 8.0625 C-6.4925 7.711875 -7.235 7.36125 -8 7 C-8 5.02 -8 3.04 -8 1 C-5.23735711 0.40267181 -2.83967231 0 0 0 Z " fill="#E5BB24" transform="translate(41,111)"/>
<path d="M0 0 C1.2375 0.2475 2.475 0.495 3.75 0.75 C3.42 1.74 3.09 2.73 2.75 3.75 C3.41 4.08 4.07 4.41 4.75 4.75 C1.83291076 6.73362069 0.62619096 6.7376191 -3 6.375 C-4.0725 6.16875 -5.145 5.9625 -6.25 5.75 C-7.24 7.235 -7.24 7.235 -8.25 8.75 C-8.91 8.75 -9.57 8.75 -10.25 8.75 C-8.36127094 3.08381283 -6.41575107 -0.79346745 0 0 Z " fill="#F993BE" transform="translate(95.25,28.25)"/>
<path d="M0 0 C9.41123114 -0.88692231 15.13786272 0.89519997 23 6 C24.6642177 7.00407032 26.3301788 8.00527646 28 9 C27.67 10.98 27.34 12.96 27 15 C25.29115995 13.37660195 23.62553283 11.70680947 22 10 C22 9.34 22 8.68 22 8 C17.545 6.02 17.545 6.02 13 4 C13 3.34 13 2.68 13 2 C8.71 1.67 4.42 1.34 0 1 C0 0.67 0 0.34 0 0 Z " fill="#F63996" transform="translate(40,11)"/>
<path d="M0 0 C1.98 0.99 1.98 0.99 4 2 C4 2.66 4 3.32 4 4 C9.91492272 3.54775239 15.35199888 2.8417395 21 1 C19.625 2.5 19.625 2.5 18 4 C17.34 4 16.68 4 16 4 C16 4.66 16 5.32 16 6 C11.38 6.66 6.76 7.32 2 8 C0 3 0 3 0 0 Z " fill="#BB9504" transform="translate(39,90)"/>
<path d="M0 0 C4.61218911 4.61218911 4.13928742 12.78006451 4.1875 18.9375 C4.16722257 22.34005345 4.07846213 24.76461361 3 28 C0.69 28 -1.62 28 -4 28 C-4 27.67 -4 27.34 -4 27 C-2.35 27 -0.7 27 1 27 C1.10234659 17.93664124 1.06996173 9.01824887 0 0 Z " fill="#E9B913" transform="translate(91,69)"/>
<path d="M0 0 C2.31 0 4.62 0 7 0 C10.01878354 5.19230769 10.01878354 5.19230769 9.9375 8.6875 C8.79456756 11.50673336 7.61399354 12.49497341 5 14 C4.34 14 3.68 14 3 14 C3.33 12.35 3.66 10.7 4 9 C4.66 9 5.32 9 6 9 C6 8.01 6 7.02 6 6 C5.34 5.67 4.68 5.34 4 5 C4 3.68 4 2.36 4 1 C2.68 0.67 1.36 0.34 0 0 Z " fill="#F8F25E" transform="translate(31,89)"/>
<path d="M0 0 C0.69710731 1.28650706 1.38242876 2.57940665 2.0625 3.875 C2.44535156 4.59429687 2.82820313 5.31359375 3.22265625 6.0546875 C3.47917969 6.69664063 3.73570313 7.33859375 4 8 C3.67 8.66 3.34 9.32 3 10 C0 6.25 0 6.25 0 4 C-1.98491642 4.26676204 -1.98491642 4.26676204 -4 5 C-4.33 5.99 -4.66 6.98 -5 8 C-5.99 7.67 -6.98 7.34 -8 7 C-8.33 5.02 -8.66 3.04 -9 1 C-5.92677456 0.08941469 -3.19902639 -0.08886184 0 0 Z " fill="#771238" transform="translate(56,98)"/>
<path d="M0 0 C4.75 0.75 4.75 0.75 7 3 C7.78375 2.814375 8.5675 2.62875 9.375 2.4375 C12 2 12 2 14.3125 3.4375 C15.1478125 4.2109375 15.1478125 4.2109375 16 5 C16.33 4.34 16.66 3.68 17 3 C17 3.99 17 4.98 17 6 C13.24263267 6.88408643 9.84802198 7.48100275 6 7 C3.42714276 4.827365 1.51003081 3.02006162 0 0 Z " fill="#E7BB1F" transform="translate(63,105)"/>
<path d="M0 0 C1.03253906 0.01353516 1.03253906 0.01353516 2.0859375 0.02734375 C3.76577838 0.05067487 5.44543746 0.08653674 7.125 0.125 C7.125 0.455 7.125 0.785 7.125 1.125 C5.73087891 1.18107422 5.73087891 1.18107422 4.30859375 1.23828125 C-5.23266407 1.57844367 -5.23266407 1.57844367 -13.875 5.125 C-14.02195312 5.76308594 -14.16890625 6.40117187 -14.3203125 7.05859375 C-15.04489591 9.75792208 -16.13362326 10.36700795 -18.4375 11.875 C-19.07816406 12.30296875 -19.71882813 12.7309375 -20.37890625 13.171875 C-21.11947266 13.64367187 -21.11947266 13.64367187 -21.875 14.125 C-21.875 12.475 -21.875 10.825 -21.875 9.125 C-20.885 8.795 -19.895 8.465 -18.875 8.125 C-17.70439751 6.63801846 -16.53473185 5.14784514 -15.44921875 3.59765625 C-11.1917554 -0.38513205 -5.49354345 -0.13840323 0 0 Z " fill="#FA409C" transform="translate(114.875,11.875)"/>
<path d="M0 0 C5.94 0.33 11.88 0.66 18 1 C17.01 1.99 16.02 2.98 15 4 C14.34 4 13.68 4 13 4 C13 5.32 13 6.64 13 8 C11 7 11 7 9 5 C7.4792296 4.24785002 5.93442705 3.54332588 4.375 2.875 C3.55773437 2.52179688 2.74046875 2.16859375 1.8984375 1.8046875 C1.27195312 1.53914063 0.64546875 1.27359375 0 1 C0 0.67 0 0.34 0 0 Z " fill="#FDCB0A" transform="translate(24,68)"/>
<path d="M0 0 C8.25 0 16.5 0 25 0 C25 0.33 25 0.66 25 1 C24.40832031 1.10957031 23.81664063 1.21914062 23.20703125 1.33203125 C16.63048206 2.57504286 16.63048206 2.57504286 11 6 C10.58219121 8.62694422 10.58219121 8.62694422 11 11 C9 9 9 9 8.6875 6.5 C8.790625 5.675 8.89375 4.85 9 4 C9.99 3.34 10.98 2.68 12 2 C8.04 1.67 4.08 1.34 0 1 C0 0.67 0 0.34 0 0 Z " fill="#FFEA2F" transform="translate(28,68)"/>
<path d="M0 0 C9.33651766 -0.6053938 16.03813293 -0.13668843 24 5 C23.67 5.99 23.34 6.98 23 8 C22.42894531 7.66226562 21.85789062 7.32453125 21.26953125 6.9765625 C14.32525011 3.15665586 7.84334612 1.82367428 0 1 C0 0.67 0 0.34 0 0 Z " fill="#FF68BD" transform="translate(39,14)"/>
<path d="M0 0 C4 0 4 0 6.0625 1.8125 C6.701875 2.534375 7.34125 3.25625 8 4 C8.8353125 4.7734375 8.8353125 4.7734375 9.6875 5.5625 C11 7 11 7 12 10 C9.36 9.34 6.72 8.68 4 8 C4 7.34 4 6.68 4 6 C3.01 5.67 2.02 5.34 1 5 C0.67 3.35 0.34 1.7 0 0 Z " fill="#CBA503" transform="translate(47,122)"/>
<path d="M0 0 C10.57125231 -0.55556946 20.18082625 -0.2100058 28.6875 6.75 C29.450625 7.4925 30.21375 8.235 31 9 C30.67 9.66 30.34 10.32 30 11 C29.05640625 10.27683594 29.05640625 10.27683594 28.09375 9.5390625 C18.72599685 2.62611213 11.47326275 1.72663997 0 1 C0 0.67 0 0.34 0 0 Z " fill="#EB2989" transform="translate(110,11)"/>
<path d="M0 0 C0.66 0.33 1.32 0.66 2 1 C1.071875 2.36125 1.071875 2.36125 0.125 3.75 C-1.95061515 6.73187989 -1.95061515 6.73187989 -2.9375 9.125 C-4.43676551 11.77076267 -6.57823137 13.2155389 -9 15 C-9 9.78780852 -7.06346265 7.08750966 -4 3 C-1.6875 1 -1.6875 1 0 0 Z " fill="#EB2F8A" transform="translate(97,16)"/>
<path d="M0 0 C0 2.64 0 5.28 0 8 C-2.64 8.33 -5.28 8.66 -8 9 C-6.68994234 5.06982701 -4.75047804 0 0 0 Z " fill="#C8A01C" transform="translate(41,103)"/>
<path d="M0 0 C0.33 0 0.66 0 1 0 C1 2.64 1 5.28 1 8 C-2.54674003 9.18224668 -4.97522995 8.89329634 -8.6875 8.5625 C-9.86699219 8.46066406 -11.04648437 8.35882813 -12.26171875 8.25390625 C-13.16535156 8.17011719 -14.06898437 8.08632812 -15 8 C-11.73386305 6.08697693 -9.00554752 5.64325339 -5.25 5.375 C-4.26515625 5.30023438 -3.2803125 5.22546875 -2.265625 5.1484375 C-1.51796875 5.09945312 -0.7703125 5.05046875 0 5 C0 3.35 0 1.7 0 0 Z " fill="#FFF338" transform="translate(55,76)"/>
<path d="M0 0 C0.33 1.32 0.66 2.64 1 4 C-5.93 3.505 -5.93 3.505 -13 3 C-13 2.34 -13 1.68 -13 1 C-8.20862412 -0.6290678 -4.94367454 -1.20577428 0 0 Z " fill="#FAD935" transform="translate(37,85)"/>
<path d="M0 0 C0.66 0 1.32 0 2 0 C3.05466451 4.3462384 3.21736935 8.61249512 3.25 13.0625 C3.270625 13.76955078 3.29125 14.47660156 3.3125 15.20507812 C3.33733058 18.51064962 3.21959362 20.63834969 1.484375 23.49609375 C0.99453125 23.99238281 0.5046875 24.48867187 0 25 C-0.99 24.67 -1.98 24.34 -3 24 C-1.68 23.34 -0.36 22.68 1 22 C1.14715692 14.6094524 0.70776992 7.35575165 0 0 Z " fill="#FFEC2F" transform="translate(87,70)"/>
<path d="M0 0 C-1.94339224 1.94339224 -3.37756069 2.80813678 -5.8125 4 C-6.52792969 4.35191406 -7.24335938 4.70382813 -7.98046875 5.06640625 C-10 6 -10 6 -12.625 6.9375 C-15.9533467 8.42649721 -18.27096493 10.58829459 -21 13 C-20.6169767 10.46657447 -20.23640386 9.23582727 -18.3984375 7.40234375 C-7.26146888 -0.66013353 -7.26146888 -0.66013353 0 0 Z " fill="#E42585" transform="translate(36,12)"/>
<path d="M0 0 C0.85722656 -0.01675781 1.71445313 -0.03351563 2.59765625 -0.05078125 C5.35854781 0.37787136 6.21528897 1.17244105 7.9375 3.3125 C4.60416667 2.64583333 1.27083333 1.97916667 -2.0625 1.3125 C-1.7325 2.3025 -1.4025 3.2925 -1.0625 4.3125 C-3.95484315 5.13888376 -5.94992431 5.3125 -9.0625 5.3125 C-9.0625 4.3225 -9.0625 3.3325 -9.0625 2.3125 C-5.94428643 0.4965566 -3.5974669 0.01627813 0 0 Z " fill="#926F09" transform="translate(65.0625,95.6875)"/>
<path d="M0 0 C0.66 0 1.32 0 2 0 C1.52060632 4.71403788 1.03165952 8.66579301 -1 13 C-1.99 13 -2.98 13 -4 13 C-2 2 -2 2 0 0 Z " fill="#E62078" transform="translate(148,53)"/>
<path d="M0 0 C4.97173583 1.55366745 9.18561608 4.49754 13 8 C13.33 8.99 13.66 9.98 14 11 C10.42808296 11 10.02077328 10.41190492 7.5 8.0625 C5.19604302 5.92527675 4.05243655 5.01747885 1 4 C0.3125 1.9375 0.3125 1.9375 0 0 Z " fill="#FC48A3" transform="translate(128,14)"/>
<path d="M0 0 C1.65 0 3.3 0 5 0 C4.88610125 1.79240663 4.75852313 3.58394835 4.625 5.375 C4.55539063 6.37273437 4.48578125 7.37046875 4.4140625 8.3984375 C4 11 4 11 2 13 C0.71553081 10.43106162 0.67022856 8.23423663 0.4375 5.375 C0.35371094 4.37210937 0.26992187 3.36921875 0.18359375 2.3359375 C0.12300781 1.56507812 0.06242187 0.79421875 0 0 Z " fill="#FCD004" transform="translate(64,113)"/>
<path d="M0 0 C1.13598633 0.00483398 1.13598633 0.00483398 2.29492188 0.00976562 C3.47344727 0.02233398 3.47344727 0.02233398 4.67578125 0.03515625 C5.47306641 0.03966797 6.27035156 0.04417969 7.09179688 0.04882812 C9.05732382 0.06059775 11.0228121 0.07853277 12.98828125 0.09765625 C13.64828125 1.41765625 14.30828125 2.73765625 14.98828125 4.09765625 C13.99828125 3.76765625 13.00828125 3.43765625 11.98828125 3.09765625 C10.99828125 3.42765625 10.00828125 3.75765625 8.98828125 4.09765625 C7.65101156 3.78048331 6.31816939 3.4444796 4.98828125 3.09765625 C3.07266871 3.03077034 1.15492533 3.01233906 -0.76171875 3.03515625 C-1.7465625 3.04417969 -2.73140625 3.05320312 -3.74609375 3.0625 C-4.86757813 3.07990234 -4.86757813 3.07990234 -6.01171875 3.09765625 C-6.34171875 2.43765625 -6.67171875 1.77765625 -7.01171875 1.09765625 C-4.30455633 0.19526878 -2.77395107 -0.02085677 0 0 Z " fill="#FC99C3" transform="translate(54.01171875,25.90234375)"/>
<path d="M0 0 C0.33 0 0.66 0 1 0 C0.54775239 5.91492272 -0.1582605 11.35199888 -2 17 C-2.99 16.67 -3.98 16.34 -5 16 C-4.34 16 -3.68 16 -3 16 C-3.03480469 15.43152344 -3.06960937 14.86304687 -3.10546875 14.27734375 C-3.30230592 8.66279774 -2.55495317 5.00344995 0 0 Z " fill="#BF1467" transform="translate(154,50)"/>
<path d="M0 0 C5.28 0 10.56 0 16 0 C16.33 1.32 16.66 2.64 17 4 C16.13375 3.67 15.2675 3.34 14.375 3 C8.62358329 1.29587653 4.56282162 1.88082986 -1 4 C-0.67 2.68 -0.34 1.36 0 0 Z " fill="#C5B05F" transform="translate(34,126)"/>
<path d="M0 0 C0.11085938 0.57492188 0.22171875 1.14984375 0.3359375 1.7421875 C1.28990674 4.9856829 3.14628406 7.42411755 5.0390625 10.1953125 C5.35617188 10.79085937 5.67328125 11.38640625 6 12 C5.67 12.66 5.34 13.32 5 14 C4.23816406 12.80890625 4.23816406 12.80890625 3.4609375 11.59375 C2.77257812 10.5728125 2.08421875 9.551875 1.375 8.5 C0.70210937 7.4790625 0.02921875 6.458125 -0.6640625 5.40625 C-2.82622915 2.66476603 -2.82622915 2.66476603 -6.2734375 2.65625 C-7.62308594 2.82640625 -7.62308594 2.82640625 -9 3 C-7.14340032 -0.71319936 -3.69365381 -0.09982848 0 0 Z " fill="#FFFE61" transform="translate(78,45)"/>
<path d="M0 0 C0.99 0.33 1.98 0.66 3 1 C2.67 2.32 2.34 3.64 2 5 C0.989375 4.9175 -0.02125 4.835 -1.0625 4.75 C-6.90728602 5.12109752 -10.16504318 7.77669545 -15 11 C-13.58582046 7.58239945 -12.23647693 5.82570494 -9 4 C-6.02691076 3.17328607 -3.03524445 2.55127303 0 2 C0 1.34 0 0.68 0 0 Z " fill="#EE4691" transform="translate(78,41)"/>
<path d="M0 0 C0.66 0 1.32 0 2 0 C2.66 4.62 3.32 9.24 4 14 C3.34 13.34 2.68 12.68 2 12 C2 11.01 2 10.02 2 9 C1.01 8.67 0.02 8.34 -1 8 C-1.125 2.25 -1.125 2.25 0 0 Z " fill="#E0B00A" transform="translate(35,76)"/>
<path d="M0 0 C1.16402344 0.00773437 1.16402344 0.00773437 2.3515625 0.015625 C3.12242188 0.01046875 3.89328125 0.0053125 4.6875 0 C7.1757986 0.28874455 8.81890448 1.02423271 10.9765625 2.265625 C10.33847656 2.38679688 9.70039063 2.50796875 9.04296875 2.6328125 C7.80353516 2.88417969 7.80353516 2.88417969 6.5390625 3.140625 C5.71535156 3.30304688 4.89164063 3.46546875 4.04296875 3.6328125 C3.36105469 3.84164062 2.67914062 4.05046875 1.9765625 4.265625 C1.6465625 4.925625 1.3165625 5.585625 0.9765625 6.265625 C0.9765625 4.945625 0.9765625 3.625625 0.9765625 2.265625 C-0.6734375 2.265625 -2.3234375 2.265625 -4.0234375 2.265625 C-2.0234375 0.265625 -2.0234375 0.265625 0 0 Z " fill="#FBEA5B" transform="translate(7.0234375,64.734375)"/>
<path d="M0 0 C3.00736164 1.50368082 3.40016389 3.76199294 4.6875 6.8125 C5.14511719 7.87082031 5.60273437 8.92914063 6.07421875 10.01953125 C7 13 7 13 6 17 C5.01 14.03 4.02 11.06 3 8 C2.34 8 1.68 8 1 8 C0.67 5.36 0.34 2.72 0 0 Z " fill="#F3CC1F" transform="translate(48,107)"/>
<path d="M0 0 C5.94 0.99 5.94 0.99 12 2 C10.68 3.65 9.36 5.3 8 7 C6.66382648 6.02471263 5.3311249 5.04466681 4 4.0625 C3.2575 3.51722656 2.515 2.97195312 1.75 2.41015625 C1.1725 1.94480469 0.595 1.47945313 0 1 C0 0.67 0 0.34 0 0 Z " fill="#7E1C46" transform="translate(79,97)"/>
<path d="M0 0 C0.66 0 1.32 0 2 0 C2 0.99 2 1.98 2 3 C1.20335938 3.01417969 0.40671875 3.02835937 -0.4140625 3.04296875 C-7.35922797 3.35558569 -11.21988279 3.82153969 -16 9 C-14.70171822 6.10383296 -13.48728765 3.99762028 -11 2 C-8.5546875 1.5234375 -8.5546875 1.5234375 -5.875 1.375 C-2.63088186 1.43466212 -2.63088186 1.43466212 0 0 Z " fill="#B3205C" transform="translate(92,113)"/>
<path d="M0 0 C-2.1875 2.0625 -2.1875 2.0625 -5 4 C-7.75 3.875 -7.75 3.875 -10 3 C-10.33 2.34 -10.66 1.68 -11 1 C-3.375 -1.125 -3.375 -1.125 0 0 Z " fill="#A99457" transform="translate(24,118)"/>
<path d="M0 0 C0.66 0 1.32 0 2 0 C2 2.31 2 4.62 2 7 C-0.97 6.505 -0.97 6.505 -4 6 C-4 5.01 -4 4.02 -4 3 C-3.01 2.67 -2.02 2.34 -1 2 C-0.67 1.34 -0.34 0.68 0 0 Z " fill="#F1C53D" transform="translate(39,111)"/>
<path d="M0 0 C2.97 0 5.94 0 9 0 C8.34 1.98 7.68 3.96 7 6 C6.01 6 5.02 6 4 6 C4 5.34 4 4.68 4 4 C3.34 4 2.68 4 2 4 C2 3.01 2 2.02 2 1 C1.34 0.67 0.68 0.34 0 0 Z " fill="#A58003" transform="translate(39,102)"/>
<path d="M0 0 C3.00617269 3.00617269 2.59585316 5.82381598 3 10 C3.99 10.33 4.98 10.66 6 11 C4.02 11 2.04 11 0 11 C0 7.37 0 3.74 0 0 Z " fill="#F5CD0E" transform="translate(95,83)"/>
<path d="M0 0 C0.99 0.66 1.98 1.32 3 2 C-0.07999946 5.67230705 -2.2482602 6.56802365 -7 7 C-4.78071806 4.09197539 -3.07030857 2.04687238 0 0 Z " fill="#876D1C" transform="translate(26,111)"/>
<path d="M0 0 C0.66 0 1.32 0 2 0 C1.34938905 1.67299959 0.67966676 3.33859237 0 5 C-0.268125 5.7425 -0.53625 6.485 -0.8125 7.25 C-2 9 -2 9 -4.625 9.75 C-5.40875 9.8325 -6.1925 9.915 -7 10 C-5.625 7.5 -5.625 7.5 -4 5 C-3.34 5 -2.68 5 -2 5 C-1.34 3.35 -0.68 1.7 0 0 Z " fill="#E6BC07" transform="translate(139,84)"/>
<path d="M0 0 C6.6 0.6 6.6 0.6 9 3 C5.94736336 3.98120464 4.05263664 3.98120464 1 3 C0.01 4.485 0.01 4.485 -1 6 C-1.66 6 -2.32 6 -3 6 C-1.125 1.125 -1.125 1.125 0 0 Z " fill="#F37CB0" transform="translate(88,31)"/>
<path d="M0 0 C2.34601486 2.13274079 3.86264449 4.02537789 5 7 C5.125 9.75 5.125 9.75 5 12 C4.5978125 11.1028125 4.5978125 11.1028125 4.1875 10.1875 C2.96414758 7.93395607 2.02039668 6.57141964 0 5 C-2.60611077 4.27802838 -2.60611077 4.27802838 -5 4 C-4.67 3.34 -4.34 2.68 -4 2 C-2.68 2 -1.36 2 0 2 C0 1.34 0 0.68 0 0 Z " fill="#FBA1CA" transform="translate(140,26)"/>
<path d="M0 0 C0.99 0.33 1.98 0.66 3 1 C2.21625 1.5775 1.4325 2.155 0.625 2.75 C-1.80047244 4.82897637 -2.85694417 6.09040333 -4 9 C-5.32 9 -6.64 9 -8 9 C-6.40758592 4.70048197 -3.64459275 2.60328053 0 0 Z " fill="#5A3E06" transform="translate(35,103)"/>
<path d="M0 0 C1.32 0.33 2.64 0.66 4 1 C3.01 1.33 2.02 1.66 1 2 C1 5.63 1 9.26 1 13 C-1.71843438 9.37542083 -2.41789544 8.19115285 -3 4 C-2.34 4 -1.68 4 -1 4 C-0.67 2.68 -0.34 1.36 0 0 Z " fill="#8D1440" transform="translate(52,102)"/>
<path d="M0 0 C0 0.66 0 1.32 0 2 C-3.37097383 3.49821059 -5.20442119 4 -9 4 C-9 3.01 -9 2.02 -9 1 C-5.92677456 0.08941469 -3.19902639 -0.08886184 0 0 Z " fill="#5F0C2C" transform="translate(56,98)"/>
<path d="M0 0 C2.31 0 4.62 0 7 0 C7.66 1.98 8.32 3.96 9 6 C7.35 5.67 5.7 5.34 4 5 C4 3.68 4 2.36 4 1 C2.68 0.67 1.36 0.34 0 0 Z " fill="#FBE25A" transform="translate(31,89)"/>
<path d="M0 0 C0.99 0.495 0.99 0.495 2 1 C2 1.66 2 2.32 2 3 C3.98 2.67 5.96 2.34 8 2 C8 3.32 8 4.64 8 6 C5 7 5 7 2.3125 5.8125 C1.549375 5.214375 0.78625 4.61625 0 4 C0 2.68 0 1.36 0 0 Z " fill="#FFE635" transform="translate(68,78)"/>
<path d="M0 0 C-0.33 0.99 -0.66 1.98 -1 3 C-4.5625 4.6875 -4.5625 4.6875 -8 6 C-8 5.01 -8 4.02 -8 3 C-5.11165997 0.89229241 -3.61537605 0 0 0 Z " fill="#FE53AF" transform="translate(108,14)"/>
<path d="M0 0 C0.99 0.33 1.98 0.66 3 1 C3 1.99 3 2.98 3 4 C-1.95 3.67 -6.9 3.34 -12 3 C-12 2.67 -12 2.34 -12 2 C-8.04 2 -4.08 2 0 2 C0 1.34 0 0.68 0 0 Z " fill="#C92568" transform="translate(94,114)"/>
<path d="M0 0 C2.35981813 0.93578995 4.69631264 1.93347808 7 3 C7 3.66 7 4.32 7 5 C4.69 5 2.38 5 0 5 C-0.66 3.68 -1.32 2.36 -2 1 C-1.34 0.67 -0.68 0.34 0 0 Z " fill="#FEEA2A" transform="translate(23,68)"/>
<path d="M0 0 C0 2.64 0 5.28 0 8 C-1.32 7.34 -2.64 6.68 -4 6 C-3.625 3.5625 -3.625 3.5625 -3 1 C-1 0 -1 0 0 0 Z " fill="#B82C68" transform="translate(92,99)"/>
<path d="M0 0 C3.69790046 1.23263349 3.9354846 2.20052451 5.6875 5.5625 C6.12449219 6.38878906 6.56148438 7.21507812 7.01171875 8.06640625 C7.33785156 8.70449219 7.66398437 9.34257813 8 10 C7.01 10.495 7.01 10.495 6 11 C4.9944239 9.54550599 3.99569565 8.08627557 3 6.625 C2.443125 5.81289063 1.88625 5.00078125 1.3125 4.1640625 C0 2 0 2 0 0 Z " fill="#FEE540" transform="translate(77,46)"/>
<path d="M0 0 C3.375 -0.125 3.375 -0.125 7 0 C7.66 0.66 8.32 1.32 9 2 C8.625 4.125 8.625 4.125 8 6 C7.13375 5.319375 7.13375 5.319375 6.25 4.625 C4.2199667 3.15886484 2.26460157 2.05142216 0 1 C0 0.67 0 0.34 0 0 Z " fill="#D4AA0F" transform="translate(62,103)"/>
<path d="M0 0 C4.08378283 0.74250597 8.01939223 1.82923301 12 3 C8.91837616 3.91307373 6.20679859 4.41112802 3 4 C1.1875 2 1.1875 2 0 0 Z " fill="#C29D30" transform="translate(64,97)"/>
<path d="M0 0 C0 0.66 0 1.32 0 2 C-7.42857143 4.42857143 -7.42857143 4.42857143 -11 3 C-7.48550811 -0.37391222 -4.73940561 -0.27342725 0 0 Z " fill="#483001" transform="translate(67,93)"/>
<path d="M0 0 C2.76276177 0.52268466 5.3260876 1.10869587 8 2 C7.67 2.99 7.34 3.98 7 5 C4.0625 4.1875 4.0625 4.1875 1 3 C0.67 2.01 0.34 1.02 0 0 Z " fill="#F899C1" transform="translate(125,29)"/>
<path d="M0 0 C0.99 0 1.98 0 3 0 C4.48320272 3.83887763 5.22419163 6.06204091 4 10 C3.32845067 8.71086513 2.66291141 7.41859796 2 6.125 C1.62875 5.40570313 1.2575 4.68640625 0.875 3.9453125 C0 2 0 2 0 0 Z " fill="#BBA85F" transform="translate(6,105)"/>
<path d="M0 0 C-0.33 0.66 -0.66 1.32 -1 2 C-4.3 2 -7.6 2 -11 2 C-7.72338241 -1.27661759 -4.29690696 -1.43230232 0 0 Z " fill="#FEDD1D" transform="translate(35,85)"/>
<path d="M0 0 C1.6396875 0.0928125 1.6396875 0.0928125 3.3125 0.1875 C3.3125 0.8475 3.3125 1.5075 3.3125 2.1875 C0.0125 2.5175 -3.2875 2.8475 -6.6875 3.1875 C-3.6875 0.1875 -3.6875 0.1875 0 0 Z " fill="#FFFE72" transform="translate(49.6875,68.8125)"/>
<path d="M0 0 C0.721875 0.144375 1.44375 0.28875 2.1875 0.4375 C3.5796875 0.7159375 3.5796875 0.7159375 5 1 C6.66666667 1.33333333 8.33333333 1.66666667 10 2 C10 2.99 10 3.98 10 5 C5.59885603 4.49701212 3.28804981 2.91227269 0 0 Z " fill="#842137" transform="translate(52,130)"/>
<path d="M0 0 C-0.33 1.32 -0.66 2.64 -1 4 C-1.33 3.67 -1.66 3.34 -2 3 C-3.51469448 2.76807135 -5.03754562 2.58784762 -6.5625 2.4375 C-7.38878906 2.35371094 -8.21507813 2.26992187 -9.06640625 2.18359375 C-9.70449219 2.12300781 -10.34257813 2.06242187 -11 2 C-11 1.67 -11 1.34 -11 1 C-7.27569643 0.30710631 -3.78916254 -0.11144596 0 0 Z " fill="#D23E55" transform="translate(96,111)"/>
<path d="M0 0 C1.98 0.99 3.96 1.98 6 3 C5.67 3.99 5.34 4.98 5 6 C3.02 4.68 1.04 3.36 -1 2 C-0.67 1.34 -0.34 0.68 0 0 Z " fill="#FE55AD" transform="translate(57,16)"/>
<path d="M0 0 C1.32 0 2.64 0 4 0 C3.34 3.3 2.68 6.6 2 10 C1.67 10 1.34 10 1 10 C0.67 6.7 0.34 3.4 0 0 Z " fill="#FEDE0F" transform="translate(64,113)"/>
<path d="M0 0 C4.51478398 0.53115106 7.34666857 2.36620292 11 5 C7.80389448 5 6.58282374 4.45328458 3.8125 3 C3.09707031 2.62875 2.38164063 2.2575 1.64453125 1.875 C1.10183594 1.58625 0.55914062 1.2975 0 1 C0 0.67 0 0.34 0 0 Z " fill="#E32685" transform="translate(52,11)"/>
<path d="M0 0 C0 3 0 3 -1.875 5.0625 C-2.57625 5.701875 -3.2775 6.34125 -4 7 C-4.66 7.66 -5.32 8.32 -6 9 C-5.69381595 5.32579134 -5.24228216 4.21864487 -2.4375 1.6875 C-1.633125 1.130625 -0.82875 0.57375 0 0 Z " fill="#84630D" transform="translate(38,103)"/>
<path d="M0 0 C-0.66 1.32 -1.32 2.64 -2 4 C-6.75 3.125 -6.75 3.125 -9 2 C-5.86501708 0.14223235 -3.62528568 -0.20140476 0 0 Z " fill="#FDE169" transform="translate(78,45)"/>
</svg>
