<?xml version="1.0" encoding="UTF-8"?>
<svg version="1.1" xmlns="http://www.w3.org/2000/svg" width="160" height="160">
<path d="M0 0 C5.06178377 0.85954819 8.44929936 4.45567036 11.875 8.0625 C12.865 9.5475 12.865 9.5475 13.875 11.0625 C14.6175 10.216875 15.36 9.37125 16.125 8.5 C18.875 6.0625 18.875 6.0625 20.875 5.9375 C23.70407082 7.52885234 25.68570285 9.69076142 27.875 12.0625 C26.37276416 16.26876034 23.58949966 17.80150021 19.875 20.0625 C18.885 19.0725 17.895 18.0825 16.875 17.0625 C17.15825507 30.78685401 17.15825507 30.78685401 22.03125 43.171875 C24.86495602 45.38883324 27.7977081 47.19983114 30.875 49.0625 C33.36610517 51.02004249 35.74248189 53.10003651 38.125 55.1875 C38.69065674 55.66727295 39.25631348 56.1470459 39.83911133 56.64135742 C40.6689856 57.34869019 40.6689856 57.34869019 41.515625 58.0703125 C42.0712915 58.54122314 42.62695801 59.01213379 43.19946289 59.49731445 C44.875 61.0625 44.875 61.0625 46.51733398 63.05541992 C48.2114254 65.06526302 49.66336357 66.63618336 51.875 68.0625 C55.32180811 68.24757379 58.20220974 67.23690823 61.4375 66.125 C63.22512631 65.59667847 65.01420478 65.07324616 66.8046875 64.5546875 C67.67319336 64.29268555 68.54169922 64.03068359 69.43652344 63.76074219 C80.37125093 60.62965282 91.61736905 60.81717632 102.875 61.0625 C102.875 64.0325 102.875 67.0025 102.875 70.0625 C97.33853099 71.85831296 92.10011145 72.53899064 86.3125 73 C77.96842158 73.73878254 70.0163585 75.04063945 61.875 77.0625 C61.875 80.34184779 64.31131396 82.49933289 66.25 85 C68.53285241 87.978409 70.79187121 90.93780681 72.875 94.0625 C75.515 92.7425 78.155 91.4225 80.875 90.0625 C85.875 96.6875 85.875 96.6875 85.875 100.0625 C79.25 104.0625 79.25 104.0625 75.875 104.0625 C75.215 102.7425 74.555 101.4225 73.875 100.0625 C73.19228027 100.80943115 72.50956055 101.5563623 71.80615234 102.32592773 C68.90450349 105.21873979 65.62610521 107.0437111 61.9765625 108.84765625 C61.3138736 109.18519424 60.65118469 109.52273224 59.96841431 109.87049866 C57.81664356 110.96420765 55.65841899 112.04447999 53.5 113.125 C51.99522739 113.88744265 50.49099986 114.65096198 48.98730469 115.41552734 C45.99171633 116.93801044 42.9941834 118.4565483 39.99511719 119.97216797 C34.68003999 122.66289345 29.39976086 125.41873007 24.125 128.1875 C14.80676952 133.06453615 5.46582947 137.89700091 -3.88024902 142.72036743 C-11.98966634 146.90634172 -20.08544858 151.11535978 -28.11669922 155.44995117 C-33.96294896 158.5831585 -38.37320468 160.7732153 -45.125 160.0625 C-49.83732435 157.65825288 -54.68788132 153.86759924 -57.125 149.0625 C-57.61059728 142.49967547 -56.27221403 137.51619071 -54.046875 131.37890625 C-53.72382385 130.45735245 -53.40077271 129.53579865 -53.06793213 128.58631897 C-52.01568384 125.59479268 -50.94570829 122.60996333 -49.875 119.625 C-49.14618904 117.56527603 -48.41833097 115.50521465 -47.69140625 113.44482422 C-45.52179258 107.3104526 -43.32751397 101.18512576 -41.125 95.0625 C-40.79862549 94.15461731 -40.47225098 93.24673462 -40.13598633 92.31134033 C-36.50371497 82.21438483 -32.8366457 72.13055277 -29.125 62.0625 C-29.72828125 62.56394531 -30.3315625 63.06539062 -30.953125 63.58203125 C-33.125 65.0625 -33.125 65.0625 -35.875 64.75 C-36.6175 64.523125 -37.36 64.29625 -38.125 64.0625 C-37.52142079 60.70928219 -36.33654466 58.80418519 -34.1875 56.1875 C-31.65161628 52.94010934 -30.13695383 50.11031533 -29.125 46.0625 C-31.42833774 44.91083113 -32.77544673 44.93815966 -35.3359375 44.921875 C-36.16867188 44.90253906 -37.00140625 44.88320313 -37.859375 44.86328125 C-39.61174996 44.82958173 -41.36449049 44.81120972 -43.1171875 44.80859375 C-49.52531712 44.62070106 -49.52531712 44.62070106 -52.72265625 41.64453125 C-54.125 39.0625 -54.125 39.0625 -54.1875 37 C-51.83143923 32.70365388 -47.26539849 30.42844199 -43.125 28.0625 C-43.72828125 27.82015625 -44.3315625 27.5778125 -44.953125 27.328125 C-50.13599139 25.1546649 -54.49281049 23.32687903 -57.125 18.0625 C-57.54503544 14.36618809 -57.27335168 12.36538468 -55.625 9 C-52.57776813 5.41950255 -49.47108479 2.90420722 -45.125 1.0625 C-42.125 1.25 -42.125 1.25 -40.125 2.0625 C-40.125 3.0525 -40.125 4.0425 -40.125 5.0625 C-41.82533272 6.39879282 -43.62333492 7.41002617 -45.49609375 8.48828125 C-47.83343121 10.74714695 -47.81644375 12.91174955 -48.125 16.0625 C-46.89523438 16.22685547 -46.89523438 16.22685547 -45.640625 16.39453125 C-44.02414063 16.63236328 -44.02414063 16.63236328 -42.375 16.875 C-41.30765625 17.02582031 -40.2403125 17.17664063 -39.140625 17.33203125 C-36.03759588 18.08367172 -34.42221534 18.87933081 -32.125 21.0625 C-31.4375 23.375 -31.4375 23.375 -32.125 26.0625 C-35.82261685 30.29632715 -40.66843576 33.15929499 -45.5234375 35.88671875 C-47.44513323 37.06025635 -47.44513323 37.06025635 -48.125 40.0625 C-46.81144531 40.02769531 -45.49789062 39.99289063 -44.14453125 39.95703125 C-42.40886699 39.92888534 -40.67318885 39.90158604 -38.9375 39.875 C-38.07318359 39.84986328 -37.20886719 39.82472656 -36.31835938 39.79882812 C-31.39801791 39.74227248 -28.13806937 39.86973739 -24.125 43.0625 C-23.795 43.3925 -23.465 43.7225 -23.125 44.0625 C-21.475 39.4425 -19.825 34.8225 -18.125 30.0625 C-19.115 31.0525 -20.105 32.0425 -21.125 33.0625 C-23.0625 33.0625 -23.0625 33.0625 -25.125 32.0625 C-27.4375 29.75 -27.4375 29.75 -29.125 27.0625 C-29.125 23.99354532 -28.14777274 23.08734299 -26.0625 20.8125 C-25.423125 20.235 -24.78375 19.6575 -24.125 19.0625 C-20.30815774 20.61750981 -17.93304268 23.09845495 -15.125 26.0625 C-14.63 25.5675 -14.63 25.5675 -14.125 25.0625 C-7.77952672 24.56154158 -3.72750153 25.67771293 1.875 28.5625 C2.55433594 28.89636719 3.23367187 29.23023437 3.93359375 29.57421875 C5.58771274 30.38962952 7.23241507 31.22409728 8.875 32.0625 C8.44872794 29.99765022 8.00848551 27.93568179 7.5625 25.875 C7.31886719 24.72644531 7.07523437 23.57789062 6.82421875 22.39453125 C5.58654772 18.04994941 4.37063741 15.10867125 0.61328125 12.48046875 C-0.18722656 12.07441406 -0.98773438 11.66835937 -1.8125 11.25 C-2.62074219 10.83105469 -3.42898437 10.41210938 -4.26171875 9.98046875 C-4.87660156 9.67753906 -5.49148437 9.37460938 -6.125 9.0625 C-5.12945434 0.10258909 -5.12945434 0.10258909 0 0 Z " fill="#916719" transform="translate(57.125,-0.0625)"/>
<path d="M0 0 C1.59377145 2.09911361 3.14848977 4.21292872 4.65625 6.375 C17.60200464 24.80624389 38.01677647 46.67225882 60 54 C60 53.34 60 52.68 60 52 C64.96862394 47.98281468 70.09894135 45.39521428 76 43 C73.06689484 37.66708152 69.20843853 34.64658906 64.41015625 30.96484375 C61.46324303 28.56241692 59.33089999 25.98646562 57 23 C56.34 22.67 55.68 22.34 55 22 C55 21.34 55 20.68 55 20 C59.96821157 17.62540236 64.94588769 15.27367139 69.94140625 12.95703125 C71.52751911 12.2196543 73.10861316 11.47147512 74.6875 10.71875 C87.82565032 4.90042629 103.73961848 2.77685445 118 2.9375 C118.77472656 2.94201172 119.54945313 2.94652344 120.34765625 2.95117188 C122.23180524 2.96280242 124.11591365 2.98073094 126 3 C126 5.97 126 8.94 126 12 C120.46353099 13.79581296 115.22511145 14.47649064 109.4375 14.9375 C101.09342158 15.67628254 93.1413585 16.97813945 85 19 C85 22.27934779 87.43631396 24.43683289 89.375 26.9375 C91.65785241 29.915909 93.91687121 32.87530681 96 36 C98.64 34.68 101.28 33.36 104 32 C109 38.625 109 38.625 109 42 C102.375 46 102.375 46 99 46 C98.01 44.02 98.01 44.02 97 42 C96.31728027 42.74693115 95.63456055 43.4938623 94.93115234 44.26342773 C92.02950349 47.15623979 88.75110521 48.9812111 85.1015625 50.78515625 C84.4388736 51.12269424 83.77618469 51.46023224 83.09341431 51.80799866 C80.94164356 52.90170765 78.78341899 53.98197999 76.625 55.0625 C75.12022739 55.82494265 73.61599986 56.58846198 72.11230469 57.35302734 C69.11671633 58.87551044 66.1191834 60.3940483 63.12011719 61.90966797 C57.80503999 64.60039345 52.52476086 67.35623007 47.25 70.125 C37.93176952 75.00203615 28.59082947 79.83450091 19.24475098 84.65786743 C11.13533366 88.84384172 3.03955142 93.05285978 -4.99169922 97.38745117 C-10.83794896 100.5206585 -15.24820468 102.7107153 -22 102 C-26.96717059 99.46572929 -31.10354309 95.78459094 -34 91 C-35.54095997 83.15511287 -31.66454465 75.30846533 -29 68 C-28.67 68 -28.34 68 -28 68 C-27.690625 69.7325 -27.690625 69.7325 -27.375 71.5 C-25.08293792 80.46275311 -18.3569654 85.92369388 -11 91 C-8.00818583 92.49590709 -6.3583794 92.42743011 -3 92 C0.17318616 90.23463587 3.05661137 88.11945664 6 86 C7.485 85.13375 7.485 85.13375 9 84.25 C11.14023845 83.15406478 11.14023845 83.15406478 12 81 C11.14019531 80.7628125 10.28039063 80.525625 9.39453125 80.28125 C5.66025583 78.87176515 2.78876918 76.94603195 -0.3125 74.5 C-0.87573975 74.05930176 -1.43897949 73.61860352 -2.01928711 73.16455078 C-9.2230129 67.38721397 -17.43214204 60.20953569 -20 51 C-19.90298603 45.56721774 -18.01032896 40.9821196 -16 36 C-15.67 36 -15.34 36 -15 36 C-14.86464844 36.54527344 -14.72929687 37.09054688 -14.58984375 37.65234375 C-12.0711577 46.47528591 -6.64620169 52.8174868 0 59 C0.71929687 59.68964844 1.43859375 60.37929687 2.1796875 61.08984375 C12.23647024 70.5668028 12.23647024 70.5668028 25 75 C27.44860147 73.34325664 27.44860147 73.34325664 30 71 C34.95227182 67.38787785 38.84695428 65.38456536 45 65 C45 64.34 45 63.68 45 63 C46.5 61.375 46.5 61.375 48 60 C46.93652344 59.86078125 46.93652344 59.86078125 45.8515625 59.71875 C36.21172447 57.28898261 27.39053623 48.36348464 20 42 C18.58847656 40.79150391 18.58847656 40.79150391 17.1484375 39.55859375 C11.04258207 34.18443174 5.77367829 28.58810804 1 22 C0.47148438 21.27554688 -0.05703125 20.55109375 -0.6015625 19.8046875 C-3.32765122 15.79931693 -4.93198769 12.97060099 -4 8 C-2.82851775 5.23469856 -1.48371244 2.6097442 0 0 Z " fill="#A1782A" transform="translate(34,58)"/>
<path d="M0 0 C0.33 0 0.66 0 1 0 C1.01675781 1.05058594 1.03351563 2.10117187 1.05078125 3.18359375 C1.40043421 11.46542807 1.40043421 11.46542807 5.08984375 18.64453125 C7.96841854 20.92287459 10.95571081 22.94872895 14 25 C16.47097032 26.97976972 18.86148146 29.04694415 21.25 31.125 C22.14404541 31.89384521 22.14404541 31.89384521 23.05615234 32.67822266 C27.23145859 36.28220803 31.27654031 39.9219251 35 44 C35 44.66 35 45.32 35 46 C34.20335938 46.32613281 33.40671875 46.65226562 32.5859375 46.98828125 C25.89236181 49.70651959 25.89236181 49.70651959 19.375 52.8125 C17 54 17 54 15 54 C15 54.66 15 55.32 15 56 C15.60457031 56.26425781 16.20914063 56.52851562 16.83203125 56.80078125 C19.10938951 58.06050915 20.12620475 59.13859302 21.6875 61.1875 C24.75036515 64.95899719 28.28798308 67.62913657 32.2421875 70.421875 C32.82226562 70.94265625 33.40234375 71.4634375 34 72 C34 72.99 34 73.98 34 75 C35.485 75.495 35.485 75.495 37 76 C34.87089834 78.33471584 32.92482665 79.68146181 30.0625 81 C27.09267553 82.41679699 24.61274715 83.9901945 22 86 C21.34 86 20.68 86 20 86 C20 86.66 20 87.32 20 88 C15.17816734 87.48664899 11.7746641 85.18245094 7.875 82.5 C7.21193848 82.04931152 6.54887695 81.59862305 5.86572266 81.13427734 C-0.03377764 77.07258323 -5.60726493 72.71672269 -11 68 C-11.76908691 67.33145996 -11.76908691 67.33145996 -12.55371094 66.64941406 C-35.24555477 46.79234712 -35.24555477 46.79234712 -40 34 C-40 32.68 -40 31.36 -40 30 C-39.34 30 -38.68 30 -38 30 C-37.938125 29.236875 -37.87625 28.47375 -37.8125 27.6875 C-36.41711036 21.3545778 -33.59288884 15.38933326 -30 10 C-26.32912536 13.50844656 -23.3055692 17.12373142 -20.3125 21.25 C-17.68134666 25.22849953 -17.68134666 25.22849953 -14 28 C-14 27.34 -14 26.68 -14 26 C-13.34 26 -12.68 26 -12 26 C-11.731875 25.236875 -11.46375 24.47375 -11.1875 23.6875 C-10.0387516 21.08770098 -9.0314124 19.89784008 -7 18 C-6.97421875 19.25296875 -6.9484375 20.5059375 -6.921875 21.796875 C-6.86558831 23.44795123 -6.8082411 25.09899155 -6.75 26.75 C-6.73582031 27.575 -6.72164062 28.4 -6.70703125 29.25 C-6.53289188 34.3111287 -6.53289188 34.3111287 -3.953125 38.578125 C-3.30859375 39.04734375 -2.6640625 39.5165625 -2 40 C0.19918647 26.64779643 0.21987126 13.50347777 0 0 Z " fill="#E1BF45" transform="translate(74,24)"/>
<path d="M0 0 C2.90207358 2.73136337 5.40713482 5.46115213 7.75 8.6875 C19.01718863 23.9397757 34.62638865 37.16484194 52 45 C51.67 45.99 51.34 46.98 51 48 C50.34 48 49.68 48 49 48 C49 48.66 49 49.32 49 50 C48.46632812 50.13535156 47.93265625 50.27070312 47.3828125 50.41015625 C41.46468212 52.12006589 37.07533049 54.78141801 32.1640625 58.4765625 C30 60 30 60 27 61 C19.54491853 57.96908163 13.14488003 53.10118858 7 48 C6.40703125 47.55269531 5.8140625 47.10539062 5.203125 46.64453125 C-1.30063603 41.55787411 -7.8771711 33.68444807 -11 26 C-11.125 22.75 -11.125 22.75 -11 20 C-10.34 20 -9.68 20 -9 20 C-8.87238281 19.28972656 -8.74476562 18.57945313 -8.61328125 17.84765625 C-7.98868886 14.94747887 -7.16505513 12.23774757 -6.1875 9.4375 C-5.87167969 8.50808594 -5.55585938 7.57867187 -5.23046875 6.62109375 C-3.88934098 3.76427873 -2.34170635 2.08642599 0 0 Z " fill="#DBB13E" transform="translate(30,73)"/>
<path d="M0 0 C0.77472656 0.00451172 1.54945313 0.00902344 2.34765625 0.01367188 C4.23180524 0.02530242 6.11591365 0.04323094 8 0.0625 C8 3.0325 8 6.0025 8 9.0625 C2.46353099 10.85831296 -2.77488855 11.53899064 -8.5625 12 C-16.90657842 12.73878254 -24.8586415 14.04063945 -33 16.0625 C-33 19.34184779 -30.56368604 21.49933289 -28.625 24 C-26.34214759 26.978409 -24.08312879 29.93780681 -22 33.0625 C-19.36 31.7425 -16.72 30.4225 -14 29.0625 C-9 35.6875 -9 35.6875 -9 39.0625 C-15.625 43.0625 -15.625 43.0625 -19 43.0625 C-19.66 41.7425 -20.32 40.4225 -21 39.0625 C-21.63421875 39.77792969 -22.2684375 40.49335937 -22.921875 41.23046875 C-26.5184957 44.81570774 -30.7920019 47.02042354 -35.25 49.375 C-36.05824219 49.82939453 -36.86648437 50.28378906 -37.69921875 50.75195312 C-43.12473463 53.63832757 -47.83205171 55.16391934 -54 54.0625 C-56.25878906 53.03637695 -56.25878906 53.03637695 -58 52.0625 C-58 51.0725 -58 50.0825 -58 49.0625 C-53.08719126 44.98591402 -47.89020721 42.45330973 -42 40.0625 C-44.93310516 34.72958152 -48.79156147 31.70908906 -53.58984375 28.02734375 C-56.53675697 25.62491692 -58.66910001 23.04896562 -61 20.0625 C-61.66 19.7325 -62.32 19.4025 -63 19.0625 C-63 18.4025 -63 17.7425 -63 17.0625 C-58.03178843 14.68790236 -53.05411231 12.33617139 -48.05859375 10.01953125 C-46.47248089 9.2821543 -44.89138684 8.53397512 -43.3125 7.78125 C-30.17434968 1.96292629 -14.26038152 -0.16064555 0 0 Z " fill="#88651A" transform="translate(152,60.9375)"/>
<path d="M0 0 C1.59377145 2.09911361 3.14848977 4.21292872 4.65625 6.375 C18.27709527 25.76738988 36.31935442 41.46749882 57 53 C51.36448598 58.94859813 51.36448598 58.94859813 48 60 C37.48390186 58.87972838 27.70748599 48.63638837 20 42 C19.05898438 41.19433594 18.11796875 40.38867188 17.1484375 39.55859375 C11.04258207 34.18443174 5.77367829 28.58810804 1 22 C0.20722656 20.91332031 0.20722656 20.91332031 -0.6015625 19.8046875 C-3.32765122 15.79931693 -4.93198769 12.97060099 -4 8 C-2.82851775 5.23469856 -1.48371244 2.6097442 0 0 Z " fill="#9751C8" transform="translate(34,58)"/>
<path d="M0 0 C3.43370999 1.38502588 4.73405974 2.63124387 6.25 6 C8.28297324 11.00175956 8.9244114 15.65895635 8 21 C6.259754 24.09377067 4.81858183 25.47032941 1.875 27.375 C-3.96015541 28.64351205 -10.24117338 27.34372621 -16 26 C-14.74778945 30.28111194 -14.74778945 30.28111194 -12.375 34 C-10.4271082 36.83329716 -10.50948345 38.63645796 -11 42 C-12.375 44.4375 -12.375 44.4375 -15 46 C-22.81005208 46.82727661 -28.02259912 43.60834383 -34 39 C-34.99 38.34 -35.98 37.68 -37 37 C-37.99440216 41.7289347 -37.96565891 46.09270118 -37.5625 50.875 C-37.51029297 51.56335937 -37.45808594 52.25171875 -37.40429688 52.9609375 C-37.27594902 54.64112758 -37.13887775 56.32064749 -37 58 C-40.4352048 60.29013653 -41.985331 60.17842973 -46 60 C-49.56766722 53.54629304 -49.57673516 45.24435627 -49 38 C-48.0410536 34.78067993 -47.36871021 33.36871021 -45 31 C-39.35493165 30.30653255 -35.25641728 32.19935585 -30.75 35.4375 C-29.96109375 36.05496094 -29.1721875 36.67242187 -28.359375 37.30859375 C-24.94656236 39.75519619 -22.21492608 41 -18 41 C-18.34933594 40.52949219 -18.69867188 40.05898438 -19.05859375 39.57421875 C-19.51363281 38.95160156 -19.96867187 38.32898437 -20.4375 37.6875 C-20.88996094 37.07261719 -21.34242188 36.45773438 -21.80859375 35.82421875 C-24.31358817 31.98870271 -24.31892629 28.4649681 -24 24 C-22.48448249 21.96263666 -21.62063961 21.11118431 -19.09887695 20.65942383 C-18.05413208 20.6829895 -18.05413208 20.6829895 -16.98828125 20.70703125 C-16.23095703 20.71669922 -15.47363281 20.72636719 -14.69335938 20.73632812 C-13.90767578 20.76146484 -13.12199219 20.78660156 -12.3125 20.8125 C-11.11657227 20.83280273 -11.11657227 20.83280273 -9.89648438 20.85351562 C-7.93070033 20.88882911 -5.96526418 20.94263553 -4 21 C-2.61507147 18.73468939 -1.95680008 17.46297275 -2.20703125 14.78125 C-2.50673828 13.65203125 -2.50673828 13.65203125 -2.8125 12.5 C-3.00457031 11.7471875 -3.19664062 10.994375 -3.39453125 10.21875 C-3.69423828 9.12046875 -3.69423828 9.12046875 -4 8 C-4.33548084 6.66720538 -4.669521 5.33404367 -5 4 C-3.35 2.68 -1.7 1.36 0 0 Z " fill="#B41D44" transform="translate(152,0)"/>
<path d="M0 0 C2.56310726 2.32187363 4.08228455 4.7331215 5.75 7.75 C11.88716232 18.06819748 22.10139427 25.9882324 33 31 C31.65070371 35.04788886 29.01025594 36.09039305 25.5 38.125 C21.52532061 40.27065897 21.52532061 40.27065897 18 43 C11.94089449 43.55004646 9.18640225 41.57931193 4.47265625 38.07421875 C-0.85460424 33.60537938 -6.58603681 28.35252728 -7.2734375 21.125 C-6.96850723 17.64008265 -6.0587905 15.18251764 -4.625 12 C-2.86349681 8.04434372 -1.31452583 4.12785681 0 0 Z " fill="#D3AB3C" transform="translate(13,108)"/>
<path d="M0 0 C0.77472656 0.00451172 1.54945313 0.00902344 2.34765625 0.01367188 C4.23180524 0.02530242 6.11591365 0.04323094 8 0.0625 C8 3.0325 8 6.0025 8 9.0625 C2.51298927 10.84246863 -2.63927469 11.50027991 -8.375 11.9375 C-16.59216246 12.6554085 -24.37671183 14.06866835 -32.35546875 16.12890625 C-35.23789958 16.86727814 -38.0762657 17.46978912 -41 18 C-45.15149227 18.8706042 -48.41768725 20.8480719 -51.95703125 23.13671875 C-54 24.0625 -54 24.0625 -56.08984375 23.828125 C-58.85636373 22.719254 -60.81591319 21.06457957 -63 19.0625 C-63 18.4025 -63 17.7425 -63 17.0625 C-58.03178843 14.68790236 -53.05411231 12.33617139 -48.05859375 10.01953125 C-46.47248089 9.2821543 -44.89138684 8.53397512 -43.3125 7.78125 C-30.17434968 1.96292629 -14.26038152 -0.16064555 0 0 Z " fill="#4D82EB" transform="translate(152,60.9375)"/>
<path d="M0 0 C5.06178377 0.85954819 8.44929936 4.45567036 11.875 8.0625 C12.865 9.5475 12.865 9.5475 13.875 11.0625 C14.6175 10.216875 15.36 9.37125 16.125 8.5 C18.875 6.0625 18.875 6.0625 20.875 5.9375 C23.70407082 7.52885234 25.68570285 9.69076142 27.875 12.0625 C26.37276416 16.26876034 23.58949966 17.80150021 19.875 20.0625 C18.885 19.0725 17.895 18.0825 16.875 17.0625 C16.9471875 18.29484375 17.019375 19.5271875 17.09375 20.796875 C17.95277403 35.86260015 17.86114883 50.09544986 15.875 65.0625 C13.08496416 63.48631092 11.66559151 62.64066276 9.875 60.0625 C9.24720572 55.7511877 9.6315581 51.57676837 10 47.25 C10.07476562 46.08017578 10.14953125 44.91035156 10.2265625 43.70507812 C10.41490328 40.82110986 10.63192385 37.94228593 10.875 35.0625 C9.39 34.5675 9.39 34.5675 7.875 34.0625 C8.205 33.4025 8.535 32.7425 8.875 32.0625 C8.53971441 29.94384192 8.10784764 27.83997288 7.625 25.75 C7.24601562 24.05423828 7.24601562 24.05423828 6.859375 22.32421875 C5.56660513 18.04063604 4.3364354 15.08474756 0.61328125 12.48046875 C-0.18722656 12.07441406 -0.98773438 11.66835937 -1.8125 11.25 C-2.62074219 10.83105469 -3.42898437 10.41210938 -4.26171875 9.98046875 C-4.87660156 9.67753906 -5.49148437 9.37460938 -6.125 9.0625 C-5.12945434 0.10258909 -5.12945434 0.10258909 0 0 Z " fill="#EC3966" transform="translate(57.125,-0.0625)"/>
<path d="M0 0 C0.66 0.268125 1.32 0.53625 2 0.8125 C2 1.8025 2 2.7925 2 3.8125 C0.29966728 5.14879282 -1.49833492 6.16002617 -3.37109375 7.23828125 C-5.70843121 9.49714695 -5.69144375 11.66174955 -6 14.8125 C-5.18015625 14.92207031 -4.3603125 15.03164063 -3.515625 15.14453125 C-2.43796875 15.30308594 -1.3603125 15.46164063 -0.25 15.625 C0.81734375 15.77582031 1.8846875 15.92664063 2.984375 16.08203125 C6.08740412 16.83367172 7.70278466 17.62933081 10 19.8125 C10.6875 22.125 10.6875 22.125 10 24.8125 C6.30238315 29.04632715 1.45656424 31.90929499 -3.3984375 34.63671875 C-5.32013323 35.81025635 -5.32013323 35.81025635 -6 38.8125 C-4.68644531 38.77769531 -3.37289063 38.74289063 -2.01953125 38.70703125 C-0.28386699 38.67888534 1.45181115 38.65158604 3.1875 38.625 C4.05181641 38.59986328 4.91613281 38.57472656 5.80664062 38.54882812 C10.72698209 38.49227248 13.98693063 38.61973739 18 41.8125 C19 42.8125 19 42.8125 19.3125 45.5 C18.92595607 49.59736566 17.56523169 51.64368439 15 54.8125 C14.34 54.8125 13.68 54.8125 13 54.8125 C13 55.8025 13 56.7925 13 57.8125 C12.34 57.8125 11.68 57.8125 11 57.8125 C10.67 59.1325 10.34 60.4525 10 61.8125 C8.35 61.8125 6.7 61.8125 5 61.8125 C7.66666667 56.47916667 10.33333333 51.14583333 13 45.8125 C11.2411417 43.64462981 11.2411417 43.64462981 9.09228516 43.57299805 C8.33222168 43.57340088 7.5721582 43.57380371 6.7890625 43.57421875 C5.53996094 43.55004883 5.53996094 43.55004883 4.265625 43.52539062 C2.51309411 43.50853937 0.76041221 43.50322607 -0.9921875 43.50976562 C-7.41502275 43.35613299 -7.41502275 43.35613299 -10.59765625 40.3984375 C-12 37.8125 -12 37.8125 -12.0625 35.75 C-9.70643923 31.45365388 -5.14039849 29.17844199 -1 26.8125 C-1.60328125 26.57015625 -2.2065625 26.3278125 -2.828125 26.078125 C-8.01099139 23.9046649 -12.36781049 22.07687903 -15 16.8125 C-15.42003544 13.11618809 -15.14835168 11.11538468 -13.5 7.75 C-9.89424727 3.51324055 -5.81817791 -0.36363612 0 0 Z " fill="#2659CA" transform="translate(15,1.1875)"/>
<path d="M0 0 C3.12413163 1.26452947 4.14727168 3.03121168 6.125 5.6640625 C8.03399818 7.44380559 9.30973604 7.54543484 11.875 7.875 C18.09268152 8.8468393 21.8537494 13.28379948 25.625 18.0625 C25.625 18.7225 25.625 19.3825 25.625 20.0625 C24.86316406 20.37703125 24.10132813 20.6915625 23.31640625 21.015625 C17.04635186 23.61444904 10.81334734 26.27497987 4.625 29.0625 C2.23439561 27.10300292 -0.10398887 25.08950008 -2.4375 23.0625 C-3.11361328 22.50949219 -3.78972656 21.95648438 -4.48632812 21.38671875 C-9.27102387 17.1606423 -9.27102387 17.1606423 -9.58544922 13.83984375 C-9.30859375 11.625 -9.30859375 11.625 -8.375 8.0625 C-7.385 7.7325 -6.395 7.4025 -5.375 7.0625 C-5.375 5.7425 -5.375 4.4225 -5.375 3.0625 C-3.74667824 0.57716679 -2.99159889 0.07872629 0 0 Z " fill="#F7CF3F" transform="translate(83.375,49.9375)"/>
<path d="M0 0 C0.33 0 0.66 0 1 0 C1.13535156 0.54527344 1.27070313 1.09054688 1.41015625 1.65234375 C3.9288423 10.47528591 9.35379831 16.8174868 16 23 C16.71929687 23.68964844 17.43859375 24.37929687 18.1796875 25.08984375 C23.73839614 30.29355697 29.37108873 34.29024231 36 38 C36.99 38.66 37.98 39.32 39 40 C31.26984656 46.08105404 31.26984656 46.08105404 27.0625 45.8125 C15.46793068 38.95040796 4.72794614 30.88755348 -2 19 C-2.38542969 18.32066406 -2.77085938 17.64132813 -3.16796875 16.94140625 C-5.0485329 12.55342324 -3.01693303 7.81192697 -1.4375 3.5625 C-0.963125 2.386875 -0.48875 1.21125 0 0 Z " fill="#954EC6" transform="translate(18,94)"/>
<path d="M0 0 C4.50619977 1.56774631 8.18581364 3.93775793 12.125 6.5625 C16.82313966 9.73492989 16.82313966 9.73492989 22 12 C21.67 12.99 21.34 13.98 21 15 C20.34 15 19.68 15 19 15 C19 15.66 19 16.32 19 17 C18.46632812 17.13535156 17.93265625 17.27070312 17.3828125 17.41015625 C11.46468212 19.12006589 7.07533049 21.78141801 2.1640625 25.4765625 C0 27 0 27 -3 28 C-5.55859375 26.890625 -5.55859375 26.890625 -8.4375 25.25 C-9.38496094 24.71890625 -10.33242188 24.1878125 -11.30859375 23.640625 C-13.67370979 22.19889969 -15.90043593 20.80671707 -18 19 C-18 18.34 -18 17.68 -18 17 C-17.16210938 17.30808594 -16.32421875 17.61617187 -15.4609375 17.93359375 C-11.48172197 18.00994439 -11.11542342 17.63993022 -8.3515625 15.03515625 C-7.09113246 13.72828931 -5.84938872 12.40319286 -4.625 11.0625 C-3.98433594 10.39025391 -3.34367187 9.71800781 -2.68359375 9.02539062 C-1.10551499 7.36487492 0.45399634 5.69032694 2 4 C1.34 2.68 0.68 1.36 0 0 Z " fill="#FEFA61" transform="translate(60,106)"/>
<path d="M0 0 C4.1018651 3.79640706 8.20699491 8.4340223 9 14.125 C9 15.07375 9 16.0225 9 17 C8.34 17 7.68 17 7 17 C7.66 18.65 8.32 20.3 9 22 C1.80913914 21.63725628 -2.75476612 19.99195282 -8.8125 16.1875 C-9.91754883 15.52911133 -9.91754883 15.52911133 -11.04492188 14.85742188 C-14.80636582 12.57065424 -18.05040798 10.32119417 -21 7 C-7.03948687 -2.39364314 -7.03948687 -2.39364314 0 0 Z " fill="#FAB430" transform="translate(118,78)"/>
<path d="M0 0 C0.495 0.495 0.495 0.495 1 1 C3.32817964 1.36760731 5.6618385 1.70241581 8 2 C4.48787313 4.84946142 0.62481404 6.91929251 -3.36328125 9.01171875 C-4.07348923 9.38480667 -4.7836972 9.75789459 -5.51542664 10.14228821 C-7.01459544 10.92687772 -8.51493284 11.70923787 -10.01635742 12.48950195 C-12.30102253 13.6815117 -14.57507369 14.89231615 -16.84960938 16.10351562 C-18.31188011 16.86577368 -19.77475198 17.62687988 -21.23828125 18.38671875 C-21.91143875 18.74916183 -22.58459625 19.11160492 -23.27815247 19.48503113 C-27.65239667 21.71977889 -30.97768664 22.56115888 -36 22 C-36.66 21.34 -37.32 20.68 -38 20 C-31.77627116 14.74872879 -26.27651309 10.51728207 -18 10 C-18 9.34 -18 8.68 -18 8 C-17.34 7.67 -16.68 7.34 -16 7 C-15.67 6.01 -15.34 5.02 -15 4 C-10.21765373 -0.24579034 -6.34233251 -1.812095 0 0 Z " fill="#957022" transform="translate(97,113)"/>
<path d="M0 0 C1.32 0.33 2.64 0.66 4 1 C3.67 2.98 3.34 4.96 3 7 C3.7425 6.154375 4.485 5.30875 5.25 4.4375 C8 2 8 2 10.125 2 C12.23004874 3.12269266 13.4756618 4.16330395 15 6 C15.34057617 7.90112305 15.34057617 7.90112305 15.29296875 10.01171875 C15.28330078 10.76904297 15.27363281 11.52636719 15.26367188 12.30664062 C15.23853516 13.09232422 15.21339844 13.87800781 15.1875 14.6875 C15.16719727 15.88342773 15.16719727 15.88342773 15.14648438 17.10351562 C15.11117089 19.06929967 15.05736447 21.03473582 15 23 C14.67 23 14.34 23 14 23 C13.67 20.36 13.34 17.72 13 15 C12.38125 15.99 11.7625 16.98 11.125 18 C10.42375 18.99 9.7225 19.98 9 21 C8.34 21 7.68 21 7 21 C7 21.66 7 22.32 7 23 C2.84767598 21.61589199 0.99650781 18.69967266 -1.625 15.375 C-2.12773438 14.77042969 -2.63046875 14.16585937 -3.1484375 13.54296875 C-6.4824058 9.33965925 -7.71013665 6.36937347 -8 1 C-4.28400809 0.79913557 -3.22791555 0.8480563 0 3 C0 2.01 0 1.02 0 0 Z " fill="#B27F1A" transform="translate(53,29)"/>
<path d="M0 0 C6.40856435 0.66001826 6.40856435 0.66001826 9.5390625 3.1796875 C10.0134375 3.8190625 10.4878125 4.4584375 10.9765625 5.1171875 C9.3265625 5.1171875 7.6765625 5.1171875 5.9765625 5.1171875 C5.07406394 10.25808671 4.99669855 14.81445124 5.4140625 20.0546875 C5.46626953 20.73853516 5.51847656 21.42238281 5.57226562 22.12695312 C5.70026148 23.79089919 5.83743969 25.4541348 5.9765625 27.1171875 C2.5413577 29.40732403 0.9912315 29.29561723 -3.0234375 29.1171875 C-6.59110472 22.66348054 -6.60017266 14.36154377 -6.0234375 7.1171875 C-3.9719454 0.23003545 -3.9719454 0.23003545 0 0 Z " fill="#AF2F4C" transform="translate(109.0234375,30.8828125)"/>
<path d="M0 0 C3.4557827 1.55833192 6.27275874 3.60010445 9.25 5.9375 C10.14203125 6.62714844 11.0340625 7.31679687 11.953125 8.02734375 C12.62859375 8.67832031 13.3040625 9.32929687 14 10 C14 10.99 14 11.98 14 13 C14.99 13.33 15.98 13.66 17 14 C14.87089834 16.33471584 12.92482665 17.68146181 10.0625 19 C7.09267553 20.41679699 4.61274715 21.9901945 2 24 C1.34 24 0.68 24 0 24 C0 24.66 0 25.32 0 26 C-4.8219719 25.48663417 -8.22504958 23.18224438 -12.125 20.5 C-12.78153564 20.05438721 -13.43807129 19.60877441 -14.11450195 19.1496582 C-21.79500779 13.86703264 -29.32085976 8.48079853 -35 1 C-32.25164995 2.29847174 -29.85833435 3.73664513 -27.43359375 5.56640625 C-26.78326172 6.05173828 -26.13292969 6.53707031 -25.46289062 7.03710938 C-24.10826041 8.0573275 -22.75409645 9.078165 -21.40039062 10.09960938 C-20.75134766 10.58365234 -20.10230469 11.06769531 -19.43359375 11.56640625 C-18.84634521 12.00927979 -18.25909668 12.45215332 -17.65405273 12.90844727 C-15.87345127 14.18584873 -15.87345127 14.18584873 -13 15 C-13 15.66 -13 16.32 -13 17 C-12.01 17 -11.02 17 -10 17 C-10 17.66 -10 18.32 -10 19 C-7.69 19.33 -5.38 19.66 -3 20 C-3 19.34 -3 18.68 -3 18 C-1.3203125 16.4921875 -1.3203125 16.4921875 0.875 14.875 C1.59429687 14.33617188 2.31359375 13.79734375 3.0546875 13.2421875 C5 12 5 12 7 12 C5.07450544 7.8601867 2.90856064 4.51033181 0 1 C0 0.67 0 0.34 0 0 Z " fill="#FEFC66" transform="translate(94,86)"/>
<path d="M0 0 C3.43931834 1.3073075 6.61300905 2.81036334 9.8125 4.625 C10.99779297 5.29402344 10.99779297 5.29402344 12.20703125 5.9765625 C12.79871094 6.31429687 13.39039062 6.65203125 14 7 C12.65070371 11.04788886 10.01025594 12.09039305 6.5 14.125 C2.52532061 16.27065897 2.52532061 16.27065897 -1 19 C-4.90820718 19.4544427 -6.79397963 19.10884095 -10.3125 17.25 C-13 15 -13 15 -13.875 12.75 C-13.91625 12.1725 -13.9575 11.595 -14 11 C-13.44828125 10.93941406 -12.8965625 10.87882813 -12.328125 10.81640625 C-8.96987598 9.63876523 -7.20085251 7.48509669 -4.75 4.9375 C-3.85796875 4.01839844 -2.9659375 3.09929687 -2.046875 2.15234375 C-1.37140625 1.44207031 -0.6959375 0.73179687 0 0 Z " fill="#FDF062" transform="translate(32,132)"/>
<path d="M0 0 C0.33 0 0.66 0 1 0 C1.309375 1.7325 1.309375 1.7325 1.625 3.5 C3.87483982 12.2976495 10.57114126 18.2196909 18 23 C19.64883435 23.70962491 21.31215477 24.38893477 23 25 C20.22753895 28.04970716 17.81634822 29.81293424 13.6484375 30.2421875 C8.15670977 29.73999411 3.72765855 25.06680631 0.30859375 20.9765625 C-0.85142639 19.35716116 -1.93498788 17.68340625 -3 16 C-3.08004482 19.5219721 -3.04005702 22.61981469 -2 26 C-3.5 25 -3.5 25 -5 23 C-6.23852581 14.94958225 -2.71806398 7.45526121 0 0 Z " fill="#934CC4" transform="translate(5,126)"/>
<path d="M0 0 C2.16480411 0.75361264 3.79521246 1.66345535 5.69287109 2.94287109 C6.34771484 3.38179688 7.00255859 3.82072266 7.67724609 4.27294922 C8.35013672 4.7325 9.02302734 5.19205078 9.71630859 5.66552734 C10.73724609 6.34905273 10.73724609 6.34905273 11.77880859 7.04638672 C14.4222645 8.83045825 16.8299992 10.46671795 19.09130859 12.72802734 C17.70895981 13.76704767 16.30975069 14.7836618 14.90380859 15.79052734 C13.73785156 16.64324219 13.73785156 16.64324219 12.54833984 17.51318359 C10.09130859 18.72802734 10.09130859 18.72802734 7.67333984 18.65380859 C4.40024118 17.48024674 1.83499238 15.81581098 -1.03369141 13.85302734 C-2.06751953 13.15435547 -3.10134766 12.45568359 -4.16650391 11.73583984 C-6.31140772 10.16535471 -8.12662726 8.68215286 -9.90869141 6.72802734 C-8.67315864 5.52548211 -7.41966801 4.34136502 -6.15869141 3.16552734 C-5.46259766 2.50423828 -4.76650391 1.84294922 -4.04931641 1.16162109 C-1.90869141 -0.27197266 -1.90869141 -0.27197266 0 0 Z " fill="#E89EFA" transform="translate(71.90869140625,99.27197265625)"/>
<path d="M0 0 C0 0.66 0 1.32 0 2 C-0.99 2.33 -1.98 2.66 -3 3 C-2.67 3.66 -2.34 4.32 -2 5 C-2.33 6.32 -2.66 7.64 -3 9 C0.3 8.67 3.6 8.34 7 8 C2.70475956 10.14762022 -1.40652909 11.52113243 -6.13671875 12.39453125 C-11.46554481 13.38961744 -15.39675525 15.1254064 -19.95703125 18.07421875 C-22 19 -22 19 -24.08984375 18.765625 C-26.85636373 17.656754 -28.81591319 16.00207957 -31 14 C-31 13.34 -31 12.68 -31 12 C-5.89320388 0 -5.89320388 0 0 0 Z " fill="#4677EF" transform="translate(120,66)"/>
<path d="M0 0 C0.66 0.268125 1.32 0.53625 2 0.8125 C2 1.8025 2 2.7925 2 3.8125 C0.50390625 4.98828125 0.50390625 4.98828125 -1.4375 6.125 C-4.45269481 8.11891915 -4.89871287 8.4546188 -5.9375 12.125 C-5.958125 13.011875 -5.97875 13.89875 -6 14.8125 C-4.35 15.1425 -2.7 15.4725 -1 15.8125 C-1 16.4725 -1 17.1325 -1 17.8125 C0.27875 17.895 1.5575 17.9775 2.875 18.0625 C5.0859375 18.32421875 5.0859375 18.32421875 7 18.8125 C8.5 20.875 8.5 20.875 9 22.8125 C8.13375 22.791875 7.2675 22.77125 6.375 22.75 C3.06909707 22.69934648 3.06909707 22.69934648 0.1875 23.4375 C-4.16584826 23.94965862 -7.91678594 23.42977302 -12 21.8125 C-14.45705276 19.13207881 -14.90628948 17.44169918 -15.4375 13.875 C-14.76347341 9.15681386 -12.82259197 6.29644753 -9.12890625 3.2890625 C-3.9607657 -0.24754786 -3.9607657 -0.24754786 0 0 Z " fill="#2757C6" transform="translate(15,1.1875)"/>
<path d="M0 0 C0.33 0 0.66 0 1 0 C1.02513672 1.57587891 1.02513672 1.57587891 1.05078125 3.18359375 C1.41138427 11.53687485 1.41138427 11.53687485 5.1953125 18.75 C8.03553355 21.0157034 10.96240905 23.00801196 14 25 C16.10613566 26.63968476 18.13954063 28.34879307 20.1875 30.0625 C21.57001953 31.19365234 21.57001953 31.19365234 22.98046875 32.34765625 C23.64691406 32.89292969 24.31335938 33.43820313 25 34 C21.12858486 35.29047171 19.68452784 34.6542778 16 33 C14.64172029 31.35360035 13.30745749 29.68704193 12 28 C9.38181544 26.66701026 9.38181544 26.66701026 7 26 C6.67 26.99 6.34 27.98 6 29 C5.34 29 4.68 29 4 29 C4 30.32 4 31.64 4 33 C3.01 33.495 3.01 33.495 2 34 C1.12099444 37.09476297 0.63464261 38.88990394 1 42 C2.7476824 44.74828106 5.05547339 46.63855968 7.5625 48.6875 C8.18447266 49.22955078 8.80644531 49.77160156 9.44726562 50.33007812 C11.2765667 51.9147078 13.13210021 53.46117064 15 55 C16.15522535 55.96451156 17.31019721 56.92932686 18.46484375 57.89453125 C19.30144531 58.58933594 20.13804688 59.28414062 21 60 C16.77429718 60 14.83189153 57.601669 11.8125 54.9375 C11.23604736 54.43887451 10.65959473 53.94024902 10.06567383 53.42651367 C8.37093298 51.95792792 6.68480392 50.47996454 5 49 C4.13117188 48.24460938 3.26234375 47.48921875 2.3671875 46.7109375 C0.57199118 45.14737941 -1.21743349 43.57792142 -3 42 C-2.690625 41.2575 -2.38125 40.515 -2.0625 39.75 C1.51928619 27.10840167 0.10252527 13.0033585 0 0 Z " fill="#F0B22E" transform="translate(74,24)"/>
<path d="M0 0 C1.30897364 5.83088258 0.393728 8.63804928 -2 14 C-2 15.216875 -2 16.43375 -2 17.6875 C-2 21 -2 21 -3.375 23.4375 C-5 25 -5 25 -7 25 C-7.18755859 25.79857422 -7.18755859 25.79857422 -7.37890625 26.61328125 C-8.13213037 29.50774625 -9.01877975 32.34120065 -9.9375 35.1875 C-10.27652344 36.25355469 -10.61554687 37.31960937 -10.96484375 38.41796875 C-12 41 -12 41 -14 42 C-14.93138166 44.27486573 -15.75288339 46.51648843 -16.53125 48.84375 C-16.76783325 49.52804077 -17.0044165 50.21233154 -17.24816895 50.9173584 C-18.00578619 53.10923769 -18.75397693 55.30414945 -19.5 57.5 C-20.48129414 60.38834936 -21.471982 63.27320932 -22.46875 66.15625 C-22.69276489 66.82603882 -22.91677979 67.49582764 -23.14758301 68.18591309 C-24.77439638 72.88719819 -24.77439638 72.88719819 -27 74 C-26.35241141 70.367943 -25.3917736 67.01400203 -24.15820312 63.53881836 C-23.78111206 62.47098618 -23.404021 61.40315399 -23.01550293 60.30296326 C-22.60819946 59.16013382 -22.200896 58.01730438 -21.78125 56.83984375 C-21.36331177 55.65781876 -20.94537354 54.47579376 -20.51477051 53.25794983 C-19.40618363 50.12361524 -18.29488321 46.99027333 -17.1819458 43.85748291 C-15.61345146 39.44146871 -14.04824758 35.02429382 -12.48522949 30.6063385 C-11.65360897 28.25622899 -10.82009158 25.90678968 -9.98449707 23.55809021 C-9.60740601 22.49341019 -9.23031494 21.42873016 -8.84179688 20.33178711 C-8.50950073 19.39644638 -8.17720459 18.46110565 -7.83483887 17.49742126 C-7.11446722 15.34242879 -6.51091194 13.21251364 -6 11 C-6.99 11.66 -7.98 12.32 -9 13 C-11.6875 12.625 -11.6875 12.625 -14 12 C-13.6875 10.125 -13.6875 10.125 -13 8 C-12.01 7.34 -11.02 6.68 -10 6 C-10.66 7.32 -11.32 8.64 -12 10 C-10.68 10 -9.36 10 -8 10 C-7.67 9.01 -7.34 8.02 -7 7 C-6.34 7 -5.68 7 -5 7 C-5 6.01 -5 5.02 -5 4 C-1.45714286 0 -1.45714286 0 0 0 Z " fill="#795827" transform="translate(33,52)"/>
<path d="M0 0 C5.55679706 1.91014899 10.21633085 5.20242767 15.1171875 8.3671875 C18.65923399 10.62607753 21.99946218 12.62481513 26 14 C26 14.99 26 15.98 26 17 C25.154375 17.20625 24.30875 17.4125 23.4375 17.625 C19.70833579 19.11666568 17.60321946 20.93790005 14.6796875 23.6015625 C12.61832229 25.31776889 10.55754985 26.22498489 8 27 C8.66 27.66 9.32 28.32 10 29 C8.741875 29.020625 7.48375 29.04125 6.1875 29.0625 C5.47980469 29.07410156 4.77210937 29.08570312 4.04296875 29.09765625 C2 29 2 29 -1 28 C-1 27.01 -1 26.02 -1 25 C3.91280874 20.92341402 9.10979279 18.39080973 15 16 C12.02326806 10.5877601 8.04790253 7.43882534 3.14453125 3.734375 C1 2 1 2 0 0 Z " fill="#D09722" transform="translate(95,85)"/>
<path d="M0 0 C4.01375388 1.33791796 5.53451681 4.0240193 7.9375 7.3125 C10.76177119 11.13606354 13.52043597 14.73034006 17 18 C17 17.34 17 16.68 17 16 C17.66 16 18.32 16 19 16 C19.268125 15.236875 19.53625 14.47375 19.8125 13.6875 C20.9612484 11.08770098 21.9685876 9.89784008 24 8 C24.03738281 9.26457031 24.07476562 10.52914062 24.11328125 11.83203125 C24.17893833 13.4922173 24.24538576 15.15237222 24.3125 16.8125 C24.33505859 17.64587891 24.35761719 18.47925781 24.38085938 19.33789062 C24.4340332 20.54155273 24.4340332 20.54155273 24.48828125 21.76953125 C24.51446533 22.50792236 24.54064941 23.24631348 24.56762695 24.00708008 C25.10699412 26.49316377 26.12897528 27.3353383 28 29 C28.31324219 29.65097656 28.62648438 30.30195312 28.94921875 30.97265625 C30.21630005 33.4173224 31.69759364 34.68653546 33.8125 36.4375 C37.0404113 39.16564361 40.05893125 41.96702285 43 45 C39.51669784 44.35494404 36.90567134 43.01782732 34 41 C34 40.34 34 39.68 34 39 C33.40574219 38.74347656 32.81148437 38.48695312 32.19921875 38.22265625 C29.78937747 36.88290435 28.55128012 35.5626757 26.8125 33.4375 C24.22140523 30.36022967 21.52949565 27.53284139 18.625 24.75 C14.23795594 20.43033375 10.63621216 15.71823825 7.01953125 10.74609375 C5.39486237 8.53692118 3.73304539 6.44367061 1.9375 4.375 C0 2 0 2 0 0 Z " fill="#F5BF36" transform="translate(43,34)"/>
<path d="M0 0 C6.25882353 -0.36108597 6.25882353 -0.36108597 9.4375 1.1875 C11 3 11 3 11.6875 5.3125 C10.24098229 10.96706922 4.37191288 13.83421121 -0.375 16.6875 C-1.04273438 17.06261719 -1.71046875 17.43773438 -2.3984375 17.82421875 C-4.32013323 18.99775635 -4.32013323 18.99775635 -5 22 C1.27 22 7.54 22 14 22 C14 22.33 14 22.66 14 23 C7.4 23 0.8 23 -6 23 C-6 21.35 -6 19.7 -6 18 C-6.66 18 -7.32 18 -8 18 C-8 19.98 -8 21.96 -8 24 C-9.5625 22.75 -9.5625 22.75 -11 21 C-11 19.0625 -11 19.0625 -10 17 C-6.93301349 14.1885957 -3.60502864 12.06001637 0 10 C-4.455 8.02 -4.455 8.02 -9 6 C-6.53936067 4.76968033 -5.500919 5.09280401 -2.8125 5.5 C1.39343746 6.0376522 4.8475045 5.79515871 9 5 C8.20700294 2.82961523 8.20700294 2.82961523 6.15234375 2.3671875 C5.05599609 2.12355469 5.05599609 2.12355469 3.9375 1.875 C3.20402344 1.70742188 2.47054688 1.53984375 1.71484375 1.3671875 C1.14894531 1.24601562 0.58304688 1.12484375 0 1 C0 0.67 0 0.34 0 0 Z " fill="#204AB6" transform="translate(14,18)"/>
<path d="M0 0 C3.28268953 0.43769194 4.96127057 1.40525345 7 4 C9.63351372 8.57399752 9.59249144 13.85926543 9 19 C8.34 19.99 7.68 20.98 7 22 C4.375 22.1875 4.375 22.1875 2 22 C2 21.01 2 20.02 2 19 C1.34 19 0.68 19 0 19 C0.02320313 18.40832031 0.04640625 17.81664063 0.0703125 17.20703125 C0.17694367 12.53810918 -0.14292629 9.33317198 -2 5 C-1.51612903 1.51612903 -1.51612903 1.51612903 0 0 Z " fill="#FD3C73" transform="translate(151,2)"/>
<path d="M0 0 C2.7822335 2.26056472 3.90092877 3.4055726 4.5 7 C4 10 4 10 2.625 12.4375 C-0.91932077 14.54721475 -3.30671972 14.31904457 -7.328125 13.75390625 C-11.87247283 12.47165606 -15.30294974 9.8502821 -19 7 C-19.99 6.34 -20.98 5.68 -22 5 C-22 4.34 -22 3.68 -22 3 C-16.72589357 3.41637682 -12.8370507 5.46470215 -8.26953125 7.94140625 C-5.96424774 9.21135734 -5.96424774 9.21135734 -3 9 C-3.495 8.38125 -3.99 7.7625 -4.5 7.125 C-6 5 -6 5 -6 3 C-4.02 2.67 -2.04 2.34 0 2 C0 1.34 0 0.68 0 0 Z " fill="#C33D62" transform="translate(137,32)"/>
<path d="M0 0 C0.66 0.99 1.32 1.98 2 3 C2.7734375 3.99 2.7734375 3.99 3.5625 5 C11.68998198 16.30780101 6.7335944 38.93612795 5 52 C4.34 51.67 3.68 51.34 3 51 C3.33 39.45 3.66 27.9 4 16 C3.34 16 2.68 16 2 16 C-1.62870159 5.62642369 -1.62870159 5.62642369 0 0 Z " fill="#F76390" transform="translate(68,13)"/>
<path d="M0 0 C4 5 4 5 5.875 7.5625 C8.38349818 10.43989497 10.62068978 12.21095341 14 14 C17.75129837 14.33524876 17.75129837 14.33524876 21 14 C21 14.99 21 15.98 21 17 C17.33237392 19.34728069 14.28301385 19.4430704 10 19 C4.50681384 15.93649234 0.84201181 13.09280828 -1 7 C-1.1875 3.75 -1.1875 3.75 -1 1 C-0.67 0.67 -0.34 0.34 0 0 Z " fill="#BE9933" transform="translate(2,141)"/>
<path d="M0 0 C3.48331435 3.01887244 4.79157144 5.56909529 6 10 C4.73581754 10.69965443 3.46334598 11.38434763 2.1875 12.0625 C1.47980469 12.44535156 0.77210938 12.82820312 0.04296875 13.22265625 C-2 14 -2 14 -5 13 C-6.88579937 9.78715662 -8 7.75366417 -8 4 C-5.36 2.68 -2.72 1.36 0 0 Z " fill="#C85F86" transform="translate(145,134)"/>
<path d="M0 0 C0.33 0.33 0.66 0.66 1 1 C3.32817964 1.36760731 5.6618385 1.70241581 8 2 C2.56218998 6.39207732 -1.89514148 8.33739399 -8.8515625 8.30078125 C-11.241405 7.9662033 -12.91264966 7.18535053 -15 6 C-15 5.34 -15 4.68 -15 4 C-10.20254915 -0.22424893 -6.33841068 -1.81097448 0 0 Z " fill="#602470" transform="translate(97,113)"/>
<path d="M0 0 C2.9797621 1.2770409 4.79669368 3.49068898 6.96875 5.84375 C5.46651416 10.05001034 2.68324966 11.58275021 -1.03125 13.84375 C-4.27424151 11.45417731 -6.54027342 9.6389631 -8.03125 5.84375 C-7.13097412 4.80843274 -6.21031965 3.79080835 -5.28125 2.78125 C-4.51554687 1.92853516 -4.51554687 1.92853516 -3.734375 1.05859375 C-2.03125 -0.15625 -2.03125 -0.15625 0 0 Z " fill="#3A6DCE" transform="translate(78.03125,6.15625)"/>
<path d="M0 0 C1.2065625 0.0309375 1.2065625 0.0309375 2.4375 0.0625 C3.26101864 6.44476945 3.55836218 12.62994599 3.4375 19.0625 C1.7875 19.0625 0.1375 19.0625 -1.5625 19.0625 C-3.91048025 15.37811992 -3.79896696 12.17073752 -3.75 7.875 C-3.74355469 6.62332031 -3.73710938 5.37164062 -3.73046875 4.08203125 C-3.50815561 0.08556477 -3.50815561 0.08556477 0 0 Z " fill="#FD94C7" transform="translate(109.5625,38.9375)"/>
<path d="M0 0 C1.32 0.33 2.64 0.66 4 1 C3.125 5.875 3.125 5.875 2 7 C1.76924918 8.34747084 1.58846937 9.70377565 1.4375 11.0625 C1.293125 12.361875 1.14875 13.66125 1 15 C1.66 15 2.32 15 3 15 C3.33 16.65 3.66 18.3 4 20 C2.30556599 18.35540229 0.64570794 16.69260635 -1 15 C-1.53882813 14.45730469 -2.07765625 13.91460937 -2.6328125 13.35546875 C-6.44722111 9.27386726 -7.77130043 6.60313959 -8 1 C-4.28400809 0.79913557 -3.22791555 0.8480563 0 3 C0 2.01 0 1.02 0 0 Z " fill="#D2761C" transform="translate(53,29)"/>
<path d="M0 0 C3.96 1.98 7.92 3.96 12 6 C10.35 7.32 8.7 8.64 7 10 C6.360625 10.61875 5.72125 11.2375 5.0625 11.875 C3 13 3 13 -0.0625 12.375 C-3 11 -3 11 -6 8 C-4.02 5.36 -2.04 2.72 0 0 Z " fill="#DB94F9" transform="translate(45,127)"/>
<path d="M0 0 C2.33524782 2.25740623 4.18705073 4.2805761 6 7 C6 7.99 6 8.98 6 10 C-0.625 14 -0.625 14 -4 14 C-6.97759434 7.80660377 -6.97759434 7.80660377 -7.0625 4.75 C-5.38821623 1.99235614 -2.8904381 1.22997366 0 0 Z " fill="#D7CD3C" transform="translate(137,90)"/>
<path d="M0 0 C0.33 0.99 0.66 1.98 1 3 C1.99 3.33 2.98 3.66 4 4 C1.87089834 6.33471584 -0.07517335 7.68146181 -2.9375 9 C-5.90732447 10.41679699 -8.38725285 11.9901945 -11 14 C-11.66 14 -12.32 14 -13 14 C-13.33 14.66 -13.66 15.32 -14 16 C-15.32 14.35 -16.64 12.7 -18 11 C-15.44595899 9.39460279 -13.09233523 8.03357645 -10.25 7 C-9.5075 6.67 -8.765 6.34 -8 6 C-7.67 5.01 -7.34 4.02 -7 3 C-3.4375 1.3125 -3.4375 1.3125 0 0 Z " fill="#FEF355" transform="translate(107,96)"/>
<path d="M0 0 C2 3 2 3 1.625 5.1875 C1.41875 5.785625 1.2125 6.38375 1 7 C-1.08047297 7.5321441 -3.16452293 8.05031786 -5.25 8.5625 C-6.41015625 8.85253906 -7.5703125 9.14257812 -8.765625 9.44140625 C-11.74463106 9.95589643 -13.25879011 10.15055369 -16 9 C-16.66 8.34 -17.32 7.68 -18 7 C-5.98812879 -0.80920659 -5.98812879 -0.80920659 0 0 Z " fill="#F6BD37" transform="translate(115,78)"/>
<path d="M0 0 C1.72805471 6.62420971 -0.15035942 10.92158211 -3 17 C-3.66 17 -4.32 17 -5 17 C-5.33 18.98 -5.66 20.96 -6 23 C-6.66 23 -7.32 23 -8 23 C-8.99 25.97 -9.98 28.94 -11 32 C-12.1673418 28.4979746 -11.79056598 27.70383962 -10.56640625 24.33203125 C-10.0878418 22.99301758 -10.0878418 22.99301758 -9.59960938 21.62695312 C-9.25736328 20.69818359 -8.91511719 19.76941406 -8.5625 18.8125 C-8.05493164 17.40194336 -8.05493164 17.40194336 -7.53710938 15.96289062 C-6.69951191 13.63885258 -5.85354717 11.31821765 -5 9 C-5.60328125 9.66515625 -6.2065625 10.3303125 -6.828125 11.015625 C-7.54484375 11.67046875 -8.2615625 12.3253125 -9 13 C-11.75 12.75 -11.75 12.75 -14 12 C-13.6875 10.125 -13.6875 10.125 -13 8 C-12.01 7.34 -11.02 6.68 -10 6 C-10.66 7.32 -11.32 8.64 -12 10 C-10.68 10 -9.36 10 -8 10 C-7.67 9.01 -7.34 8.02 -7 7 C-6.34 7 -5.68 7 -5 7 C-5 6.01 -5 5.02 -5 4 C-1.45714286 0 -1.45714286 0 0 0 Z " fill="#253C88" transform="translate(33,52)"/>
<path d="M0 0 C2.91517292 1.07401108 4.77810176 1.77810176 7 4 C5.68 4 4.36 4 3 4 C2.61714844 4.85851562 2.61714844 4.85851562 2.2265625 5.734375 C0.86912841 8.24173733 -0.71974104 10.1330456 -2.625 12.25 C-3.25664062 12.95640625 -3.88828125 13.6628125 -4.5390625 14.390625 C-5.02117188 14.92171875 -5.50328125 15.4528125 -6 16 C-9.78630702 15.24432948 -11.4041044 13.87402727 -14 11 C-13.44828125 10.93941406 -12.8965625 10.87882813 -12.328125 10.81640625 C-8.96987598 9.63876523 -7.20085251 7.48509669 -4.75 4.9375 C-3.85796875 4.01839844 -2.9659375 3.09929687 -2.046875 2.15234375 C-1.37140625 1.44207031 -0.6959375 0.73179687 0 0 Z " fill="#FDD952" transform="translate(32,132)"/>
<path d="M0 0 C3.99500618 1.3697164 6.80009492 3.25722422 10 6 C8.61765122 7.03902033 7.21844209 8.05563446 5.8125 9.0625 C5.03519531 9.63097656 4.25789063 10.19945313 3.45703125 10.78515625 C1 12 1 12 -1.61328125 11.87109375 C-4 11 -4 11 -7 8 C-4.69 5.36 -2.38 2.72 0 0 Z " fill="#F7A9F8" transform="translate(81,106)"/>
<path d="M0 0 C3.80881639 1.44472346 5.29742886 3.32603071 7 7 C6 10 6 10 4.15234375 11.16796875 C3.42144531 11.50441406 2.69054687 11.84085938 1.9375 12.1875 C1.20402344 12.53167969 0.47054687 12.87585938 -0.28515625 13.23046875 C-0.85105469 13.48441406 -1.41695312 13.73835938 -2 14 C-2.86657116 12.90554162 -3.71792724 11.79902219 -4.5625 10.6875 C-5.03816406 10.07261719 -5.51382813 9.45773438 -6.00390625 8.82421875 C-6.33261719 8.22222656 -6.66132813 7.62023437 -7 7 C-5.66667905 3.00003714 -3.5042173 2.16217663 0 0 Z " fill="#D0853A" transform="translate(153,100)"/>
<path d="M0 0 C2.62431483 1.31215742 4.2062114 2.67471849 6 5 C6 7.90651604 4.98190854 9.0230822 3.1875 11.3125 C1 13 1 13 -1 13 C-3.62431483 11.68784258 -5.2062114 10.32528151 -7 8 C-7 5.09348396 -5.98190854 3.9769178 -4.1875 1.6875 C-2 0 -2 0 0 0 Z " fill="#BF476B" transform="translate(53,12)"/>
<path d="M0 0 C3.95820859 0.56545837 6.6659053 1.80902348 10 4 C9.01 6.97 8.02 9.94 7 13 C3.65626525 12.44271087 0.96687001 11.64826111 -2 10 C-1.54177532 6.53058454 -1.10868317 3.32604951 0 0 Z " fill="#D28324" transform="translate(136,116)"/>
<path d="M0 0 C0 1.65 0 3.3 0 5 C-0.55985596 4.98952637 -1.11971191 4.97905273 -1.6965332 4.96826172 C-4.23514307 4.92666674 -6.7736812 4.90066315 -9.3125 4.875 C-10.19357422 4.85824219 -11.07464844 4.84148437 -11.98242188 4.82421875 C-13.25375977 4.81455078 -13.25375977 4.81455078 -14.55078125 4.8046875 C-15.33106689 4.79421387 -16.11135254 4.78374023 -16.9152832 4.77294922 C-19.3065848 4.87119141 -19.3065848 4.87119141 -22 7 C-25.13671875 7.4140625 -25.13671875 7.4140625 -28.6875 7.625 C-29.86699219 7.69976562 -31.04648438 7.77453125 -32.26171875 7.8515625 C-33.61716797 7.92503906 -33.61716797 7.92503906 -35 8 C-32.62053067 5.62053067 -31.10741332 5.32836219 -27.875 4.5 C-26.38613281 4.11714844 -26.38613281 4.11714844 -24.8671875 3.7265625 C-23.92101562 3.48679687 -22.97484375 3.24703125 -22 3 C-21.30132812 2.80148438 -20.60265625 2.60296875 -19.8828125 2.3984375 C-13.40572643 0.59775382 -6.71227535 0 0 0 Z " fill="#739CFE" transform="translate(159,65)"/>
<path d="M0 0 C0.33 0 0.66 0 1 0 C1.28875 1.134375 1.5775 2.26875 1.875 3.4375 C2.24625 4.613125 2.6175 5.78875 3 7 C3.66 7.33 4.32 7.66 5 8 C5 17.57 5 27.14 5 37 C3.68 36.01 2.36 35.02 1 34 C0.63769531 31.36450195 0.63769531 31.36450195 0.828125 28.23828125 C0.88613281 27.12001953 0.94414063 26.00175781 1.00390625 24.84960938 C1.08511719 23.68236328 1.16632813 22.51511719 1.25 21.3125 C1.31574219 20.13365234 1.38148437 18.95480469 1.44921875 17.74023438 C1.61444167 14.82522994 1.79875294 11.91270306 2 9 C1.01 8.67 0.02 8.34 -1 8 C-0.67 7.34 -0.34 6.68 0 6 C0.039992 4.00039988 0.04346799 1.99952758 0 0 Z " fill="#F22755" transform="translate(66,26)"/>
<path d="M0 0 C2.38003355 1.26935122 2.91747992 2.52640646 3.875 5 C4.535 5 5.195 5 5.875 5 C5.875 5.99 5.875 6.98 5.875 8 C0.90441176 12.97058824 0.90441176 12.97058824 -2.3125 13.0625 C-4.68259489 11.67313403 -5.81297217 10.41689336 -7.125 8 C-7.03462462 5.10798777 -6.10623692 3.9760609 -4.3125 1.6875 C-2.125 0 -2.125 0 0 0 Z " fill="#2E68D1" transform="translate(87.125,30)"/>
<path d="M0 0 C3.53586014 3.17320782 5.58578031 5.16743695 6 10 C1.63636364 14 1.63636364 14 -1.125 14 C-3.61923735 12.66974008 -4.67825119 11.50436616 -6 9 C-6 6.5 -6 6.5 -5 4 C-2.4375 1.6875 -2.4375 1.6875 0 0 Z " fill="#C03457" transform="translate(126,5)"/>
<path d="M0 0 C2.9719385 1.12451727 5.33440687 2.22293791 8 4 C7.46930939 7.82097239 6.50298434 10.06171403 4 13 C1.07120629 12.37240135 -1.36095629 11.41377341 -4 10 C-3.5205537 5.78087253 -2.83374881 3.20336822 0 0 Z " fill="#CC3354" transform="translate(12,77)"/>
<path d="M0 0 C1.09658936 3.28976808 0.79953138 4.71303767 0 8 C1.134375 7.938125 2.26875 7.87625 3.4375 7.8125 C8.33847991 7.78619778 12.473967 9.23987606 17 11 C17 11.99 17 12.98 17 14 C10.52487235 14.86647278 5.12851024 15.53134118 -1 13 C-2.17673198 10.64653604 -2.16623866 9.1193967 -2.1875 6.5 C-2.20167969 5.7059375 -2.21585937 4.911875 -2.23046875 4.09375 C-2 2 -2 2 0 0 Z " fill="#2A71F7" transform="translate(6,10)"/>
<path d="M0 0 C0.33 0 0.66 0 1 0 C1.33 1.98 1.66 3.96 2 6 C2.99 6 3.98 6 5 6 C5 6.66 5 7.32 5 8 C4.34 8 3.68 8 3 8 C3 9.32 3 10.64 3 12 C2.01 12.495 2.01 12.495 1 13 C0.12099444 16.09476297 -0.36535739 17.88990394 0 21 C1.7476824 23.74828106 4.05547339 25.63855968 6.5625 27.6875 C7.18447266 28.22955078 7.80644531 28.77160156 8.44726562 29.33007812 C10.2765667 30.9147078 12.13210021 32.46117064 14 34 C15.15522535 34.96451156 16.31019721 35.92932686 17.46484375 36.89453125 C18.30144531 37.58933594 19.13804688 38.28414062 20 39 C15.77429718 39 13.83189153 36.601669 10.8125 33.9375 C10.23604736 33.43887451 9.65959473 32.94024902 9.06567383 32.42651367 C7.37093298 30.95792792 5.68480392 29.47996454 4 28 C3.13117188 27.24460937 2.26234375 26.48921875 1.3671875 25.7109375 C-0.42800882 24.14737941 -2.21743349 22.57792142 -4 21 C-3.690625 20.2575 -3.38125 19.515 -3.0625 18.75 C-1.82312754 14.37574425 -1.52494029 10.23117414 -1.24609375 5.70703125 C-1 3 -1 3 0 0 Z " fill="#DB9F26" transform="translate(75,45)"/>
<path d="M0 0 C4 4.11111111 4 4.11111111 4 8 C1 10.1875 1 10.1875 -2 12 C-5.36720387 10.60667426 -6.9859524 9.0210714 -9 6 C-6.97377245 1.32409027 -5.29661848 0 0 0 Z " fill="#2F6DD5" transform="translate(112,118)"/>
<path d="M0 0 C2.97 0.99 5.94 1.98 9 3 C9 3.99 9 4.98 9 6 C8.154375 6.20625 7.30875 6.4125 6.4375 6.625 C2.70833579 8.11666568 0.60321946 9.93790005 -2.3203125 12.6015625 C-4.38167771 14.31776889 -6.44245015 15.22498489 -9 16 C-8.34 16.66 -7.68 17.32 -7 18 C-9.64 18 -12.28 18 -15 18 C-12.97063624 12.52071786 -8.4828422 9.70239894 -3.4375 7.3125 C-2.303125 6.879375 -1.16875 6.44625 0 6 C1.4540625 5.4121875 1.4540625 5.4121875 2.9375 4.8125 C3.618125 4.544375 4.29875 4.27625 5 4 C3.7625 3.2884375 3.7625 3.2884375 2.5 2.5625 C1.675 2.046875 0.85 1.53125 0 1 C0 0.67 0 0.34 0 0 Z " fill="#A4894D" transform="translate(112,96)"/>
<path d="M0 0 C0 0.99 0 1.98 0 3 C-4.41060113 3.28811432 -8.82140602 3.57281568 -13.23242188 3.85449219 C-14.72987672 3.9505821 -16.22727427 4.04756974 -17.72460938 4.14550781 C-19.88917463 4.28692608 -22.05393223 4.42500768 -24.21875 4.5625 C-25.51748047 4.64628906 -26.81621094 4.73007813 -28.15429688 4.81640625 C-32.11507868 5.00549385 -36.03571775 5.03085045 -40 5 C-36.06530284 2.57377923 -31.80112729 2.07768097 -27.3125 1.375 C-26.48194092 1.24311279 -25.65138184 1.11122559 -24.7956543 0.9753418 C-16.50846148 -0.23927566 -8.35402618 -0.28880756 0 0 Z " fill="#3179E4" transform="translate(160,61)"/>
<path d="M0 0 C3.82946843 1.45255699 5.12050295 3.42895561 7 7 C5.35 8.98 3.7 10.96 2 13 C-1.65316671 11.75023244 -2.78065836 11.32901247 -5 8 C-4.75526163 4.20655525 -2.72821615 2.46419523 0 0 Z " fill="#E2D832" transform="translate(33,19)"/>
<path d="M0 0 C3.37503669 1.1858237 5.64722731 2.27573689 8 5 C6.7934375 5.6496875 6.7934375 5.6496875 5.5625 6.3125 C2.72153646 7.80474002 2.72153646 7.80474002 2 11 C0.29296875 12.71875 0.29296875 12.71875 -1.8125 14.5 C-2.49957031 15.0878125 -3.18664063 15.675625 -3.89453125 16.28125 C-5.89158044 17.91149424 -7.9250562 19.47060322 -10 21 C-11.32 20.34 -12.64 19.68 -14 19 C-13.5153125 18.5875 -13.030625 18.175 -12.53125 17.75 C-7.45749491 13.37876484 -2.67847866 8.79046352 2 4 C1.34 2.68 0.68 1.36 0 0 Z " fill="#FEE356" transform="translate(60,106)"/>
<path d="M0 0 C-4.22427983 3.75867785 -8.71719877 5.9436608 -13.8125 8.25 C-14.60076172 8.61351562 -15.38902344 8.97703125 -16.20117188 9.3515625 C-18.13126982 10.24057731 -20.06525205 11.12115087 -22 12 C-20.38255936 7.49165868 -19.24556962 6.2643038 -15 4 C-13.89533382 3.08393536 -12.79119919 2.16722947 -11.6875 1.25 C-7.60339676 -1.76360041 -4.80552335 -1.09599655 0 0 Z " fill="#836114" transform="translate(93,121)"/>
<path d="M0 0 C0.66 0 1.32 0 2 0 C2.33 1.65 2.66 3.3 3 5 C3.66 5 4.32 5 5 5 C6.48046875 6.90625 6.48046875 6.90625 8.1875 9.5 C13.36646142 17.10224357 19.41848651 23.59852791 26 30 C25.34 30.66 24.68 31.32 24 32 C14.75843983 23.23281649 5.24885824 13.79310778 0 2 C0 1.34 0 0.68 0 0 Z " fill="#D4BB78" transform="translate(34,56)"/>
<path d="M0 0 C6.25882353 -0.36108597 6.25882353 -0.36108597 9.4375 1.1875 C11 3 11 3 11.5625 5.375 C10.7764266 9.04334252 8.76706221 10.57882057 6 13 C5.34 12.67 4.68 12.34 4 12 C4.33 11.67 4.66 11.34 5 11 C4.07316406 10.73445313 3.14632813 10.46890625 2.19140625 10.1953125 C0.99386719 9.84210937 -0.20367187 9.48890625 -1.4375 9.125 C-2.63246094 8.77695312 -3.82742188 8.42890625 -5.05859375 8.0703125 C-8 7 -8 7 -9 5 C-7.93072266 5.12568359 -7.93072266 5.12568359 -6.83984375 5.25390625 C-1.30980427 5.84189161 3.54028471 6.09194306 9 5 C8.20700294 2.82961523 8.20700294 2.82961523 6.15234375 2.3671875 C5.05599609 2.12355469 5.05599609 2.12355469 3.9375 1.875 C3.20402344 1.70742188 2.47054688 1.53984375 1.71484375 1.3671875 C1.14894531 1.24601562 0.58304688 1.12484375 0 1 C0 0.67 0 0.34 0 0 Z " fill="#1E4CB8" transform="translate(14,18)"/>
<path d="M0 0 C0.33 0 0.66 0 1 0 C1 5.94 1 11.88 1 18 C-3.38635744 15.80682128 -4.51256905 14.08649371 -7 10 C-6.67 9.34 -6.34 8.68 -6 8 C-5.34 8 -4.68 8 -4 8 C-3.71125 7.236875 -3.4225 6.47375 -3.125 5.6875 C-2 3 -2 3 0 0 Z " fill="#EFAD2E" transform="translate(66,42)"/>
<path d="M0 0 C5.63281599 -0.2396943 10.54538831 0.61470179 16 2 C16 2.66 16 3.32 16 4 C6.58997722 3.03644647 6.58997722 3.03644647 2 2 C2.66 4.97 3.32 7.94 4 11 C1.69 11 -0.62 11 -3 11 C-4.60725635 7.78548731 -4.05748185 4.56387464 -4 1 C-3.67 2.32 -3.34 3.64 -3 5 C-2.01 5 -1.02 5 0 5 C0 3.35 0 1.7 0 0 Z " fill="#C64769" transform="translate(134,24)"/>
<path d="M0 0 C1.9375 0.125 1.9375 0.125 4 1 C6.30238787 4.91405938 6.17461992 8.54719212 6 13 C4.68 13.33 3.36 13.66 2 14 C1.29819469 12.5903653 0.61406042 11.17192359 -0.0625 9.75 C-0.44535156 8.96109375 -0.82820312 8.1721875 -1.22265625 7.359375 C-2.0915687 4.72207289 -1.98989621 3.55676051 -1 1 C-0.67 0.67 -0.34 0.34 0 0 Z " fill="#FD77AA" transform="translate(151,2)"/>
<path d="M0 0 C4.20794586 3.75303279 6.16342168 6.78025108 8 12 C8 12.99 8 13.98 8 15 C6.68 15.33 5.36 15.66 4 16 C4 15.34 4 14.68 4 14 C2.35 14 0.7 14 -1 14 C-1 13.34 -1 12.68 -1 12 C-0.34 12 0.32 12 1 12 C0.649375 11.319375 0.29875 10.63875 -0.0625 9.9375 C-1.22620603 6.2912211 -0.72845102 3.71510022 0 0 Z " fill="#E49923" transform="translate(119,80)"/>
<path d="M0 0 C7.89918285 -0.91144418 13.20536627 2.19500511 20 6 C19.01 6.33 18.02 6.66 17 7 C15.29413425 8.62652316 13.6222454 10.29006566 12 12 C12.33 9.69 12.66 7.38 13 5 C12.01 4.67 11.02 4.34 10 4 C10 4.99 10 5.98 10 7 C7.36 6.34 4.72 5.68 2 5 C2 4.01 2 3.02 2 2 C1.34 1.34 0.68 0.68 0 0 Z " fill="#966012" transform="translate(43,25)"/>
<path d="M0 0 C-6.09300258 5.07750215 -9.15925337 6.26135822 -17 6 C-17 5.01 -17 4.02 -17 3 C-11.74654961 -2.11146525 -6.89283159 -1.12836389 0 0 Z " fill="#612673" transform="translate(66,135)"/>
<path d="M0 0 C2.7822335 2.26056472 3.90092877 3.4055726 4.5 7 C4 10 4 10 2.3125 12.375 C-0.38790237 14.27258004 -1.77060081 14.35882213 -5 14 C-3.68 13.67 -2.36 13.34 -1 13 C-0.67 11.68 -0.34 10.36 0 9 C-0.99 9 -1.98 9 -3 9 C-6 5.66666667 -6 5.66666667 -6 3 C-4.02 2.67 -2.04 2.34 0 2 C0 1.34 0 0.68 0 0 Z " fill="#8E1C36" transform="translate(137,32)"/>
<path d="M0 0 C0.33 0 0.66 0 1 0 C2 4 3 8 4 12 C3.38125 12.268125 2.7625 12.53625 2.125 12.8125 C-0.2995233 13.95556848 -0.2995233 13.95556848 -2 17 C-2.33 16.67 -2.66 16.34 -3 16 C-3.08004482 19.5219721 -3.04005702 22.61981469 -2 26 C-3.5 25 -3.5 25 -5 23 C-6.23852581 14.94958225 -2.71806398 7.45526121 0 0 Z " fill="#6B4573" transform="translate(5,126)"/>
<path d="M0 0 C1.875 0.25 1.875 0.25 4 1 C5.25 3.0625 5.25 3.0625 6 5 C4.35 6.98 2.7 8.96 1 11 C-3.24822374 10.52797514 -5.19989709 8.03344482 -8 5 C-6.68 5.33 -5.36 5.66 -4 6 C-1.32668287 3.28996707 -1.32668287 3.28996707 0 0 Z " fill="#B067DF" transform="translate(39,124)"/>
<path d="M0 0 C0.33 0 0.66 0 1 0 C1.01675781 1.05058594 1.03351563 2.10117187 1.05078125 3.18359375 C1.31662098 11.85514721 1.31662098 11.85514721 5.58203125 19.06640625 C8.30435123 21.24356331 11.01494079 23.20297439 14 25 C13.34 25.33 12.68 25.66 12 26 C9.6340213 25.07989717 7.30144109 24.07136051 5 23 C4.28070313 22.71511719 3.56140625 22.43023437 2.8203125 22.13671875 C2.21960938 21.76160156 1.61890625 21.38648437 1 21 C-0.34232297 14.06466467 -0.10726591 7.04379474 0 0 Z " fill="#B16624" transform="translate(74,24)"/>
<path d="M0 0 C0.99 0.495 0.99 0.495 2 1 C2 1.99 2 2.98 2 4 C2.66 4 3.32 4 4 4 C4.474375 4.94875 4.94875 5.8975 5.4375 6.875 C9.19646406 13.45653138 14.66805829 19.26764538 20.5625 24 C21.366875 24.66 22.17125 25.32 23 26 C23 26.66 23 27.32 23 28 C13.23922851 23.47513905 4.04483532 12.94177943 0 3 C0 2.01 0 1.02 0 0 Z " fill="#CDB979" transform="translate(19,96)"/>
<path d="M0 0 C-4.55196988 3.79330823 -9.46388503 7.18115107 -15.5 6.75 C-16.325 6.5025 -17.15 6.255 -18 6 C-12.35353954 -0.27384495 -8.05687716 -1.64718377 0 0 Z " fill="#AE8120" transform="translate(55,141)"/>
<path d="M0 0 C1.859375 0.90234375 1.859375 0.90234375 3.859375 3.90234375 C2.7146875 4.55203125 2.7146875 4.55203125 1.546875 5.21484375 C-1.11951168 6.71574529 -1.11951168 6.71574529 -2.703125 8.65234375 C-3.4146875 9.27109375 -3.4146875 9.27109375 -4.140625 9.90234375 C-7.11460116 9.63198228 -7.99508526 9.04788349 -10.140625 6.90234375 C-8.90509224 5.69979851 -7.65160161 4.51568143 -6.390625 3.33984375 C-5.69453125 2.67855469 -4.9984375 2.01726562 -4.28125 1.3359375 C-2.140625 -0.09765625 -2.140625 -0.09765625 0 0 Z " fill="#C57CF2" transform="translate(72.140625,99.09765625)"/>
<path d="M0 0 C0.99 0.66 1.98 1.32 3 2 C5.11280345 2.63292383 5.11280345 2.63292383 7 3 C7 5.64 7 8.28 7 11 C6.34 11 5.68 11 5 11 C4.34 11.66 3.68 12.32 3 13 C2.34 12.67 1.68 12.34 1 12 C1 9.69 1 7.38 1 5 C0.4225 5.680625 -0.155 6.36125 -0.75 7.0625 C-1.4925 7.701875 -2.235 8.34125 -3 9 C-5.25 8.75 -5.25 8.75 -7 8 C-6.401875 7.7525 -5.80375 7.505 -5.1875 7.25 C-2.68373081 5.81927475 -1.51927612 4.4308418 0 2 C0 1.34 0 0.68 0 0 Z " fill="#AE7C1C" transform="translate(39,24)"/>
<path d="M0 0 C0.33 0 0.66 0 1 0 C1 1.98 1 3.96 1 6 C0.01 6.33 -0.98 6.66 -2 7 C-2 7.99 -2 8.98 -2 10 C-2.66 10 -3.32 10 -4 10 C-4.33 11.32 -4.66 12.64 -5 14 C-6.65 14 -8.3 14 -10 14 C-5.97553517 5.18042813 -5.97553517 5.18042813 -2 2 C-1.34 2 -0.68 2 0 2 C0 1.34 0 0.68 0 0 Z " fill="#3E58C6" transform="translate(30,49)"/>
<path d="M0 0 C3 0.3125 3 0.3125 6 1 C7.32229189 3.64458379 7.09677194 5.67761301 7.0625 8.625 C7.05347656 9.62789062 7.04445313 10.63078125 7.03515625 11.6640625 C7.02355469 12.43492188 7.01195313 13.20578125 7 14 C6.67 14 6.34 14 6 14 C6 11.03 6 8.06 6 5 C4.35 5.33 2.7 5.66 1 6 C0.67 10.29 0.34 14.58 0 19 C-0.33 19 -0.66 19 -1 19 C-1.02683987 16.02077407 -1.04676037 13.04178705 -1.0625 10.0625 C-1.07087891 9.21236328 -1.07925781 8.36222656 -1.08789062 7.48632812 C-1.09111328 6.67744141 -1.09433594 5.86855469 -1.09765625 5.03515625 C-1.10289307 4.2862915 -1.10812988 3.53742676 -1.11352539 2.76586914 C-1 1 -1 1 0 0 Z " fill="#F24F7E" transform="translate(106,34)"/>
<path d="M0 0 C2.9719385 1.12451727 5.33440687 2.22293791 8 4 C0.71428571 8.57142857 0.71428571 8.57142857 -4 8 C-4.33 7.34 -4.66 6.68 -5 6 C-3.35 4.02 -1.7 2.04 0 0 Z " fill="#C481EF" transform="translate(20,148)"/>
<path d="M0 0 C0.66 0 1.32 0 2 0 C1.70703125 1.98567708 1.4140625 3.97135417 1.12109375 5.95703125 C0.86095201 8.2025342 0.86095201 8.2025342 2 11 C1.01 12.485 1.01 12.485 0 14 C-1.32 13.34 -2.64 12.68 -4 12 C-4.50130606 6.73628638 -3.31168629 4.0909066 0 0 Z " fill="#E8A733" transform="translate(34,100)"/>
<path d="M0 0 C0.23976562 0.63035156 0.47953125 1.26070313 0.7265625 1.91015625 C1.81641811 4.15225786 1.81641811 4.15225786 4.0234375 4.87109375 C4.79945312 5.05800781 5.57546875 5.24492187 6.375 5.4375 C9.4302851 6.37228932 11.02485985 7.02000915 13.5625 9.0625 C15.65880756 13.34625894 15.32746381 17.31544825 15 22 C13.98887476 20.03465267 13.03833336 18.09990508 12.24609375 16.03515625 C9.71861627 9.86908799 5.96880672 7.65280299 0 5 C0 3.35 0 1.7 0 0 Z " fill="#AD2948" transform="translate(51,4)"/>
<path d="M0 0 C2.74835005 1.29847174 5.14166565 2.73664513 7.56640625 4.56640625 C8.21673828 5.05173828 8.86707031 5.53707031 9.53710938 6.03710938 C10.89173959 7.0573275 12.24590355 8.078165 13.59960938 9.09960938 C14.24865234 9.58365234 14.89769531 10.06769531 15.56640625 10.56640625 C16.15365479 11.00927979 16.74090332 11.45215332 17.34594727 11.90844727 C19.12654873 13.18584873 19.12654873 13.18584873 22 14 C21.67 14.66 21.34 15.32 21 16 C16.25196563 14.6904389 13.1402805 12.84291112 9.375 9.6875 C8.45460938 8.92824219 7.53421875 8.16898438 6.5859375 7.38671875 C4.09066405 5.08367936 2.04120294 2.70722925 0 0 Z " fill="#FAEB89" transform="translate(59,87)"/>
<path d="M0 0 C0 0.66 0 1.32 0 2 C1.32 2.66 2.64 3.32 4 4 C4 4.66 4 5.32 4 6 C-1.37992836 5.66009167 -5.53273547 5.31442207 -10 2 C-6.3558226 -0.4294516 -4.28758728 -0.16179575 0 0 Z " fill="#F6A318" transform="translate(123,94)"/>
<path d="M0 0 C1.32 0.66 2.64 1.32 4 2 C-5.39304124 10.4871134 -5.39304124 10.4871134 -10 13 C-12.375 12.75 -12.375 12.75 -14 12 C-13.44828125 11.77570313 -12.8965625 11.55140625 -12.328125 11.3203125 C-9.28788256 9.59614817 -7.18574327 7.37484178 -4.75 4.875 C-3.85796875 3.96492187 -2.9659375 3.05484375 -2.046875 2.1171875 C-1.37140625 1.41851562 -0.6959375 0.71984375 0 0 Z " fill="#F5C748" transform="translate(32,132)"/>
<path d="M0 0 C6.40856435 0.66001826 6.40856435 0.66001826 9.5390625 3.1796875 C10.0134375 3.8190625 10.4878125 4.4584375 10.9765625 5.1171875 C9.3265625 5.1171875 7.6765625 5.1171875 5.9765625 5.1171875 C5.3165625 6.4371875 4.6565625 7.7571875 3.9765625 9.1171875 C3.6465625 7.4671875 3.3165625 5.8171875 2.9765625 4.1171875 C0.06004076 3.95037641 0.06004076 3.95037641 -3.0234375 4.1171875 C-3.6834375 4.7771875 -4.3434375 5.4371875 -5.0234375 6.1171875 C-3.84453125 0.22265625 -3.84453125 0.22265625 0 0 Z " fill="#C51644" transform="translate(109.0234375,30.8828125)"/>
<path d="M0 0 C0.99 0.33 1.98 0.66 3 1 C-1.0683235 5.8819882 -5.81536254 8.45132656 -12 10 C-14.30859375 9.6015625 -14.30859375 9.6015625 -16 9 C-11.61487125 5.68441485 -8.62541841 4.45003347 -3 4 C-3 3.34 -3 2.68 -3 2 C-2.01 1.34 -1.02 0.68 0 0 Z " fill="#AA7E1F" transform="translate(82,119)"/>
<path d="M0 0 C0.33 0 0.66 0 1 0 C1.33 1.98 1.66 3.96 2 6 C2.99 6 3.98 6 5 6 C5 6.66 5 7.32 5 8 C4.34 8 3.68 8 3 8 C3 9.32 3 10.64 3 12 C2.01 12.495 2.01 12.495 1 13 C0.26924352 15.3140622 -0.40138258 17.64828869 -1 20 C-1.33 20 -1.66 20 -2 20 C-1.85919445 17.22882696 -1.71256882 14.45817359 -1.5625 11.6875 C-1.52318359 10.90181641 -1.48386719 10.11613281 -1.44335938 9.30664062 C-1.40146484 8.54931641 -1.35957031 7.79199219 -1.31640625 7.01171875 C-1.27974854 6.31522217 -1.24309082 5.61872559 -1.20532227 4.90112305 C-1 3 -1 3 0 0 Z " fill="#DB9C50" transform="translate(75,45)"/>
<path d="M0 0 C0.33 0 0.66 0 1 0 C3.6753801 7.00444001 3.2222309 14.02925342 3.125 21.4375 C3.11597656 22.74138672 3.10695313 24.04527344 3.09765625 25.38867188 C3.07418397 28.59263832 3.04134727 31.79622264 3 35 C2.34 34.67 1.68 34.34 1 34 C1.33 25.75 1.66 17.5 2 9 C1.01 8.67 0.02 8.34 -1 8 C-0.67 7.34 -0.34 6.68 0 6 C0.039992 4.00039988 0.04346799 1.99952758 0 0 Z " fill="#B71D3A" transform="translate(66,26)"/>
<path d="M0 0 C2.97 0.99 5.94 1.98 9 3 C9 3.99 9 4.98 9 6 C7.7315625 6.309375 7.7315625 6.309375 6.4375 6.625 C2.63862051 8.1445518 0.49473998 10.02700236 -2.38671875 12.85546875 C-2.91910156 13.23316406 -3.45148438 13.61085938 -4 14 C-4.99 13.67 -5.98 13.34 -7 13 C-6.01 12.34 -5.02 11.68 -4 11 C-4 10.01 -4 9.02 -4 8 C-1.12498789 5.92360237 1.51375944 4.6456001 5 4 C4.175 3.525625 3.35 3.05125 2.5 2.5625 C1.675 2.046875 0.85 1.53125 0 1 C0 0.67 0 0.34 0 0 Z " fill="#A57A1E" transform="translate(112,96)"/>
<path d="M0 0 C2.72107452 2.3500189 3.96702492 4.55674975 5 8 C4.67 8.99 4.34 9.98 4 11 C2.02 11.33 0.04 11.66 -2 12 C-2 12.33 -2 12.66 -2 13 C-4.31 13 -6.62 13 -9 13 C-7.9375 11.5 -7.9375 11.5 -6 10 C-2.3125 9.8125 -2.3125 9.8125 1 10 C0.34 8.35 -0.32 6.7 -1 5 C-0.34 5 0.32 5 1 5 C0.67 3.35 0.34 1.7 0 0 Z " fill="#926815" transform="translate(126,90)"/>
<path d="M0 0 C-4.81965172 2.69900496 -10.06342699 3.81871668 -15.4375 4.875 C-19.47284053 5.72345621 -22.72091019 7.22431602 -26.2734375 9.29296875 C-28 10 -28 10 -31 9 C-20.79463289 3.84911296 -11.67646106 -0.18698959 0 0 Z " fill="#3F64ED" transform="translate(127,74)"/>
<path d="M0 0 C2.86724686 0.57344937 3.8614515 0.8614515 6 3 C6.38080215 6.50337981 6.40245078 8.36278626 4.5 11.375 C4.005 11.91125 3.51 12.4475 3 13 C2.67 12.01 2.34 11.02 2 10 C1.01 10.33 0.02 10.66 -1 11 C-0.79375 10.05125 -0.5875 9.1025 -0.375 8.125 C-0.25125 7.09375 -0.1275 6.0625 0 5 C-0.66 4.34 -1.32 3.68 -2 3 C-0.68 3.33 0.64 3.66 2 4 C2 3.34 2 2.68 2 2 C1.34 1.34 0.68 0.68 0 0 Z " fill="#2A3D97" transform="translate(28,41)"/>
<path d="M0 0 C3.79478709 1.26492903 5.23120463 3.1053503 8 6 C9.20567474 7.21098609 10.41411476 8.41922398 11.625 9.625 C13.75 11.75 15.875 13.875 18 16 C14.51669784 15.35494404 11.90567134 14.01782732 9 12 C9 11.34 9 10.68 9 10 C8.443125 9.79375 7.88625 9.5875 7.3125 9.375 C4.02987629 7.42316968 2.29326754 5.05769006 0 2 C0 1.34 0 0.68 0 0 Z " fill="#FBCC3F" transform="translate(68,63)"/>
<path d="M0 0 C2.475 0.99 2.475 0.99 5 2 C2.03716687 4.38672669 -0.94270509 6.7353371 -4 9 C-5.32 8.34 -6.64 7.68 -8 7 C-7.67 6.34 -7.34 5.68 -7 5 C-6.34 5 -5.68 5 -5 5 C-5 4.34 -5 3.68 -5 3 C-3.35 2.67 -1.7 2.34 0 2 C0 1.34 0 0.68 0 0 Z " fill="#ECA4F4" transform="translate(52,131)"/>
<path d="M0 0 C3.90096414 3.73181664 3.90096414 3.73181664 4 7 C2.25 9 2.25 9 0 11 C-1.02323436 12.31558703 -2.03126968 13.64377755 -3 15 C-4.43410153 11.21180727 -3.51009497 8.93478721 -2.0625 5.25 C-1.49208984 3.77273437 -1.49208984 3.77273437 -0.91015625 2.265625 C-0.60980469 1.51796875 -0.30945313 0.7703125 0 0 Z " fill="#C1A643" transform="translate(13,108)"/>
<path d="M0 0 C3.7910119 1.44950455 7.3874638 3.15172566 11 5 C10.67 5.66 10.34 6.32 10 7 C3.6 7.49230769 3.6 7.49230769 0.5625 5 C0.046875 4.34 -0.46875 3.68 -1 3 C-0.67 2.01 -0.34 1.02 0 0 Z " fill="#F7D553" transform="translate(8,151)"/>
<path d="M0 0 C0.99 0.99 1.98 1.98 3 3 C1.8553125 3.6496875 1.8553125 3.6496875 0.6875 4.3125 C-1.98112992 5.80270977 -1.98112992 5.80270977 -3.5 7.75 C-4.2425 8.36875 -4.2425 8.36875 -5 9 C-7.6875 8.6875 -7.6875 8.6875 -10 8 C-6.88983545 4.71211176 -3.98381075 2.16264012 0 0 Z " fill="#DB91FB" transform="translate(76,102)"/>
<path d="M0 0 C1.32 0.33 2.64 0.66 4 1 C2.79618552 3.49361571 1.54571278 5.68143083 0 8 C-2.16874252 7.49396008 -3.99967627 7.00016187 -6 6 C-6 5.34 -6 4.68 -6 4 C-4.35 3.67 -2.7 3.34 -1 3 C-0.67 2.01 -0.34 1.02 0 0 Z " fill="#AC63DB" transform="translate(16,146)"/>
<path d="M0 0 C0.33 0 0.66 0 1 0 C2.64890169 5.29384228 2.64890169 5.29384228 3 8 C1.75 9.625 1.75 9.625 0 11 C-1.20049407 14.10007201 -1.20049407 14.10007201 -2 17 C-2.66 16.34 -3.32 15.68 -4 15 C-3.67238912 9.53981871 -2.02344607 5.01462723 0 0 Z " fill="#8E5FA8" transform="translate(18,94)"/>
<path d="M0 0 C0.33 0.99 0.66 1.98 1 3 C1.99 3.33 2.98 3.66 4 4 C1.64722731 6.72426311 -0.62496331 7.8141763 -4 9 C-4.33 7.02 -4.66 5.04 -5 3 C-3.35 2.01 -1.7 1.02 0 0 Z " fill="#FEE74D" transform="translate(107,96)"/>
<path d="M0 0 C0.66 0 1.32 0 2 0 C2.33 1.65 2.66 3.3 3 5 C3.66 5 4.32 5 5 5 C6.7265625 7.1875 6.7265625 7.1875 8.625 10 C9.25664063 10.928125 9.88828125 11.85625 10.5390625 12.8125 C11.26222656 13.8953125 11.26222656 13.8953125 12 15 C11.34 15.66 10.68 16.32 10 17 C8.69858519 15.29908111 7.40927835 13.58889459 6.125 11.875 C5.40570313 10.92367187 4.68640625 9.97234375 3.9453125 8.9921875 C2.01788981 6.02751726 0.95529222 3.38877345 0 0 Z " fill="#C6B871" transform="translate(34,56)"/>
<path d="M0 0 C-1.63072223 1.9591474 -2.55078834 2.9068329 -5.0847168 3.43237305 C-5.86500244 3.45855713 -6.64528809 3.48474121 -7.44921875 3.51171875 C-8.72055664 3.56489258 -8.72055664 3.56489258 -10.01757812 3.61914062 C-10.89865234 3.64169922 -11.77972656 3.66425781 -12.6875 3.6875 C-14.02651367 3.73874023 -14.02651367 3.73874023 -15.39257812 3.79101562 C-17.59492671 3.87345648 -19.79687938 3.94261551 -22 4 C-15.23509937 0.46994044 -7.56001258 -0.33600056 0 0 Z " fill="#2C6AD6" transform="translate(142,62)"/>
<path d="M0 0 C3.15164408 3.9738121 4.1597093 6.94372092 4.25 12 C4.27578125 12.86625 4.3015625 13.7325 4.328125 14.625 C3.94072585 17.42903194 3.17141522 18.26286782 1 20 C1.020625 18.741875 1.04125 17.48375 1.0625 16.1875 C1.07115072 10.75485053 0.56512387 5.39895124 0 0 Z " fill="#C02854" transform="translate(156,4)"/>
<path d="M0 0 C2 0 2 0 4.125 2 C4.74375 2.66 5.3625 3.32 6 4 C5.25 6.4375 5.25 6.4375 4 9 C1.921875 9.66015625 1.921875 9.66015625 0 10 C-0.19412181 8.52168779 -0.38012131 7.04230684 -0.5625 5.5625 C-0.66691406 4.73878906 -0.77132812 3.91507813 -0.87890625 3.06640625 C-0.91886719 2.38449219 -0.95882812 1.70257813 -1 1 C-0.67 0.67 -0.34 0.34 0 0 Z " fill="#FB5786" transform="translate(125,8)"/>
<path d="M0 0 C2.31 0.33 4.62 0.66 7 1 C7 1.66 7 2.32 7 3 C7.556875 3.268125 8.11375 3.53625 8.6875 3.8125 C11.21225334 5.10899496 13.63714484 6.42476323 16 8 C16 8.66 16 9.32 16 10 C12.06342758 8.56786488 8.71068644 6.69667846 5.1875 4.4375 C4.21167969 3.81746094 3.23585938 3.19742188 2.23046875 2.55859375 C1.49441406 2.04425781 0.75835937 1.52992187 0 1 C0 0.67 0 0.34 0 0 Z " fill="#FCF2AD" transform="translate(77,102)"/>
<path d="M0 0 C2.35119399 3.52679099 2.21443452 5.02879485 2.125 9.1875 C2.10695313 10.27417969 2.08890625 11.36085938 2.0703125 12.48046875 C2.03550781 13.72763672 2.03550781 13.72763672 2 15 C1.67 15 1.34 15 1 15 C0.67 12.36 0.34 9.72 0 7 C-0.639375 7.99 -1.27875 8.98 -1.9375 10 C-2.618125 10.99 -3.29875 11.98 -4 13 C-4.33 13 -4.66 13 -5 13 C-4.67 10.69 -4.34 8.38 -4 6 C-3.34 6 -2.68 6 -2 6 C-1.34 4.02 -0.68 2.04 0 0 Z " fill="#CF8826" transform="translate(66,37)"/>
<path d="M0 0 C0.66 0 1.32 0 2 0 C3.31626692 3.61973402 4 6.09567131 4 10 C2.125 9.75 2.125 9.75 0 9 C-1.64412999 6.72953477 -2.08619584 5.60337089 -1.6875 2.8125 C-1 1 -1 1 0 0 Z " fill="#FE9FD3" transform="translate(151,2)"/>
<path d="M0 0 C0.515625 0.66 1.03125 1.32 1.5625 2 C4.08539176 5.10509755 6.72692856 8.0722684 9.4140625 11.03515625 C10.95740186 12.94722448 11.99503934 14.7662013 13 17 C9.66863403 15.57646476 7.72335243 13.8664687 5.375 11.125 C4.78460937 10.44695312 4.19421875 9.76890625 3.5859375 9.0703125 C1.19941318 5.95489898 0 3.9666371 0 0 Z " fill="#D4BD7A" transform="translate(6,129)"/>
<path d="M0 0 C3.39417765 3.12621626 5.6062718 5.56541027 7 10 C6.01 10 5.02 10 4 10 C3.01 10.33 2.02 10.66 1 11 C-0.98362069 8.08291076 -0.9876191 6.87619096 -0.625 3.25 C-0.41875 2.1775 -0.2125 1.105 0 0 Z " fill="#B5811F" transform="translate(119,80)"/>
<path d="M0 0 C-1.485 1.485 -1.485 1.485 -3 3 C-1.35 3.33 0.3 3.66 2 4 C2 4.33 2 4.66 2 5 C-1.3 5.33 -4.6 5.66 -8 6 C-8 4.02 -8 2.04 -8 0 C-4.94736336 -0.98120464 -3.05263664 -0.98120464 0 0 Z " fill="#5C87FB" transform="translate(125,69)"/>
<path d="M0 0 C3.70270486 5.5540573 4.22186294 9.45504337 4 16 C3.34 16 2.68 16 2 16 C-1.62870159 5.62642369 -1.62870159 5.62642369 0 0 Z " fill="#FD4372" transform="translate(68,13)"/>
<path d="M0 0 C3.48301195 1.68668859 6.83300423 3.57147137 10.1875 5.5 C11.25355469 6.1084375 12.31960937 6.716875 13.41796875 7.34375 C16 9 16 9 17 11 C11.16403878 9.46422073 5.8387456 6.58121849 1 3 C0.67 2.01 0.34 1.02 0 0 Z " fill="#F9EDA2" transform="translate(42,123)"/>
<path d="M0 0 C0.66 0 1.32 0 2 0 C2.625 2.8125 2.625 2.8125 3 6 C2.01 7.485 2.01 7.485 1 9 C-0.32 9 -1.64 9 -3 9 C-2.5020163 5.26512223 -2.12508244 3.18762365 0 0 Z " fill="#C8496C" transform="translate(11,78)"/>
<path d="M0 0 C0.66 0.33 1.32 0.66 2 1 C1.67 2.65 1.34 4.3 1 6 C-0.65 6.33 -2.3 6.66 -4 7 C-4 9.64 -4 12.28 -4 15 C-4.66 14.67 -5.32 14.34 -6 14 C-5.67 11.36 -5.34 8.72 -5 6 C-4.01 5.67 -3.02 5.34 -2 5 C-2 3.68 -2 2.36 -2 1 C-1.34 0.67 -0.68 0.34 0 0 Z " fill="#EAB839" transform="translate(80,52)"/>
<path d="M0 0 C1.04449911 3.13349732 0.93423645 3.98968256 0 7 C1.65 7.33 3.3 7.66 5 8 C5.33 7.34 5.66 6.68 6 6 C6 7.65 6 9.3 6 11 C2.65626525 10.44271087 -0.03312999 9.64826111 -3 8 C-3 6.68 -3 5.36 -3 4 C-2.34 4 -1.68 4 -1 4 C-0.67 2.68 -0.34 1.36 0 0 Z " fill="#D28D3D" transform="translate(137,118)"/>
<path d="M0 0 C0.66 0.33 1.32 0.66 2 1 C0.40423801 2.50893816 -1.20189911 4.00691076 -2.8125 5.5 C-3.70582031 6.3353125 -4.59914063 7.170625 -5.51953125 8.03125 C-8 10 -8 10 -11 10 C-11 9.01 -11 8.02 -11 7 C-7.97753711 4.13884833 -3.9035603 1.44576308 0 0 Z " fill="#D3A338" transform="translate(105,103)"/>
<path d="M0 0 C2.93879484 1.35236577 5.29232911 2.89942659 7.75 5 C8.67039062 5.7734375 8.67039062 5.7734375 9.609375 6.5625 C11 8 11 8 11 10 C8.6875 10.3125 8.6875 10.3125 6 10 C4.375 7.8125 4.375 7.8125 3 5 C2.443125 4.071875 1.88625 3.14375 1.3125 2.1875 C0.879375 1.465625 0.44625 0.74375 0 0 Z " fill="#FEFA90" transform="translate(94,86)"/>
<path d="M0 0 C5.53846154 0.61538462 5.53846154 0.61538462 7.875 2.5625 C8.431875 3.2740625 8.431875 3.2740625 9 4 C5 5.33333333 1 6.66666667 -3 8 C-2.319375 7.236875 -1.63875 6.47375 -0.9375 5.6875 C0.0215625 4.3571875 0.0215625 4.3571875 1 3 C0.67 2.01 0.34 1.02 0 0 Z " fill="#BC8B21" transform="translate(109,97)"/>
<path d="M0 0 C-3.75 3 -3.75 3 -6 3 C-6.66 4.32 -7.32 5.64 -8 7 C-9.32 6.67 -10.64 6.34 -12 6 C-12 5.34 -12 4.68 -12 4 C-10.390625 2.67578125 -10.390625 2.67578125 -8.25 1.3125 C-7.55390625 0.85488281 -6.8578125 0.39726563 -6.140625 -0.07421875 C-3.60909275 -1.16906025 -2.53899138 -0.9435441 0 0 Z " fill="#9F54A7" transform="translate(94,113)"/>
<path d="M0 0 C1.2065625 0.0309375 1.2065625 0.0309375 2.4375 0.0625 C2.4375 0.7225 2.4375 1.3825 2.4375 2.0625 C0.4575 3.0525 0.4575 3.0525 -1.5625 4.0625 C-1.76839721 11.62657533 -1.76839721 11.62657533 -0.5625 19.0625 C-3.96875214 15.50386289 -3.91213791 12.68252922 -3.8125 7.875 C-3.78929688 5.99748047 -3.78929688 5.99748047 -3.765625 4.08203125 C-3.49676251 0.08528689 -3.49676251 0.08528689 0 0 Z " fill="#FE72A2" transform="translate(109.5625,38.9375)"/>
<path d="M0 0 C0 3.11227195 -0.45627049 5.94152152 -1 9 C-1.66 9 -2.32 9 -3 9 C-3.99 11.97 -4.98 14.94 -6 18 C-7.31600093 14.05199722 -6.07613159 11.60059694 -4.6875 7.875 C-4.46126953 7.22917969 -4.23503906 6.58335938 -4.00195312 5.91796875 C-2.26051009 1.13025504 -2.26051009 1.13025504 0 0 Z " fill="#694811" transform="translate(28,66)"/>
<path d="M0 0 C0.99 0 1.98 0 3 0 C3 0.99 3 1.98 3 3 C2.01 3.495 2.01 3.495 1 4 C0.53348793 6.12576782 0.53348793 6.12576782 0.375 8.5625 C0.30023438 9.38878906 0.22546875 10.21507812 0.1484375 11.06640625 C0.09945312 11.70449219 0.05046875 12.34257813 0 13 C-0.66 12.67 -1.32 12.34 -2 12 C-2.05395478 10.37536158 -2.09277195 8.75021459 -2.125 7.125 C-2.14820312 6.22007813 -2.17140625 5.31515625 -2.1953125 4.3828125 C-2 2 -2 2 0 0 Z " fill="#FE90C2" transform="translate(109,41)"/>
<path d="M0 0 C3.64581687 -0.02887512 7.29160463 -0.04675585 10.9375 -0.0625 C12.49887695 -0.07506836 12.49887695 -0.07506836 14.09179688 -0.08789062 C15.57583008 -0.09272461 15.57583008 -0.09272461 17.08984375 -0.09765625 C18.46450806 -0.10551147 18.46450806 -0.10551147 19.86694336 -0.11352539 C22 0 22 0 23 1 C23.04063832 2.66617115 23.042721 4.33388095 23 6 C22.34 5.01 21.68 4.02 21 3 C18.34081834 2.11360611 16.51935359 1.82010975 13.76953125 1.68359375 C12.56586914 1.62075195 12.56586914 1.62075195 11.33789062 1.55664062 C10.50451172 1.51732422 9.67113281 1.47800781 8.8125 1.4375 C7.96751953 1.39431641 7.12253906 1.35113281 6.25195312 1.30664062 C4.16815567 1.20068482 2.08409897 1.0998498 0 1 C0 0.67 0 0.34 0 0 Z " fill="#3273F3" transform="translate(8,42)"/>
<path d="M0 0 C0.57234375 0.23589844 1.1446875 0.47179687 1.734375 0.71484375 C0.991875 1.27171875 0.249375 1.82859375 -0.515625 2.40234375 C-3.18270495 4.64511553 -5.18118732 6.9355935 -7.265625 9.71484375 C-8.255625 8.72484375 -9.245625 7.73484375 -10.265625 6.71484375 C-9.03009224 5.51229851 -7.77660161 4.32818143 -6.515625 3.15234375 C-5.81953125 2.49105469 -5.1234375 1.82976562 -4.40625 1.1484375 C-2.265625 -0.28515625 -2.265625 -0.28515625 0 0 Z " fill="#BC76E6" transform="translate(72.265625,99.28515625)"/>
<path d="M0 0 C0.86625 0.556875 0.86625 0.556875 1.75 1.125 C1.75 2.445 1.75 3.765 1.75 5.125 C0.76 5.455 -0.23 5.785 -1.25 6.125 C-2.9 4.475 -4.55 2.825 -6.25 1.125 C-2.80384615 -1.09038462 -2.80384615 -1.09038462 0 0 Z " fill="#E6BA47" transform="translate(87.25,70.875)"/>
<path d="M0 0 C0.66 0 1.32 0 2 0 C2 0.66 2 1.32 2 2 C2.66 2 3.32 2 4 2 C4.33 4.31 4.66 6.62 5 9 C1.63279613 7.60667426 0.0140476 6.0210714 -2 3 C-1 1 -1 1 0 0 Z " fill="#DF8B15" transform="translate(48,34)"/>
<path d="M0 0 C1.79244141 0.01740234 1.79244141 0.01740234 3.62109375 0.03515625 C5.41740234 0.04869141 5.41740234 0.04869141 7.25 0.0625 C8.17683594 0.07410156 9.10367188 0.08570312 10.05859375 0.09765625 C9.72859375 0.75765625 9.39859375 1.41765625 9.05859375 2.09765625 C6.08859375 1.76765625 3.11859375 1.43765625 0.05859375 1.09765625 C0.05859375 2.74765625 0.05859375 4.39765625 0.05859375 6.09765625 C-0.93140625 6.09765625 -1.92140625 6.09765625 -2.94140625 6.09765625 C-3.32359392 4.44150968 -3.65535727 2.77308601 -3.94140625 1.09765625 C-2.94140625 0.09765625 -2.94140625 0.09765625 0 0 Z " fill="#F7386B" transform="translate(133.94140625,22.90234375)"/>
<path d="M0 0 C-3.41016497 2.86453858 -6.90694544 4.34703566 -11 6 C-11 4.68 -11 3.36 -11 2 C-7.36576791 -0.32590854 -4.22911669 -0.16265833 0 0 Z " fill="#632D6B" transform="translate(34,152)"/>
<path d="M0 0 C0.66 0.33 1.32 0.66 2 1 C0.63029745 3.95012857 -0.82609125 6.5652222 -3 9 C-3.99 9 -4.98 9 -6 9 C-5.52797514 4.75177626 -3.03344482 2.80010291 0 0 Z " fill="#BF78ED" transform="translate(43,126)"/>
<path d="M0 0 C1.9375 0.9375 1.9375 0.9375 4 3 C4.66174825 5.9858081 4.87205948 8.94861869 5 12 C5.66 12 6.32 12 7 12 C7.33 13.65 7.66 15.3 8 17 C3.17970402 13.14376321 3.17970402 13.14376321 2.66796875 9.88671875 C2.6854224 7.92143786 2.83403909 5.95833873 3 4 C2.34 4 1.68 4 1 4 C0.67 2.68 0.34 1.36 0 0 Z " fill="#CE8516" transform="translate(49,32)"/>
<path d="M0 0 C0.33 0 0.66 0 1 0 C2.72805471 6.62420971 0.84964058 10.92158211 -2 17 C-2.33 17 -2.66 17 -3 17 C-2.36934845 11.2190275 -1.34844868 5.6556294 0 0 Z " fill="#7B4083" transform="translate(32,52)"/>
<path d="M0 0 C4.08963819 2.28538605 7.46362104 4.95706926 11 8 C8 9 8 9 5.375 7.8125 C3 6 3 6 2.1875 3.8125 C2.125625 3.214375 2.06375 2.61625 2 2 C1.34 2 0.68 2 0 2 C0 1.34 0 0.68 0 0 Z " fill="#BB831B" transform="translate(88,50)"/>
<path d="M0 0 C0 0.66 0 1.32 0 2 C-5.28 2 -10.56 2 -16 2 C-16 1.67 -16 1.34 -16 1 C-14.0852312 0.63571223 -12.16807707 0.28394694 -10.25 -0.0625 C-9.18265625 -0.25972656 -8.1153125 -0.45695312 -7.015625 -0.66015625 C-4.25228095 -0.97156937 -2.59053383 -0.8991416 0 0 Z " fill="#7EA2FE" transform="translate(159,68)"/>
<path d="M0 0 C0.66 1.32 1.32 2.64 2 4 C1.34 4.86625 0.68 5.7325 0 6.625 C-2.12695385 10.21423463 -2.38790972 11.92694798 -2 16 C-4 14 -4 14 -4.375 11.375 C-3.8878962 6.99106584 -2.15775023 3.79532854 0 0 Z " fill="#946AB7" transform="translate(34,58)"/>
<path d="M0 0 C3.1875 -0.3125 3.1875 -0.3125 6 0 C5 3 5 3 2.0625 4.75 C0.5465625 5.36875 0.5465625 5.36875 -1 6 C-1.66 5.67 -2.32 5.34 -3 5 C-1.875 2.5 -1.875 2.5 0 0 Z " fill="#745510" transform="translate(123,101)"/>
<path d="M0 0 C-0.66 1.32 -1.32 2.64 -2 4 C-4.31 4 -6.62 4 -9 4 C-8.67 3.01 -8.34 2.02 -8 1 C-5.29120665 -0.35439668 -2.99066732 -0.06501451 0 0 Z " fill="#265FDB" transform="translate(20,28)"/>
<path d="M0 0 C3.53586014 3.17320782 5.58578031 5.16743695 6 10 C5.34 9.67 4.68 9.34 4 9 C4.33 8.34 4.66 7.68 5 7 C3.68 6.34 2.36 5.68 1 5 C1 4.34 1 3.68 1 3 C-0.32 3.33 -1.64 3.66 -3 4 C-2.01 2.68 -1.02 1.36 0 0 Z " fill="#B93A5F" transform="translate(126,5)"/>
<path d="M0 0 C-0.99 0.66 -1.98 1.32 -3 2 C-3.969375 2.721875 -4.93875 3.44375 -5.9375 4.1875 C-9 6 -9 6 -11.19140625 5.61328125 C-11.78824219 5.41089844 -12.38507812 5.20851562 -13 5 C-8.68660704 1.42677506 -5.86197356 -0.71487482 0 0 Z " fill="#994FA3" transform="translate(61,134)"/>
<path d="M0 0 C1.12377697 3.30435084 0.89554742 5.0506862 -0.4375 8.25 C-0.72496094 8.95640625 -1.01242188 9.6628125 -1.30859375 10.390625 C-1.53675781 10.92171875 -1.76492187 11.4528125 -2 12 C-2.66 12 -3.32 12 -4 12 C-3.91253716 10.56138706 -3.80434652 9.12402492 -3.6875 7.6875 C-3.62949219 6.88699219 -3.57148438 6.08648437 -3.51171875 5.26171875 C-2.91793306 2.63727666 -2.04219706 1.69179328 0 0 Z " fill="#D37325" transform="translate(23,81)"/>
<path d="M0 0 C6.25882353 -0.36108597 6.25882353 -0.36108597 9.4375 1.1875 C11 3 11 3 11.4375 5.5625 C11.293125 6.366875 11.14875 7.17125 11 8 C10.01 8.66 9.02 9.32 8 10 C8 8.68 8 7.36 8 6 C8.66 6 9.32 6 10 6 C7.80051868 2.70077803 7.49675855 2.57190099 3.875 1.8125 C2.59625 1.544375 1.3175 1.27625 0 1 C0 0.67 0 0.34 0 0 Z " fill="#224CA8" transform="translate(14,18)"/>
<path d="M0 0 C2.31 0.33 4.62 0.66 7 1 C3.8745041 3.64465038 0.91211733 4.84414715 -3 6 C-2.01 4.02 -1.02 2.04 0 0 Z " fill="#856214" transform="translate(48,140)"/>
<path d="M0 0 C-0.969375 0.61875 -1.93875 1.2375 -2.9375 1.875 C-6.02835362 3.65678846 -6.02835362 3.65678846 -7 6 C-8.32 5.67 -9.64 5.34 -11 5 C-4.74206349 -1.42261905 -4.74206349 -1.42261905 0 0 Z " fill="#722B8A" transform="translate(97,114)"/>
<path d="M0 0 C0.99 0.33 1.98 0.66 3 1 C3 1.66 3 2.32 3 3 C2.34 3.391875 1.68 3.78375 1 4.1875 C-1.42601514 5.96483185 -1.42601514 5.96483185 -1.25 9.6875 C-1.1675 10.780625 -1.085 11.87375 -1 13 C-3 11 -3 11 -3.3125 8.1875 C-2.96840628 4.67774407 -2.01272399 2.85135899 0 0 Z " fill="#8959C4" transform="translate(19,102)"/>
<path d="M0 0 C0.99 0.99 1.98 1.98 3 3 C2.195625 3.61875 1.39125 4.2375 0.5625 4.875 C-2.03874519 6.74164041 -2.03874519 6.74164041 -3 9 C-3.99 8.67 -4.98 8.34 -6 8 C-4.02 5.36 -2.04 2.72 0 0 Z " fill="#CD86F6" transform="translate(45,127)"/>
<path d="M0 0 C0.66 0 1.32 0 2 0 C2.33 1.32 2.66 2.64 3 4 C2.34 4 1.68 4 1 4 C1 4.66 1 5.32 1 6 C0.01 6.33 -0.98 6.66 -2 7 C-2.33 5.68 -2.66 4.36 -3 3 C-2.34 3 -1.68 3 -1 3 C-0.67 2.01 -0.34 1.02 0 0 Z " fill="#EEA728" transform="translate(117,88)"/>
<path d="M0 0 C1.98 0.99 1.98 0.99 4 2 C3.44855089 6.08072342 3.08669204 6.91330796 0 10 C0 6.7 0 3.4 0 0 Z " fill="#84172D" transform="translate(16,79)"/>
<path d="M0 0 C0.66 0 1.32 0 2 0 C2 2.97 2 5.94 2 9 C1.34 9 0.68 9 0 9 C-1.36623674 6.26752652 -1.128426 4.01801098 -1 1 C-0.67 0.67 -0.34 0.34 0 0 Z " fill="#FFAEE4" transform="translate(110,44)"/>
<path d="M0 0 C0.33 0 0.66 0 1 0 C1 3.3 1 6.6 1 10 C0.01 9.67 -0.98 9.34 -2 9 C-2 6.69 -2 4.38 -2 2 C-1.34 2 -0.68 2 0 2 C0 1.34 0 0.68 0 0 Z " fill="#245DDD" transform="translate(4,13)"/>
<path d="M0 0 C1.32 0.66 2.64 1.32 4 2 C-3.28571429 6.57142857 -3.28571429 6.57142857 -8 6 C-7.4225 5.7525 -6.845 5.505 -6.25 5.25 C-3.6997003 3.83316683 -1.98214299 2.12372463 0 0 Z " fill="#D493EA" transform="translate(24,150)"/>
<path d="M0 0 C2.475 0.495 2.475 0.495 5 1 C6.125 3.8125 6.125 3.8125 7 7 C6.01 8.485 6.01 8.485 5 10 C4.80664062 9.36191406 4.61328125 8.72382812 4.4140625 8.06640625 C4.15367188 7.24011719 3.89328125 6.41382812 3.625 5.5625 C3.36976562 4.73878906 3.11453125 3.91507812 2.8515625 3.06640625 C2.19117773 0.82201984 2.19117773 0.82201984 0 0 Z " fill="#DEA22C" transform="translate(113,77)"/>
<path d="M0 0 C0.33 0.66 0.66 1.32 1 2 C-0.98 4.64 -2.96 7.28 -5 10 C-5.66 9.67 -6.32 9.34 -7 9 C-6.34 8.34 -5.68 7.68 -5 7 C-4.5359375 5.7625 -4.5359375 5.7625 -4.0625 4.5 C-3 2 -3 2 0 0 Z " fill="#4771D9" transform="translate(27,53)"/>
<path d="M0 0 C0.33 0 0.66 0 1 0 C1.33 1.98 1.66 3.96 2 6 C2.99 6 3.98 6 5 6 C5 6.66 5 7.32 5 8 C4.34 8 3.68 8 3 8 C2.67 8.99 2.34 9.98 2 11 C1.34 11 0.68 11 0 11 C0 7.37 0 3.74 0 0 Z " fill="#D3A133" transform="translate(75,45)"/>
<path d="M0 0 C2.9375 0.375 2.9375 0.375 6 1 C6.33 1.66 6.66 2.32 7 3 C6.01 3 5.02 3 4 3 C1.31232422 5.43750025 1.31232422 5.43750025 -1 8 C-0.67 5.36 -0.34 2.72 0 0 Z " fill="#A06B16" transform="translate(56,29)"/>
<path d="M0 0 C1.32 1.65 2.64 3.3 4 5 C3.01 5.99 2.02 6.98 1 8 C0.34 7.67 -0.32 7.34 -1 7 C-1.04254356 5.00045254 -1.04080783 2.99958364 -1 1 C-0.67 0.67 -0.34 0.34 0 0 Z " fill="#BB9D42" transform="translate(2,141)"/>
<path d="M0 0 C0.33 0.66 0.66 1.32 1 2 C2.65 1.67 4.3 1.34 6 1 C4.09598862 2.90401138 2.66574314 3.93520439 -0.046875 4.19921875 C-2.03233273 4.1886578 -4.0169914 4.09915043 -6 4 C-4.03617993 2.49440461 -2.21736634 1.10868317 0 0 Z " fill="#602B63" transform="translate(55,137)"/>
<path d="M0 0 C1.31896465 0.92838287 2.62998689 1.86805732 3.9375 2.8125 C4.66839844 3.33457031 5.39929687 3.85664062 6.15234375 4.39453125 C8 6 8 6 9 9 C5.18063472 7.44396229 2.73955562 5.04395069 0 2 C0 1.34 0 0.68 0 0 Z " fill="#E9CF7F" transform="translate(33,115)"/>
<path d="M0 0 C1.98 0 3.96 0 6 0 C5.34 0.66 4.68 1.32 4 2 C4.66 2.66 5.32 3.32 6 4 C3.36 4 0.72 4 -2 4 C-1.34 2.68 -0.68 1.36 0 0 Z " fill="#9E7B2A" transform="translate(99,110)"/>
<path d="M0 0 C0.93045933 2.55144824 1.08564091 3.74006478 0.22265625 6.359375 C-0.16019531 7.14828125 -0.54304688 7.9371875 -0.9375 8.75 C-1.50791016 9.94882812 -1.50791016 9.94882812 -2.08984375 11.171875 C-2.39019531 11.77515625 -2.69054687 12.3784375 -3 13 C-4 11 -4 11 -3.1875 8.1875 C-2.16400226 5.44021658 -1.11622346 2.71082841 0 0 Z " fill="#40244A" transform="translate(31,54)"/>
<path d="M0 0 C0 0.99 0 1.98 0 3 C-2.88834003 5.10770759 -4.38462395 6 -8 6 C-8.33 5.34 -8.66 4.68 -9 4 C-2.25 0 -2.25 0 0 0 Z " fill="#E25D87" transform="translate(59,17)"/>
<path d="M0 0 C2.60018816 3.90028225 2.15085514 7.47434569 2 12 C0.13448574 8.41247258 -1.42535928 4.72187807 -3 1 C-2.01 0.67 -1.02 0.34 0 0 Z " fill="#94243D" transform="translate(64,14)"/>
<path d="M0 0 C0 0.99 0 1.98 0 3 C-3.63423209 5.32590854 -6.77088331 5.16265833 -11 5 C-11 4.67 -11 4.34 -11 4 C-9.02 4 -7.04 4 -5 4 C-4.67 3.01 -4.34 2.02 -4 1 C-2 0 -2 0 0 0 Z " fill="#865934" transform="translate(23,155)"/>
<path d="M0 0 C0.66 0.33 1.32 0.66 2 1 C2.59355614 3.64860427 2.74209269 6.29197322 3 9 C1.35 7.35 -0.3 5.7 -2 4 C-1.34 2.68 -0.68 1.36 0 0 Z " fill="#2550AD" transform="translate(105,120)"/>
<path d="M0 0 C1.32 0 2.64 0 4 0 C3.67 0.99 3.34 1.98 3 3 C2.34 3 1.68 3 1 3 C1 3.66 1 4.32 1 5 C-0.65 5.33 -2.3 5.66 -4 6 C-3.67 5.34 -3.34 4.68 -3 4 C-2.34 4 -1.68 4 -1 4 C-0.67 2.68 -0.34 1.36 0 0 Z " fill="#EBC441" transform="translate(78,118)"/>
<path d="M0 0 C2.97 0 5.94 0 9 0 C9 0.33 9 0.66 9 1 C4.71 1.99 0.42 2.98 -4 4 C-4 3.34 -4 2.68 -4 2 C-2.68 2 -1.36 2 0 2 C0 1.34 0 0.68 0 0 Z " fill="#6795FE" transform="translate(128,68)"/>
<path d="M0 0 C2.31 0 4.62 0 7 0 C6.34 1.65 5.68 3.3 5 5 C2.5 3.625 2.5 3.625 0 2 C0 1.34 0 0.68 0 0 Z " fill="#932C41" transform="translate(131,35)"/>
<path d="M0 0 C0.99 0.66 1.98 1.32 3 2 C-0.465 3.485 -0.465 3.485 -4 5 C-4 4.34 -4 3.68 -4 3 C-5.65 3 -7.3 3 -9 3 C-9 2.67 -9 2.34 -9 2 C-6.94921875 1.77213542 -4.8984375 1.54427083 -2.84765625 1.31640625 C-0.98859771 1.18113386 -0.98859771 1.18113386 0 0 Z " fill="#DB3061" transform="translate(154,23)"/>
<path d="M0 0 C2.31 0.33 4.62 0.66 7 1 C7 1.66 7 2.32 7 3 C7.99 3.33 8.98 3.66 10 4 C9.01 4.495 9.01 4.495 8 5 C1.25806452 2.51612903 1.25806452 2.51612903 0 0 Z " fill="#FDF9A3" transform="translate(77,102)"/>
<path d="M0 0 C0.99 0.33 1.98 0.66 3 1 C1.90716423 2.03295436 0.80029421 3.05107835 -0.3125 4.0625 C-0.92738281 4.63097656 -1.54226562 5.19945313 -2.17578125 5.78515625 C-2.77777344 6.18605469 -3.37976563 6.58695312 -4 7 C-4.99 6.67 -5.98 6.34 -7 6 C-5.90716423 4.96704564 -4.80029421 3.94892165 -3.6875 2.9375 C-3.07261719 2.36902344 -2.45773438 1.80054687 -1.82421875 1.21484375 C-0.92123047 0.61349609 -0.92123047 0.61349609 0 0 Z " fill="#D289F5" transform="translate(73,103)"/>
<path d="M0 0 C0.33 0.99 0.66 1.98 1 3 C1.99 3.33 2.98 3.66 4 4 C3.01 4.99 2.02 5.98 1 7 C0.67 6.34 0.34 5.68 0 5 C-0.99 4.34 -1.98 3.68 -3 3 C-2.01 2.01 -1.02 1.02 0 0 Z " fill="#F6C63D" transform="translate(107,96)"/>
<path d="M0 0 C0.99 0.33 1.98 0.66 3 1 C1.71076872 4.86769385 0.38797758 5.74134828 -3 8 C-2.45276317 4.62537285 -1.9451 2.91765 0 0 Z " fill="#DAA732" transform="translate(33,93)"/>
<path d="M0 0 C-3.51009579 1.96565364 -7.09618518 3.06019273 -11 4 C-11.66 3.67 -12.32 3.34 -13 3 C-13 2.34 -13 1.68 -13 1 C-8.62426048 0.40667939 -4.42471556 -0.13827236 0 0 Z " fill="#3D50AF" transform="translate(127,74)"/>
<path d="M0 0 C0.66 0.33 1.32 0.66 2 1 C1.67 2.65 1.34 4.3 1 6 C0.34 6 -0.32 6 -1 6 C-1.33 6.99 -1.66 7.98 -2 9 C-2.125 5.625 -2.125 5.625 -2 2 C-1.34 1.34 -0.68 0.68 0 0 Z " fill="#AC7C32" transform="translate(35,48)"/>
<path d="M0 0 C2.475 0.99 2.475 0.99 5 2 C3.68 3.32 2.36 4.64 1 6 C0.34 5.01 -0.32 4.02 -1 3 C-0.67 2.01 -0.34 1.02 0 0 Z " fill="#E5B944" transform="translate(8,151)"/>
<path d="M0 0 C2 1.75 2 1.75 4 4 C4 5.32 4 6.64 4 8 C3.01 7.67 2.02 7.34 1 7 C0.4375 5.0625 0.4375 5.0625 0 3 C-0.66 2.34 -1.32 1.68 -2 1 C-1.34 0.67 -0.68 0.34 0 0 Z " fill="#FA9FD4" transform="translate(145,136)"/>
<path d="M0 0 C-0.33 1.32 -0.66 2.64 -1 4 C-2.98 4.33 -4.96 4.66 -7 5 C-2.25 0 -2.25 0 0 0 Z " fill="#C8992F" transform="translate(66,129)"/>
<path d="M0 0 C-0.625 1.9375 -0.625 1.9375 -2 4 C-5.125 4.75 -5.125 4.75 -8 5 C-3.16129032 0 -3.16129032 0 0 0 Z " fill="#D19E2D" transform="translate(74,124)"/>
<path d="M0 0 C0.66 0.33 1.32 0.66 2 1 C0.02 5.455 0.02 5.455 -2 10 C-2.66 9.67 -3.32 9.34 -4 9 C-4 8.01 -4 7.02 -4 6 C-3.34 6 -2.68 6 -2 6 C-1.855625 5.195625 -1.71125 4.39125 -1.5625 3.5625 C-1 1 -1 1 0 0 Z " fill="#CDB347" transform="translate(23,87)"/>
<path d="M0 0 C3.76488042 1.72154788 6.15063897 3.99234114 9 7 C6 7 6 7 4.39453125 5.46875 C3.87246094 4.8190625 3.35039063 4.169375 2.8125 3.5 C2.28269531 2.8503125 1.75289062 2.200625 1.20703125 1.53125 C0.80871094 1.0259375 0.41039062 0.520625 0 0 Z " fill="#EAD081" transform="translate(59,87)"/>
<path d="M0 0 C2.4375 0.375 2.4375 0.375 5 1 C5.33 1.66 5.66 2.32 6 3 C5.01 3.33 4.02 3.66 3 4 C2.67 4.99 2.34 5.98 2 7 C0.5393715 4.35261084 0 3.10551666 0 0 Z " fill="#FAC236" transform="translate(81,50)"/>
<path d="M0 0 C2.97 0.495 2.97 0.495 6 1 C6 1.66 6 2.32 6 3 C3.69 3.33 1.38 3.66 -1 4 C-0.67 2.68 -0.34 1.36 0 0 Z " fill="#FE356A" transform="translate(106,34)"/>
<path d="M0 0 C1.32 0.33 2.64 0.66 4 1 C2.25 5.875 2.25 5.875 0 7 C0 4.69 0 2.38 0 0 Z " fill="#E15B83" transform="translate(127,11)"/>
<path d="M0 0 C1.32 0 2.64 0 4 0 C3.67 1.98 3.34 3.96 3 6 C1.5 4.6875 1.5 4.6875 0 3 C0 2.01 0 1.02 0 0 Z " fill="#D9760C" transform="translate(45,30)"/>
<path d="M0 0 C0.3403125 0.9590625 0.3403125 0.9590625 0.6875 1.9375 C1.85250896 4.27193661 1.85250896 4.27193661 4.625 4.75 C5.40875 4.8325 6.1925 4.915 7 5 C7 5.33 7 5.66 7 6 C4.36 6 1.72 6 -1 6 C-1.042721 4.33388095 -1.04063832 2.66617115 -1 1 C-0.67 0.67 -0.34 0.34 0 0 Z " fill="#1E51AE" transform="translate(7,12)"/>
<path d="M0 0 C1.98 0 3.96 0 6 0 C6 1.98 6 3.96 6 6 C5.67 5.34 5.34 4.68 5 4 C3.35636866 3.27840576 1.68949614 2.60648579 0 2 C0 1.34 0 0.68 0 0 Z " fill="#FE5387" transform="translate(152,15)"/>
<path d="M0 0 C0.99 0 1.98 0 3 0 C3 2 3 2 1 4.125 C0.34 4.74375 -0.32 5.3625 -1 6 C-1.99 5.67 -2.98 5.34 -4 5 C-2.1875 2.5 -2.1875 2.5 0 0 Z " fill="#FC93C4" transform="translate(51,14)"/>
<path d="M0 0 C0.33 0 0.66 0 1 0 C1 2.31 1 4.62 1 7 C-0.32 7.33 -1.64 7.66 -3 8 C-3.33 7.01 -3.66 6.02 -4 5 C-2.68 5 -1.36 5 0 5 C0 3.35 0 1.7 0 0 Z " fill="#FF6E9F" transform="translate(156,8)"/>
<path d="M0 0 C1 3 1 3 0 6 C-2.86724686 5.42655063 -3.8614515 5.1385485 -6 3 C-5.01 2.67 -4.02 2.34 -3 2 C-2.67 2.33 -2.34 2.66 -2 3 C-1.34 2.01 -0.68 1.02 0 0 Z " fill="#B52D4B" transform="translate(16,84)"/>
<path d="M0 0 C1.32 0.33 2.64 0.66 4 1 C4.6875 2.8125 4.6875 2.8125 5 5 C3.5625 6.75 3.5625 6.75 2 8 C1 6 1 6 1.5625 4 C1.706875 3.34 1.85125 2.68 2 2 C1.34 1.34 0.68 0.68 0 0 Z " fill="#204BA7" transform="translate(26,44)"/>
<path d="M0 0 C1 3 1 3 0.22265625 5.04296875 C-0.16019531 5.75066406 -0.54304688 6.45835938 -0.9375 7.1875 C-1.31777344 7.90292969 -1.69804688 8.61835937 -2.08984375 9.35546875 C-2.54037109 10.16951172 -2.54037109 10.16951172 -3 11 C-4.3968009 6.80959731 -2.86445675 4.87233324 -1 1 C-0.67 0.67 -0.34 0.34 0 0 Z " fill="#CCAB3D" transform="translate(43,36)"/>
</svg>
