<?xml version="1.0" encoding="UTF-8"?>
<svg version="1.1" xmlns="http://www.w3.org/2000/svg" width="160" height="160">
<path d="M0 0 C35.64 0 71.28 0 108 0 C108 52.47 108 104.94 108 159 C72.36 159 36.72 159 0 159 C0 106.53 0 54.06 0 0 Z " fill="#D82E2E" transform="translate(26,1)"/>
<path d="M0 0 C35.64 0 71.28 0 108 0 C108 14.97991968 108 14.97991968 104 22 C103.67 22.66 103.34 23.32 103 24 C102.34 24 101.68 24 101 24 C100.79375 24.680625 100.5875 25.36125 100.375 26.0625 C97.93267049 31.28020396 94.23755459 35.18714081 89.5625 38.5 C88.716875 39.325 87.87125 40.15 87 41 C87.29288233 44.29078778 87.29288233 44.29078778 88 48 C88.77030661 60.3880457 88.0541552 69.39791179 80 79.25 C73.71019983 85.87358724 65.2946423 90.47971114 56.1171875 91.23828125 C45.34099842 91.4849651 38.53420714 89.75508706 30.625 82.25 C26.75937505 78.12989818 23.98964026 74.27486023 22 69 C21.5875 68.0925 21.175 67.185 20.75 66.25 C18.7237231 57.46946678 19.8953908 49.35287713 23 41 C22.38769531 40.7009375 21.77539062 40.401875 21.14453125 40.09375 C15.28449873 37.10502667 12.21206735 32.70141355 8.6484375 27.33984375 C7.10995614 25.01364516 7.10995614 25.01364516 5.3203125 23.32421875 C4 22 4 22 3.5 19.875 C3.335 19.25625 3.17 18.6375 3 18 C2.01 17.67 1.02 17.34 0 17 C0 11.39 0 5.78 0 0 Z " fill="#8D0906" transform="translate(26,1)"/>
<path d="M0 0 C34.65 0 69.3 0 105 0 C105 14.5255162 98.73073546 25.56725286 88.5 35.8125 C87.012473 37.2216182 85.51711244 38.62278522 84 40 C80.91787148 38.97262383 79.84448441 37.88331554 77.66015625 35.60546875 C68.43697969 26.68611448 62.0931761 24.51967379 49.55493164 24.3293457 C41.5157973 24.48388121 37.35566887 26.08801755 31.33984375 31.54296875 C30.18162109 32.75919922 30.18162109 32.75919922 29 34 C24.20130838 38.98701236 24.20130838 38.98701236 22.0625 39.125 C14.6776194 35.09688331 11.20258167 29.08231681 7 22 C6.48179688 21.17371094 5.96359375 20.34742187 5.4296875 19.49609375 C3.94477921 16.90358994 2.84926894 14.36296782 1.8125 11.5625 C1.46832031 10.65628906 1.12414062 9.75007812 0.76953125 8.81640625 C0 6 0 6 0 0 Z " fill="#E83232" transform="translate(27,1)"/>
<path d="M0 0 C2.12932581 3.19398872 2.21365943 3.87217358 2.0625 7.5 C1.94816757 10.48258506 2.03516907 12.10550722 3 15 C3.08447367 17.14107827 3.10723443 19.28476762 3.09765625 21.42749023 C3.09546585 22.39874344 3.09546585 22.39874344 3.0932312 23.38961792 C3.08942892 24.79410503 3.08331624 26.19858735 3.07516479 27.60305595 C3.062397 29.8265313 3.05588436 32.04994696 3.05102539 34.27345276 C3.03765562 39.79618402 3.01346017 45.31885854 2.98962402 50.84155273 C2.96989094 55.50806928 2.95425038 60.1745647 2.94406128 64.84111214 C2.93758372 67.03029803 2.92507492 69.21939686 2.91235352 71.40855408 C2.90872015 72.75340703 2.90536852 74.09826078 2.90234375 75.44311523 C2.89710693 76.61543198 2.89187012 77.78774872 2.88647461 78.99559021 C2.90441486 82.20056327 2.90441486 82.20056327 4 86 C37 86 70 86 104 86 C105.58296035 75.00768692 105.58296035 75.00768692 107 64 C107.33 64 107.66 64 108 64 C108 72.91 108 81.82 108 91 C72.36 91 36.72 91 0 91 C0 60.97 0 30.94 0 0 Z " fill="#7C1C1D" transform="translate(26,69)"/>
<path d="M0 0 C2.9375 1.5625 2.9375 1.5625 5 4 C5.71844473 9.86137085 4.13188847 13.32053314 0.75 17.9375 C0.35425781 18.52595703 -0.04148437 19.11441406 -0.44921875 19.72070312 C-1.640625 21.40234375 -1.640625 21.40234375 -4 24 C-5.32 24 -6.64 24 -8 24 C-8.33 23.34 -8.66 22.68 -9 22 C-9.9075 22.33 -10.815 22.66 -11.75 23 C-15 24 -15 24 -19 24 C-22.96412508 17.65739988 -25.48017541 11.68280654 -25 4 C-23 4 -23 4 -21.4375 5.5 C-20.00527583 7.99082464 -19.72490805 9.27566835 -19.4375 12.0625 C-19.29990107 16.04785655 -19.29990107 16.04785655 -17 19 C-16.01 18.67 -15.02 18.34 -14 18 C-13.26676204 15.98491642 -13.26676204 15.98491642 -13 14 C-14.32 13.67 -15.64 13.34 -17 13 C-16.34 12.566875 -15.68 12.13375 -15 11.6875 C-14.01 10.8521875 -14.01 10.8521875 -13 10 C-13 9.01 -13 8.02 -13 7 C-15.64 6.67 -18.28 6.34 -21 6 C-21 5.67 -21 5.34 -21 5 C-20.40832031 4.80664062 -19.81664063 4.61328125 -19.20703125 4.4140625 C-18.41683594 4.15367188 -17.62664062 3.89328125 -16.8125 3.625 C-15.57306641 3.21701172 -15.57306641 3.21701172 -14.30859375 2.80078125 C-11.9173865 2.01049422 -11.9173865 2.01049422 -9.375 0.8125 C-6.05680108 -0.32267332 -3.48278632 -0.37315568 0 0 Z " fill="#EFCD6B" transform="translate(97,58)"/>
<path d="M0 0 C2.12932581 3.19398872 2.21365943 3.87217358 2.0625 7.5 C1.94816757 10.48258506 2.03516907 12.10550722 3 15 C3.08447367 17.14107827 3.10723443 19.28476762 3.09765625 21.42749023 C3.09546585 22.39874344 3.09546585 22.39874344 3.0932312 23.38961792 C3.08942892 24.79410503 3.08331624 26.19858735 3.07516479 27.60305595 C3.062397 29.8265313 3.05588436 32.04994696 3.05102539 34.27345276 C3.03765562 39.79618402 3.01346017 45.31885854 2.98962402 50.84155273 C2.96989094 55.50806928 2.95425038 60.1745647 2.94406128 64.84111214 C2.93758372 67.03029803 2.92507492 69.21939686 2.91235352 71.40855408 C2.90872015 72.75340703 2.90536852 74.09826078 2.90234375 75.44311523 C2.89710693 76.61543198 2.89187012 77.78774872 2.88647461 78.99559021 C2.98224035 81.52999701 3.25222841 83.59240559 4 86 C4.80971756 85.99777939 5.61943512 85.99555878 6.45368958 85.99327087 C14.17374616 85.97303521 21.89378945 85.95790924 29.61386585 85.94818783 C33.58056097 85.9430216 37.54723375 85.93604139 41.51391602 85.92456055 C75.2208841 85.82946594 75.2208841 85.82946594 91 87 C91 87.33 91 87.66 91 88 C60.97 88 30.94 88 0 88 C0 58.96 0 29.92 0 0 Z " fill="#A91717" transform="translate(26,69)"/>
<path d="M0 0 C0.33 1.32 0.66 2.64 1 4 C-0.8871875 4.3403125 -0.8871875 4.3403125 -2.8125 4.6875 C-6.17351568 5.50247194 -6.80358323 5.742203 -9 8.625 C-9.33 9.40875 -9.66 10.1925 -10 11 C-9.67 11.33 -9.34 11.66 -9 12 C-8.46375 11.505 -7.9275 11.01 -7.375 10.5 C-4.36278626 8.59754922 -2.50337981 8.61919785 1 9 C3 11 3 11 3.0625 13.75 C1.5804589 18.28330219 -0.84087084 20.69819187 -5 23 C-7.97929379 23.6108624 -9.91164675 23.41875976 -13 23 C-15 21 -15 21 -15.3125 17.1875 C-15.23655163 13.39698569 -14.30623182 11.07497576 -12 8 C-13.4540625 7.5978125 -13.4540625 7.5978125 -14.9375 7.1875 C-15.948125 6.795625 -16.95875 6.40375 -18 6 C-18.33 5.01 -18.66 4.02 -19 3 C-18.15695313 2.86722656 -17.31390625 2.73445313 -16.4453125 2.59765625 C-15.34960938 2.42105469 -14.25390625 2.24445312 -13.125 2.0625 C-11.48917969 1.80146484 -11.48917969 1.80146484 -9.8203125 1.53515625 C-1.51923077 -0.03997976 -1.51923077 -0.03997976 0 0 Z " fill="#F3E487" transform="translate(94,33)"/>
<path d="M0 0 C0 1.65 0 3.3 0 5 C0.99 5 1.98 5 3 5 C2.35546875 5.62261719 1.7109375 6.24523438 1.046875 6.88671875 C-1.77554545 11.17959871 -1.66741957 14.77884744 -1.75 19.8125 C-1.77964844 20.69615234 -1.80929688 21.57980469 -1.83984375 22.49023438 C-1.9102039 24.65967218 -1.95740607 26.82983948 -2 29 C-2.99 28.67 -3.98 28.34 -5 28 C-5.73046875 25.93359375 -5.73046875 25.93359375 -6.1875 23.4375 C-6.34605469 22.61121094 -6.50460938 21.78492187 -6.66796875 20.93359375 C-6.77753906 20.29550781 -6.88710937 19.65742187 -7 19 C-7.66 19.99 -8.32 20.98 -9 22 C-10.32 21.67 -11.64 21.34 -13 21 C-13 19.68 -13 18.36 -13 17 C-12.030625 16.195625 -11.06125 15.39125 -10.0625 14.5625 C-6.82120767 12.32045346 -6.82120767 12.32045346 -6.125 9.1875 C-6.08375 8.465625 -6.0425 7.74375 -6 7 C-8.64 7 -11.28 7 -14 7 C-14.66 5.68 -15.32 4.36 -16 3 C-14.783125 2.71125 -13.56625 2.4225 -12.3125 2.125 C-9.78800088 1.50502583 -7.59438794 0.82874157 -5.1875 -0.1875 C-3 -1 -3 -1 0 0 Z " fill="#F4DE84" transform="translate(71,48)"/>
<path d="M0 0 C0.99 0.66 1.98 1.32 3 2 C5.15274948 1.69159401 5.15274948 1.69159401 7 1 C7.51062136 6.89467308 6.16069592 10.2812051 2.75 14.9375 C2.35425781 15.52595703 1.95851563 16.11441406 1.55078125 16.72070312 C0.359375 18.40234375 0.359375 18.40234375 -2 21 C-3.32 21 -4.64 21 -6 21 C-6.33 20.34 -6.66 19.68 -7 19 C-9.01669827 17.86649466 -9.01669827 17.86649466 -11 17 C-10.360625 16.79375 -9.72125 16.5875 -9.0625 16.375 C-6.6491645 15.11582828 -6.6491645 15.11582828 -6.375 11.9375 C-6.189375 10.4834375 -6.189375 10.4834375 -6 9 C-5.34 8.67 -4.68 8.34 -4 8 C-3.67 7.01 -3.34 6.02 -3 5 C-4.2065625 4.814375 -4.2065625 4.814375 -5.4375 4.625 C-6.283125 4.41875 -7.12875 4.2125 -8 4 C-8.33 3.34 -8.66 2.68 -9 2 C-5.87350101 0.14725986 -3.62683775 -0.37198336 0 0 Z " fill="#E1B956" transform="translate(95,61)"/>
<path d="M0 0 C0.33 0 0.66 0 1 0 C1.0232109 10.81406956 1.04095963 21.62813316 1.05181217 32.4422226 C1.05702188 37.46409487 1.06408472 42.48595006 1.07543945 47.5078125 C1.08633639 52.35777453 1.09229124 57.20772015 1.09487724 62.05769348 C1.09671924 63.90436562 1.10031616 65.7510369 1.10573006 67.59770203 C1.11303088 70.19210726 1.11398714 72.78644545 1.11352539 75.38085938 C1.11712067 76.1375592 1.12071594 76.89425903 1.12442017 77.67388916 C1.11511825 82.53091908 0.68492861 87.19025459 0 92 C-0.33 92 -0.66 92 -1 92 C-1.69425209 86.47802572 -2.15176292 81.23160989 -1.5 75.6875 C-0.89432576 70.27476567 -1.28113077 65.16456149 -1.73828125 59.75 C-2.01664784 55.76146383 -2.11783175 51.80904075 -2.125 47.8125 C-2.12757813 46.58144531 -2.13015625 45.35039063 -2.1328125 44.08203125 C-2.07881299 40.99364502 -1.81042695 37.96253527 -1.4921875 34.890625 C-0.84862938 28.23536216 -0.9274325 21.617338 -1 14.9375 C-1.02540906 12.52999186 -1.04647611 10.12243265 -1.0625 7.71484375 C-1.07410156 6.66417725 -1.08570313 5.61351074 -1.09765625 4.53100586 C-1 2 -1 2 0 0 Z " fill="#B11C1C" transform="translate(133,49)"/>
<path d="M0 0 C0.33 0 0.66 0 1 0 C1 5.61 1 11.22 1 17 C-33.98 17 -68.96 17 -105 17 C-105 16.67 -105 16.34 -105 16 C-103.90134109 15.98969254 -102.80268219 15.97938507 -101.67073059 15.96876526 C-91.27041579 15.87061898 -80.87015534 15.76784979 -70.4699297 15.66066074 C-65.12425947 15.60571176 -59.77858357 15.55233971 -54.43286133 15.50268555 C-49.26512559 15.4546247 -44.09744887 15.40227264 -38.92978477 15.34705925 C-36.96724625 15.3268229 -35.00469167 15.3080815 -33.04212379 15.29092598 C-22.64205772 15.19901453 -12.36204623 14.9587537 -2 14 C-1.34 9.38 -0.68 4.76 0 0 Z " fill="#911718" transform="translate(132,141)"/>
<path d="M0 0 C0.66 0 1.32 0 2 0 C2.46469014 8.35151439 2.18124689 14.66182775 -2 22 C-2.33 22.66 -2.66 23.32 -3 24 C-3.66 24 -4.32 24 -5 24 C-5.309375 25.0209375 -5.309375 25.0209375 -5.625 26.0625 C-8.05757468 31.25936408 -11.78092793 35.1768213 -16.375 38.5625 C-19.33998789 40.78482426 -19.33998789 40.78482426 -19.375 44.3125 C-19.25125 45.199375 -19.1275 46.08625 -19 47 C-19.66 47 -20.32 47 -21 47 C-21.99 43.535 -21.99 43.535 -23 40 C-22.23816406 39.36384766 -22.23816406 39.36384766 -21.4609375 38.71484375 C-9.18317852 28.25345735 -1.47335901 16.41742893 0 0 Z " fill="#9C1616" transform="translate(132,1)"/>
<path d="M0 0 C0.33 0 0.66 0 1 0 C1.13535156 0.70382813 1.27070313 1.40765625 1.41015625 2.1328125 C4.22632837 15.05010499 10.39665421 30.49195273 22 38 C24.35190998 37.72330471 25.88687074 37.05656463 28 36 C27.03305301 38.72503243 26.42115334 39.78340685 23.8125 41.125 C20.02236161 40.9565494 18.56108031 39.55817732 15.8359375 37.0234375 C13.08455069 33.99105799 10.82463543 30.6865366 8.578125 27.26953125 C7.10144603 25.00223499 7.10144603 25.00223499 5.328125 23.33203125 C4 22 4 22 3.5 19.875 C3.335 19.25625 3.17 18.6375 3 18 C2.01 17.67 1.02 17.34 0 17 C0 11.39 0 5.78 0 0 Z " fill="#9D1717" transform="translate(26,1)"/>
<path d="M0 0 C2.12932581 3.19398872 2.21365943 3.87217358 2.0625 7.5 C1.94816757 10.48258506 2.03516907 12.10550722 3 15 C3.09590461 17.38259618 3.13074273 19.76781907 3.1328125 22.15234375 C3.13376923 22.84888565 3.13472595 23.54542755 3.13571167 24.26307678 C3.1363915 25.73487437 3.13455095 27.20667498 3.13037109 28.6784668 C3.12502809 30.92568745 3.13031853 33.1727075 3.13671875 35.41992188 C3.13605778 36.85156294 3.13477621 38.28320388 3.1328125 39.71484375 C3.13168457 41.01542725 3.13055664 42.31601074 3.12939453 43.65600586 C3.02476867 46.35989338 2.75006355 48.43832711 2 51 C1.7801777 53.24707241 1.59516013 55.49771238 1.4375 57.75 C1.35371094 58.92046875 1.26992188 60.0909375 1.18359375 61.296875 C1.12300781 62.18890625 1.06242187 63.0809375 1 64 C0.67 64 0.34 64 0 64 C0 42.88 0 21.76 0 0 Z " fill="#B31E1E" transform="translate(26,69)"/>
<path d="M0 0 C0.33 0 0.66 0 1 0 C1.63079873 9.77738032 -0.72984807 16.65981608 -7 24.25 C-13.30390729 30.888443 -21.84736506 35.66595543 -31.09375 36.16796875 C-32.2178125 36.17441406 -33.341875 36.18085937 -34.5 36.1875 C-35.6240625 36.20167969 -36.748125 36.21585938 -37.90625 36.23046875 C-40.86976056 36.00970218 -42.5067415 35.5460647 -45 34 C-45 33.34 -45 32.68 -45 32 C-44.05125 32.165 -43.1025 32.33 -42.125 32.5 C-30.73639161 34.06134147 -21.53889695 32.54930165 -12.0703125 25.76953125 C-4.11617413 18.97099412 -2.18964403 9.77611658 0 0 Z " fill="#710D0D" transform="translate(113,56)"/>
<path d="M0 0 C0.66 0.33 1.32 0.66 2 1 C2 6.61 2 12.22 2 18 C1.01 17.67 0.02 17.34 -1 17 C-1.73046875 14.93359375 -1.73046875 14.93359375 -2.1875 12.4375 C-2.34605469 11.61121094 -2.50460938 10.78492187 -2.66796875 9.93359375 C-2.77753906 9.29550781 -2.88710937 8.65742187 -3 8 C-3.99 9.485 -3.99 9.485 -5 11 C-6.32 10.67 -7.64 10.34 -9 10 C-9 8.68 -9 7.36 -9 6 C-7.5390625 4.55078125 -7.5390625 4.55078125 -5.625 3.3125 C-4.68527344 2.68794922 -4.68527344 2.68794922 -3.7265625 2.05078125 C-2 1 -2 1 0 0 Z " fill="#F5D872" transform="translate(67,59)"/>
<path d="M0 0 C2 0 2 0 3.5625 1.5 C4.99472417 3.99082464 5.27509195 5.27566835 5.5625 8.0625 C5.70009893 12.04785655 5.70009893 12.04785655 8 15 C8.99 14.67 9.98 14.34 11 14 C11.73323796 11.98491642 11.73323796 11.98491642 12 10 C11.01 9.67 10.02 9.34 9 9 C10.32 9 11.64 9 13 9 C13 9.99 13 10.98 13 12 C13.99 12 14.98 12 16 12 C16.33 12.99 16.66 13.98 17 15 C15.68 15.33 14.36 15.66 13 16 C13.33 16.66 13.66 17.32 14 18 C10.91190305 19.76462683 9.76687864 20 6 20 C2.03587492 13.65739988 -0.48017541 7.68280654 0 0 Z " fill="#DEB457" transform="translate(72,62)"/>
<path d="M0 0 C3.3 0.33 6.6 0.66 10 1 C10.33 2.32 10.66 3.64 11 5 C9.68 5.99 8.36 6.98 7 8 C7.99 8.33 8.98 8.66 10 9 C9.67 10.65 9.34 12.3 9 14 C7.68 14 6.36 14 5 14 C2.766053 10.6490795 2.63725761 8.81180044 2.34375 4.9375 C2.0769429 2.68119395 2.0769429 2.68119395 0 0 Z " fill="#9E2613" transform="translate(74,63)"/>
<path d="M0 0 C0.33 1.32 0.66 2.64 1 4 C0.43410156 4.12117188 -0.13179687 4.24234375 -0.71484375 4.3671875 C-1.44832031 4.53476562 -2.18179688 4.70234375 -2.9375 4.875 C-3.66839844 5.03742187 -4.39929688 5.19984375 -5.15234375 5.3671875 C-7.20700294 5.82961523 -7.20700294 5.82961523 -8 8 C-9.45947705 7.93993922 -10.91779272 7.8511311 -12.375 7.75 C-13.18710938 7.70359375 -13.99921875 7.6571875 -14.8359375 7.609375 C-17 7 -17 7 -18.2890625 4.953125 C-18.52367188 4.30859375 -18.75828125 3.6640625 -19 3 C-18.15695313 2.86722656 -17.31390625 2.73445313 -16.4453125 2.59765625 C-15.34960938 2.42105469 -14.25390625 2.24445312 -13.125 2.0625 C-11.48917969 1.80146484 -11.48917969 1.80146484 -9.8203125 1.53515625 C-1.51923077 -0.03997976 -1.51923077 -0.03997976 0 0 Z " fill="#F3E68F" transform="translate(94,33)"/>
<path d="M0 0 C1 1 1 1 1.4375 4.125 C0.87417368 9.11446168 -1.21709888 11.77571381 -5 15 C-5.66 15 -6.32 15 -7 15 C-6.625 12.0625 -6.625 12.0625 -6 9 C-5.34 8.67 -4.68 8.34 -4 8 C-3.67 7.01 -3.34 6.02 -3 5 C-4.2065625 4.814375 -4.2065625 4.814375 -5.4375 4.625 C-6.283125 4.41875 -7.12875 4.2125 -8 4 C-8.33 3.34 -8.66 2.68 -9 2 C-5.87703962 0.14935681 -3.62059232 -0.29356154 0 0 Z " fill="#951208" transform="translate(95,61)"/>
<path d="M0 0 C0.33 0 0.66 0 1 0 C1 16.17 1 32.34 1 49 C0.67 49 0.34 49 0 49 C0 46.69 0 44.38 0 42 C-0.66 42 -1.32 42 -2 42 C-1.9278125 41.22615967 -1.855625 40.45231934 -1.78125 39.6550293 C-1.06652208 31.34941934 -0.90818611 23.14461047 -1 14.8125 C-1.02540435 12.42322131 -1.04647299 10.03389124 -1.0625 7.64453125 C-1.07410156 6.60659424 -1.08570313 5.56865723 -1.09765625 4.49926758 C-1 2 -1 2 0 0 Z " fill="#C12626" transform="translate(133,49)"/>
<path d="M0 0 C0.33 0 0.66 0 1 0 C1.14695313 0.76183594 1.29390625 1.52367187 1.4453125 2.30859375 C3.64119108 12.41720723 6.77820138 19.00534411 15.375 25 C16.24898437 25.556875 17.12296875 26.11375 18.0234375 26.6875 C18.67570312 27.120625 19.32796875 27.55375 20 28 C20 28.33 20 28.66 20 29 C16.54144579 29.44546673 15.30156788 29.22675674 12.46484375 27.09375 C0.3167527 14.62646645 0.3167527 14.62646645 -0.09765625 5.95703125 C-0.06510417 3.97135417 -0.03255208 1.98567708 0 0 Z " fill="#700C0C" transform="translate(47,59)"/>
<path d="M0 0 C0.66 0 1.32 0 2 0 C4.96554559 3.07538061 5.43802011 5.55873777 5.6875 9.75 C5.78611328 11.22726563 5.78611328 11.22726563 5.88671875 12.734375 C5.92410156 13.48203125 5.96148437 14.2296875 6 15 C5.01 15 4.02 15 3 15 C2.491217 13.44033782 1.99336531 11.87710759 1.5 10.3125 C1.2215625 9.44238281 0.943125 8.57226562 0.65625 7.67578125 C0.00149195 5.00608323 -0.11831495 2.73603316 0 0 Z " fill="#EAC364" transform="translate(72,62)"/>
<path d="M0 0 C2.12932581 3.19398872 2.21365943 3.87217358 2.0625 7.5 C1.94816757 10.48258506 2.03516907 12.10550722 3 15 C3.06740865 16.56118428 3.08514456 18.1250252 3.0625 19.6875 C3.05347656 20.49574219 3.04445313 21.30398437 3.03515625 22.13671875 C3.02355469 22.75160156 3.01195312 23.36648437 3 24 C2.67 24 2.34 24 2 24 C1.67 25.65 1.34 27.3 1 29 C0.67 29 0.34 29 0 29 C0 19.43 0 9.86 0 0 Z " fill="#C42626" transform="translate(26,69)"/>
<path d="M0 0 C0 0.66 0 1.32 0 2 C0.99 2 1.98 2 3 2 C2.67 3.98 2.34 5.96 2 8 C1.67 6.68 1.34 5.36 1 4 C-1.64 4 -4.28 4 -7 4 C-7.66 2.68 -8.32 1.36 -9 0 C-3.375 -1.125 -3.375 -1.125 0 0 Z " fill="#DCAF5B" transform="translate(64,51)"/>
<path d="M0 0 C-1.2491742 3.45925163 -2.67527795 6.14693203 -5 9 C-6.32 8.34 -7.64 7.68 -9 7 C-8.8125 5.1875 -8.8125 5.1875 -8 3 C-5.09303401 0.85802506 -3.64478912 0 0 0 Z " fill="#9C2514" transform="translate(92,45)"/>
<path d="M0 0 C0.66 0 1.32 0 2 0 C2.10864945 2.06132142 2.18588321 4.12431321 2.25 6.1875 C2.29640625 7.33605469 2.3428125 8.48460937 2.390625 9.66796875 C1.92924572 13.60353399 0.70028512 15.17745787 -2 18 C-3.32979529 14.01061414 -2.18256074 12.00756694 -1 8 C-0.57151199 5.33592236 -0.28265629 2.68523474 0 0 Z " fill="#931111" transform="translate(132,1)"/>
<path d="M0 0 C1.1446875 0.12375 1.1446875 0.12375 2.3125 0.25 C2.3125 0.91 2.3125 1.57 2.3125 2.25 C2.9725 2.91 3.6325 3.57 4.3125 4.25 C3.24 4.518125 2.1675 4.78625 1.0625 5.0625 C-2.25258928 6.11227827 -4.12627646 6.99612328 -6.6875 9.25 C-6.04078163 4.59362773 -5.23074478 0.48658091 0 0 Z " fill="#95110B" transform="translate(89.6875,37.75)"/>
<path d="M0 0 C0.33 0 0.66 0 1 0 C1 5.28 1 10.56 1 16 C0.01 15.67 -0.98 15.34 -2 15 C-2.3690205 4.44191344 -2.3690205 4.44191344 0 0 Z " fill="#F1D066" transform="translate(68,61)"/>
<path d="M0 0 C0.33 0 0.66 0 1 0 C1 5.28 1 10.56 1 16 C-4.28 16 -9.56 16 -15 16 C-15 15.67 -15 15.34 -15 15 C-8.565 14.505 -8.565 14.505 -2 14 C-1.34 9.38 -0.68 4.76 0 0 Z " fill="#A00E0E" transform="translate(132,141)"/>
<path d="M0 0 C1.98 0.66 3.96 1.32 6 2 C5.67 3.65 5.34 5.3 5 7 C3.68 7 2.36 7 1 7 C0.67 4.69 0.34 2.38 0 0 Z " fill="#931008" transform="translate(78,70)"/>
<path d="M0 0 C2.1875 1.9375 2.1875 1.9375 2.5 4.625 C2.3453125 5.7696875 2.3453125 5.7696875 2.1875 6.9375 C1.8575 5.9475 1.5275 4.9575 1.1875 3.9375 C0.5275 3.9375 -0.1325 3.9375 -0.8125 3.9375 C-1.1425 4.5975 -1.4725 5.2575 -1.8125 5.9375 C-2.4725 4.9475 -3.1325 3.9575 -3.8125 2.9375 C-5.86253955 1.74517387 -5.86253955 1.74517387 -7.8125 0.9375 C-4.63567222 -0.78706365 -3.45930887 -1.30685002 0 0 Z " fill="#EAC668" transform="translate(98.8125,59.0625)"/>
<path d="M0 0 C0.33 0.99 0.66 1.98 1 3 C-5.89715536 11.66520788 -5.89715536 11.66520788 -10.5 13.0625 C-11.325 13.041875 -12.15 13.02125 -13 13 C-11.43886343 11.28274978 -10.23256309 10.10293776 -8.09375 9.15625 C-5.56149511 7.75784058 -4.41640324 6.22311366 -2.75 3.875 C-1.96882813 2.78832031 -1.96882813 2.78832031 -1.171875 1.6796875 C-0.78515625 1.12539062 -0.3984375 0.57109375 0 0 Z " fill="#EECC6A" transform="translate(97,66)"/>
<path d="M0 0 C2.475 0.99 2.475 0.99 5 2 C5 3.32 5 4.64 5 6 C3.35 6.33 1.7 6.66 0 7 C0 4.69 0 2.38 0 0 Z " fill="#E6CA77" transform="translate(65,39)"/>
<path d="M0 0 C0.33 1.32 0.66 2.64 1 4 C-1.31 4.33 -3.62 4.66 -6 5 C-6.33 3.68 -6.66 2.36 -7 1 C-4.53721199 -0.231394 -2.7204945 -0.07159196 0 0 Z " fill="#E5C777" transform="translate(94,33)"/>
<path d="M0 0 C0.99 0.33 1.98 0.66 3 1 C3 1.99 3 2.98 3 4 C3.66 3.67 4.32 3.34 5 3 C5.66 3.66 6.32 4.32 7 5 C5.02 5.99 3.04 6.98 1 8 C0.01 7.01 -0.98 6.02 -2 5 C-1.34 3.35 -0.68 1.7 0 0 Z " fill="#EBD787" transform="translate(82,41)"/>
<path d="M0 0 C-0.61875 0.28875 -1.2375 0.5775 -1.875 0.875 C-4.13325765 1.93720042 -4.13325765 1.93720042 -6 4 C-8.32275177 4.40047444 -10.65739357 4.7397104 -13 5 C-13 4.34 -13 3.68 -13 3 C-8.37802694 0.78145293 -5.23175837 -0.38281159 0 0 Z " fill="#F2D982" transform="translate(96,58)"/>
<path d="M0 0 C0.66 0.33 1.32 0.66 2 1 C-3.35714286 7.78571429 -3.35714286 7.78571429 -7 9 C-6.67 7.02 -6.34 5.04 -6 3 C-5.34 3 -4.68 3 -4 3 C-3.34 2.34 -2.68 1.68 -2 1 C-1.34 0.67 -0.68 0.34 0 0 Z " fill="#EFD478" transform="translate(72,52)"/>
<path d="M0 0 C0.99 0 1.98 0 3 0 C3 3.3 3 6.6 3 10 C2.67 10 2.34 10 2 10 C1.67 7.69 1.34 5.38 1 3 C0.01 4.485 0.01 4.485 -1 6 C-1.99 5.67 -2.98 5.34 -4 5 C-2.1875 2.5 -2.1875 2.5 0 0 Z " fill="#D9A64D" transform="translate(63,64)"/>
<path d="M0 0 C0.33 0 0.66 0 1 0 C1.33951619 1.56116819 1.67132544 3.12401338 2 4.6875 C2.185625 5.55761719 2.37125 6.42773438 2.5625 7.32421875 C2.98972047 9.93712964 3.07616201 12.35813038 3 15 C2.01 14.34 1.02 13.68 0 13 C-0.29296875 9.9609375 -0.29296875 9.9609375 -0.1875 6.375 C-0.16042969 5.18648438 -0.13335938 3.99796875 -0.10546875 2.7734375 C-0.07066406 1.85820313 -0.03585938 0.94296875 0 0 Z " fill="#810D0E" transform="translate(26,1)"/>
<path d="M0 0 C0.36666667 5.5 0.36666667 5.5 -1.375 7.875 C-3 9 -3 9 -5 9 C-4.38709677 3.48387097 -4.38709677 3.48387097 -2.5 1.125 C-1 0 -1 0 0 0 Z " fill="#9A2311" transform="translate(93,67)"/>
<path d="M0 0 C-0.99 1.485 -0.99 1.485 -2 3 C-2.63292383 5.11280345 -2.63292383 5.11280345 -3 7 C-3.66 6.67 -4.32 6.34 -5 6 C-5 5.01 -5 4.02 -5 3 C-7.64 2.67 -10.28 2.34 -13 2 C-13 1.67 -13 1.34 -13 1 C-8.59085217 -0.10228696 -4.51617599 -0.07654536 0 0 Z " fill="#E3BD6A" transform="translate(89,62)"/>
<path d="M0 0 C4.78481013 0.93037975 4.78481013 0.93037975 7.125 1.6875 C9.32914667 2.27452637 9.32914667 2.27452637 12 0 C11.3125 1.9375 11.3125 1.9375 10 4 C7.6875 5.0625 7.6875 5.0625 5 5 C2.1875 2.5625 2.1875 2.5625 0 0 Z " fill="#A81919" transform="translate(42,37)"/>
<path d="M0 0 C1.07033136 3.21822604 0.95795392 5.03142433 -0.25 8.1875 C-0.62898438 9.22970703 -0.62898438 9.22970703 -1.015625 10.29296875 C-2 12 -2 12 -5 13 C-4.731875 12.34 -4.46375 11.68 -4.1875 11 C-2.74294953 7.35060933 -1.37128822 3.67754567 0 0 Z " fill="#B22121" transform="translate(113,65)"/>
<path d="M0 0 C4.20626034 1.50223584 5.73900021 4.28550034 8 8 C4.82461668 7.65978036 3.97723135 6.97533396 1.75 4.5625 C0 2 0 2 0 0 Z " fill="#931212" transform="translate(36,29)"/>
<path d="M0 0 C0 0.99 0 1.98 0 3 C-2.64 3 -5.28 3 -8 3 C-8 2.34 -8 1.68 -8 1 C-5.29120665 -0.35439668 -2.99066732 -0.06501451 0 0 Z " fill="#F5E795" transform="translate(95,42)"/>
<path d="M0 0 C0.33 0 0.66 0 1 0 C1.1875 3.375 1.1875 3.375 1 7 C0.01 7.66 -0.98 8.32 -2 9 C-2.25 3.375 -2.25 3.375 0 0 Z " fill="#C52828" transform="translate(133,14)"/>
<path d="M0 0 C0.66 0.33 1.32 0.66 2 1 C0.35 3.64 -1.3 6.28 -3 9 C-3.33 8.01 -3.66 7.02 -4 6 C-2.0625 2.8125 -2.0625 2.8125 0 0 Z " fill="#A53D20" transform="translate(87,38)"/>
<path d="M0 0 C0.33 0.99 0.66 1.98 1 3 C-0.3125 5.1875 -0.3125 5.1875 -2 7 C-2.66 7 -3.32 7 -4 7 C-4 5.68 -4 4.36 -4 3 C-2 1.25 -2 1.25 0 0 Z " fill="#E6BE63" transform="translate(62,62)"/>
</svg>
